<svg xmlns="http://www.w3.org/2000/svg" viewBox="0 0 43.37 39.02"><defs><style>.cls-1{fill:#006bb6;}</style></defs><title>Asset 9</title><g id="Layer_2" data-name="Layer 2"><g id="Layer_1-2" data-name="Layer 1"><path class="cls-1" d="M43,24.35a1.34,1.34,0,0,0-.32-.26L38.23,12.3a2.33,2.33,0,0,0-.71-4.2,3.55,3.55,0,0,0-2.11-2c-2.77-1-6.89,1.09-8.83,2.23a1.52,1.52,0,0,0-1-.34H24.22V6.59a2.54,2.54,0,0,0-.61-1.65,2.85,2.85,0,1,0-3.84,0,2.54,2.54,0,0,0-.61,1.65V8H17.74a1.52,1.52,0,0,0-.94.33c-1.93-1.13-6-3.2-8.8-2.21a3.54,3.54,0,0,0-2.1,2,2.39,2.39,0,0,0-1.81,2.28,2.35,2.35,0,0,0,1,1.94L.67,24.09a1.35,1.35,0,0,0-.32.26,1.34,1.34,0,0,0-.34,1,6.2,6.2,0,0,0,2.11,4.06,6.75,6.75,0,0,0,8.82,0,6.2,6.2,0,0,0,2.11-4.06,1.34,1.34,0,0,0-.66-1.29L7.92,12.3a2.32,2.32,0,0,0-.16-4,1.77,1.77,0,0,1,.82-.57c1.85-.66,5.29.81,7.74,2.31a1.52,1.52,0,0,0,1.42,1h1.41V31.65H16.32a2.07,2.07,0,0,0-2,2.54,2.2,2.2,0,0,0-1.42,2.06v.55A2.21,2.21,0,0,0,15.1,39H28.27a2.21,2.21,0,0,0,2.21-2.21v-.55a2.2,2.2,0,0,0-1.42-2.06,2.07,2.07,0,0,0-2-2.54H24.22V11h1.41a1.53,1.53,0,0,0,1.4-.93c1-.59,5.45-3.2,7.81-2.35a1.78,1.78,0,0,1,.8.55,2.32,2.32,0,0,0-.19,4L31,24.09a1.35,1.35,0,0,0-.32.26,1.34,1.34,0,0,0-.34,1,6.2,6.2,0,0,0,2.11,4.06,6.75,6.75,0,0,0,8.82,0,6.2,6.2,0,0,0,2.11-4.06A1.34,1.34,0,0,0,43,24.35Zm-1.46,1.3a4.87,4.87,0,0,1-9.45,0Zm-3.85-1.74V15.83l3.06,8.08Zm-4.8,0L36,15.83v8.08ZM28.74,36.26v.55a.47.47,0,0,1-.47.47H15.1a.47.47,0,0,1-.47-.47v-.55a.47.47,0,0,1,.47-.47H28.27A.47.47,0,0,1,28.74,36.26ZM21.68,1.74a1.1,1.1,0,1,1-1.1,1.1A1.11,1.11,0,0,1,21.68,1.74Zm-.8,4.85a.8.8,0,1,1,1.59,0V8H20.89ZM22.48,11V31.65H20.89V11Zm4.57,23H16.32a.33.33,0,0,1,0-.66H27a.33.33,0,0,1,0,.66Zm-15.8-8.4a4.73,4.73,0,0,1-4.72,3.69A4.72,4.72,0,0,1,1.8,25.65ZM7.4,23.91V15.83l3.06,8.08Zm-4.8,0,3.06-8.08v8.08Z"/></g></g></svg>