<svg xmlns="http://www.w3.org/2000/svg" viewBox="0 0 31.93 41.63"><defs><style>.cls-1{fill:#006bb6;}</style></defs><title>Asset 8</title><g id="Layer_2" data-name="Layer 2"><g id="Layer_1-2" data-name="Layer 1"><path class="cls-1" d="M3.08,27.44l-.31-.18c-.34,0-.72-.31-1.23-.73l-.12-.1L1,26l-1-.84,1.22-.37a1.41,1.41,0,0,0,.4-.2,4.59,4.59,0,0,0,.93-.93,5.28,5.28,0,0,0,1.23-2.56,13.14,13.14,0,0,0,0-3A11.47,11.47,0,0,1,4,13.94a5.73,5.73,0,0,1,1.11-2.17,4.28,4.28,0,0,1,1-.87,3.32,3.32,0,0,1,.59-.29l.52,1.32a2,2,0,0,0-.34.16,2.92,2.92,0,0,0-.64.59,4.3,4.3,0,0,0-.83,1.65,10.23,10.23,0,0,0-.15,3.72,14.4,14.4,0,0,1,0,3.29,6.7,6.7,0,0,1-1.52,3.24,6.49,6.49,0,0,1-1,1,3.09,3.09,0,0,0,.35.26h.06A20,20,0,0,1,11,24.69c2.69,0,5.43,0,8.08.09l4.24.07h.23a15.83,15.83,0,0,1,5.88.8,6.27,6.27,0,0,1-1.27-1.36,6.55,6.55,0,0,1-1.37-3.44,15.1,15.1,0,0,1,.08-2.57c0-.33.06-.66.08-1a8.35,8.35,0,0,0-.39-3.39,3.86,3.86,0,0,0-.86-1.4A2,2,0,0,0,25,12l.54-1.32a3.41,3.41,0,0,1,1.15.83,5.32,5.32,0,0,1,1.17,1.91,9.71,9.71,0,0,1,.47,4c0,.34-.05.68-.08,1a13.75,13.75,0,0,0-.08,2.33,5.12,5.12,0,0,0,1.09,2.72,3.37,3.37,0,0,0,1.57,1.37l1.1.33-.78.84-.4.42-.09.09a4,4,0,0,1-.72.64l-.34.2-.35-.18c-1.64-.84-3.74-.86-5.77-.88h-.24L19,26.2c-2.64-.05-5.36-.11-8-.09a18.28,18.28,0,0,0-7.55,1.18Zm0-1.55H3Zm-.12,0h0Z"/><path class="cls-1" d="M27,36.58a1.91,1.91,0,0,1-.42-1c0-.25.22-.47.29-.7a.26.26,0,0,0,.07-.38,2.12,2.12,0,0,0-.51-.52,1.26,1.26,0,0,0-.93-.09,2.26,2.26,0,0,1-.95-.09c-.1,0-.31-.14-.44-.1a2.08,2.08,0,0,0-.56.15,2.66,2.66,0,0,1-1,0,1.25,1.25,0,0,0-1.25.64.26.26,0,0,0,.08.38,4.39,4.39,0,0,1,.29.65,1.68,1.68,0,0,1-.39,1,1.49,1.49,0,0,0,0,1.78,4.63,4.63,0,0,0,1.28.76c.43.21.89.39,1.31.62a.4.4,0,0,0,.39,0c.4-.23.85-.4,1.27-.6A4.74,4.74,0,0,0,27,38.32,1.47,1.47,0,0,0,27,36.58Zm-.53,1.19c-.14.33-.78.57-1.14.74s-.79.35-1.17.55c-.37-.19-.76-.35-1.13-.53s-1-.42-1.17-.76a1.08,1.08,0,0,1,.2-1,2.43,2.43,0,0,0,.44-1,1.38,1.38,0,0,0-.34-1.09l-.08-.08.1-.1c.17-.15.31-.1.52-.08a2.91,2.91,0,0,0,.95,0,1,1,0,0,0,.5-.23,1.52,1.52,0,0,0,.65.26,3,3,0,0,0,.85,0c.21,0,.31-.05.48.08l.1.1-.05.06a1.39,1.39,0,0,0-.37,1.06,2.4,2.4,0,0,0,.45,1A1.08,1.08,0,0,1,26.5,37.77Z"/><path class="cls-1" d="M26.54,9.89h-21l-4-4.11L13.21,0h5.64L30.59,5.79ZM6.11,8.47H25.95l2.25-2.28L18.52,1.42h-5L3.87,6.19Z"/><path class="cls-1" d="M26.52,13.2h-21V8.47h21ZM7,11.78H25.1V9.89H7Z"/><path class="cls-1" d="M16,16.5c-4.27,0-7.9-1.49-9-3.69l-.52-1H25.57l-.52,1C23.93,15,20.3,16.5,16,16.5ZM9.18,13.2A11.36,11.36,0,0,0,16,15.08a11.36,11.36,0,0,0,6.85-1.89Z"/><path class="cls-1" d="M16,25.59c-4.59,0-8.56-5.35-9.67-13l-.12-.81H25.82l-.12.81C24.59,20.25,20.62,25.59,16,25.59ZM7.9,13.2c1.14,6.5,4.42,11,8.13,11s7-4.47,8.13-11Z"/><path class="cls-1" d="M31.34,41.63H29.92v-10c0-2.77-3-5-6.59-5H8.73c-3.63,0-6.59,2.26-6.59,5v10H.72v-10c0-3.56,3.59-6.45,8-6.45h14.6c4.42,0,8,2.89,8,6.45Z"/><path class="cls-1" d="M8.92,32.1a1.14,1.14,0,0,1-.72-.25c-.63-.5-1-1.55.71-5.84l1.32.52a11.72,11.72,0,0,0-1.12,4.08l.06,0,6.12-4.86.88,1.11L10,31.72A2,2,0,0,1,8.92,32.1Z"/><path class="cls-1" d="M23.13,32.11a1.91,1.91,0,0,1-1-.35l-6.2-4.91.88-1.11,6.16,4.89h0c0-.38-.09-1.44-1.12-4.08L23.15,26c1.69,4.29,1.34,5.34.71,5.84A1.15,1.15,0,0,1,23.13,32.11Z"/><rect class="cls-1" x="15.32" y="26.28" width="1.42" height="14.77"/></g></g></svg>