<svg xmlns="http://www.w3.org/2000/svg" viewBox="0 0 58.17 37.1"><defs><style>.cls-1{fill:#006bb6;}</style></defs><title>Asset 12</title><g id="Layer_2" data-name="Layer 2"><g id="Layer_1-2" data-name="Layer 1"><path class="cls-1" d="M14.34,37.1H8.74V33.62h-4V28h4V26.77A11.54,11.54,0,0,1,11.54,4a11.4,11.4,0,0,1,8.32,3.56l.63.66-.74.53a8.36,8.36,0,0,0-2.44,2.76l-.55,1L16,11.67a5.94,5.94,0,1,0,0,7.79l.75-.86.55,1a8.37,8.37,0,0,0,2.44,2.75l.74.53-.63.66a11.38,11.38,0,0,1-5.54,3.23V28h4v5.6h-4Zm-4-1.59h2.42V32h4V29.61h-4V25.47l.65-.12a9.79,9.79,0,0,0,4.7-2.3,10,10,0,0,1-1.62-1.81,7.53,7.53,0,1,1,0-11.36,10,10,0,0,1,1.61-1.81,9.82,9.82,0,0,0-6.55-2.46A10,10,0,0,0,9.68,25.35l.65.12v4.14h-4V32h4Z"/><path class="cls-1" d="M42.61,27.09a11.5,11.5,0,0,1-8.16-3.37l-.18-.19-.61-.66.73-.52a8.3,8.3,0,0,0,2.44-2.75l.55-1,.75.87.28.3a5.94,5.94,0,1,0,0-8.4l-.28.3-.75.87-.55-1a8.3,8.3,0,0,0-2.44-2.75l-.73-.52.61-.66.19-.19A11.54,11.54,0,0,1,48.55,5.66l.89-.89L46,1.32,58.17,0,56.85,12.19,53.39,8.73l-.89.89a11.53,11.53,0,0,1-9.9,17.47Zm-6.56-4A10,10,0,0,0,50.84,10l-.37-.54,2.93-2.93,2.24,2.24.75-6.94-6.94.75,2.24,2.24L48.75,7.7l-.54-.37a10,10,0,0,0-12.16.74,9.94,9.94,0,0,1,1.62,1.81,7.53,7.53,0,1,1,0,11.36A9.92,9.92,0,0,1,36.05,23Z"/><path class="cls-1" d="M32.47,14.85H21.68V9.54H32.47Zm-9.2-1.59h7.62V11.12H23.27Z"/><path class="cls-1" d="M32.47,21.58H21.68V16.27H32.47ZM23.27,20h7.62V17.86H23.27Z"/></g></g></svg>