<svg xmlns="http://www.w3.org/2000/svg" viewBox="0 0 41.12 41.35"><defs><style>.cls-1{fill:#006bb6;}</style></defs><title>Asset 13</title><g id="Layer_2" data-name="Layer 2"><g id="Layer_1-2" data-name="Layer 1"><g id="SPdcIN"><path class="cls-1" d="M11.87,41.35a4.46,4.46,0,0,1-4-2.36A10.39,10.39,0,0,0,4,35.23a12.77,12.77,0,0,1-1.43-1.07l-.29-.23A5.46,5.46,0,0,1,0,29.23c.06-.84.1-1.68.14-2.52a32.85,32.85,0,0,1,1.49-9.88A15.45,15.45,0,0,0,2,8.07C2,8,2,8,1.95,7.89a1.91,1.91,0,0,1-.09-1.11l.08-.31A3.05,3.05,0,0,1,3,4.55a2.68,2.68,0,0,1,2.77.37,9.19,9.19,0,0,1,3.2,5.93A11.49,11.49,0,0,1,9,12.3c0,.26,0,.54,0,.85v.09l-.14,1c-.11.76-.24,1.62-.38,2.48a1.51,1.51,0,0,0,.3,1.41,1.24,1.24,0,0,0,1.22,0A9.86,9.86,0,0,0,15,14c1.63-2.68,3.26-5.43,4.83-8.1l2.45-4.13.12-.21a2.42,2.42,0,0,1,1-1.15,3.38,3.38,0,0,1,2.4-.34,2.57,2.57,0,0,1,1.47,2.18,5.8,5.8,0,0,1-.67,2.59c-1,2-2,3.91-3.06,5.81l-1.34,2.52-.36.67c-.36.67-.71,1.32-1,2,.76-.74,1.51-1.52,2.24-2.28s1.18-1.23,1.78-1.82c2.49-2.47,4.57-4.51,6.56-6.41a8.6,8.6,0,0,1,2-1.35,2.43,2.43,0,0,1,1.93-.19A2.2,2.2,0,0,1,36.62,5a3.67,3.67,0,0,1,0,2.67,4.2,4.2,0,0,1-1.18,1.5l-.34.33-3,3.07q-2.91,2.93-5.8,5.88a4.48,4.48,0,0,0-.81,1.19h0a3.66,3.66,0,0,0,.88-.54l.06,0,3.92-2.89,4.17-3.07c.78-.58,1.45-1,2.17-1.47a2.36,2.36,0,0,1,3.2.6,2.15,2.15,0,0,1-.19,3,22.65,22.65,0,0,1-2.29,2.19q-3.3,2.66-6.62,5.27L28,25l-.27.21a2,2,0,0,0-.39.33l-.11.18h.05A8.52,8.52,0,0,0,29.12,25l4-1.79,3.67-1.65.14-.06A4.06,4.06,0,0,1,38.74,21,2.71,2.71,0,0,1,41,22.15a2.43,2.43,0,0,1-.78,2.62,41.73,41.73,0,0,1-4.33,2.63c-1.13.61-2.3,1.19-3.42,1.76-1.4.71-2.85,1.44-4.24,2.21a11.11,11.11,0,0,0-2.46,1.93c-3,3-6.07,5.91-10.23,7.4a12.22,12.22,0,0,1-3.21.63ZM3.64,7.17c0,.06,0,.11.05.17s.07.23.09.34a17.21,17.21,0,0,1-.43,9.77A31,31,0,0,0,2,26.8c0,.85-.08,1.71-.14,2.56a3.65,3.65,0,0,0,1.65,3.16l.3.24A11.11,11.11,0,0,0,5,33.67a12.17,12.17,0,0,1,4.41,4.41,2.69,2.69,0,0,0,2.76,1.43A10.47,10.47,0,0,0,14.9,39c3.79-1.36,6.68-4.07,9.55-7a12.87,12.87,0,0,1,2.88-2.25c1.42-.78,2.89-1.52,4.3-2.24C32.74,27,33.9,26.39,35,25.79a39.87,39.87,0,0,0,4.14-2.51,1.14,1.14,0,0,0,.12-.29,1.9,1.9,0,0,0-.6-.13,2.56,2.56,0,0,0-1,.33l-.15.07L33.85,24.9l-4,1.79a9.82,9.82,0,0,1-2.38.8,2.33,2.33,0,0,1-2-.88c-.5-.68,0-1.62.32-2.12a3.19,3.19,0,0,1,.84-.8l.21-.16,2.84-2.25Q33,18.67,36.27,16a20.93,20.93,0,0,0,2.1-2c.34-.37.25-.47.13-.62-.38-.45-.61-.37-.87-.21-.66.39-1.29.84-2,1.38l-4.16,3.07-3.92,2.89-.06,0a5,5,0,0,1-1.38.8,2.08,2.08,0,0,1-1.95-.29A2,2,0,0,1,23.77,19,6.29,6.29,0,0,1,25,17.17q2.89-3,5.81-5.89l3-3.06.4-.38A3,3,0,0,0,35,7a1.9,1.9,0,0,0,0-1.26.38.38,0,0,0-.22-.22.65.65,0,0,0-.49.08,6.84,6.84,0,0,0-1.57,1.06c-2,1.89-4.06,3.92-6.53,6.38-.59.59-1.17,1.19-1.75,1.8-.79.82-1.61,1.67-2.45,2.48,0,0-1.25,1.13-2.32.86a1.26,1.26,0,0,1-.9-.86l0-.11a3.43,3.43,0,0,1,.36-1.83c.35-.82.77-1.61,1.18-2.36l.35-.66,1.35-2.53C23,7.94,24,6,25,4.06a4,4,0,0,0,.47-1.75,1,1,0,0,0-.3-.5,2.59,2.59,0,0,0-.93.28,2.92,2.92,0,0,0-.24.39l-.15.27L21.39,6.87c-1.58,2.67-3.21,5.42-4.85,8.12a11.67,11.67,0,0,1-5.83,4.83,3,3,0,0,1-3-.3,3.21,3.21,0,0,1-.95-3.12c.14-.85.27-1.7.38-2.45l.12-.79c0-.29,0-.56,0-.8a9.91,9.91,0,0,0-.08-1.23,7.33,7.33,0,0,0-2.54-4.8,1.46,1.46,0,0,0-.64-.22,5.8,5.8,0,0,0-.23.79Z"/></g><path class="cls-1" d="M20.73,28.86a5.29,5.29,0,0,0,.45-3.6,3.85,3.85,0,0,0-3-2.94,3.51,3.51,0,0,0-3.68,1.36c-.11.14-.16.12-.26,0A3.59,3.59,0,0,0,11,22.24a3.85,3.85,0,0,0-3,2A4.23,4.23,0,0,0,7.51,27a4.8,4.8,0,0,0,.66,2,7.69,7.69,0,0,0,.93,1.3c.22.26.46.51.71.75a40.85,40.85,0,0,0,4.46,3.62c.18.14.41-.13.56-.23l.69-.49,1.4-1a19.22,19.22,0,0,0,2.2-1.84A8.38,8.38,0,0,0,20.73,28.86Z"/></g></g></svg>