<svg xmlns="http://www.w3.org/2000/svg" viewBox="0 0 39.36 38.73"><defs><style>.cls-1{fill:#006bb6;}</style></defs><title>Asset 10</title><g id="Layer_2" data-name="Layer 2"><g id="Layer_1-2" data-name="Layer 1"><path class="cls-1" d="M38.46,32.63h-.71V30.85a.9.9,0,0,0-.9-.9h-.92V17.37h.6a.9.9,0,0,0,.9-.9V14.15H38a.9.9,0,0,0,.9-.9V9a.9.9,0,0,0-.54-.83L19.94.08a.9.9,0,0,0-.73,0L1,8.13A.9.9,0,0,0,.43,9v4.29a.9.9,0,0,0,.9.9h.6v2.32a.9.9,0,0,0,.9.9h.39V29.95H2.51a.9.9,0,0,0-.9.9v1.78H.9a.9.9,0,0,0-.9.9v4.29a.9.9,0,0,0,.9.9H38.46a.9.9,0,0,0,.9-.9V33.53A.9.9,0,0,0,38.46,32.63ZM37.13,9.55v2.8H2.23V9.54L19.58,1.89Zm-3,7.82V29.95H32.07V17.37Zm-3.86,0V29.95H26.92V17.37Zm-5.15,0V29.95H23.05V17.37Zm-3.86,0V29.95H17.9V17.37Zm-5.15,0V29.95H14V17.37Zm-3.86,0V29.95H8.89V17.37Zm-5.15,0V29.95H5V17.37Zm28.54-3.22v1.42H3.74V14.15ZM3.41,32.63v-.88H35.95v.88Zm34.14,1.81v2.49H1.81V34.43Z"/></g></g></svg>