<svg xmlns="http://www.w3.org/2000/svg" viewBox="0 0 21.53 31.22"><defs><style>.cls-1{fill:#fff;}</style></defs><title>Asset 14</title><g id="Layer_2" data-name="Layer 2"><g id="Layer_1-2" data-name="Layer 1"><g id="LSzSv9"><path class="cls-1" d="M10.77,31.22A49.94,49.94,0,0,1,5.3,24.53,31.53,31.53,0,0,1,.58,14.89a12.16,12.16,0,0,1,.69-9.2A10.77,10.77,0,0,1,21.41,9.12a14.92,14.92,0,0,1-1.13,7.63,46,46,0,0,1-8,12.76C11.81,30.07,11.31,30.61,10.77,31.22Zm6.71-20.47a6.72,6.72,0,1,0-6.84,6.76A6.68,6.68,0,0,0,17.48,10.75Z"/></g></g></g></svg>