<svg xmlns="http://www.w3.org/2000/svg" viewBox="0 0 58.22 37.3"><defs><style>.cls-1{fill:#006bb6;}</style></defs><title>Asset 11</title><g id="Layer_2" data-name="Layer 2"><g id="Layer_1-2" data-name="Layer 1"><path class="cls-1" d="M58,17.47,48.66.91A1.79,1.79,0,0,0,47.11,0a1.75,1.75,0,0,0-.92.26L42.41,2.57A1.85,1.85,0,0,0,41.77,5L42.3,6a5.15,5.15,0,0,1-1.95.33,17.68,17.68,0,0,1-2.3-.45A24.51,24.51,0,0,0,32.37,5h-.15c-3.14,0-8.58.33-9.77,2l-.54.75-1-.16a12.54,12.54,0,0,1-3-.65c-.41-.23-1.16-.69-1.92-1.17L16.45,5a1.85,1.85,0,0,0-.63-2.47L12,.26A1.76,1.76,0,0,0,11.11,0,1.79,1.79,0,0,0,9.56.91L.23,17.48a1.86,1.86,0,0,0,.63,2.47l3.79,2.31a1.76,1.76,0,0,0,.91.26,1.79,1.79,0,0,0,1.55-.91l.75-1.33.68.75,1.61,2-.26.35a3.32,3.32,0,0,0,.75,4.43,3.4,3.4,0,0,0,1.88.78,3.52,3.52,0,0,0,1.29,2.93,3.36,3.36,0,0,0,2.12.79,3,3,0,0,0,.55-.06,3.57,3.57,0,0,0,1.2,1.91,3.36,3.36,0,0,0,2.12.79,2.92,2.92,0,0,0,.91-.15,3.59,3.59,0,0,0,1.14,1.7A3.37,3.37,0,0,0,24,37.3a2.77,2.77,0,0,0,2.26-1.12l.47-.63a23.53,23.53,0,0,0,3.42,1,8.68,8.68,0,0,0,1.94.23,4.79,4.79,0,0,0,2.25-.48,6.34,6.34,0,0,0,2.14-2.06,4.22,4.22,0,0,0,2.43-.5,3.62,3.62,0,0,0,1.45-2.57,4,4,0,0,0,2.3-.71,3.47,3.47,0,0,0,1.26-2.48,3.29,3.29,0,0,0,3.29-1.68,3.16,3.16,0,0,0,0-3.15A9,9,0,0,0,48.79,22c.38-.34.65-.62.89-.88a9.83,9.83,0,0,1,.73-.71l.69,1.22a1.79,1.79,0,0,0,1.55.92,1.75,1.75,0,0,0,.92-.26l3.79-2.31A1.85,1.85,0,0,0,58,17.47ZM43.35,4.12l3.74-2.28,9.31,16.55-3.74,2.28Zm5,15.71c-.23.24-.46.49-.79.78A6.88,6.88,0,0,1,46,21.7h0l-.92-.76h0c-.06,0-.88-.74-2.63-2-1.19-.88-2.8-2-4.9-3.47l-1.33-.86c-3.1-1.94-6.89-3.83-7.08-3.93a.91.91,0,0,0-.41-.1,1,1,0,0,0-.28,0l-2.38.76a.92.92,0,0,0-.5.4s-2.09,3.39-5.15,3.63l-.41,0a1.62,1.62,0,0,1-.44,0,1.85,1.85,0,0,1,.12-1c.62-1.21,3.92-5.79,4.11-6.07l.15-.2c.42-.56,3.71-1.19,8.3-1.23h.13a22.68,22.68,0,0,1,5.27.79,18.81,18.81,0,0,0,2.57.49,7.46,7.46,0,0,0,3-.54l6.3,11.19C49.45,18.81,48.64,19.54,48.36,19.83Zm-42.81.85L1.82,18.37,11.13,1.84l3.74,2.31ZM24.8,35.1a1,1,0,0,1-.8.38,1.55,1.55,0,0,1-1-.37,1.7,1.7,0,0,1-.64-1.35,1.08,1.08,0,0,1,.19-.6h0l.16-.21.57-.77,1.17-1.58a1,1,0,0,1,.8-.38,1.55,1.55,0,0,1,1,.37,1.51,1.51,0,0,1,.44,1.95l-.61.83L25,34.88Zm-5-2a1.54,1.54,0,0,1-1-.37,1.74,1.74,0,0,1-.64-1.23,1.24,1.24,0,0,1,.06-.42,1,1,0,0,1,.14-.3l.66-.89,2.49-3.38a.87.87,0,0,1,.24-.22,1.05,1.05,0,0,1,.56-.16,1.54,1.54,0,0,1,1,.37,1.51,1.51,0,0,1,.44,2l-2.12,2.87-1,1.4-.07.08A1,1,0,0,1,19.82,33.14Zm-5.4-4.76a1,1,0,0,1,.11-.21l.93-1.27,0-.06.78-1.06h0l2.14-2.9a1,1,0,0,1,.8-.38,1.54,1.54,0,0,1,1,.37,1.51,1.51,0,0,1,.44,2l-.17.23a2.69,2.69,0,0,0-.38.41l-2.53,3.43-.62.85a2.71,2.71,0,0,0-.27.45.91.91,0,0,1-.2.16,1.06,1.06,0,0,1-.54.15,1.54,1.54,0,0,1-1-.37A1.6,1.6,0,0,1,14.42,28.38Zm-3.08-3.87,0,0L12.46,23l.17-.23a1,1,0,0,1,.8-.38,1.54,1.54,0,0,1,1,.37,1.51,1.51,0,0,1,.44,1.94h0l-.49.66-.14.18-.64.86a.91.91,0,0,1-.46.33,1.13,1.13,0,0,1-.34.05,1.64,1.64,0,0,1-1.43-2.28Zm34.28.86a1.73,1.73,0,0,1-2.05.66L35,20.89a.91.91,0,0,0-.94,1.56l8.05,4.83A1.91,1.91,0,0,1,41.52,29a3.19,3.19,0,0,1-1.74.31l-7.24-4.19a.91.91,0,1,0-.91,1.57l7,4a2.07,2.07,0,0,1-.66,1.47,3.12,3.12,0,0,1-1.76.16h-.1l-6-2.92a.91.91,0,1,0-.79,1.64l5.4,2.61a4,4,0,0,1-1.14,1,5,5,0,0,1-2.92.08l-.08,0A20,20,0,0,1,27.87,34l.29-.39a3.32,3.32,0,0,0-.75-4.43,3.42,3.42,0,0,0-1.67-.75,3.48,3.48,0,0,0-1.24-3.3,3.4,3.4,0,0,0-1.83-.77,3.51,3.51,0,0,0-1.29-2.89,3.35,3.35,0,0,0-2.12-.79A2.78,2.78,0,0,0,17,21.8l-.51.7a3.57,3.57,0,0,0-.92-1.14,3.36,3.36,0,0,0-2.12-.79,2.78,2.78,0,0,0-2.14,1L10,19.87l0,0L8.82,18.6,15.13,7.39c.75.47,1.49.92,1.91,1.16a12,12,0,0,0,3.59.86h.07A35.67,35.67,0,0,0,18,13.61a.89.89,0,0,0-.06.15,3.08,3.08,0,0,0,.15,2.68,2.23,2.23,0,0,0,1.9.78l.57,0C24,16.92,26.26,14,26.93,13l1.71-.55c1,.52,4.16,2.15,6.71,3.75l1.16.75c2.19,1.49,3.85,2.69,5,3.58l2.31,1.79,0,0,1.3,1.07A1.49,1.49,0,0,1,45.62,25.38Z"/></g></g></svg>