<svg xmlns="http://www.w3.org/2000/svg" viewBox="0 0 42.4 38.31"><defs><style>.cls-1{fill:#006bb6;}</style></defs><title>Asset 7</title><g id="Layer_2" data-name="Layer 2"><g id="Layer_1-2" data-name="Layer 1"><path class="cls-1" d="M41.5,8.26c-2.15-3.09-5-4.79-7.93-4.79H33.5c-4.77,0-7,3.95-8,6.4C20.51,2.71,15.43,0,7.37,0A47.67,47.67,0,0,0,2.05.33L0,.56,1.43,2.05c1.3,1.36,1.72,3.71,2.22,6.44,1,5.65,2.41,13.27,13.64,15.74a8,8,0,0,1-2.17,1h-.19a35.19,35.19,0,0,0-8.3,1c-3,.84-3.9,4.13-3.5,7s2.12,5.07,4.23,5.07a3.52,3.52,0,0,0,1-.15c5.43-1.61,7.94-4.66,9-6.43a31.47,31.47,0,0,0,5.65.56h0c5.09,0,9.1-1.63,11.59-4.72S38,19.75,37,15.06a4.21,4.21,0,0,1,.42-3.3,5.08,5.08,0,0,1,3.41-1.92l1.54-.3Zm-5.76,2.38A6.24,6.24,0,0,0,35,15.49c.88,4.09.11,8.12-2,10.79s-5.48,4-10,4h0a30.36,30.36,0,0,1-6-.66l-.78-.16-.34.72c-.61,1.28-2.62,4.44-8.09,6.06a1.47,1.47,0,0,1-.42.06c-.62,0-1.23-.56-1.65-1.43l.49-.16c.35-.12.75-.27,1.18-.44s.87-.38,1.3-.61a13,13,0,0,0,1.23-.72c.19-.12.37-.25.53-.38s.32-.24.46-.36l.37-.32.27-.27.23-.23-.27.18-.31.2-.42.23c-.15.09-.33.16-.51.25s-.38.16-.58.24a12.56,12.56,0,0,1-1.29.42c-.44.12-.89.22-1.32.3s-.82.13-1.16.17l-.66.06c0-.14-.05-.28-.07-.42a7.1,7.1,0,0,1-.06-1.14L9.8,30l-4.52.41a2.89,2.89,0,0,1,1.9-2.23,33.72,33.72,0,0,1,7.74-.94H15c1.32.08,4.52-1.82,5.55-2.93l1.34-1.44-1.95-.27c-7.86-1.1-11.08-4.42-12.68-8.28h.17c.3,0,.63,0,1,0l1.17.1c.42,0,.85.1,1.3.17s.92.11,1.38.24l1.41.33,1.38.44a11.88,11.88,0,0,1,1.32.51,12.27,12.27,0,0,1,1.21.54l1.05.56a7.77,7.77,0,0,1,.87.52l.66.43.57.37-.52-.44-.6-.51a7.93,7.93,0,0,0-.8-.63l-1-.71a12.71,12.71,0,0,0-1.16-.71,12.45,12.45,0,0,0-1.28-.7L14,14.26l-1.42-.53c-.47-.19-.95-.29-1.41-.44s-.9-.27-1.33-.35l-1.21-.26c-.37-.09-.72-.14-1-.18l-.79-.13-.26,0c-.36-1.26-.6-2.55-.83-3.8.21,0,.46,0,.72,0s.66,0,1.06,0,.82,0,1.27.07l.69.07.72.1c.25,0,.49.09.74.13s.5.09.75.17l.76.2.76.24c.26.08.5.18.75.27s.5.19.74.3c.49.2,1,.44,1.41.66s.88.46,1.28.71.78.47,1.12.69c.69.44,1.25.83,1.64,1.11l.61.44-.55-.52c-.35-.33-.85-.8-1.48-1.34-.31-.27-.66-.56-1-.85s-.78-.59-1.2-.9-.88-.6-1.35-.88c-.23-.15-.47-.29-.72-.42s-.49-.28-.75-.4L12.9,8l-.78-.33c-.26-.11-.52-.2-.78-.29s-.52-.19-.77-.26L9.81,6.9l-.73-.18c-.48-.12-.94-.19-1.36-.27s-.82-.12-1.18-.17-.65-.07-.88-.1l-.38,0A15.11,15.11,0,0,0,4,2.19C5.21,2.09,6.32,2,7.37,2c8,0,12.47,2.68,17.53,10.62l1,1.52.81-1.62a6.06,6.06,0,0,0,.25-.66c.95-2.73,2.66-6.36,6.59-6.39h.05a7.33,7.33,0,0,1,5.34,2.75A6.31,6.31,0,0,0,35.74,10.64Z"/><circle class="cls-1" cx="34.83" cy="8.03" r="1.09"/></g></g></svg>