<svg xmlns="http://www.w3.org/2000/svg" viewBox="0 0 19.14 19.14"><defs><style>.cls-1{fill:none;stroke:#000;stroke-miterlimit:10;}.cls-2{fill:#000;}</style></defs><title>Asset 1</title><g id="Layer_2" data-name="Layer 2"><g id="Layer_2-2" data-name="Layer 2"><rect class="cls-1" x="0.5" y="0.5" width="18.14" height="18.14"/><g id="K2s8bD"><path class="cls-2" d="M16.17,3.51c-.54.58-1.06,1.17-1.61,1.72a39.19,39.19,0,0,0-3.48,4.05c-1,1.3-1.75,2.71-2.59,4.09-.44.73-.89,1.46-1.34,2.19-.13.2-.33.21-.44,0-.42-.83-.82-1.67-1.23-2.51-.3-.61-.61-1.21-.93-1.81a1.16,1.16,0,0,0-1.36-.71,2.41,2.41,0,0,1,.12-.36A1.52,1.52,0,0,1,4.5,9.4a1.71,1.71,0,0,1,1.64.7c.35.41.62.88.93,1.33l.07.08.11-.13c.48-.66.94-1.34,1.45-2a28.55,28.55,0,0,1,3.72-4,12.67,12.67,0,0,1,3.29-2C15.94,3.36,16,3.39,16.17,3.51Z"/></g></g></g></svg>