<svg xmlns="http://www.w3.org/2000/svg" viewBox="0 0 47.63 47.33"><defs><style>.cls-1{isolation:isolate;}.cls-2{fill:#fff;}.cls-3{fill:#0a294e;}.cls-4{fill:#66c1fc;}.cls-5{opacity:0.6;mix-blend-mode:soft-light;}</style></defs><title>Asset 4</title><g class="cls-1"><g id="Layer_2" data-name="Layer 2"><g id="Layer_1-2" data-name="Layer 1"><polygon class="cls-2" points="2.84 14.24 0 14.24 0 0 14.24 0 14.24 2.84 2.84 2.84 2.84 14.24"/><polygon class="cls-2" points="14.24 47.33 0 47.33 0 33.09 2.84 33.09 2.84 44.49 14.24 44.49 14.24 47.33"/><polygon class="cls-2" points="47.63 47.33 33.39 47.33 33.39 44.49 44.79 44.49 44.79 33.09 47.63 33.09 47.63 47.33"/><polygon class="cls-2" points="47.63 14.24 44.79 14.24 44.79 2.84 33.39 2.84 33.39 0 47.63 0 47.63 14.24"/><circle class="cls-3" cx="24.27" cy="23.91" r="16.45"/><path class="cls-4" d="M31.22,9.55a1.73,1.73,0,0,0,.5.7.91.91,0,0,0,.55.3.28.28,0,0,0,.18,0,.15.15,0,0,0,.06-.17c0-.08-.13-.1-.21-.14a.77.77,0,0,1-.23-.22l-.33-.4a2.28,2.28,0,0,1-.33-.48L31.15,9h0A2,2,0,0,0,31.22,9.55Z"/><path class="cls-4" d="M28,13.73c0-.1.08-.21,0-.3a.39.39,0,0,1-.38-.12.14.14,0,0,0-.06,0c-.06,0-.1,0-.12.1a.45.45,0,0,0,0,.4.49.49,0,0,0,.1.1,2.19,2.19,0,0,1,.39.44c.06.08.1.22,0,.27l-.07,0c-.08.05,0,.18,0,.27a.41.41,0,0,1-.1.38.16.16,0,0,0,.19,0c.06,0,.11-.08.17-.11a.58.58,0,0,1,.2,0l.43,0,.1,0a.2.2,0,0,0,0-.29.89.89,0,0,0-.26-.2,2.17,2.17,0,0,1-.42-.39A.59.59,0,0,1,28,13.73Z"/><path class="cls-4" d="M26.87,14.57c0,.09-.06.19,0,.29s.21.1.33.07a.6.6,0,0,0,.17-.08c.17-.12.16-.38.14-.59s0-.22-.14-.25-.16,0-.22.11a.54.54,0,0,0-.21.08.23.23,0,0,0-.09.25A1,1,0,0,1,26.87,14.57Z"/><path class="cls-4" d="M37,29.64a.8.8,0,0,1-.38.3c-.13,0-.29,0-.38.12a.47.47,0,0,0-.08.29A1.52,1.52,0,0,1,36,31a1.1,1.1,0,0,0-.25.59.21.21,0,0,0,0,.12.2.2,0,0,0,.16.06c.22,0,.38-.2.51-.38a6.8,6.8,0,0,0,.64-1,2.28,2.28,0,0,0,.24-1.18A3.21,3.21,0,0,1,37,29.64Z"/><path class="cls-4" d="M24.72,10.65a.43.43,0,0,0-.08-.44c.05.07.18,0,.2-.06a.2.2,0,0,0-.11-.21.58.58,0,0,0-.25-.05l-.24,0-.07,0s0-.11,0-.15a1.17,1.17,0,0,0,.14-.11c.09-.11,0-.28-.11-.37s-.26-.16-.31-.29a1.16,1.16,0,0,1,0-.17A.63.63,0,0,0,23,8.35c-.34.11-.61.43-1,.43a2,2,0,0,1-.56-.15,2.47,2.47,0,0,0-1.75.24,6.73,6.73,0,0,0-.82.46,1.64,1.64,0,0,0-.27.19c-.14.14,0,.44-.21.56s-.64-.27-.81.15a1.17,1.17,0,0,0-.08.29s.11,0,.16,0c0,.21-.28.36-.42.5a1.6,1.6,0,0,0-.41.55l.22,0a.64.64,0,0,1-.34.5l-.18.13c-.05,0-.13.06-.16,0s0-.08,0-.1a.73.73,0,0,0,.13-.11s0-.12,0-.15a.28.28,0,0,0-.11,0,.14.14,0,0,1,0-.27l.08,0c.08-.05,0-.2.1-.27s.1,0,.1-.1,0-.06,0-.09.07,0,.11,0a.19.19,0,0,0,.09,0c.07-.06.16-.08.24-.13a.24.24,0,0,0,.12-.23.35.35,0,0,0-.29.08.3.3,0,0,1-.1.07c-.06,0-.13,0-.18-.06s-.14-.06-.19,0a.39.39,0,0,0-.06.1.29.29,0,0,1-.15.1.38.38,0,0,0-.16.09.12.12,0,0,0,0,.17s.07,0,.09.05a.08.08,0,0,1,0,.06c0,.11-.16.17-.19.28a.81.81,0,0,0,0,.22c0,.12-.13.19-.18.06s0-.11-.12-.13-.16-.36-.06-.49a1.37,1.37,0,0,0,.18-.23c0-.07.05-.28-.08-.24l-.36.11a.19.19,0,0,1-.11,0,.07.07,0,0,1,0-.08.48.48,0,0,0,.21,0,.16.16,0,0,0,.12-.16.15.15,0,0,0,0-.08.26.26,0,0,0-.23-.07.6.6,0,0,0-.23.1,2.21,2.21,0,0,0-.68.76.12.12,0,0,0,.09,0h0c0,.08.06.08,0,.15s-.14.05-.18.1a.2.2,0,0,0,0,.19.4.4,0,0,1,0,.21.05.05,0,0,0,0,0s0,0,0,0c.25.05.32-.25.55-.24s.16,0,.24,0h.18a.06.06,0,0,0,.06,0s0-.06,0-.09,0-.08.08-.1.1,0,.12,0,0,.08,0,.12a.6.6,0,0,0,0,.11.29.29,0,0,1-.09.19.26.26,0,0,1-.09.07.34.34,0,0,1-.13,0,.54.54,0,0,1-.19,0s0-.05-.06-.07a.29.29,0,0,0-.29,0l-.06.07a.35.35,0,0,1-.27.06.27.27,0,0,1-.22-.09.38.38,0,0,1,0-.18.44.44,0,0,0-.07-.2.08.08,0,0,0,0,0H14a.36.36,0,0,1-.26,0l-.17-.08a.56.56,0,0,0-.22,0A16.54,16.54,0,0,0,11,14.24,15.9,15.9,0,0,1,9.79,17.6a6.76,6.76,0,0,0-.36,3.27l.11.69a6.67,6.67,0,0,0,.18.84A1.42,1.42,0,0,0,10,23c0-.64-.17-1.28-.17-1.91.19,1.07.42,3.67,1.93,3.59l0-.17c.44.15.62.74,1.07.87a.81.81,0,0,1,.3.1.68.68,0,0,1,.16.31,1.93,1.93,0,0,0,1,.86.28.28,0,0,1,.12.1c.1.18-.07.35-.13.5a1.12,1.12,0,0,0-.07.65,1.81,1.81,0,0,1,.07.5,2.36,2.36,0,0,1-.24.59,2.2,2.2,0,0,0,.49,1.88,3.5,3.5,0,0,0,1.14,1.27c.19.11.4.18.58.3.4.26.43.79.57,1.22s.33,1,.53,1.48c.56,1.35,1.47,3.2,3.07,3.44a.18.18,0,0,0,.11,0,.07.07,0,0,0,0-.09.1.1,0,0,0-.07,0c-.93-.14-1-1.13-1.21-1.86,0-.16,0-.38.15-.43s.22,0,.33,0a.25.25,0,0,0,.17-.35.17.17,0,0,0-.07-.07,1,1,0,0,0-.13,0,.18.18,0,0,1-.09-.26c.09-.13.34,0,.49-.08a.94.94,0,0,0,.41-.56c.12-.42.14-.94.5-1.18s.73-.14,1-.37c.5-.42,0-1.27.27-1.88.15-.38.6-.73.43-1.11a.81.81,0,0,0-.45-.35,4.86,4.86,0,0,0-3.06-.61.68.68,0,0,0,.12-.94,2,2,0,0,0-.85-.61c-.25-.12-.51-.22-.74-.35a4.52,4.52,0,0,1-.55-.5c-.26-.21-.67-.12-1-.22a2.59,2.59,0,0,0-1-.12c-.23,0-.12,0-.3-.18a.73.73,0,0,0-.36-.24l-.24,0a.73.73,0,0,1-.58-.53,2.18,2.18,0,0,1,0-.34,1.34,1.34,0,0,0-.1-.44.3.3,0,0,0-.08-.13.34.34,0,0,0-.24,0c-.17,0-.36.1-.52.1a10.75,10.75,0,0,1,.28-1.43c-.13-.23-.48,0-.56.29s-.3.59-.53.45a.4.4,0,0,1-.14-.2A4.71,4.71,0,0,1,11.57,22c0-.53.57-.59,1-.4.12.06.28.09.37,0s.07-.24.15-.33l0,0c.26-.19.74.23.85.43s.09,1.09.38,1.18c.58.17,0-.93,0-1.07a.93.93,0,0,1,.11-.53,2.48,2.48,0,0,1,.43-.6c.16-.16.43-.23.54-.44s0-.68.3-1a2.15,2.15,0,0,1,1-.59c.13,0,.28-.07.34-.19s-.09-.31-.19-.21c.07-.07.59-.38.7-.33s-.09.53.26.34l.82-.45a.56.56,0,0,0,.22-.17.19.19,0,0,0,0-.25s-.11,0-.14,0-.06.09-.09.13a.54.54,0,0,1-.47,0A.41.41,0,0,0,18,17.1a.11.11,0,0,0,.15-.09.17.17,0,0,0-.14-.16.5.5,0,0,0-.22,0,.9.9,0,0,0-.45.18,2.47,2.47,0,0,1,1.45-.53c.24-.05.29-.14.5-.27a.12.12,0,0,1,.15,0c.1.18-.33.64-.33.84a.12.12,0,0,0,.1.13.86.86,0,0,1,.4.07,1.5,1.5,0,0,0,.59.21c.21,0,.43-.24.31-.42s-.15-.11-.23-.17C20,16.74,20,16.35,20,16s-.26-.73-.55-.6a5.06,5.06,0,0,0-.48-1c-.09-.14-.22-.3-.38-.27s-.38.47-.66.39c0-.15.15-.28.14-.43s-.14-.24-.26-.31a1.86,1.86,0,0,0-.43-.22.63.63,0,0,0-.47,0,.12.12,0,0,0-.06.05.15.15,0,0,0,0,.08.74.74,0,0,1-.19.55c-.09.11-.29.22-.21.4a.81.81,0,0,1,.06.12.29.29,0,0,1-.07.22c-.09.14-.21.3-.38.31s-.11,0-.14,0a.17.17,0,0,0,0,.15,1.25,1.25,0,0,1,0,.51.37.37,0,0,1-.23.29.28.28,0,0,1-.3-.22.65.65,0,0,1,.06-.4l.12-.26a0,0,0,0,0,0-.08,2.16,2.16,0,0,1-.85-.38c-.07-.05-.2-.08-.23-.16s.07-.2,0-.3a.38.38,0,0,1-.05-.07.14.14,0,0,1,0-.08A1.6,1.6,0,0,1,15,13.6c.21-.14.45-.22.66-.36a1,1,0,0,0,.27-.25c0-.05.09-.1.05-.16s-.11-.06-.09-.12.09-.06.14,0,.23.06.24.1a.06.06,0,0,1,0,0,.51.51,0,0,1-.18.28l-.14.06h0a0,0,0,0,0,0,0,.18.18,0,0,0,.16.1.48.48,0,0,0,.19,0,.27.27,0,0,0,.16-.1s0,0,0,0a0,0,0,0,1,0,0,.4.4,0,0,1,0,.06.14.14,0,0,0,.2.08h0a0,0,0,0,0,0,0,.78.78,0,0,0-.19-.27.48.48,0,0,1-.12-.21c0-.06,0-.14,0-.19a.32.32,0,0,0,.26-.06l.05,0s0,0,.07,0a.2.2,0,0,0,.25,0,.36.36,0,0,0,.07-.26.13.13,0,0,1,0-.1s.08,0,.12,0a.16.16,0,0,0,.13-.17,1.25,1.25,0,0,1,0-.15c0-.25.82-.12.9.17.16.6-1.18.75-1.06,1.36.13-.28.56-.18.8,0a1.3,1.3,0,0,0,.81.38.35.35,0,0,0-.17-.36s-.08-.07-.07-.11a.18.18,0,0,1,.17,0,.5.5,0,0,1,.11.15s0,.08.08.08H19c.12-.05.24-.16.21-.29a.3.3,0,0,0-.06-.1L19,12.93a.5.5,0,0,1-.13-.23c-.05-.34.4-.25.41,0,0,0,0,.06,0,.08h.06a.52.52,0,0,0,.25,0,.18.18,0,0,0,.09-.22.33.33,0,0,1,.13,0s.1,0,.12,0,0-.1-.07-.13l-.26-.18c-.1-.07-.51-.06-.3-.24l0,0a.12.12,0,0,0,0,0,.37.37,0,0,0,0-.27.54.54,0,0,0-.12-.1c-.13-.09-.22-.24-.37-.29l-.06,0s0-.08,0-.11-.1-.07-.16-.05a1,1,0,0,0-.15.1.15.15,0,0,1-.17,0,.81.81,0,0,1,0-.38.74.74,0,0,1-.29,0l0,0c-.06-.09.39-.19.44-.19.25,0,.35,0,.54-.15a5.39,5.39,0,0,1,.67-.55,1.4,1.4,0,0,1,.69-.28c.2,0,.36.27.59.16.06,0,.1-.07.16-.08s.16.09.19.18a.87.87,0,0,1-.15.84c.08,0,.18,0,.26.06s.13.17,0,.21-.16-.05-.24-.09a.19.19,0,0,0-.21,0,.18.18,0,0,0,0,.21c.07.11.23.1.35.09a.31.31,0,0,1-.17.23,1.36,1.36,0,0,0-.25.16c-.31.3-.1,1,.11,1.33a2.22,2.22,0,0,0,.4.41.38.38,0,0,0,.18.11c.16,0,.3-.16.46-.13s.23.26.39.32.36-.15.39-.35,0-.37.07-.57.14-.16.18-.26,0-.23.08-.34a1.54,1.54,0,0,1,.32-.26c.19-.13.48-.19.56-.42s0-.34.15-.42a.55.55,0,0,1,.24,0A.43.43,0,0,0,24.72,10.65Zm-9.9.62,0,0-.19,0,.1-.09a.12.12,0,0,1,.09,0S14.85,11.25,14.82,11.27Z"/><path class="cls-4" d="M14.37,23a.81.81,0,0,0-.56-.06.34.34,0,0,0-.21.46.58.58,0,0,1,.49-.11,3.18,3.18,0,0,1,.62.35.91.91,0,0,0,.71,0A3.1,3.1,0,0,0,14.37,23Z"/><path class="cls-4" d="M15.62,24.22a1,1,0,0,1,.28,0,1.6,1.6,0,0,0,.47,0l.23-.05c.05,0,.13,0,.15-.07a.12.12,0,0,0,0-.09,1.53,1.53,0,0,0-.43-.31.7.7,0,0,0-.52,0c-.09,0-.18.13-.12.21s0,0,.06.07,0,.11-.09.13-.12,0-.17,0-.1.09-.06.14S15.59,24.23,15.62,24.22Z"/><path class="cls-4" d="M25.46,11.48c-.18,0-.36,0-.54,0a2.58,2.58,0,0,0-.41-.06.1.1,0,0,0-.06,0,.12.12,0,0,0,0,.08.77.77,0,0,0,0,.43.32.32,0,0,0,.16.14h0A.88.88,0,0,0,25.67,12a.35.35,0,0,0,.09-.14C25.82,11.67,25.64,11.51,25.46,11.48Z"/><path class="cls-4" d="M27.48,8.46h0Z"/><path class="cls-4" d="M27.19,8.89l.69.27a.2.2,0,0,0,.14,0c.09,0,.08-.17,0-.24a2.31,2.31,0,0,0-.23-.17.31.31,0,0,0,.2,0c.06,0,.09-.13,0-.17s-.23,0-.36-.08l.07,0-.18-.07h0l.07,0-.08,0-.4.19s-.09,0-.1.1S27.13,8.86,27.19,8.89Z"/><path class="cls-4" d="M16,10.54a.51.51,0,0,0,.68-.35.11.11,0,0,0,0-.07,0,0,0,0,0-.06,0l0,0a.17.17,0,0,1-.17.09h0v0c0-.05,0-.1.06-.14.18-.2-.09-.12-.19-.07a1.23,1.23,0,0,0-.28.16A.24.24,0,0,0,16,10.54Z"/><path class="cls-4" d="M17,10.37h0l0,0s0,0,0,0a.39.39,0,0,0,.18-.31h-.08c-.14,0-.3.09-.27.25A.07.07,0,0,0,17,10.37Z"/><path class="cls-4" d="M17.73,9.77h.16a.17.17,0,0,0,.22,0,.23.23,0,0,0,.08-.27.36.36,0,0,0-.22-.2H17.9c-.06,0-.08.08-.12.12s-.18.07-.2.16S17.66,9.76,17.73,9.77Z"/><path class="cls-4" d="M30.66,17.64c0,.08.11.18.19.14s.06-.1.06-.16a1.31,1.31,0,0,0,0-.37.48.48,0,0,0-.21-.3l0,0a.07.07,0,0,0-.06.07.14.14,0,0,0,0,.05A1.32,1.32,0,0,0,30.66,17.64Z"/><path class="cls-4" d="M32.61,9.73a.39.39,0,0,0,.05.37c.18.23.6.23.67.51s-.24.46-.5.45a.24.24,0,0,1-.14.19.63.63,0,0,1-.14-.28h-.2a1.08,1.08,0,0,0,.1.55c.05.18,0,.42-.15.49a.31.31,0,0,1-.34-.12.83.83,0,0,1-.13-.36h.41a.61.61,0,0,0-.34-.46,3.26,3.26,0,0,0-.56-.21c-.5-.17-1-.49-1.52-.26s-.27,1-.69,1.46a2.13,2.13,0,0,0-.24.23.56.56,0,0,0,.59.9c.21-.07.33-.17.55-.07s.51.5.3.73-.25.19-.18.3a.4.4,0,0,0,.53-.34.78.78,0,0,0,0-1,1.26,1.26,0,0,1-.14-.21c-.14-.32.25-.7.09-1,.14,0,.26.11.27.25a3.59,3.59,0,0,1,0,.42.63.63,0,0,0,.71.61,1.24,1.24,0,0,1,.36-.07c.12,0,.24.16.16.26a.58.58,0,0,0-.34,0,.2.2,0,0,0-.09.28c0,.06.14.09.12.16s-.18,0-.26.1,0,.22,0,.34-.31.32-.55.34-.8,0-1-.29c-.06-.09-.09-.19-.15-.28a.26.26,0,0,0-.27-.13l.35.76a.59.59,0,0,0-.63.26,3.05,3.05,0,0,0-.14.32.93.93,0,0,1-.82.53.63.63,0,0,0-.27,0c-.08,0-.13.16-.07.23a.26.26,0,0,0,.17,0,.54.54,0,0,1,.44.74.32.32,0,0,1-.19.18.58.58,0,0,1-.28,0,1.06,1.06,0,0,0-.95.27c.28.21.11.67.23,1a.73.73,0,0,0,.68.43,1.51,1.51,0,0,0,.8-.27.77.77,0,0,0,.22-.18c.2-.26.15-.55.4-.8.07-.07.14-.21.22-.27s.36,0,.54-.07a1,1,0,0,1,.46,0,4,4,0,0,1,1.06.81.38.38,0,0,1,.17.24.26.26,0,0,1-.21.24.75.75,0,0,1-.35,0c0,.25.32.39.54.28a1.05,1.05,0,0,0,.42-.6.29.29,0,0,0,0-.19c0-.07-.1-.11-.16-.15a2.37,2.37,0,0,1-.63-.52s-.42-.65-.16-.55l0,0a7.39,7.39,0,0,1,1.13,1.22,3.5,3.5,0,0,0,1.26,1.27c.07,0,.17.05.21,0s-.07-.16-.16-.21a1.36,1.36,0,0,1-.56-.75.38.38,0,0,1,0-.24c0-.17.29-.19.43-.09A.9.9,0,0,1,34,18a.63.63,0,0,0,.29.41c.26.11.55-.12.82-.05a.53.53,0,0,1,.36.46,1.56,1.56,0,0,1-.08.61.32.32,0,0,1-.45.3,3.79,3.79,0,0,1-1.34-.44,1,1,0,0,0-.38-.19c-.14,0-.31.1-.29.24s.05.13,0,.18-.11,0-.17,0L31.48,19a.41.41,0,0,1-.17-.1c-.14-.17,0-.47-.14-.61s-.37,0-.53,0a3.14,3.14,0,0,0-.74,0c-.26.06-.51.17-.77.24a1,1,0,0,1-.32,0l-.27,0a.73.73,0,0,0-.42.1l-.08.05c-.11.09-.2.21-.32.3a1.17,1.17,0,0,0-.38.8.21.21,0,0,1-.13.18,2.55,2.55,0,0,0-1,1.08,2.18,2.18,0,0,0-.31,1.05c0,.13.13.23.15.36s-.13.32-.18.48a1,1,0,0,0,0,.57,1.12,1.12,0,0,0,.42.72c.07,0,.15.07.22.11s.17.24.24.38a1.37,1.37,0,0,0,.38.42,2.6,2.6,0,0,0,.67.33c.18.07.32.19.52.12s.28-.19.44-.24.42.07.65.1.41-.14.61-.24.51-.11.58.1c0,.06,0,.12,0,.17s.35.21.56.18c.2.4,0,.9.12,1.33a3.08,3.08,0,0,0,.27.53,2,2,0,0,1,.1,1.62c-.1.26-.25.49-.34.75a3.7,3.7,0,0,0,.06,1.93,5.82,5.82,0,0,1,.13,1c0,.24-.27.5,0,.65A1.35,1.35,0,0,0,33,33.36a3.4,3.4,0,0,0,1-1.1c.1-.15.19-.51.37-.58a1.67,1.67,0,0,0,.28-.08.46.46,0,0,0,.18-.22,1.26,1.26,0,0,0,.12-.51c0-.15,0-.31.09-.42a.57.57,0,0,1,.19-.11,1.62,1.62,0,0,0,.85-1,13.06,13.06,0,0,0,.15-1.43c.19-.81.94-1.34,1.43-2a3.44,3.44,0,0,0,.64-2.08,1,1,0,0,1-.61.39c-.25,0-.49-.31-.32-.49a.52.52,0,0,1,.17-.11,2.93,2.93,0,0,0,1.39-1.32,1,1,0,0,0,.14-.48,1.62,1.62,0,0,0-.27-.67c0-.08-.12-.49-.28-.36s0,.31-.14.37-.17,0-.23-.12a10.89,10.89,0,0,1-.62-1,.39.39,0,0,1-.06-.17.14.14,0,0,1,.09-.14.14.14,0,0,1,.14.06.53.53,0,0,1,.06.14,1.18,1.18,0,0,0,.4.54.3.3,0,0,0,.29.07s.07,0,.11,0l0,0c.15.13.13.36.33.43s.36-.07.54,0c.39.18.55.92.63,1.29a11.51,11.51,0,0,0,.56,3l0,.08q.06-.71.06-1.43A16.44,16.44,0,0,0,32.61,9.73Zm2.6,7.39a.52.52,0,0,0-.57,0c-.07.05-.12.13-.19.18a.33.33,0,0,1-.36,0,.52.52,0,0,1-.19-.25,1.28,1.28,0,0,1-.09-.6.52.52,0,0,1,.08-.26.24.24,0,0,1,.24-.1c.17,0,.2.28.33.39a.27.27,0,0,0,.17.06.18.18,0,0,0,.14,0,.11.11,0,0,0,0-.14s-.1-.06-.14-.11a.14.14,0,0,1,0-.18.4.4,0,0,1,.19-.06h.05a.08.08,0,0,1,0,.07c0,.12,0,.26,0,.37a.36.36,0,0,0,.09.09c.27.2.59.41.66.75a.08.08,0,0,1,0,.07.08.08,0,0,1-.06,0C35.52,17.36,35.37,17.22,35.22,17.12Zm1.88,6.39a12.28,12.28,0,0,1-1.06-2A5.35,5.35,0,0,0,35.28,20q.38.39.74.79a2.32,2.32,0,0,1,.38.53c.12.25.15.54.27.78s.19.29.28.45a1.62,1.62,0,0,1,.22.81C37.18,23.45,37.15,23.53,37.09,23.51Zm.48-5.25a.26.26,0,0,1-.36,0,.6.6,0,0,1-.14-.38,1.56,1.56,0,0,0-.06-.4,1.64,1.64,0,0,0-.38-.49,1.74,1.74,0,0,1-.33-.54.35.35,0,0,1,0-.32c.08-.11.24-.11.37-.09l.05,0a.1.1,0,0,1,0,.08,1.29,1.29,0,0,0,.09.62.74.74,0,0,0,.44.42.38.38,0,0,1,.14.06.09.09,0,0,1,0,.13l-.05,0c-.07.05,0,.15,0,.22a1.43,1.43,0,0,1,.18.31A.35.35,0,0,1,37.57,18.26Z"/><path class="cls-4" d="M15,24.11a.4.4,0,0,0-.3,0h0s.23.25.26.26.15.08.19,0a.12.12,0,0,0,0-.12A.33.33,0,0,0,15,24.11Z"/><path class="cls-4" d="M16.91,24.25c.1.12.35,0,.24-.13S16.76,24.06,16.91,24.25Z"/><path class="cls-5" d="M30.3,8.6A16.45,16.45,0,0,1,14.53,37.17,16.45,16.45,0,1,0,30.3,8.6Z"/></g></g></g></svg>