<svg xmlns="http://www.w3.org/2000/svg" xmlns:xlink="http://www.w3.org/1999/xlink" viewBox="0 0 495 600"><defs><style>.cls-1010{fill:#f1f1f1;}.cls-2{fill:url(#radial-gradient);}.cls-10106,.cls-0303{fill:#0265b5;}cls-4040040{fill:#858585;}.cls-10100,.cls-10102,.cls-10103,.cls-10104,.cls-5,.cls-6{fill:none;}.cls-5,.cls-6{stroke:#0265b5;}.cls-10100,.cls-10102,.cls-10103,.cls-10104,.cls-10106,.cls-1010717,.cls-5,.cls-6,.cls-818,.cls-919{stroke-miterlimit:10;}.cls-6{stroke-width:2px;}.cls-7{fill:#4c4c4c;}.cls-818{fill:#0468b1;}.cls-10106,.cls-1010717,.cls-818,.cls-919{stroke:#f1f1f1;}.cls-818,.cls-919{stroke-width:0.5px;}.cls-919{fill:#729644;}.cls-10100,.cls-10102,.cls-10103,.cls-10104{stroke:#a5a5a5;}.cls-10100,.cls-10106,.cls-1010717{stroke-width:0.75px;}.cls-10101{fill:#a5a5a5;}.cls-10102{stroke-width:0.73px;}.cls-10103{stroke-width:0.82px;}.cls-10104{stroke-width:0.86px;}.cls-10105{fill:#0a0a0a;}.cls-1010717{fill:#729643;}</style><radialGradient id="radial-gradient" cx="320.41" cy="173.94" r="166.51" gradientUnits="userSpaceOnUse"><stop offset="0" stop-color="#fff" stop-opacity="0.2"/><stop offset="0.23" stop-color="#fbfafa" stop-opacity="0.47"/><stop offset="0.44" stop-color="#f7f6f6" stop-opacity="0.7"/><stop offset="0.62" stop-color="#f4f3f3" stop-opacity="0.86"/><stop offset="0.77" stop-color="#f3f2f2" stop-opacity="0.96"/><stop offset="0.86" stop-color="#f2f1f1"/></radialGradient></defs><title>Finance-pipeline</title><g id="Layer_2" data-name="Layer 2"><rect class="cls-1010" width="495" height="600"/><circle class="cls-2" cx="320.41" cy="173.94" r="166.51"/></g><g id="Layer_1" data-name="Layer 1"><path class="cls-0303" d="M3.32,21C12,14.7,13.61,13.32,13.61,11.34c0-1.38-1.29-2.1-2.85-2.1a7.42,7.42,0,0,0-5.25,2.19L2.66,8a11,11,0,0,1,8.1-3.33c4.71,0,8.1,2.64,8.1,6.66,0,3.06-2.19,5.67-7.56,9.15H19V25H3.32Z"/><path class="cls-0303" d="M29.57,4.68c5.85,0,8.58,5,8.58,10.32s-2.73,10.35-8.58,10.35S21,20.28,21,15,23.72,4.68,29.57,4.68Zm0,4.56c-2.4,0-3.36,2.22-3.36,5.76s1,5.79,3.36,5.79,3.36-2.25,3.36-5.79S32,9.24,29.57,9.24Z"/><path class="cls-0303" d="M45.38,11.58,42,15l-2.94-3.09,7-6.9h4.47V25H45.38Z"/><path class="cls-0303" d="M57.17,14.67C55,13.86,53.45,12.42,53.45,10c0-3.87,4.23-5.34,8.16-5.34S69.77,6.15,69.77,10c0,2.4-1.62,3.84-3.75,4.65,2.31.9,4,2.76,4,5,0,3.9-4.14,5.64-8.46,5.64s-8.49-1.71-8.49-5.64C53.12,17.43,54.86,15.57,57.17,14.67Zm4.44,2.22c-1.29.18-3.24.93-3.24,2.25,0,1.17,1.32,1.92,3.24,1.92s3.24-.75,3.24-1.92C64.85,17.82,62.87,17.07,61.61,16.89Zm0-7.92c-1.77,0-2.91.72-2.91,1.8s1.68,1.83,2.91,2c1.23-.21,2.88-.87,2.88-2S63.32,9,61.61,9Z"/><path class="cls-0303" d="M80.36,5h10c4.5,0,7,3,7,6.66s-2.46,6.57-7,6.57H85.52V25H80.36Zm9.33,4.35H85.52v4.5h4.17a2.21,2.21,0,0,0,2.4-2.22A2.24,2.24,0,0,0,89.69,9.33Z"/><path class="cls-0303" d="M99.2,6a2.64,2.64,0,1,1,2.64,2.64A2.62,2.62,0,0,1,99.2,6Zm.33,4.47h4.62V25H99.53Z"/><path class="cls-0303" d="M107.51,30.51v-20h4.62v1.68a5.41,5.41,0,0,1,4.29-2c3.63,0,6.36,2.7,6.36,7.59s-2.73,7.62-6.36,7.62a5.38,5.38,0,0,1-4.29-2.07v7.23Zm7.38-16.29a3.69,3.69,0,0,0-2.76,1.32V20a3.8,3.8,0,0,0,2.76,1.32,3.21,3.21,0,0,0,3.18-3.54A3.2,3.2,0,0,0,114.89,14.22Z"/><path class="cls-0303" d="M132,10.14c4.29,0,7.41,3.15,7.41,8.07v1H129.05a3.46,3.46,0,0,0,3.69,2.58,5.74,5.74,0,0,0,3.54-1.23l1.95,2.88a9.45,9.45,0,0,1-6.06,1.92c-4.47,0-7.92-2.91-7.92-7.62A7.48,7.48,0,0,1,132,10.14Zm-3,6.06h6a2.78,2.78,0,0,0-3-2.49A2.86,2.86,0,0,0,129,16.2Z"/><path class="cls-0303" d="M141.65,5h4.62V25h-4.62Z"/><path class="cls-0303" d="M149.3,6a2.64,2.64,0,1,1,2.64,2.64A2.62,2.62,0,0,1,149.3,6Zm.33,4.47h4.62V25h-4.62Z"/><path class="cls-0303" d="M167.42,16.62a2.09,2.09,0,0,0-2.37-2.4,3.58,3.58,0,0,0-2.82,1.41V25h-4.62V10.5h4.62v1.77a6.55,6.55,0,0,1,5-2.13c3.3,0,4.8,1.92,4.8,4.59V25h-4.62Z"/><path class="cls-0303" d="M182.15,10.14c4.29,0,7.41,3.15,7.41,8.07v1H179.24a3.46,3.46,0,0,0,3.69,2.58,5.74,5.74,0,0,0,3.54-1.23l1.95,2.88a9.45,9.45,0,0,1-6.06,1.92c-4.47,0-7.92-2.91-7.92-7.62A7.48,7.48,0,0,1,182.15,10.14Zm-3,6.06h6a2.78,2.78,0,0,0-3-2.49A2.86,2.86,0,0,0,179.18,16.2Z"/><path class="cls-4040" d="M32.63,46.5h-5.5l-.91,4.12h-.74L27.39,42h.74l-.85,3.87h5.49L33.63,42h.74l-1.9,8.67h-.75Z"/><path class="cls-4040" d="M38.2,44.19A2.59,2.59,0,0,1,41,46.94a3.68,3.68,0,0,1-3.45,3.84A2.59,2.59,0,0,1,34.76,48,3.68,3.68,0,0,1,38.2,44.19Zm0,.61A3,3,0,0,0,35.5,48a2,2,0,0,0,2,2.17,3,3,0,0,0,2.7-3.2A2,2,0,0,0,38.2,44.8Z"/><path class="cls-4040" d="M42.31,44.34H43l1.05,5.49,3.5-5.49h.79l-4,6.28h-.77Z"/><path class="cls-4040" d="M51.8,44.19a2.55,2.55,0,0,1,2.67,2.71,3.85,3.85,0,0,1-.11.8h-5.3a1.94,1.94,0,0,0,0,.36,2.08,2.08,0,0,0,2.3,2.13,3.06,3.06,0,0,0,1.9-.67l.26.49a3.71,3.71,0,0,1-2.18.77,2.69,2.69,0,0,1-3-2.77A3.66,3.66,0,0,1,51.8,44.19Zm2,2.69a2,2,0,0,0-2.1-2.11,2.83,2.83,0,0,0-2.6,2.39H53.8A1.23,1.23,0,0,0,53.82,46.88Z"/><path class="cls-4040" d="M56.77,44.34h.67l-.23,1a2.79,2.79,0,0,1,2.38-1.15l-.16.73a3.18,3.18,0,0,0-.45,0,2.56,2.56,0,0,0-1.92,1.16l-1,4.56h-.67Z"/><path class="cls-4040" d="M66.46,44.19a2.55,2.55,0,0,1,2.67,2.71,3.85,3.85,0,0,1-.11.8h-5.3a3.48,3.48,0,0,0,0,.36A2.08,2.08,0,0,0,66,50.19a3,3,0,0,0,1.89-.67l.26.49a3.71,3.71,0,0,1-2.18.77A2.69,2.69,0,0,1,63,48,3.66,3.66,0,0,1,66.46,44.19Zm2,2.69a2,2,0,0,0-2.1-2.11,2.82,2.82,0,0,0-2.59,2.39h4.67A1.23,1.23,0,0,0,68.48,46.88Z"/><path class="cls-4040" d="M76.06,44.34h.69l-1.4,6.28h-.68l.2-.95a2.69,2.69,0,0,1-2.14,1.11,2.36,2.36,0,0,1-2.46-2.58c0-2.1,1.31-4,3.3-4a2.58,2.58,0,0,1,2.27,1.22Zm-3.15,5.83A2.69,2.69,0,0,0,75,49l.67-3a2.29,2.29,0,0,0-2.08-1.14c-1.58,0-2.62,1.62-2.62,3.29A1.87,1.87,0,0,0,72.91,50.17Z"/><path class="cls-4040" d="M81.11,44.19a2.42,2.42,0,0,1,2.27,1.14l-.52.39a1.93,1.93,0,0,0-1.71-.92A3,3,0,0,0,78.36,48a2,2,0,0,0,2.14,2.16,2.24,2.24,0,0,0,1.71-.81l.39.47a2.84,2.84,0,0,1-2.16,1A2.61,2.61,0,0,1,77.64,48,3.65,3.65,0,0,1,81.11,44.19Z"/><path class="cls-4040" d="M88.93,46.36A4,4,0,0,0,89,45.9c0-.78-.59-1.1-1.4-1.1a3.27,3.27,0,0,0-2.13,1.1l-1,4.72h-.68L85.66,42h.68l-.73,3.34a3.48,3.48,0,0,1,2.26-1.1c1.07,0,1.84.5,1.84,1.53a2.73,2.73,0,0,1-.08.53l-1,4.37H88Z"/><path class="cls-4040" d="M97.73,44.19A2.42,2.42,0,0,1,100,45.33l-.52.39a1.91,1.91,0,0,0-1.7-.92A3,3,0,0,0,95,48a2,2,0,0,0,2.15,2.16,2.21,2.21,0,0,0,1.7-.81l.39.47a2.84,2.84,0,0,1-2.16,1A2.61,2.61,0,0,1,94.26,48,3.65,3.65,0,0,1,97.73,44.19Z"/><path class="cls-4040" d="M104.05,44.19a2.59,2.59,0,0,1,2.78,2.75,3.69,3.69,0,0,1-3.46,3.84A2.59,2.59,0,0,1,100.6,48,3.68,3.68,0,0,1,104.05,44.19Zm0,.61a3,3,0,0,0-2.71,3.2,2,2,0,0,0,2,2.17,3,3,0,0,0,2.71-3.2A2,2,0,0,0,104.05,44.8Z"/><path class="cls-4040" d="M108.85,48.59a3.54,3.54,0,0,0-.07.47c0,.78.59,1.11,1.39,1.11a3.23,3.23,0,0,0,2.13-1.11l1-4.72H114l-1.39,6.28H112l.21-.95a3.47,3.47,0,0,1-2.26,1.11c-1.07,0-1.84-.51-1.84-1.54a2.73,2.73,0,0,1,.08-.53l1-4.37h.68Z"/><path class="cls-4040" d="M119.85,46.37a2.19,2.19,0,0,0,.08-.47c0-.78-.6-1.1-1.36-1.1a3.3,3.3,0,0,0-2.18,1.09l-1,4.73h-.67l1.39-6.28h.68l-.21.95a3.48,3.48,0,0,1,2.26-1.1c1.07,0,1.83.5,1.83,1.53a2.62,2.62,0,0,1-.08.53l-1,4.37h-.67Z"/><path class="cls-4040" d="M122,49.39l1-4.45h-1l.13-.6h1l.38-1.71h.69l-.38,1.71h1.28l-.15.6H123.7l-1,4.35a1.7,1.7,0,0,0,0,.28.56.56,0,0,0,.64.6,1.14,1.14,0,0,0,.66-.24l.13.55a1.42,1.42,0,0,1-.89.3c-.78,0-1.25-.33-1.25-1.06A2.33,2.33,0,0,1,122,49.39Z"/><path class="cls-4040" d="M126.53,44.34h.68l-.23,1a2.79,2.79,0,0,1,2.38-1.15l-.16.73a3.21,3.21,0,0,0-.46,0,2.56,2.56,0,0,0-1.91,1.16l-1,4.56h-.68Z"/><path class="cls-4040" d="M129.12,52.51c.34,0,.61-.16,1-.72l.74-1.13-1.22-6.32h.73l1,5.49,3.5-5.49h.79L130.75,52A2.06,2.06,0,0,1,129,53.17a2.17,2.17,0,0,1-.74-.13l.26-.65A1.56,1.56,0,0,0,129.12,52.51Z"/><path class="cls-4040" d="M139.38,41.69H140l-5.12,9.19h-.6Z"/><path class="cls-4040" d="M139.13,53h-.67l1.92-8.67h.68l-.21.95a2.69,2.69,0,0,1,2.16-1.1,2.35,2.35,0,0,1,2.44,2.58c0,2.1-1.31,4-3.29,4a2.56,2.56,0,0,1-2.26-1.23Zm3.68-8.21A2.7,2.7,0,0,0,140.68,46L140,49a2.25,2.25,0,0,0,2.08,1.15c1.58,0,2.61-1.63,2.61-3.28A1.87,1.87,0,0,0,142.81,44.8Z"/><path class="cls-4040" d="M147.69,44.34h.67L147,50.62h-.68Zm.72-2.1a.46.46,0,0,1,.48.45.6.6,0,0,1-.58.59.47.47,0,0,1-.48-.46A.59.59,0,0,1,148.41,42.24Z"/><path class="cls-4040" d="M152.74,44.19a2.55,2.55,0,0,1,2.67,2.71,3.85,3.85,0,0,1-.11.8H150a3.48,3.48,0,0,0,0,.36,2.08,2.08,0,0,0,2.3,2.13,3,3,0,0,0,1.9-.67l.26.49a3.71,3.71,0,0,1-2.18.77,2.69,2.69,0,0,1-3-2.77A3.66,3.66,0,0,1,152.74,44.19Zm2,2.69a2,2,0,0,0-2.1-2.11,2.83,2.83,0,0,0-2.6,2.39h4.68A1.23,1.23,0,0,0,154.76,46.88Z"/><path class="cls-4040" d="M159.84,49.23a2.47,2.47,0,0,0,2.07,1c1,0,1.66-.63,1.66-1.3s-.73-.93-1.51-1.24-1.84-.75-1.84-1.68.83-1.8,2.28-1.8a2.77,2.77,0,0,1,2.29,1l-.43.43a2.3,2.3,0,0,0-1.91-.88c-.95,0-1.55.49-1.55,1.13s.69.86,1.45,1.16c.91.36,1.91.75,1.91,1.75a2.13,2.13,0,0,1-2.37,2,2.92,2.92,0,0,1-2.52-1.11Z"/><path class="cls-4040" d="M169.25,44.19a2.55,2.55,0,0,1,2.67,2.71,3.85,3.85,0,0,1-.11.8h-5.3a1.94,1.94,0,0,0,0,.36,2.08,2.08,0,0,0,2.3,2.13,3.06,3.06,0,0,0,1.9-.67l.26.49a3.71,3.71,0,0,1-2.18.77,2.69,2.69,0,0,1-3-2.77A3.66,3.66,0,0,1,169.25,44.19Zm2,2.69a2,2,0,0,0-2.1-2.11,2.83,2.83,0,0,0-2.6,2.39h4.68A1.23,1.23,0,0,0,171.27,46.88Z"/><path class="cls-4040" d="M176.54,44.19a2.42,2.42,0,0,1,2.27,1.14l-.52.39a1.93,1.93,0,0,0-1.71-.92A3,3,0,0,0,173.79,48a2,2,0,0,0,2.14,2.16,2.24,2.24,0,0,0,1.71-.81l.39.47a2.84,2.84,0,0,1-2.16,1,2.61,2.61,0,0,1-2.8-2.78A3.65,3.65,0,0,1,176.54,44.19Z"/><path class="cls-4040" d="M179.57,49.39l1-4.45h-1l.13-.6h1l.38-1.71h.69l-.38,1.71h1.28l-.15.6h-1.27l-1,4.35a1,1,0,0,0,0,.28.56.56,0,0,0,.64.6,1.14,1.14,0,0,0,.66-.24l.13.55a1.43,1.43,0,0,1-.9.3c-.78,0-1.24-.33-1.24-1.06A2.33,2.33,0,0,1,179.57,49.39Z"/><path class="cls-4040" d="M184.08,44.34h.68l-1.39,6.28h-.68Zm.73-2.1a.46.46,0,0,1,.48.45.6.6,0,0,1-.58.59.46.46,0,0,1-.48-.46A.59.59,0,0,1,184.81,42.24Z"/><path class="cls-4040" d="M189.09,44.19a2.59,2.59,0,0,1,2.78,2.75,3.69,3.69,0,0,1-3.46,3.84A2.59,2.59,0,0,1,185.64,48,3.68,3.68,0,0,1,189.09,44.19Zm0,.61a3,3,0,0,0-2.71,3.2,2,2,0,0,0,2,2.17,3,3,0,0,0,2.71-3.2A2,2,0,0,0,189.09,44.8Z"/><path class="cls-4040" d="M197.94,46.37a2.19,2.19,0,0,0,.08-.47c0-.78-.6-1.1-1.37-1.1a3.28,3.28,0,0,0-2.17,1.09l-1,4.73h-.67l1.39-6.28h.67l-.2.95a3.44,3.44,0,0,1,2.26-1.1c1.06,0,1.83.5,1.83,1.53a2.62,2.62,0,0,1-.08.53l-1,4.37H197Z"/><path class="cls-4040" d="M204.5,44.94h-1l.13-.6h1l.12-.57c.27-1.23.9-2,1.95-2a1.63,1.63,0,0,1,1,.27l-.29.5a1.09,1.09,0,0,0-.69-.19c-.71,0-1.07.5-1.27,1.37l-.13.57h1.27l-.12.6h-1.28l-1.26,5.68h-.68Z"/><path class="cls-4040" d="M210.08,44.19a2.59,2.59,0,0,1,2.78,2.75,3.68,3.68,0,0,1-3.45,3.84A2.59,2.59,0,0,1,206.64,48,3.68,3.68,0,0,1,210.08,44.19Zm0,.61a3,3,0,0,0-2.7,3.2,2,2,0,0,0,2,2.17,3,3,0,0,0,2.7-3.2A2,2,0,0,0,210.08,44.8Z"/><path class="cls-4040" d="M215.15,44.34h.68l-.24,1A2.79,2.79,0,0,1,218,44.21l-.15.73a3.21,3.21,0,0,0-.46,0,2.52,2.52,0,0,0-1.91,1.16l-1,4.56h-.68Z"/><path class="cls-4040" d="M221.79,50.62h-.67L223,42h.68L223,45.29a2.69,2.69,0,0,1,2.16-1.1,2.35,2.35,0,0,1,2.44,2.58c0,2.1-1.31,4-3.29,4A2.56,2.56,0,0,1,222,49.55Zm3.15-5.82A2.7,2.7,0,0,0,222.81,46l-.66,3a2.25,2.25,0,0,0,2.08,1.15c1.58,0,2.61-1.63,2.61-3.28A1.87,1.87,0,0,0,224.94,44.8Z"/><path class="cls-4040" d="M229.87,44.34h.67l-.23,1a2.79,2.79,0,0,1,2.38-1.15l-.16.73a3,3,0,0,0-.45,0,2.52,2.52,0,0,0-1.91,1.16l-1,4.56h-.67Z"/><path class="cls-4040" d="M236.26,44.19a2.55,2.55,0,0,1,2.67,2.71,3.85,3.85,0,0,1-.11.8h-5.3a3.48,3.48,0,0,0,0,.36,2.08,2.08,0,0,0,2.3,2.13,3,3,0,0,0,1.9-.67L238,50a3.71,3.71,0,0,1-2.18.77,2.69,2.69,0,0,1-3-2.77A3.66,3.66,0,0,1,236.26,44.19Zm2,2.69a2,2,0,0,0-2.1-2.11,2.84,2.84,0,0,0-2.6,2.39h4.68A1.23,1.23,0,0,0,238.28,46.88Z"/><path class="cls-4040" d="M245.86,44.34h.68l-1.39,6.28h-.69l.21-.95a2.69,2.69,0,0,1-2.14,1.11,2.35,2.35,0,0,1-2.46-2.58c0-2.1,1.31-4,3.3-4a2.58,2.58,0,0,1,2.27,1.22Zm-3.15,5.83A2.69,2.69,0,0,0,244.84,49l.66-3a2.27,2.27,0,0,0-2.08-1.14c-1.57,0-2.61,1.62-2.61,3.29A1.87,1.87,0,0,0,242.71,50.17Z"/><path class="cls-4040" d="M249.74,47.59l-1.45,1.15-.42,1.88h-.68L249.11,42h.67l-1.31,5.93,4.45-3.54h.94l-3.56,2.84,2.16,3.44h-.83Z"/><path class="cls-4040" d="M260,42h.69l-1.93,8.67h-.69l.21-.95a2.69,2.69,0,0,1-2.14,1.11,2.35,2.35,0,0,1-2.46-2.58c0-2.1,1.31-4,3.3-4a2.58,2.58,0,0,1,2.27,1.22Zm-3.68,8.22A2.69,2.69,0,0,0,258.49,49l.66-3a2.27,2.27,0,0,0-2.08-1.14c-1.57,0-2.61,1.62-2.61,3.29A1.87,1.87,0,0,0,256.36,50.17Z"/><path class="cls-4040" d="M264.52,44.19a2.59,2.59,0,0,1,2.79,2.75,3.69,3.69,0,0,1-3.46,3.84A2.59,2.59,0,0,1,261.08,48,3.68,3.68,0,0,1,264.52,44.19Zm0,.61a3,3,0,0,0-2.7,3.2,2,2,0,0,0,2,2.17,3,3,0,0,0,2.7-3.2A2,2,0,0,0,264.52,44.8Z"/><path class="cls-4040" d="M273,45.25l-2.95,5.37h-.65l-.65-6.28h.69l.48,5.33,3-5.33h.57l.58,5.33,2.86-5.33h.76l-3.44,6.28h-.65Z"/><path class="cls-4040" d="M282.66,46.37a2.19,2.19,0,0,0,.08-.47c0-.78-.6-1.1-1.37-1.1a3.28,3.28,0,0,0-2.17,1.09l-1,4.73h-.68l1.4-6.28h.67l-.21.95a3.48,3.48,0,0,1,2.27-1.1c1.06,0,1.83.5,1.83,1.53a2.62,2.62,0,0,1-.08.53l-1,4.37h-.68Z"/><path class="cls-4040" d="M293.76,44.34h.69l-1.39,6.28h-.69l.21-.95a2.71,2.71,0,0,1-2.15,1.11A2.35,2.35,0,0,1,288,48.2c0-2.1,1.31-4,3.3-4a2.57,2.57,0,0,1,2.26,1.22Zm-3.14,5.83A2.69,2.69,0,0,0,292.75,49l.66-3a2.28,2.28,0,0,0-2.08-1.14c-1.57,0-2.61,1.62-2.61,3.29A1.86,1.86,0,0,0,290.62,50.17Z"/><path class="cls-4040" d="M300.27,46.37a2.19,2.19,0,0,0,.08-.47c0-.78-.6-1.1-1.36-1.1a3.26,3.26,0,0,0-2.17,1.09l-1,4.73h-.68l1.39-6.28h.68l-.21.95a3.48,3.48,0,0,1,2.26-1.1c1.07,0,1.83.5,1.83,1.53a3.51,3.51,0,0,1-.07.53l-1,4.37h-.67Z"/><path class="cls-4040" d="M308.61,42h.68l-1.92,8.67h-.69l.21-.95a2.7,2.7,0,0,1-2.14,1.11,2.35,2.35,0,0,1-2.46-2.58c0-2.1,1.31-4,3.3-4a2.56,2.56,0,0,1,2.26,1.22Zm-3.68,8.22A2.69,2.69,0,0,0,307.06,49l.66-3a2.27,2.27,0,0,0-2.08-1.14c-1.57,0-2.61,1.62-2.61,3.29A1.86,1.86,0,0,0,304.93,50.17Z"/><path class="cls-4040" d="M319.27,42H320L318,50.62h-.69l.21-.95a2.7,2.7,0,0,1-2.14,1.11A2.35,2.35,0,0,1,313,48.2c0-2.1,1.31-4,3.3-4a2.56,2.56,0,0,1,2.26,1.22Zm-3.68,8.22A2.69,2.69,0,0,0,317.72,49l.66-3a2.27,2.27,0,0,0-2.08-1.14c-1.57,0-2.61,1.62-2.61,3.29A1.86,1.86,0,0,0,315.59,50.17Z"/><path class="cls-4040" d="M323.8,44.19a2.55,2.55,0,0,1,2.67,2.71,3.85,3.85,0,0,1-.11.8h-5.3a3.48,3.48,0,0,0,0,.36,2.08,2.08,0,0,0,2.3,2.13,3,3,0,0,0,1.9-.67l.26.49a3.71,3.71,0,0,1-2.18.77,2.69,2.69,0,0,1-3-2.77A3.66,3.66,0,0,1,323.8,44.19Zm2,2.69a2,2,0,0,0-2.1-2.11,2.84,2.84,0,0,0-2.6,2.39h4.68A1.23,1.23,0,0,0,325.82,46.88Z"/><path class="cls-4040" d="M327.77,49.39l1-4.45h-1l.13-.6h1l.38-1.71H330l-.37,1.71h1.27l-.14.6h-1.28l-1,4.35a1.91,1.91,0,0,0,0,.28.56.56,0,0,0,.63.6,1.2,1.2,0,0,0,.67-.24l.13.55a1.47,1.47,0,0,1-.9.3c-.78,0-1.25-.33-1.25-1.06A1.57,1.57,0,0,1,327.77,49.39Z"/><path class="cls-4040" d="M336.91,44.34h.69l-1.39,6.28h-.69l.2-.95a2.69,2.69,0,0,1-2.14,1.11,2.36,2.36,0,0,1-2.46-2.58c0-2.1,1.32-4,3.3-4a2.58,2.58,0,0,1,2.27,1.22Zm-3.15,5.83A2.67,2.67,0,0,0,335.89,49l.67-3a2.29,2.29,0,0,0-2.08-1.14c-1.58,0-2.62,1.62-2.62,3.29A1.87,1.87,0,0,0,333.76,50.17Z"/><path class="cls-4040" d="M339.64,44.34h.67l-1.39,6.28h-.67Zm.72-2.1a.46.46,0,0,1,.49.45.61.61,0,0,1-.59.59.47.47,0,0,1-.48-.46A.59.59,0,0,1,340.36,42.24Z"/><path class="cls-4040" d="M342.87,42h.68l-1.91,8.67H341Z"/><path class="cls-4040" d="M343.9,49.23a2.5,2.5,0,0,0,2.07,1c1,0,1.66-.63,1.66-1.3s-.73-.93-1.51-1.24-1.84-.75-1.84-1.68.83-1.8,2.29-1.8a2.76,2.76,0,0,1,2.28,1l-.42.43a2.32,2.32,0,0,0-1.92-.88c-.94,0-1.54.49-1.54,1.13s.69.86,1.44,1.16c.91.36,1.91.75,1.91,1.75a2.12,2.12,0,0,1-2.36,2,2.93,2.93,0,0,1-2.53-1.11Z"/><circle class="cls-5" cx="9.8" cy="45.65" r="8.8"/><line class="cls-6" x1="9.06" y1="44.9" x2="14.63" y2="50.47"/><polygon class="cls-0303" points="8.42 49.51 9.93 45.78 13.66 44.27 4.83 40.68 8.42 49.51"/><path class="cls-7" d="M2.58,109.2H7a2.65,2.65,0,0,1,3,2.72A2.44,2.44,0,0,1,8,114.37,2.69,2.69,0,0,1,10.12,117,2.76,2.76,0,0,1,7,119.87H2.58ZM6.85,114A1.9,1.9,0,0,0,9,112a1.92,1.92,0,0,0-2.1-2H3.49v4ZM6.92,119a2,2,0,0,0,2.24-2.11,2.07,2.07,0,0,0-2.24-2.11H3.49V119Z"/><path class="cls-7" d="M17.29,119a3.4,3.4,0,0,1-2.63,1.11A2.6,2.6,0,0,1,12,117.49a2.55,2.55,0,0,1,2.71-2.55A3.38,3.38,0,0,1,17.29,116v-1.57a1.85,1.85,0,0,0-2.09-1.77,3,3,0,0,0-2.41,1.13l-.47-.56a3.71,3.71,0,0,1,3-1.31c1.59,0,2.84.75,2.84,2.48v5.44h-.83Zm0-2.3A2.9,2.9,0,0,0,15,115.58a1.92,1.92,0,1,0,0,3.83,2.89,2.89,0,0,0,2.34-1.06Z"/><path class="cls-7" d="M25.92,114.66c0-1.51-.75-2-1.87-2A3.36,3.36,0,0,0,21.54,114v5.84h-.83v-7.73h.83v1.17A3.92,3.92,0,0,1,24.32,112a2.18,2.18,0,0,1,2.44,2.51v5.41h-.84Z"/><path class="cls-7" d="M29.84,121.2a3,3,0,0,0,2.56,1.09A2.36,2.36,0,0,0,35,119.81v-1.22A3.31,3.31,0,0,1,32.36,120c-2.05,0-3.46-1.55-3.46-4s1.41-4,3.46-4A3.29,3.29,0,0,1,35,113.39v-1.25h.85v7.65c0,2.37-1.6,3.22-3.49,3.22a3.71,3.71,0,0,1-3-1.17Zm5.2-7.09a3.1,3.1,0,0,0-2.54-1.41c-1.71,0-2.71,1.43-2.71,3.3s1,3.28,2.71,3.28A3.1,3.1,0,0,0,35,117.87Z"/><path class="cls-7" d="M38.47,109.2h.83v10.67h-.83Z"/><path class="cls-7" d="M46.8,119a3.36,3.36,0,0,1-2.62,1.11,2.6,2.6,0,0,1-2.71-2.58,2.55,2.55,0,0,1,2.71-2.55A3.34,3.34,0,0,1,46.8,116v-1.57a1.84,1.84,0,0,0-2.08-1.77,3,3,0,0,0-2.41,1.13l-.47-.56a3.71,3.71,0,0,1,3-1.31c1.59,0,2.84.75,2.84,2.48v5.44H46.8Zm0-2.3a2.87,2.87,0,0,0-2.33-1.08,1.92,1.92,0,1,0,0,3.83,2.85,2.85,0,0,0,2.33-1.06Z"/><path class="cls-7" d="M55.92,118.64a3.28,3.28,0,0,1-2.68,1.43c-2.05,0-3.46-1.57-3.46-4S51.19,112,53.24,112a3.29,3.29,0,0,1,2.68,1.44V109.2h.85v10.67h-.85Zm0-4.53a3.07,3.07,0,0,0-2.54-1.41c-1.71,0-2.71,1.44-2.71,3.32s1,3.29,2.71,3.29a3.09,3.09,0,0,0,2.54-1.37Z"/><path class="cls-7" d="M62.64,112c2.36,0,3.65,1.87,3.65,4.1v.22H59.83a3,3,0,0,0,3,3.07,3.4,3.4,0,0,0,2.55-1.07l.43.55a4,4,0,0,1-3,1.25,4.07,4.07,0,0,1-.15-8.12Zm-2.81,3.67h5.61a2.83,2.83,0,0,0-2.81-3A2.9,2.9,0,0,0,59.83,115.62Z"/><path class="cls-7" d="M68.26,118.22a3.16,3.16,0,0,0,2.49,1.14c1.3,0,2.07-.64,2.07-1.54s-1.06-1.28-2.18-1.56c-1.28-.32-2.7-.66-2.7-2.17,0-1.18,1-2.14,2.75-2.14a3.51,3.51,0,0,1,2.77,1.15l-.46.58a2.82,2.82,0,0,0-2.31-1c-1.2,0-1.94.6-1.94,1.4s1,1.12,2.07,1.39c1.33.34,2.82.7,2.82,2.35,0,1.25-1,2.28-2.9,2.28a3.75,3.75,0,0,1-3-1.22Z"/><path class="cls-7" d="M81,114.61c0-1.49-.76-1.91-1.88-1.91A3.36,3.36,0,0,0,76.61,114v5.84h-.83V109.2h.83v4.11A3.94,3.94,0,0,1,79.4,112a2.16,2.16,0,0,1,2.43,2.48v5.44H81Z"/><path class="cls-7" d="M2.58,149.2H7a2.65,2.65,0,0,1,3,2.72A2.44,2.44,0,0,1,8,154.37,2.69,2.69,0,0,1,10.12,157,2.76,2.76,0,0,1,7,159.87H2.58ZM6.85,154A1.9,1.9,0,0,0,9,152a1.92,1.92,0,0,0-2.1-2H3.49V154ZM6.92,159a2,2,0,0,0,2.24-2.11,2.07,2.07,0,0,0-2.24-2.11H3.49V159Z"/><path class="cls-7" d="M17.59,158.74a4,4,0,0,1-2.79,1.33c-1.58,0-2.43-.74-2.43-2.49v-5.44h.83v5.25c0,1.51.76,1.92,1.88,1.92A3.33,3.33,0,0,0,17.59,158v-5.89h.83v7.73h-.83Z"/><path class="cls-7" d="M21,152.14h.83v1.33A3.35,3.35,0,0,1,24.45,152v.91c-.14,0-.25,0-.41,0a3,3,0,0,0-2.2,1.38v5.63H21Z"/><path class="cls-7" d="M28.36,156.19l-1.44,1.36v2.32h-.84V149.2h.84v7.36l4.54-4.42h1.12L29,155.63l3.59,4.24H31.44Z"/><path class="cls-7" d="M33.94,150.19a.65.65,0,0,1,.64-.64.64.64,0,1,1,0,1.28A.65.65,0,0,1,33.94,150.19Zm.22,1.95H35v7.73h-.84Z"/><path class="cls-7" d="M42.8,154.66c0-1.51-.75-2-1.87-2A3.36,3.36,0,0,0,38.42,154v5.84h-.83v-7.73h.83v1.17A3.92,3.92,0,0,1,41.2,152a2.18,2.18,0,0,1,2.44,2.51v5.41H42.8Z"/><path class="cls-7" d="M51.14,159a3.38,3.38,0,0,1-2.63,1.11,2.59,2.59,0,0,1-2.7-2.58,2.55,2.55,0,0,1,2.7-2.55A3.36,3.36,0,0,1,51.14,156v-1.57a1.85,1.85,0,0,0-2.08-1.77,3,3,0,0,0-2.42,1.13l-.46-.56a3.71,3.71,0,0,1,3-1.31c1.58,0,2.83.75,2.83,2.48v5.44h-.83Zm0-2.3a2.89,2.89,0,0,0-2.34-1.08,1.92,1.92,0,1,0,0,3.83,2.87,2.87,0,0,0,2.34-1.06Z"/><path class="cls-7" d="M58.74,149.2h6.77V150H59.65V154H65.4v.84H59.65v5.05h-.91Z"/><path class="cls-7" d="M72.29,159a3.37,3.37,0,0,1-2.62,1.11A2.6,2.6,0,0,1,67,157.49a2.55,2.55,0,0,1,2.71-2.55A3.36,3.36,0,0,1,72.29,156v-1.57a1.85,1.85,0,0,0-2.08-1.77,3,3,0,0,0-2.42,1.13l-.46-.56a3.71,3.71,0,0,1,3-1.31c1.59,0,2.83.75,2.83,2.48v5.44h-.83Zm0-2.3A2.88,2.88,0,0,0,70,155.58a1.92,1.92,0,1,0,0,3.83,2.87,2.87,0,0,0,2.33-1.06Z"/><path class="cls-7" d="M75.54,158.22A3.16,3.16,0,0,0,78,159.36c1.3,0,2.07-.64,2.07-1.54s-1.06-1.28-2.18-1.56c-1.28-.32-2.7-.66-2.7-2.17,0-1.18,1-2.14,2.75-2.14a3.51,3.51,0,0,1,2.77,1.15l-.46.58a2.82,2.82,0,0,0-2.31-1c-1.2,0-1.94.6-1.94,1.4s1,1.12,2.07,1.39c1.33.34,2.82.7,2.82,2.35,0,1.25-1,2.28-2.9,2.28a3.75,3.75,0,0,1-3-1.22Z"/><path class="cls-7" d="M82.61,156a3.74,3.74,0,1,1,3.71,4.07A3.75,3.75,0,0,1,82.61,156Zm6.55,0c0-1.71-1-3.3-2.84-3.3s-2.81,1.59-2.81,3.3,1,3.31,2.81,3.31S89.16,157.73,89.16,156Z"/><path class="cls-7" d="M2.18,194.54A5.29,5.29,0,0,1,7.56,189a4.82,4.82,0,0,1,3.92,1.89l-.77.5a3.89,3.89,0,0,0-3.15-1.56,4.7,4.7,0,0,0,0,9.38,3.88,3.88,0,0,0,3.15-1.55l.77.48a4.81,4.81,0,0,1-3.92,1.91A5.3,5.3,0,0,1,2.18,194.54Z"/><path class="cls-7" d="M20,197.25H14.31l-1.08,2.62h-1l4.37-10.67h1.14l4.37,10.67h-1Zm-5.4-.83H19.7l-2.56-6.33Z"/><path class="cls-7" d="M26.92,195.46H24.56v4.41h-.91V189.2h4a3,3,0,0,1,3.24,3.12,2.94,2.94,0,0,1-3,3.07L31,199.87h-1.1Zm.64-5.43h-3v4.59h3a2.3,2.3,0,1,0,0-4.59Z"/><path class="cls-7" d="M34.29,191.61l-1.57,1-.3-.53,1.66-.85-1.66-.85.3-.53,1.57,1-.1-1.87h.61l-.09,1.87,1.58-1,.29.53-1.67.85,1.67.85-.29.53-1.58-1,.09,1.88h-.61Z"/><path class="cls-7" d="M2.18,234.54A5.29,5.29,0,0,1,7.56,229a4.82,4.82,0,0,1,3.92,1.89l-.77.5a3.89,3.89,0,0,0-3.15-1.56,4.7,4.7,0,0,0,0,9.38,3.88,3.88,0,0,0,3.15-1.55l.77.48a4.81,4.81,0,0,1-3.92,1.91A5.3,5.3,0,0,1,2.18,234.54Z"/><path class="cls-7" d="M12.85,236a3.74,3.74,0,1,1,3.71,4.07A3.75,3.75,0,0,1,12.85,236Zm6.55,0c0-1.71-1-3.3-2.84-3.3s-2.81,1.59-2.81,3.3,1,3.31,2.81,3.31S19.4,237.73,19.4,236Z"/><path class="cls-7" d="M22.43,229.2h.84v10.67h-.84Z"/><path class="cls-7" d="M25.41,236a3.74,3.74,0,1,1,3.71,4.07A3.75,3.75,0,0,1,25.41,236ZM32,236c0-1.71-1-3.3-2.84-3.3s-2.81,1.59-2.81,3.3,1,3.31,2.81,3.31S32,237.73,32,236Z"/><path class="cls-7" d="M44.2,234.46c0-1.09-.47-1.76-1.56-1.76a2.86,2.86,0,0,0-2.2,1.31v5.86h-.85v-5.41c0-1.09-.45-1.76-1.55-1.76A3,3,0,0,0,35.83,234v5.84H35v-7.73h.84v1.17A3.37,3.37,0,0,1,38.32,232a2,2,0,0,1,2,1.46A3.21,3.21,0,0,1,42.92,232c1.42,0,2.11.8,2.11,2.35v5.57H44.2Z"/><path class="cls-7" d="M47.62,229.2h.83v4.19A3.3,3.3,0,0,1,51.14,232c2.06,0,3.46,1.62,3.46,4.07s-1.41,4-3.46,4a3.3,3.3,0,0,1-2.69-1.43v1.23h-.83ZM51,239.31c1.72,0,2.7-1.42,2.7-3.29s-1-3.32-2.7-3.32a3.14,3.14,0,0,0-2.55,1.41v3.83A3.14,3.14,0,0,0,51,239.31Z"/><path class="cls-7" d="M56.53,230.19a.65.65,0,0,1,.64-.64.64.64,0,1,1,0,1.28A.65.65,0,0,1,56.53,230.19Zm.22,1.95h.84v7.73h-.84Z"/><path class="cls-7" d="M65.09,239a3.37,3.37,0,0,1-2.62,1.11,2.6,2.6,0,0,1-2.71-2.58,2.55,2.55,0,0,1,2.71-2.55A3.36,3.36,0,0,1,65.09,236v-1.57A1.85,1.85,0,0,0,63,232.69a3,3,0,0,0-2.42,1.13l-.46-.56a3.71,3.71,0,0,1,3-1.31c1.58,0,2.83.75,2.83,2.48v5.44h-.83Zm0-2.3a2.89,2.89,0,0,0-2.34-1.08,1.92,1.92,0,1,0,0,3.83,2.87,2.87,0,0,0,2.34-1.06Z"/><path class="cls-7" d="M2.18,274.54A5.29,5.29,0,0,1,7.56,269a4.82,4.82,0,0,1,3.92,1.89l-.77.5a3.89,3.89,0,0,0-3.15-1.56,4.7,4.7,0,0,0,0,9.38,3.88,3.88,0,0,0,3.15-1.55l.77.48a4.81,4.81,0,0,1-3.92,1.91A5.3,5.3,0,0,1,2.18,274.54Z"/><path class="cls-7" d="M12.85,276a3.74,3.74,0,1,1,3.71,4.07A3.75,3.75,0,0,1,12.85,276Zm6.55,0c0-1.71-1-3.3-2.84-3.3s-2.81,1.59-2.81,3.3,1,3.31,2.81,3.31S19.4,277.73,19.4,276Z"/><path class="cls-7" d="M22.43,269.2h.84v10.67h-.84Z"/><path class="cls-7" d="M25.41,276a3.74,3.74,0,1,1,3.71,4.07A3.75,3.75,0,0,1,25.41,276ZM32,276c0-1.71-1-3.3-2.84-3.3s-2.81,1.59-2.81,3.3,1,3.31,2.81,3.31S32,277.73,32,276Z"/><path class="cls-7" d="M44.2,274.46c0-1.09-.47-1.76-1.56-1.76a2.86,2.86,0,0,0-2.2,1.31v5.86h-.85v-5.41c0-1.09-.45-1.76-1.55-1.76A3,3,0,0,0,35.83,274v5.84H35v-7.73h.84v1.17A3.37,3.37,0,0,1,38.32,272a2,2,0,0,1,2,1.46A3.21,3.21,0,0,1,42.92,272c1.42,0,2.11.8,2.11,2.35v5.57H44.2Z"/><path class="cls-7" d="M47.62,269.2h.83v4.19A3.3,3.3,0,0,1,51.14,272c2.06,0,3.46,1.62,3.46,4.07s-1.41,4.05-3.46,4.05a3.3,3.3,0,0,1-2.69-1.43v1.23h-.83ZM51,279.31c1.72,0,2.7-1.42,2.7-3.29s-1-3.32-2.7-3.32a3.14,3.14,0,0,0-2.55,1.41v3.83A3.14,3.14,0,0,0,51,279.31Z"/><path class="cls-7" d="M56.53,270.19a.65.65,0,0,1,.64-.64.64.64,0,1,1,0,1.28A.65.65,0,0,1,56.53,270.19Zm.22,1.95h.84v7.73h-.84Z"/><path class="cls-7" d="M65.09,279a3.37,3.37,0,0,1-2.62,1.11,2.6,2.6,0,0,1-2.71-2.58,2.55,2.55,0,0,1,2.71-2.55A3.36,3.36,0,0,1,65.09,276v-1.57A1.85,1.85,0,0,0,63,272.69a3,3,0,0,0-2.42,1.13l-.46-.56a3.71,3.71,0,0,1,3-1.31c1.58,0,2.83.75,2.83,2.48v5.44h-.83Zm0-2.3a2.89,2.89,0,0,0-2.34-1.08,1.92,1.92,0,1,0,0,3.83,2.87,2.87,0,0,0,2.34-1.06Z"/><path class="cls-7" d="M69.68,271.61l-1.57,1-.3-.53,1.66-.85-1.66-.85.3-.53,1.57,1L69.59,269h.6l-.09,1.87,1.58-1,.29.53-1.66.85,1.66.85-.29.53-1.58-1,.09,1.88h-.6Z"/><path class="cls-7" d="M2.58,309.2H9.35V310H3.49v4H9.24v.84H3.49V319H9.35v.83H2.58Z"/><path class="cls-7" d="M11.73,318.38v-5.49H10.45v-.75h1.28V310h.85v2.11h1.57v.75H12.58v5.37c0,.62.25,1.05.8,1.05a1.15,1.15,0,0,0,.86-.37l.32.64a1.72,1.72,0,0,1-1.31.49C12.23,320.07,11.73,319.44,11.73,318.38Z"/><path class="cls-7" d="M21.19,314.61c0-1.49-.75-1.91-1.87-1.91A3.36,3.36,0,0,0,16.8,314v5.84H16V309.2h.83v4.11A3.94,3.94,0,0,1,19.59,312,2.16,2.16,0,0,1,22,314.43v5.44h-.83Z"/><path class="cls-7" d="M24.39,310.19a.65.65,0,0,1,.64-.64.64.64,0,1,1,0,1.28A.65.65,0,0,1,24.39,310.19Zm.22,1.95h.83v7.73h-.83Z"/><path class="cls-7" d="M27.59,316a3.74,3.74,0,1,1,3.71,4.07A3.75,3.75,0,0,1,27.59,316Zm6.54,0c0-1.71-1-3.3-2.83-3.3s-2.82,1.59-2.82,3.3,1,3.31,2.82,3.31S34.13,317.73,34.13,316Z"/><path class="cls-7" d="M37.17,322.82V312.14H38v1.23A3.3,3.3,0,0,1,40.69,312c2.07,0,3.46,1.57,3.46,4.05s-1.39,4.07-3.46,4.07A3.32,3.32,0,0,1,38,318.62v4.2Zm3.38-10.12A3.12,3.12,0,0,0,38,314.09v3.81a3.16,3.16,0,0,0,2.55,1.41c1.73,0,2.7-1.44,2.7-3.31S42.28,312.7,40.55,312.7Z"/><path class="cls-7" d="M46.07,310.19a.65.65,0,0,1,.64-.64.64.64,0,1,1,0,1.28A.65.65,0,0,1,46.07,310.19Zm.22,1.95h.83v7.73h-.83Z"/><path class="cls-7" d="M54.63,319A3.38,3.38,0,0,1,52,320.07a2.59,2.59,0,0,1-2.7-2.58,2.55,2.55,0,0,1,2.7-2.55A3.36,3.36,0,0,1,54.63,316v-1.57a1.85,1.85,0,0,0-2.08-1.77,3,3,0,0,0-2.42,1.13l-.46-.56a3.7,3.7,0,0,1,3-1.31c1.58,0,2.83.75,2.83,2.48v5.44h-.83Zm0-2.3a2.9,2.9,0,0,0-2.34-1.08,1.92,1.92,0,1,0,0,3.83,2.89,2.89,0,0,0,2.34-1.06Z"/><path class="cls-7" d="M59.22,311.61l-1.57,1-.3-.53,1.66-.85-1.66-.85.3-.53,1.57,1-.1-1.87h.61l-.1,1.87,1.59-1,.29.53-1.67.85,1.67.85-.29.53-1.59-1,.1,1.88h-.61Z"/><path class="cls-7" d="M4.68,354.85l-1.19,1.29v3.73H2.58V349.2h.91V355l5.15-5.84H9.81l-4.54,5.09,5,5.58H9.08Z"/><path class="cls-7" d="M10.88,356a3.74,3.74,0,1,1,3.72,4.07A3.75,3.75,0,0,1,10.88,356Zm6.55,0c0-1.71-1-3.3-2.83-3.3s-2.82,1.59-2.82,3.3,1,3.31,2.82,3.31S17.43,357.73,17.43,356Z"/><path class="cls-7" d="M20.29,358.22a3.18,3.18,0,0,0,2.5,1.14c1.29,0,2.06-.64,2.06-1.54s-1.05-1.28-2.17-1.56c-1.29-.32-2.71-.66-2.71-2.17,0-1.18,1-2.14,2.75-2.14a3.51,3.51,0,0,1,2.77,1.15l-.46.58a2.82,2.82,0,0,0-2.31-1c-1.2,0-1.93.6-1.93,1.4s1,1.12,2.06,1.39c1.33.34,2.82.7,2.82,2.35,0,1.25-1,2.28-2.9,2.28a3.75,3.75,0,0,1-3-1.22Z"/><path class="cls-7" d="M27.36,356a3.74,3.74,0,1,1,3.72,4.07A3.75,3.75,0,0,1,27.36,356Zm6.55,0c0-1.71-1-3.3-2.83-3.3s-2.82,1.59-2.82,3.3,1,3.31,2.82,3.31S33.91,357.73,33.91,356Z"/><path class="cls-7" d="M35.76,352.14h.93l2.8,6.76,2.8-6.76h1L40,359.87H39Z"/><path class="cls-7" d="M44.19,356a3.74,3.74,0,1,1,3.72,4.07A3.75,3.75,0,0,1,44.19,356Zm6.55,0c0-1.71-1-3.3-2.83-3.3s-2.82,1.59-2.82,3.3,1,3.31,2.82,3.31S50.74,357.73,50.74,356Z"/><path class="cls-7" d="M55,351.61l-1.57,1-.31-.53,1.67-.85-1.67-.85.31-.53,1.57,1-.1-1.87h.61l-.1,1.87,1.59-1,.28.53-1.66.85,1.66.85-.28.53-1.59-1,.1,1.88h-.61Z"/><path class="cls-7" d="M2.58,389.2h.91V399H8.66v.83H2.58Z"/><path class="cls-7" d="M10.39,390.19a.65.65,0,0,1,.64-.64.64.64,0,1,1,0,1.28A.65.65,0,0,1,10.39,390.19Zm.22,1.95h.83v7.73h-.83Z"/><path class="cls-7" d="M14,389.2h.84v4.19A3.3,3.3,0,0,1,17.56,392C19.62,392,21,393.57,21,396s-1.41,4.05-3.45,4.05a3.28,3.28,0,0,1-2.69-1.43v1.23H14Zm3.38,10.11c1.73,0,2.71-1.42,2.71-3.29s-1-3.32-2.71-3.32a3.12,3.12,0,0,0-2.54,1.41v3.83A3.12,3.12,0,0,0,17.41,399.31Z"/><path class="cls-7" d="M23.46,402.26c.53,0,.88-.21,1.18-.95l.61-1.37L22,392.14h.92l2.8,6.76,2.81-6.76h.94l-4,9.43a2.05,2.05,0,0,1-2,1.44,3.44,3.44,0,0,1-.81-.11l.14-.77A1.94,1.94,0,0,0,23.46,402.26Z"/><path class="cls-7" d="M35.78,399a3.37,3.37,0,0,1-2.62,1.11,2.6,2.6,0,0,1-2.71-2.58,2.55,2.55,0,0,1,2.71-2.55A3.36,3.36,0,0,1,35.78,396v-1.57a1.85,1.85,0,0,0-2.08-1.77,3,3,0,0,0-2.42,1.13l-.46-.56a3.7,3.7,0,0,1,3-1.31c1.58,0,2.83.75,2.83,2.48v5.44h-.83Zm0-2.3a2.89,2.89,0,0,0-2.34-1.08,1.92,1.92,0,1,0,0,3.83,2.87,2.87,0,0,0,2.34-1.06Z"/><path class="cls-7" d="M3.49,430.65v9.22H2.58V429.2h.93l6.69,9.09V429.2h.91v10.67h-.9Z"/><path class="cls-7" d="M13.51,430.19a.65.65,0,0,1,.64-.64.64.64,0,1,1,0,1.28A.65.65,0,0,1,13.51,430.19Zm.22,1.95h.83v7.73h-.83Z"/><path class="cls-7" d="M17.65,441.2a3,3,0,0,0,2.56,1.09,2.36,2.36,0,0,0,2.64-2.48v-1.22A3.32,3.32,0,0,1,20.16,440c-2.05,0-3.45-1.55-3.45-4s1.4-4.05,3.45-4.05a3.3,3.3,0,0,1,2.69,1.44v-1.25h.85v7.65c0,2.37-1.6,3.22-3.49,3.22a3.71,3.71,0,0,1-3-1.17Zm5.2-7.09a3.11,3.11,0,0,0-2.54-1.41c-1.72,0-2.71,1.43-2.71,3.3s1,3.28,2.71,3.28a3.11,3.11,0,0,0,2.54-1.41Z"/><path class="cls-7" d="M29.56,432c2.35,0,3.65,1.87,3.65,4.1v.22H26.74a3,3,0,0,0,3,3.07,3.4,3.4,0,0,0,2.54-1.07l.43.55a4,4,0,0,1-3,1.25,4.07,4.07,0,0,1-.14-8.12Zm-2.82,3.67h5.62a2.84,2.84,0,0,0-2.82-2.95A2.9,2.9,0,0,0,26.74,435.62Z"/><path class="cls-7" d="M35.35,432.14h.83v1.33A3.32,3.32,0,0,1,38.79,432v.91c-.15,0-.26,0-.42,0a3,3,0,0,0-2.19,1.38v5.63h-.83Z"/><path class="cls-7" d="M40.19,430.19a.66.66,0,0,1,.64-.64.64.64,0,1,1,0,1.28A.66.66,0,0,1,40.19,430.19Zm.23,1.95h.83v7.73h-.83Z"/><path class="cls-7" d="M48.76,439a3.4,3.4,0,0,1-2.63,1.11,2.59,2.59,0,0,1-2.7-2.58,2.55,2.55,0,0,1,2.7-2.55A3.38,3.38,0,0,1,48.76,436v-1.57a1.85,1.85,0,0,0-2.08-1.77,3,3,0,0,0-2.42,1.13l-.47-.56a3.72,3.72,0,0,1,3-1.31c1.58,0,2.83.75,2.83,2.48v5.44h-.83Zm0-2.3a2.9,2.9,0,0,0-2.34-1.08,1.92,1.92,0,1,0,0,3.83,2.89,2.89,0,0,0,2.34-1.06Z"/><path class="cls-7" d="M53.35,431.61l-1.57,1-.31-.53,1.67-.85-1.67-.85.31-.53,1.57,1-.1-1.87h.61l-.1,1.87,1.59-1,.29.53-1.67.85,1.67.85-.29.53-1.59-1,.1,1.88h-.61Z"/><path class="cls-7" d="M2.58,469.2h4a3.12,3.12,0,1,1,0,6.24H3.49v4.43H2.58Zm3.9.83h-3v4.58h3a2.29,2.29,0,1,0,0-4.58Z"/><path class="cls-7" d="M16.28,479a3.4,3.4,0,0,1-2.63,1.11,2.59,2.59,0,0,1-2.7-2.58,2.55,2.55,0,0,1,2.7-2.55A3.38,3.38,0,0,1,16.28,476v-1.57a1.85,1.85,0,0,0-2.08-1.77,3,3,0,0,0-2.42,1.13l-.47-.56a3.72,3.72,0,0,1,3-1.31c1.58,0,2.83.75,2.83,2.48v5.44h-.83Zm0-2.3a2.9,2.9,0,0,0-2.34-1.08,1.92,1.92,0,1,0,0,3.83,2.89,2.89,0,0,0,2.34-1.06Z"/><path class="cls-7" d="M22,476.19l-1.44,1.36v2.32H19.7V469.2h.83v7.36l4.55-4.42H26.2l-3.61,3.49,3.59,4.24H25.06Z"/><path class="cls-7" d="M27.55,470.19a.66.66,0,0,1,.64-.64.64.64,0,1,1,0,1.28A.66.66,0,0,1,27.55,470.19Zm.23,1.95h.83v7.73h-.83Z"/><path class="cls-7" d="M31,478.22a3.16,3.16,0,0,0,2.49,1.14c1.3,0,2.07-.64,2.07-1.54s-1.06-1.28-2.18-1.56c-1.28-.32-2.7-.66-2.7-2.17,0-1.18,1-2.14,2.75-2.14a3.51,3.51,0,0,1,2.77,1.15l-.47.58a2.8,2.8,0,0,0-2.3-1c-1.2,0-1.94.6-1.94,1.4s1,1.12,2.07,1.39c1.33.34,2.81.7,2.81,2.35,0,1.25-1,2.28-2.89,2.28a3.75,3.75,0,0,1-3-1.22Z"/><path class="cls-7" d="M38.71,478.38v-5.49H37.42v-.75h1.29V470h.84v2.11h1.57v.75H39.55v5.37c0,.62.26,1.05.8,1.05a1.2,1.2,0,0,0,.87-.37l.32.64a1.74,1.74,0,0,1-1.31.49C39.2,480.07,38.71,479.44,38.71,478.38Z"/><path class="cls-7" d="M47.86,479a3.37,3.37,0,0,1-2.62,1.11,2.6,2.6,0,0,1-2.71-2.58,2.55,2.55,0,0,1,2.71-2.55A3.36,3.36,0,0,1,47.86,476v-1.57a1.85,1.85,0,0,0-2.08-1.77,3,3,0,0,0-2.42,1.13l-.46-.56a3.7,3.7,0,0,1,3-1.31c1.58,0,2.83.75,2.83,2.48v5.44h-.83Zm0-2.3a2.89,2.89,0,0,0-2.34-1.08,1.92,1.92,0,1,0,0,3.83,2.87,2.87,0,0,0,2.34-1.06Z"/><path class="cls-7" d="M56.5,474.66c0-1.51-.75-2-1.87-2A3.36,3.36,0,0,0,52.11,474v5.84h-.83v-7.73h.83v1.17A3.94,3.94,0,0,1,54.9,472c1.57,0,2.43.77,2.43,2.51v5.41H56.5Z"/><path class="cls-7" d="M61.09,471.61l-1.57,1-.3-.53,1.66-.85-1.66-.85.3-.53,1.57,1L61,469h.6l-.09,1.87,1.58-1,.29.53-1.67.85,1.67.85-.29.53-1.58-1,.09,1.88H61Z"/><path class="cls-7" d="M432.51,109.2h4a3.12,3.12,0,1,1,0,6.24h-3.09v4.43h-.91Zm3.91.83h-3v4.58h3a2.29,2.29,0,1,0,0-4.58Z"/><path class="cls-7" d="M446.21,119a3.4,3.4,0,0,1-2.63,1.11,2.59,2.59,0,0,1-2.7-2.58,2.55,2.55,0,0,1,2.7-2.55,3.38,3.38,0,0,1,2.63,1.09v-1.57a1.85,1.85,0,0,0-2.08-1.77,3,3,0,0,0-2.42,1.13l-.47-.56a3.73,3.73,0,0,1,3-1.31c1.58,0,2.83.75,2.83,2.48v5.44h-.83Zm0-2.3a2.9,2.9,0,0,0-2.34-1.08,1.92,1.92,0,1,0,0,3.83,2.89,2.89,0,0,0,2.34-1.06Z"/><path class="cls-7" d="M451.9,116.19l-1.44,1.36v2.32h-.83V109.2h.83v7.36l4.55-4.42h1.12l-3.6,3.49,3.58,4.24H455Z"/><path class="cls-7" d="M457.48,110.19a.66.66,0,0,1,.65-.64.64.64,0,0,1,0,1.28A.66.66,0,0,1,457.48,110.19Zm.23,2h.83v7.73h-.83Z"/><path class="cls-7" d="M461,118.22a3.16,3.16,0,0,0,2.49,1.14c1.3,0,2.07-.64,2.07-1.54s-1.06-1.28-2.18-1.56c-1.28-.32-2.7-.66-2.7-2.17,0-1.18,1-2.14,2.75-2.14a3.51,3.51,0,0,1,2.77,1.15l-.47.58a2.8,2.8,0,0,0-2.3-1c-1.2,0-1.94.6-1.94,1.4s1,1.12,2.07,1.39c1.33.34,2.82.7,2.82,2.35,0,1.25-1,2.28-2.9,2.28a3.75,3.75,0,0,1-3-1.22Z"/><path class="cls-7" d="M468.64,118.38v-5.49h-1.28v-.75h1.28V110h.84v2.11h1.57v.75h-1.57v5.37c0,.62.26,1,.81,1a1.19,1.19,0,0,0,.86-.37l.32.64a1.72,1.72,0,0,1-1.31.49C469.13,120.07,468.64,119.44,468.64,118.38Z"/><path class="cls-7" d="M477.79,119a3.37,3.37,0,0,1-2.62,1.11,2.6,2.6,0,0,1-2.71-2.58,2.55,2.55,0,0,1,2.71-2.55,3.36,3.36,0,0,1,2.62,1.09v-1.57a1.85,1.85,0,0,0-2.08-1.77,3,3,0,0,0-2.42,1.13l-.46-.56a3.71,3.71,0,0,1,3-1.31c1.58,0,2.83.75,2.83,2.48v5.44h-.83Zm0-2.3a2.89,2.89,0,0,0-2.34-1.08,1.92,1.92,0,1,0,0,3.83,2.87,2.87,0,0,0,2.34-1.06Z"/><path class="cls-7" d="M486.43,114.66c0-1.51-.75-2-1.87-2a3.34,3.34,0,0,0-2.51,1.33v5.84h-.84v-7.73h.84v1.17a3.92,3.92,0,0,1,2.78-1.36c1.57,0,2.43.77,2.43,2.51v5.41h-.83Z"/><path class="cls-7" d="M491,111.61l-1.57,1-.3-.53,1.66-.85-1.66-.85.3-.53,1.57,1-.09-1.87h.6l-.09,1.87,1.58-1,.29.53-1.66.85,1.66.85-.29.53-1.58-1,.09,1.88h-.6Z"/><path class="cls-7" d="M375.85,157.68a4.36,4.36,0,0,0,3.33,1.55c2.2,0,2.82-1.21,2.82-2.13,0-1.5-1.44-1.92-2.93-2.32-1.68-.46-3.47-.94-3.47-2.91,0-1.75,1.57-2.85,3.5-2.85a4.59,4.59,0,0,1,3.62,1.51l-.61.67a3.8,3.8,0,0,0-3.05-1.35c-1.43,0-2.5.82-2.5,2s1.33,1.63,2.78,2c1.72.48,3.62,1,3.62,3.21,0,1.36-.91,3-3.79,3a4.94,4.94,0,0,1-3.91-1.7Z"/><path class="cls-7" d="M385,158.38v-5.49h-1.28v-.75H385V150h.85v2.11h1.57v.75h-1.57v5.37c0,.62.26,1.05.8,1.05a1.2,1.2,0,0,0,.87-.37l.32.64a1.74,1.74,0,0,1-1.31.49C385.47,160.07,385,159.44,385,158.38Z"/><path class="cls-7" d="M394.13,159a3.38,3.38,0,0,1-2.63,1.11,2.59,2.59,0,0,1-2.7-2.58,2.55,2.55,0,0,1,2.7-2.55,3.36,3.36,0,0,1,2.63,1.09v-1.57a1.85,1.85,0,0,0-2.08-1.77,3,3,0,0,0-2.42,1.13l-.46-.56a3.7,3.7,0,0,1,3-1.31c1.58,0,2.83.75,2.83,2.48v5.44h-.83Zm0-2.3a2.9,2.9,0,0,0-2.34-1.08,1.92,1.92,0,1,0,0,3.83,2.89,2.89,0,0,0,2.34-1.06Z"/><path class="cls-7" d="M397.71,158.38v-5.49h-1.28v-.75h1.28V150h.85v2.11h1.57v.75h-1.57v5.37c0,.62.25,1.05.8,1.05a1.15,1.15,0,0,0,.86-.37l.32.64a1.72,1.72,0,0,1-1.31.49C398.21,160.07,397.71,159.44,397.71,158.38Z"/><path class="cls-7" d="M405.23,152c2.35,0,3.65,1.87,3.65,4.1v.22h-6.47a3,3,0,0,0,3,3.07,3.4,3.4,0,0,0,2.55-1.07l.43.55a4,4,0,0,1-3,1.25,4.07,4.07,0,0,1-.15-8.12Zm-2.82,3.67H408a2.83,2.83,0,0,0-2.81-3A2.92,2.92,0,0,0,402.41,155.62Z"/><path class="cls-7" d="M414.72,156a3.74,3.74,0,1,1,3.71,4.07A3.75,3.75,0,0,1,414.72,156Zm6.54,0c0-1.71-1-3.3-2.83-3.3s-2.82,1.59-2.82,3.3,1,3.31,2.82,3.31S421.26,157.73,421.26,156Z"/><path class="cls-7" d="M424.57,152.88h-1.28v-.74h1.28v-.7c0-1.52.82-2.4,2.1-2.4a2,2,0,0,1,1,.24l-.25.65a1.41,1.41,0,0,0-.71-.17c-.88,0-1.34.61-1.34,1.68v.7H427v.74h-1.57v7h-.84Z"/><path class="cls-7" d="M432.72,149.2h4a3.12,3.12,0,1,1,0,6.24h-3.09v4.43h-.91Zm3.9.83h-3v4.58h3a2.29,2.29,0,1,0,0-4.58Z"/><path class="cls-7" d="M446.42,159a3.4,3.4,0,0,1-2.63,1.11,2.6,2.6,0,0,1-2.71-2.58,2.55,2.55,0,0,1,2.71-2.55,3.38,3.38,0,0,1,2.63,1.09v-1.57a1.85,1.85,0,0,0-2.09-1.77,3,3,0,0,0-2.41,1.13l-.47-.56a3.71,3.71,0,0,1,3-1.31c1.59,0,2.84.75,2.84,2.48v5.44h-.83Zm0-2.3a2.9,2.9,0,0,0-2.34-1.08,1.92,1.92,0,1,0,0,3.83,2.89,2.89,0,0,0,2.34-1.06Z"/><path class="cls-7" d="M449.84,149.2h.83v10.67h-.83Z"/><path class="cls-7" d="M456.54,152c2.36,0,3.65,1.87,3.65,4.1v.22h-6.46a3,3,0,0,0,3,3.07,3.4,3.4,0,0,0,2.55-1.07l.43.55a4,4,0,0,1-3,1.25,4.07,4.07,0,0,1-.15-8.12Zm-2.81,3.67h5.61a2.83,2.83,0,0,0-2.81-3A2.9,2.9,0,0,0,453.73,155.62Z"/><path class="cls-7" d="M462.16,158.22a3.16,3.16,0,0,0,2.49,1.14c1.3,0,2.07-.64,2.07-1.54s-1.06-1.28-2.18-1.56c-1.28-.32-2.7-.66-2.7-2.17,0-1.18,1-2.14,2.75-2.14a3.51,3.51,0,0,1,2.77,1.15l-.46.58a2.83,2.83,0,0,0-2.31-1c-1.2,0-1.94.6-1.94,1.4s1,1.12,2.07,1.39c1.33.34,2.82.7,2.82,2.35,0,1.25-1,2.28-2.9,2.28a3.75,3.75,0,0,1-3-1.22Z"/><path class="cls-7" d="M469.84,158.38v-5.49h-1.28v-.75h1.28V150h.85v2.11h1.56v.75h-1.56v5.37c0,.62.25,1.05.8,1.05a1.19,1.19,0,0,0,.86-.37l.32.64a1.72,1.72,0,0,1-1.31.49C470.33,160.07,469.84,159.44,469.84,158.38Z"/><path class="cls-7" d="M473.85,150.19a.66.66,0,0,1,.64-.64.64.64,0,1,1,0,1.28A.66.66,0,0,1,473.85,150.19Zm.23,1.95h.83v7.73h-.83Z"/><path class="cls-7" d="M482.72,154.66c0-1.51-.75-2-1.87-2a3.36,3.36,0,0,0-2.52,1.33v5.84h-.83v-7.73h.83v1.17a3.94,3.94,0,0,1,2.79-1.36c1.57,0,2.43.77,2.43,2.51v5.41h-.83Z"/><path class="cls-7" d="M489.42,152c2.35,0,3.65,1.87,3.65,4.1v.22H486.6a3,3,0,0,0,3,3.07,3.4,3.4,0,0,0,2.55-1.07l.43.55a4,4,0,0,1-3,1.25,4.07,4.07,0,0,1-.15-8.12Zm-2.82,3.67h5.62a2.83,2.83,0,0,0-2.81-3A2.92,2.92,0,0,0,486.6,155.62Z"/><path class="cls-7" d="M435.31,197.68a4.36,4.36,0,0,0,3.33,1.55c2.19,0,2.82-1.21,2.82-2.13,0-1.5-1.44-1.92-2.93-2.32-1.68-.46-3.48-.94-3.48-2.91,0-1.75,1.57-2.85,3.51-2.85a4.62,4.62,0,0,1,3.62,1.51l-.61.67a3.83,3.83,0,0,0-3.06-1.35c-1.42,0-2.5.82-2.5,2s1.33,1.63,2.79,2c1.71.48,3.62,1,3.62,3.21,0,1.36-.92,3-3.8,3a4.9,4.9,0,0,1-3.9-1.7Z"/><path class="cls-7" d="M444.13,196a3.74,3.74,0,1,1,3.71,4.07A3.75,3.75,0,0,1,444.13,196Zm6.54,0c0-1.71-1-3.3-2.83-3.3S445,194.29,445,196s1,3.31,2.82,3.31S450.67,197.73,450.67,196Z"/><path class="cls-7" d="M462.91,194.46c0-1.09-.46-1.76-1.55-1.76a2.88,2.88,0,0,0-2.21,1.31v5.86h-.85v-5.41c0-1.09-.45-1.76-1.55-1.76a3,3,0,0,0-2.21,1.33v5.84h-.83v-7.73h.83v1.17A3.4,3.4,0,0,1,457,192a1.94,1.94,0,0,1,2,1.46,3.21,3.21,0,0,1,2.56-1.46c1.43,0,2.12.8,2.12,2.35v5.57h-.84Z"/><path class="cls-7" d="M471.25,199a3.4,3.4,0,0,1-2.63,1.11,2.59,2.59,0,0,1-2.7-2.58,2.55,2.55,0,0,1,2.7-2.55,3.38,3.38,0,0,1,2.63,1.09v-1.57a1.85,1.85,0,0,0-2.08-1.77,3,3,0,0,0-2.42,1.13l-.47-.56a3.73,3.73,0,0,1,3-1.31c1.58,0,2.83.75,2.83,2.48v5.44h-.83Zm0-2.3a2.9,2.9,0,0,0-2.34-1.08,1.92,1.92,0,1,0,0,3.83,2.89,2.89,0,0,0,2.34-1.06Z"/><path class="cls-7" d="M474.67,189.2h.83v10.67h-.83Z"/><path class="cls-7" d="M477.87,190.19a.65.65,0,0,1,.64-.64.64.64,0,1,1,0,1.28A.65.65,0,0,1,477.87,190.19Zm.22,1.95h.84v7.73h-.84Z"/><path class="cls-7" d="M486.43,199a3.37,3.37,0,0,1-2.62,1.11,2.6,2.6,0,0,1-2.71-2.58,2.55,2.55,0,0,1,2.71-2.55,3.36,3.36,0,0,1,2.62,1.09v-1.57a1.85,1.85,0,0,0-2.08-1.77,3,3,0,0,0-2.42,1.13l-.46-.56a3.71,3.71,0,0,1,3-1.31c1.58,0,2.83.75,2.83,2.48v5.44h-.83Zm0-2.3a2.89,2.89,0,0,0-2.34-1.08,1.92,1.92,0,1,0,0,3.83,2.87,2.87,0,0,0,2.34-1.06Z"/><path class="cls-7" d="M491,191.61l-1.57,1-.3-.53,1.66-.85-1.66-.85.3-.53,1.57,1-.09-1.87h.6l-.09,1.87,1.58-1,.29.53-1.66.85,1.66.85-.29.53-1.58-1,.09,1.88h-.6Z"/><path class="cls-7" d="M435.31,237.68a4.36,4.36,0,0,0,3.33,1.55c2.19,0,2.82-1.21,2.82-2.13,0-1.5-1.44-1.92-2.93-2.32-1.68-.46-3.48-.94-3.48-2.91,0-1.75,1.57-2.85,3.51-2.85a4.62,4.62,0,0,1,3.62,1.51l-.61.67a3.83,3.83,0,0,0-3.06-1.35c-1.42,0-2.5.82-2.5,2s1.33,1.63,2.79,2c1.71.48,3.62,1,3.62,3.21,0,1.36-.92,3-3.8,3a4.9,4.9,0,0,1-3.9-1.7Z"/><path class="cls-7" d="M444.13,236a3.74,3.74,0,1,1,3.71,4.07A3.75,3.75,0,0,1,444.13,236Zm6.54,0c0-1.71-1-3.3-2.83-3.3S445,234.29,445,236s1,3.31,2.82,3.31S450.67,237.73,450.67,236Z"/><path class="cls-7" d="M462.91,234.46c0-1.09-.46-1.76-1.55-1.76a2.88,2.88,0,0,0-2.21,1.31v5.86h-.85v-5.41c0-1.09-.45-1.76-1.55-1.76a3,3,0,0,0-2.21,1.33v5.84h-.83v-7.73h.83v1.17A3.4,3.4,0,0,1,457,232a1.94,1.94,0,0,1,2,1.46,3.21,3.21,0,0,1,2.56-1.46c1.43,0,2.12.8,2.12,2.35v5.57h-.84Z"/><path class="cls-7" d="M471.25,239a3.4,3.4,0,0,1-2.63,1.11,2.59,2.59,0,0,1-2.7-2.58,2.55,2.55,0,0,1,2.7-2.55,3.38,3.38,0,0,1,2.63,1.09v-1.57a1.85,1.85,0,0,0-2.08-1.77,3,3,0,0,0-2.42,1.13l-.47-.56a3.73,3.73,0,0,1,3-1.31c1.58,0,2.83.75,2.83,2.48v5.44h-.83Zm0-2.3a2.9,2.9,0,0,0-2.34-1.08,1.92,1.92,0,1,0,0,3.83,2.89,2.89,0,0,0,2.34-1.06Z"/><path class="cls-7" d="M474.67,229.2h.83v10.67h-.83Z"/><path class="cls-7" d="M477.87,230.19a.65.65,0,0,1,.64-.64.64.64,0,1,1,0,1.28A.65.65,0,0,1,477.87,230.19Zm.22,1.95h.84v7.73h-.84Z"/><path class="cls-7" d="M486.43,239a3.37,3.37,0,0,1-2.62,1.11,2.6,2.6,0,0,1-2.71-2.58,2.55,2.55,0,0,1,2.71-2.55,3.36,3.36,0,0,1,2.62,1.09v-1.57a1.85,1.85,0,0,0-2.08-1.77,3,3,0,0,0-2.42,1.13l-.46-.56a3.71,3.71,0,0,1,3-1.31c1.58,0,2.83.75,2.83,2.48v5.44h-.83Zm0-2.3a2.89,2.89,0,0,0-2.34-1.08,1.92,1.92,0,1,0,0,3.83,2.87,2.87,0,0,0,2.34-1.06Z"/><path class="cls-7" d="M491,231.61l-1.57,1-.3-.53,1.66-.85-1.66-.85.3-.53,1.57,1-.09-1.87h.6l-.09,1.87,1.58-1,.29.53-1.66.85,1.66.85-.29.53-1.58-1,.09,1.88h-.6Z"/><path class="cls-7" d="M401.58,277.68a4.36,4.36,0,0,0,3.33,1.55c2.19,0,2.82-1.21,2.82-2.13,0-1.5-1.44-1.92-2.93-2.32-1.68-.46-3.47-.94-3.47-2.91,0-1.75,1.56-2.85,3.5-2.85a4.59,4.59,0,0,1,3.62,1.51l-.61.67a3.83,3.83,0,0,0-3.06-1.35c-1.42,0-2.49.82-2.49,2s1.32,1.63,2.78,2c1.71.48,3.62,1,3.62,3.21,0,1.36-.91,3-3.79,3a4.92,4.92,0,0,1-3.91-1.7Z"/><path class="cls-7" d="M410.4,276a3.74,3.74,0,1,1,3.71,4.07A3.75,3.75,0,0,1,410.4,276Zm6.54,0c0-1.71-1-3.3-2.83-3.3s-2.82,1.59-2.82,3.3,1,3.31,2.82,3.31S416.94,277.73,416.94,276Z"/><path class="cls-7" d="M425.2,278.74a4,4,0,0,1-2.79,1.33c-1.58,0-2.43-.74-2.43-2.49v-5.44h.83v5.25c0,1.51.76,1.92,1.88,1.92A3.33,3.33,0,0,0,425.2,278v-5.89H426v7.73h-.83Z"/><path class="cls-7" d="M428.78,278.38v-5.49H427.5v-.75h1.28V270h.85v2.11h1.57v.75h-1.57v5.37c0,.62.26,1.05.8,1.05a1.15,1.15,0,0,0,.86-.37l.32.64a1.72,1.72,0,0,1-1.31.49C429.28,280.07,428.78,279.44,428.78,278.38Z"/><path class="cls-7" d="M438.24,274.61c0-1.49-.75-1.91-1.87-1.91a3.36,3.36,0,0,0-2.52,1.33v5.84H433V269.2h.83v4.11a3.94,3.94,0,0,1,2.79-1.36,2.16,2.16,0,0,1,2.43,2.48v5.44h-.83Z"/><path class="cls-7" d="M445.84,277.68a4.34,4.34,0,0,0,3.33,1.55c2.19,0,2.81-1.21,2.81-2.13,0-1.5-1.44-1.92-2.93-2.32-1.68-.46-3.47-.94-3.47-2.91,0-1.75,1.57-2.85,3.51-2.85a4.58,4.58,0,0,1,3.61,1.51l-.6.67a3.83,3.83,0,0,0-3.06-1.35c-1.43,0-2.5.82-2.5,2s1.33,1.63,2.79,2c1.71.48,3.61,1,3.61,3.21,0,1.36-.91,3-3.79,3a4.94,4.94,0,0,1-3.91-1.7Z"/><path class="cls-7" d="M460.32,278.74a4,4,0,0,1-2.79,1.33c-1.58,0-2.43-.74-2.43-2.49v-5.44h.83v5.25c0,1.51.76,1.92,1.88,1.92a3.33,3.33,0,0,0,2.51-1.28v-5.89h.83v7.73h-.83Z"/><path class="cls-7" d="M469.44,278.64a3.31,3.31,0,0,1-2.69,1.43c-2.05,0-3.46-1.57-3.46-4.05s1.41-4.07,3.46-4.07a3.31,3.31,0,0,1,2.69,1.44V269.2h.85v10.67h-.85Zm0-4.53a3.1,3.1,0,0,0-2.55-1.41c-1.71,0-2.7,1.44-2.7,3.32s1,3.29,2.7,3.29a3.12,3.12,0,0,0,2.55-1.37Z"/><path class="cls-7" d="M477.79,279a3.38,3.38,0,0,1-2.63,1.11,2.59,2.59,0,0,1-2.7-2.58,2.55,2.55,0,0,1,2.7-2.55,3.36,3.36,0,0,1,2.63,1.09v-1.57a1.85,1.85,0,0,0-2.08-1.77,3,3,0,0,0-2.42,1.13l-.46-.56a3.7,3.7,0,0,1,3-1.31c1.58,0,2.83.75,2.83,2.48v5.44h-.83Zm0-2.3a2.89,2.89,0,0,0-2.34-1.08,1.92,1.92,0,1,0,0,3.83,2.87,2.87,0,0,0,2.34-1.06Z"/><path class="cls-7" d="M486.43,274.66c0-1.51-.75-2-1.87-2A3.36,3.36,0,0,0,482,274v5.84h-.83v-7.73H482v1.17a3.94,3.94,0,0,1,2.79-1.36c1.57,0,2.43.77,2.43,2.51v5.41h-.83Z"/><path class="cls-7" d="M491,271.61l-1.57,1-.3-.53,1.66-.85-1.66-.85.3-.53,1.57,1-.1-1.87h.61l-.09,1.87,1.58-1,.29.53-1.67.85,1.67.85-.29.53-1.58-1,.09,1.88h-.61Z"/><path class="cls-7" d="M450.62,310h-3.49v-.83H455V310h-3.49v9.84h-.93Z"/><path class="cls-7" d="M460.62,318.74a3.93,3.93,0,0,1-2.78,1.33c-1.59,0-2.44-.74-2.44-2.49v-5.44h.84v5.25c0,1.51.75,1.92,1.87,1.92a3.33,3.33,0,0,0,2.51-1.28v-5.89h.83v7.73h-.83Z"/><path class="cls-7" d="M469.26,314.66c0-1.51-.75-2-1.87-2a3.34,3.34,0,0,0-2.51,1.33v5.84h-.83v-7.73h.83v1.17a3.92,3.92,0,0,1,2.78-1.36,2.18,2.18,0,0,1,2.44,2.51v5.41h-.84Z"/><path class="cls-7" d="M472.46,310.19a.65.65,0,0,1,.64-.64.64.64,0,0,1,0,1.28A.65.65,0,0,1,472.46,310.19Zm.22,1.95h.84v7.73h-.84Z"/><path class="cls-7" d="M475.93,318.22a3.18,3.18,0,0,0,2.5,1.14c1.3,0,2.06-.64,2.06-1.54s-1.05-1.28-2.17-1.56c-1.28-.32-2.71-.66-2.71-2.17,0-1.18,1-2.14,2.75-2.14a3.51,3.51,0,0,1,2.77,1.15l-.46.58a2.82,2.82,0,0,0-2.31-1c-1.2,0-1.93.6-1.93,1.4s1,1.12,2.06,1.39c1.33.34,2.82.7,2.82,2.35,0,1.25-1,2.28-2.9,2.28a3.71,3.71,0,0,1-3-1.22Z"/><path class="cls-7" d="M483.23,310.19a.65.65,0,0,1,.64-.64.64.64,0,0,1,0,1.28A.65.65,0,0,1,483.23,310.19Zm.22,1.95h.83v7.73h-.83Z"/><path class="cls-7" d="M491.79,319a3.38,3.38,0,0,1-2.63,1.11,2.59,2.59,0,0,1-2.7-2.58,2.55,2.55,0,0,1,2.7-2.55,3.36,3.36,0,0,1,2.63,1.09v-1.57a1.85,1.85,0,0,0-2.08-1.77,3,3,0,0,0-2.42,1.13l-.46-.56a3.7,3.7,0,0,1,3-1.31c1.58,0,2.83.75,2.83,2.48v5.44h-.83Zm0-2.3a2.9,2.9,0,0,0-2.34-1.08,1.92,1.92,0,1,0,0,3.83,2.89,2.89,0,0,0,2.34-1.06Z"/><path class="cls-7" d="M446.86,350h-3.49v-.83h7.91V350h-3.49v9.84h-.93Z"/><path class="cls-7" d="M456.86,358.74a3.93,3.93,0,0,1-2.78,1.33c-1.59,0-2.43-.74-2.43-2.49v-5.44h.83v5.25c0,1.51.75,1.92,1.87,1.92a3.33,3.33,0,0,0,2.51-1.28v-5.89h.83v7.73h-.83Z"/><path class="cls-7" d="M460.29,352.14h.83v1.33a3.32,3.32,0,0,1,2.61-1.49v.91c-.15,0-.26,0-.42,0a3,3,0,0,0-2.19,1.38v5.63h-.83Z"/><path class="cls-7" d="M467.63,356.19l-1.44,1.36v2.32h-.83V349.2h.83v7.36l4.54-4.42h1.12l-3.6,3.49,3.59,4.24h-1.12Z"/><path class="cls-7" d="M476.37,352c2.35,0,3.65,1.87,3.65,4.1v.22h-6.47a3,3,0,0,0,3,3.07,3.4,3.4,0,0,0,2.54-1.07l.43.55a4,4,0,0,1-3,1.25,4.07,4.07,0,0,1-.14-8.12Zm-2.82,3.67h5.62a2.84,2.84,0,0,0-2.82-2.95A2.9,2.9,0,0,0,473.55,355.62Z"/><path class="cls-7" d="M482.44,362.26c.53,0,.88-.21,1.19-.95l.61-1.37-3.27-7.8h.93l2.8,6.76,2.8-6.76h.95l-4,9.43a2.06,2.06,0,0,1-2,1.44,3.46,3.46,0,0,1-.82-.11l.15-.77A1.88,1.88,0,0,0,482.44,362.26Z"/><path class="cls-7" d="M491,351.61l-1.57,1-.3-.53,1.66-.85-1.66-.85.3-.53,1.57,1-.1-1.87h.61l-.09,1.87,1.58-1,.29.53-1.67.85,1.67.85-.29.53-1.58-1,.09,1.88h-.61Z"/><path class="cls-7" d="M435.34,389.2h.93v6.56c0,2.16,1.14,3.47,3.23,3.47s3.24-1.31,3.24-3.47V389.2h.93v6.58c0,2.64-1.41,4.29-4.17,4.29s-4.16-1.67-4.16-4.29Z"/><path class="cls-7" d="M446.78,401.2a3,3,0,0,0,2.56,1.09,2.36,2.36,0,0,0,2.64-2.48v-1.22a3.32,3.32,0,0,1-2.69,1.44c-2,0-3.45-1.55-3.45-4s1.41-4.05,3.45-4.05a3.3,3.3,0,0,1,2.69,1.44v-1.25h.85v7.65c0,2.37-1.6,3.22-3.49,3.22a3.71,3.71,0,0,1-3-1.17Zm5.2-7.09a3.1,3.1,0,0,0-2.54-1.41c-1.71,0-2.71,1.43-2.71,3.3s1,3.28,2.71,3.28a3.1,3.1,0,0,0,2.54-1.41Z"/><path class="cls-7" d="M460.32,399a3.38,3.38,0,0,1-2.63,1.11,2.59,2.59,0,0,1-2.7-2.58,2.55,2.55,0,0,1,2.7-2.55,3.36,3.36,0,0,1,2.63,1.09v-1.57a1.85,1.85,0,0,0-2.08-1.77,3,3,0,0,0-2.42,1.13l-.46-.56a3.7,3.7,0,0,1,3-1.31c1.58,0,2.83.75,2.83,2.48v5.44h-.83Zm0-2.3a2.9,2.9,0,0,0-2.34-1.08,1.92,1.92,0,1,0,0,3.83,2.89,2.89,0,0,0,2.34-1.06Z"/><path class="cls-7" d="M469,394.66c0-1.51-.75-2-1.87-2a3.36,3.36,0,0,0-2.52,1.33v5.84h-.83v-7.73h.83v1.17a3.94,3.94,0,0,1,2.79-1.36c1.57,0,2.43.77,2.43,2.51v5.41H469Z"/><path class="cls-7" d="M478.08,398.64a3.31,3.31,0,0,1-2.69,1.43c-2.05,0-3.46-1.57-3.46-4.05s1.41-4.07,3.46-4.07a3.31,3.31,0,0,1,2.69,1.44V389.2h.85v10.67h-.85Zm0-4.53a3.1,3.1,0,0,0-2.55-1.41c-1.71,0-2.7,1.44-2.7,3.32s1,3.29,2.7,3.29a3.12,3.12,0,0,0,2.55-1.37Z"/><path class="cls-7" d="M486.43,399a3.37,3.37,0,0,1-2.62,1.11,2.6,2.6,0,0,1-2.71-2.58,2.55,2.55,0,0,1,2.71-2.55,3.36,3.36,0,0,1,2.62,1.09v-1.57a1.85,1.85,0,0,0-2.08-1.77,3,3,0,0,0-2.42,1.13l-.46-.56a3.71,3.71,0,0,1,3-1.31c1.58,0,2.83.75,2.83,2.48v5.44h-.83Zm0-2.3a2.89,2.89,0,0,0-2.34-1.08,1.92,1.92,0,1,0,0,3.83,2.87,2.87,0,0,0,2.34-1.06Z"/><path class="cls-7" d="M491,391.61l-1.57,1-.3-.53,1.66-.85-1.66-.85.3-.53,1.57,1-.09-1.87h.6l-.09,1.87,1.58-1,.29.53-1.66.85,1.66.85-.29.53-1.58-1,.09,1.88h-.6Z"/><path class="cls-7" d="M415.65,429.2h1.05l3.88,9.65,3.89-9.65h1l-4.37,10.67H420Z"/><path class="cls-7" d="M429.38,432c2.35,0,3.64,1.87,3.64,4.1v.22h-6.46a3,3,0,0,0,3,3.07,3.4,3.4,0,0,0,2.54-1.07l.43.55a4,4,0,0,1-3,1.25,4.07,4.07,0,0,1-.14-8.12Zm-2.82,3.67h5.62a2.84,2.84,0,0,0-2.82-2.95A2.9,2.9,0,0,0,426.56,435.62Z"/><path class="cls-7" d="M440.38,434.66c0-1.51-.75-2-1.87-2A3.34,3.34,0,0,0,436,434v5.84h-.83v-7.73H436v1.17a3.92,3.92,0,0,1,2.78-1.36,2.18,2.18,0,0,1,2.44,2.51v5.41h-.84Z"/><path class="cls-7" d="M447.09,432c2.35,0,3.65,1.87,3.65,4.1v.22h-6.47a3,3,0,0,0,3,3.07,3.4,3.4,0,0,0,2.54-1.07l.44.55a4,4,0,0,1-3,1.25,4.07,4.07,0,0,1-.14-8.12Zm-2.82,3.67h5.62a2.84,2.84,0,0,0-2.82-2.95A2.91,2.91,0,0,0,444.27,435.62Z"/><path class="cls-7" d="M452.48,439.18l4.57-6.29h-4.57v-.75h5.65v.67l-4.63,6.33h4.69v.73h-5.71Z"/><path class="cls-7" d="M465.6,438.74a4,4,0,0,1-2.79,1.33c-1.58,0-2.43-.74-2.43-2.49v-5.44h.83v5.25c0,1.51.75,1.92,1.88,1.92A3.33,3.33,0,0,0,465.6,438v-5.89h.83v7.73h-.83Z"/><path class="cls-7" d="M472.3,432c2.35,0,3.65,1.87,3.65,4.1v.22h-6.47a3,3,0,0,0,3,3.07,3.4,3.4,0,0,0,2.55-1.07l.43.55a4,4,0,0,1-3,1.25,4.07,4.07,0,0,1-.14-8.12Zm-2.82,3.67h5.62a2.83,2.83,0,0,0-2.82-2.95A2.92,2.92,0,0,0,469.48,435.62Z"/><path class="cls-7" d="M478.09,429.2h.83v10.67h-.83Z"/><path class="cls-7" d="M486.43,439a3.38,3.38,0,0,1-2.63,1.11,2.59,2.59,0,0,1-2.7-2.58,2.55,2.55,0,0,1,2.7-2.55,3.36,3.36,0,0,1,2.63,1.09v-1.57a1.85,1.85,0,0,0-2.08-1.77,3,3,0,0,0-2.42,1.13l-.46-.56a3.7,3.7,0,0,1,3-1.31c1.58,0,2.83.75,2.83,2.48v5.44h-.83Zm0-2.3a2.9,2.9,0,0,0-2.34-1.08,1.92,1.92,0,1,0,0,3.83,2.89,2.89,0,0,0,2.34-1.06Z"/><path class="cls-7" d="M491,431.61l-1.57,1-.3-.53,1.66-.85-1.66-.85.3-.53,1.57,1-.1-1.87h.61l-.09,1.87,1.58-1,.29.53-1.67.85,1.67.85-.29.53-1.58-1,.09,1.88h-.61Z"/><path class="cls-7" d="M422.19,479.07l6.42-9h-6.42v-.83h7.59V470L423.34,479h6.55v.83h-7.7Z"/><path class="cls-7" d="M431.76,470.19a.65.65,0,0,1,.64-.64.64.64,0,0,1,0,1.28A.65.65,0,0,1,431.76,470.19Zm.22,1.95h.83v7.73H432Z"/><path class="cls-7" d="M444.61,474.46c0-1.09-.46-1.76-1.55-1.76a2.86,2.86,0,0,0-2.21,1.31v5.86H440v-5.41c0-1.09-.45-1.76-1.55-1.76a3,3,0,0,0-2.21,1.33v5.84h-.83v-7.73h.83v1.17a3.37,3.37,0,0,1,2.49-1.36,1.94,1.94,0,0,1,2,1.46,3.21,3.21,0,0,1,2.56-1.46c1.42,0,2.11.8,2.11,2.35v5.57h-.83Z"/><path class="cls-7" d="M448,469.2h.83v4.19a3.31,3.31,0,0,1,2.69-1.44c2.07,0,3.46,1.62,3.46,4.07s-1.41,4.05-3.46,4.05a3.31,3.31,0,0,1-2.69-1.43v1.23H448Zm3.38,10.11c1.73,0,2.7-1.42,2.7-3.29s-1-3.32-2.7-3.32a3.14,3.14,0,0,0-2.55,1.41v3.83A3.14,3.14,0,0,0,451.41,479.31Z"/><path class="cls-7" d="M462.08,479a3.38,3.38,0,0,1-2.63,1.11,2.59,2.59,0,0,1-2.7-2.58,2.55,2.55,0,0,1,2.7-2.55,3.36,3.36,0,0,1,2.63,1.09v-1.57a1.85,1.85,0,0,0-2.08-1.77,3,3,0,0,0-2.42,1.13l-.46-.56a3.7,3.7,0,0,1,3-1.31c1.58,0,2.83.75,2.83,2.48v5.44h-.83Zm0-2.3a2.9,2.9,0,0,0-2.34-1.08,1.92,1.92,0,1,0,0,3.83,2.89,2.89,0,0,0,2.34-1.06Z"/>

<path class="cls-7" d="M465.5,469.2h.83v4.19A3.31,3.31,0,0,1,469,472c2.07,0,3.46,1.62,3.46,4.07s-1.41,4.05-3.46,4.05a3.31,3.31,0,0,1-2.69-1.43v1.23h-.83Zm3.38,10.11c1.73,0,2.7-1.42,2.7-3.29s-1-3.32-2.7-3.32a3.16,3.16,0,0,0-2.55,1.41v3.83A3.15,3.15,0,0,0,468.88,479.31Z"/>

<path class="cls-7" d="M479.1,473.26l-2.17,6.61h-.8l-2.52-7.73h.9l2.05,6.56,2.17-6.56h.72l2.18,6.56,2.05-6.56h.9l-2.52,7.73h-.8Z"/>

<path class="cls-7" d="M489.42,472c2.35,0,3.65,1.87,3.65,4.1v.22H486.6a3,3,0,0,0,3,3.07,3.4,3.4,0,0,0,2.55-1.07l.43.55a4,4,0,0,1-3,1.25,4.07,4.07,0,0,1-.15-8.12Zm-2.82,3.67h5.62a2.83,2.83,0,0,0-2.81-2.95A2.92,2.92,0,0,0,486.6,475.62Z"/>

<!--Here -->

<g id="car">

	<path class="cls-818" id="car" d="M172,207.66v-12.4a12.4,12.4,0,1,1-12.4,12.4,12.4,12.4,0,0,1,12.4-12.4h0Z"/>

</g>

<g id="pakistan-2">

	<path  class="cls-818" id="pakistan-2" d="M266.6,115.05V97.51a17.54,17.54,0,1,1-17.54,17.54A17.54,17.54,0,0,1,266.6,97.51h0Z"/>

</g>

<g id="turkey">

	<path class="cls-818" id="turkey" d="M263.24,300.27V278.79a21.48,21.48,0,1,1-21.48,21.48,21.47,21.47,0,0,1,21.48-21.48h0Z"/>

</g>

<g id="bangladesh">

	<path class="cls-818" id="bangladesh" d="M237.42,157.08l19-16a24.8,24.8,0,1,1-34.94-3,24,24,0,0,1,15.94-5.81Z"/>

	<path class="cls-919" id="bangladesh1" d="M237.42,157.08V132.27a23.86,23.86,0,0,1,19,8.86Z"/>

</g>

<g id="burkina-faso">

	<path class="cls-818" id="burkina-faso" d="M188,174.2l-16.63,10.39a19.62,19.62,0,0,1,6.24-27,18.84,18.84,0,0,1,10.39-3Z"/>

	<path class="cls-919" id="burkina-faso1" d="M188,174.2V154.59a19.61,19.61,0,0,1,0,39.22,19.09,19.09,0,0,1-16.63-9.22Z"/>

</g>

<g id="columbia-1">

	<path class="cls-818" id="columbia-1" d="M213.57,210l-5.13-16.77a17.09,17.09,0,0,1,5.13-.76Z"/>

	<path class="cls-919" id="columbia-1-2" d="M213.57,210V192.46A17.54,17.54,0,1,1,196,210a17.23,17.23,0,0,1,12.41-16.77Z"/>

</g>

<g id="columbia-2">

	<path class="cls-818" id="columbia-2"  d="M187.46,250.46l-16,14.38a21.49,21.49,0,0,1,1.59-30.34A21.06,21.06,0,0,1,187.46,229Z"/>

	<path class="cls-919" id="columbia-2-2"  d="M187.46,250.46V229a21.48,21.48,0,0,1,0,43,20.47,20.47,0,0,1-16-7.1Z"/>

</g>

<g id="ethiopia">

	<path class="cls-818" id="ethiopia" d="M238.39,250.07l20.48-10.89a23.2,23.2,0,1,1-31.37-9.59,22.61,22.61,0,0,1,10.89-2.72Z"/>

	<path class="cls-919" id="ethiopia-2" d="M238.39,250.07v-23.2a22.44,22.44,0,0,1,20.48,12.31Z"/>

</g>

<g id="kosovo">

	<path class="cls-818" id="kosovo" d="M216.17,296.38l4.23,18.33a18.81,18.81,0,1,1-8.46-36.66,18.31,18.31,0,0,1,4.23-.49Z"/>

	<path class="cls-919" id="kosovo-2" d="M216.17,296.38V277.56A18.82,18.82,0,0,1,235,296.38a18.54,18.54,0,0,1-14.58,18.33Z"/>

</g>

<g id="libya">

	<path class="cls-919" id="libya" d="M197.84,347.74V320a27.73,27.73,0,1,1-27.73,27.73A27.72,27.72,0,0,1,197.84,320h0Z"/>

</g>

<g id="nigeria">

	<path class="cls-818" id="nigeria" d="M257,352.15l22.48,10.48a24.8,24.8,0,0,1-45-21A24.32,24.32,0,0,1,257,327.35Z"/>

	<path class="cls-919" id="nigeria-2" d="M257,352.15v-24.8a24.8,24.8,0,0,1,24.81,24.8,23.6,23.6,0,0,1-2.33,10.48Z"/>

</g>

<g id="pakistan-1">

	<path class="cls-818" id="pakistan-1" d="M232.78,388.21l-6.15,9.47a11.3,11.3,0,0,1-3.32-15.63,11,11,0,0,1,9.47-5.14Z"/>

	<path class="cls-919" id="pakistan-1-2" d="M232.78,388.21v-11.3a11.3,11.3,0,1,1,0,22.6,10.77,10.77,0,0,1-6.15-1.83Z"/>

</g>

<g id="state-of-palestine">

	<path class="cls-919" id="state-of-palestine"  d="M296.52,156.69V129a27.73,27.73,0,1,1-27.73,27.73A27.73,27.73,0,0,1,296.52,129h0Z"/>

</g>

<g id="somalia-1">

	<path class="cls-818" id="somalia-1"  d="M263.9,203.38l-.42-23.79h.42Z"/>

	<path class="cls-919" id="somalia-1-2"  d="M263.69,203.38V179.59a23.58,23.58,0,1,1-.42,0Z"/>

	

</g>

<g id="somalia-2">

	<path class="cls-818" id="somalia-2"  d="M337.19,219.52l2.62,21.32a21.48,21.48,0,0,1-5.24-42.64,20.82,20.82,0,0,1,2.62-.16Z"/>

	<path class="cls-919" id="somalia-2-2"  d="M337.19,219.52V198a21.48,21.48,0,0,1,2.62,42.8Z"/>

</g>

<g id="south-sudan">

	<path class="cls-818" id="south-sudan" d="M295.17,254.1l18.19-20.93a27.73,27.73,0,1,1-39.12,2.73,27.14,27.14,0,0,1,20.93-9.54Z"/>

	<path class="cls-919" id="south-sudan-2" d="M295.17,254.1V226.36a26.28,26.28,0,0,1,18.19,6.81Z"/>

</g>

<g id="uganda">

	<path class="cls-818" id="uganda" d="M304.14,334.9l-3.05-17.27a17.29,17.29,0,0,1,3.05-.27Z"/>

	<path class="cls-919" id="uganda-2" d="M304.14,334.9V317.36A17.54,17.54,0,1,1,286.6,334.9a17.36,17.36,0,0,1,14.49-17.27Z"/>

</g>

<g id="tunisia">

	<path class="cls-818" id="tunisia" d="M320.46,295.34l-9.35-12a14.61,14.61,0,0,1,9.35-3.22Z"/>

	<path class="cls-919" id="tunisia-2" d="M320.46,295.34V280.15a15.19,15.19,0,1,1-15.19,15.19,14.67,14.67,0,0,1,5.84-12Z"/>

</g>

<g id="venezuela">

	<path class="cls-818" id="venezuela" d="M302.08,379.65l13.17-16.27a20.94,20.94,0,1,1-29.45,3.09,20.42,20.42,0,0,1,16.28-7.76Z"/>

	<path class="cls-919" id="venezuela-2" d="M302.08,379.65V358.71a19.94,19.94,0,0,1,13.17,4.67Z"/>

</g>

<g id="zimbabwe">

	<path class="cls-818" id="zimbabwe" d="M265.07,400.27l-10.36-11.11a14.88,14.88,0,0,1,10.36-4.08Z"/>

	<path class="cls-919" id="zimbabwe-2" d="M265.07,400.27V385.08a15.19,15.19,0,1,1-15.19,15.19,14.44,14.44,0,0,1,4.83-11.11Z"/>

</g>



<polyline class="cls-10100" points="210.47 143.01 168.33 114 90.69 114"/>

<circle class="cls-10101" cx="210.38" cy="142.95" r="2.26" transform="translate(-28.76 229.58) rotate(-54.11)"/><rect class="cls-10101" x="88.33" y="111.52" width="4.95" height="4.95"/><polyline class="cls-10100" points="165.97 163.38 154.64 154.45 96.5 154.45"/><path class="cls-10101" d="M167.28,161.54a2.26,2.26,0,1,1-3.17.37A2.27,2.27,0,0,1,167.28,161.54Z"/><rect class="cls-10101" x="94.15" y="151.97" width="4.95" height="4.95"/><polyline class="cls-10100" points="154.07 206.94 140.3 194.14 45.2 194.14"/><path class="cls-10101" d="M155.53,205.21a2.26,2.26,0,1,1-3.19.12A2.26,2.26,0,0,1,155.53,205.21Z"/><rect class="cls-10101" x="42.85" y="191.66" width="4.95" height="4.95"/><polyline class="cls-10102" points="192.91 218.41 159.31 234.49 73.47 234.49"/><path class="cls-10101" d="M191.86,216.49a2.18,2.18,0,1,1-1,2.91A2.19,2.19,0,0,1,191.86,216.49Z"/><rect class="cls-10101" x="71.19" y="232.1" width="4.79" height="4.79"/><polyline class="cls-10103" points="162.74 261.18 148.08 275.46 75.77 275.46"/><path class="cls-10101" d="M160.93,259.5a2.47,2.47,0,1,1-.05,3.49A2.46,2.46,0,0,1,160.93,259.5Z"/><rect class="cls-10101" x="73.19" y="272.75" width="5.42" height="5.42"/><polyline class="cls-10103" points="192.96 306.39 134.07 354.6 64.93 354.6"/><path class="cls-10101" d="M191.3,304.56A2.47,2.47,0,1,1,191,308,2.47,2.47,0,0,1,191.3,304.56Z"/><rect class="cls-10101" x="62.35" y="351.89" width="5.42" height="5.42"/><polyline class="cls-10102" points="214.01 268.61 137.97 313.93 68.86 313.93"/><path class="cls-10101" d="M212.79,266.79a2.18,2.18,0,1,1-.75,3A2.19,2.19,0,0,1,212.79,266.79Z"/><rect class="cls-10101" x="66.58" y="311.53" width="4.79" height="4.79"/><polyline class="cls-10103" points="166.41 362.31 120.12 395.62 47.8 395.62"/><path class="cls-10101" d="M164.87,360.37a2.47,2.47,0,1,1-.57,3.45A2.48,2.48,0,0,1,164.87,360.37Z"/><rect class="cls-10101" x="45.23" y="392.91" width="5.42" height="5.42"/><polyline class="cls-10103" points="229.83 367.46 145.63 434.59 65.31 434.59"/><path class="cls-10101" d="M228.19,365.61a2.47,2.47,0,1,1-.39,3.47A2.48,2.48,0,0,1,228.19,365.61Z"/><rect class="cls-10101" x="62.74" y="431.88" width="5.42" height="5.42"/><polyline class="cls-10103" points="220.23 399.15 131.74 474.62 71.59 474.62"/><path class="cls-10101" d="M218.53,397.35a2.47,2.47,0,1,1-.28,3.48A2.46,2.46,0,0,1,218.53,397.35Z"/><rect class="cls-10101" x="69.02" y="471.9" width="5.42" height="5.42"/>











<line class="cls-10104" x1="290.63" y1="113.42" x2="424.83" y2="113.42"/><path class="cls-10101" d="M290.76,116a2.6,2.6,0,1,1,2.59-2.6A2.6,2.6,0,0,1,290.76,116Z"/><rect class="cls-10101" x="421.84" y="110.58" width="5.69" height="5.69"/><line class="cls-10104" x1="329.2" y1="154.45" x2="369.03" y2="154.45"/><circle class="cls-10101" cx="329.33" cy="154.45" r="2.59" transform="translate(151.93 472) rotate(-85.93)"/><rect class="cls-10101" x="366.04" y="151.6" width="5.69" height="5.69"/><line class="cls-10104" x1="294.13" y1="194.3" x2="427.17" y2="194.3"/><circle class="cls-10101" cx="294.26" cy="194.3" r="2.59" transform="translate(79.59 474.05) rotate(-85.93)"/><rect class="cls-10101" x="424.18" y="191.46" width="5.69" height="5.69"/><polyline class="cls-10104" points="363.51 218.63 395 234.53 426.73 234.53"/><path class="cls-10101" d="M362.46,221a2.59,2.59,0,1,1,3.48-1.14A2.59,2.59,0,0,1,362.46,221Z"/><rect class="cls-10101" x="423.74" y="231.68" width="5.69" height="5.69"/><polyline class="cls-10104" points="291.16 304.96 395.34 354.82 436.07 354.82"/><path class="cls-10101" d="M290.16,307.36a2.59,2.59,0,1,1,3.46-1.22A2.6,2.6,0,0,1,290.16,307.36Z"/><rect class="cls-10101" x="433.08" y="351.97" width="5.69" height="5.69"/><polyline class="cls-10103" points="279.05 414.49 353.08 473.34 415.89 473.34"/><path class="cls-10101" d="M277.6,416.5a2.47,2.47,0,1,1,3.48-.4A2.48,2.48,0,0,1,277.6,416.5Z"/><rect class="cls-10101" x="413.04" y="470.63" width="5.42" height="5.42"/><polyline class="cls-10103" points="325.32 391.16 381.44 434.09 409.39 434.09"/><path class="cls-10101" d="M323.92,393.2a2.47,2.47,0,1,1,3.46-.46A2.47,2.47,0,0,1,323.92,393.2Z"/><rect class="cls-10101" x="406.54" y="431.38" width="5.42" height="5.42"/><polyline class="cls-10104" points="325.22 347.31 394.33 394 427.55 394"/><path class="cls-10101" d="M323.88,349.53a2.59,2.59,0,1,1,3.6-.7A2.59,2.59,0,0,1,323.88,349.53Z"/><rect class="cls-10101" x="424.56" y="391.15" width="5.69" height="5.69"/><polyline class="cls-10104" points="329.37 258.5 365.57 272.67 394.3 272.67"/><path class="cls-10101" d="M328.54,261a2.59,2.59,0,1,1,3.36-1.47A2.6,2.6,0,0,1,328.54,261Z"/><rect class="cls-10101" x="391.31" y="269.82" width="5.69" height="5.69"/><polyline class="cls-10104" points="340.77 300.18 372.21 314.19 440.62 314.19"/><path class="cls-10101" d="M339.84,302.6a2.59,2.59,0,1,1,3.42-1.31A2.59,2.59,0,0,1,339.84,302.6Z"/><rect class="cls-10101" x="437.63" y="311.34" width="5.69" height="5.69"/><path class="cls-4040" d="M6.52,589.4l-1.12.52-.12-.34,1.16-.41-.91-.63.25-.3.84.73.2-1.16H7.2L6.88,589,8,588.48l.11.34L7,589.23l.91.63-.26.3-.83-.73-.2,1.16H6.19Z"/><path class="cls-4040" d="M14.28,590.75a3.85,3.85,0,0,1-4.14,3.83H8l1.47-6.67h2.08A2.73,2.73,0,0,1,14.28,590.75Zm-.6,0a2.22,2.22,0,0,0-2.22-2.34H10L8.7,594.06h1.54A3.27,3.27,0,0,0,13.68,590.77Z"/><path class="cls-4040" d="M17.79,589.63a2,2,0,0,1,2.05,2.09,3,3,0,0,1-.08.61H15.68a2.3,2.3,0,0,0,0,.28,1.6,1.6,0,0,0,1.77,1.64,2.33,2.33,0,0,0,1.46-.52l.2.38a2.87,2.87,0,0,1-1.68.59,2.07,2.07,0,0,1-2.3-2.13A2.81,2.81,0,0,1,17.79,589.63Zm1.55,2.07a1.5,1.5,0,0,0-1.61-1.62,2.18,2.18,0,0,0-2,1.84h3.6A1.55,1.55,0,0,0,19.34,591.7Z"/><path class="cls-4040" d="M24.57,591.31a1.93,1.93,0,0,0,.06-.36c0-.6-.46-.85-1.05-.85a2.52,2.52,0,0,0-1.67.84l-.8,3.64h-.52l1.07-4.83h.52l-.16.73a2.66,2.66,0,0,1,1.74-.85c.82,0,1.41.39,1.41,1.18a2.14,2.14,0,0,1-.06.41l-.74,3.36h-.52Z"/><path class="cls-4040" d="M28.82,589.63A2,2,0,0,1,31,591.75a2.83,2.83,0,0,1-2.66,3,2,2,0,0,1-2.13-2.12A2.84,2.84,0,0,1,28.82,589.63Zm0,.47a2.32,2.32,0,0,0-2.08,2.46,1.5,1.5,0,0,0,1.57,1.67,2.32,2.32,0,0,0,2.08-2.46A1.5,1.5,0,0,0,28.82,590.1Z"/><path class="cls-4040" d="M32,593.63l.77-3.42H32l.1-.46h.8l.29-1.32h.53l-.29,1.32h1l-.11.46h-1l-.74,3.35a1.06,1.06,0,0,0,0,.21.43.43,0,0,0,.49.46.92.92,0,0,0,.51-.18l.1.42a1.1,1.1,0,0,1-.69.23c-.6,0-1-.25-1-.81A1.43,1.43,0,0,1,32,593.63Z"/><path class="cls-4040" d="M37.32,589.63a2,2,0,0,1,2,2.09,3,3,0,0,1-.08.61H35.21a2.3,2.3,0,0,0,0,.28A1.6,1.6,0,0,0,37,594.25a2.33,2.33,0,0,0,1.46-.52l.2.38a2.87,2.87,0,0,1-1.68.59,2.07,2.07,0,0,1-2.3-2.13A2.81,2.81,0,0,1,37.32,589.63Zm1.55,2.07a1.5,1.5,0,0,0-1.61-1.62,2.18,2.18,0,0,0-2,1.84h3.6A1.55,1.55,0,0,0,38.87,591.7Z"/><path class="cls-4040" d="M40.29,593.51a1.92,1.92,0,0,0,1.59.75c.8,0,1.28-.48,1.28-1s-.56-.71-1.16-1-1.42-.58-1.42-1.29.64-1.39,1.76-1.39a2.12,2.12,0,0,1,1.76.79l-.33.33a1.77,1.77,0,0,0-1.47-.68c-.73,0-1.19.38-1.19.87s.53.66,1.11.89,1.47.58,1.47,1.35a1.63,1.63,0,0,1-1.82,1.52,2.25,2.25,0,0,1-1.94-.85Z"/><path class="cls-4040" d="M48.44,590.21h-.8l.1-.46h.8l.09-.44c.21-.95.69-1.5,1.5-1.5a1.27,1.27,0,0,1,.76.21l-.22.38a.88.88,0,0,0-.53-.14c-.55,0-.83.38-1,1l-.1.44h1l-.1.46H49l-1,4.37h-.52Z"/><path class="cls-4040" d="M50.82,593a2.08,2.08,0,0,0-.06.36c0,.6.46.85,1.07.85a2.49,2.49,0,0,0,1.64-.85l.81-3.63h.52l-1.07,4.83h-.52l.16-.73a2.68,2.68,0,0,1-1.74.85c-.82,0-1.41-.39-1.41-1.18a2.14,2.14,0,0,1,.06-.41l.74-3.36h.52Z"/><path class="cls-4040" d="M59.33,591.31a1.93,1.93,0,0,0,.06-.36c0-.6-.46-.85-1-.85a2.52,2.52,0,0,0-1.67.84l-.8,3.64h-.52l1.07-4.83h.52l-.16.73a2.66,2.66,0,0,1,1.74-.85c.82,0,1.41.39,1.41,1.18a2.14,2.14,0,0,1-.06.41l-.74,3.36h-.52Z"/><path class="cls-4040" d="M65.78,587.91h.53l-1.47,6.67h-.53l.16-.73a2.07,2.07,0,0,1-1.65.85,1.81,1.81,0,0,1-1.89-2c0-1.62,1-3.09,2.54-3.09a2,2,0,0,1,1.74.94ZM63,594.23a2.06,2.06,0,0,0,1.64-.93l.51-2.32a1.75,1.75,0,0,0-1.6-.88,2.32,2.32,0,0,0-2,2.53A1.43,1.43,0,0,0,63,594.23Z"/><path class="cls-4040" d="M66.63,593.51a1.92,1.92,0,0,0,1.59.75c.8,0,1.28-.48,1.28-1s-.56-.71-1.16-1-1.42-.58-1.42-1.29.64-1.39,1.76-1.39a2.12,2.12,0,0,1,1.76.79l-.33.33a1.77,1.77,0,0,0-1.47-.68c-.73,0-1.19.38-1.19.87s.53.66,1.11.89,1.47.58,1.47,1.35a1.63,1.63,0,0,1-1.82,1.52,2.25,2.25,0,0,1-1.94-.85Z"/><path class="cls-4040" d="M77.34,590.45l-2.27,4.13h-.5l-.5-4.83h.53l.37,4.1,2.28-4.1h.44l.45,4.1,2.19-4.1h.58l-2.63,4.83h-.5Z"/><path class="cls-4040" d="M83.7,589.63a2,2,0,0,1,2,2.09,4,4,0,0,1-.08.61H81.59a2.3,2.3,0,0,0,0,.28,1.6,1.6,0,0,0,1.77,1.64,2.33,2.33,0,0,0,1.46-.52l.2.38a2.87,2.87,0,0,1-1.68.59,2.07,2.07,0,0,1-2.3-2.13A2.81,2.81,0,0,1,83.7,589.63Zm1.55,2.07a1.5,1.5,0,0,0-1.61-1.62,2.18,2.18,0,0,0-2,1.84h3.6A1.55,1.55,0,0,0,85.25,591.7Z"/><path class="cls-4040" d="M87.57,589.75h.52l-.18.78a2.15,2.15,0,0,1,1.83-.88l-.12.56a2.13,2.13,0,0,0-.35,0,2,2,0,0,0-1.47.89L87,594.58H86.5Z"/><path class="cls-4040" d="M92.54,589.63a2,2,0,0,1,2,2.09,4,4,0,0,1-.08.61H90.43a2.3,2.3,0,0,0,0,.28,1.6,1.6,0,0,0,1.77,1.64,2.33,2.33,0,0,0,1.46-.52l.2.38a2.87,2.87,0,0,1-1.68.59,2.07,2.07,0,0,1-2.3-2.13A2.81,2.81,0,0,1,92.54,589.63Zm1.55,2.07a1.5,1.5,0,0,0-1.61-1.62,2.18,2.18,0,0,0-2,1.84h3.6A1.55,1.55,0,0,0,94.09,591.7Z"/><path class="cls-4040" d="M98.23,593.63l.77-3.42h-.8l.1-.46h.8l.29-1.32h.53l-.29,1.32h1l-.11.46h-1l-.74,3.35a1.06,1.06,0,0,0,0,.21.43.43,0,0,0,.49.46.92.92,0,0,0,.51-.18l.1.42a1.1,1.1,0,0,1-.69.23c-.6,0-1-.25-1-.81A1.43,1.43,0,0,1,98.23,593.63Z"/><path class="cls-4040" d="M101.75,589.75h.52l-.18.78a2.15,2.15,0,0,1,1.83-.88l-.12.56a2.13,2.13,0,0,0-.35,0,2,2,0,0,0-1.47.89l-.78,3.51h-.52Z"/><path class="cls-4040" d="M108.48,589.75H109l-1.06,4.83h-.53l.16-.73a2.07,2.07,0,0,1-1.65.85,1.81,1.81,0,0,1-1.89-2c0-1.62,1-3.09,2.54-3.09a2,2,0,0,1,1.74.94Zm-2.42,4.48a2.06,2.06,0,0,0,1.64-.93l.51-2.32a1.75,1.75,0,0,0-1.6-.88,2.32,2.32,0,0,0-2,2.53A1.43,1.43,0,0,0,106.06,594.23Z"/><path class="cls-4040" d="M113.54,591.31a1.93,1.93,0,0,0,.06-.36c0-.6-.46-.85-1-.85a2.52,2.52,0,0,0-1.67.84l-.8,3.64h-.52l1.07-4.83h.52l-.16.73a2.66,2.66,0,0,1,1.74-.85c.82,0,1.41.39,1.41,1.18a2.2,2.2,0,0,1-.07.41l-.73,3.36h-.52Z"/><path class="cls-4040" d="M115.13,593.51a1.92,1.92,0,0,0,1.59.75c.8,0,1.28-.48,1.28-1s-.56-.71-1.16-1-1.42-.58-1.42-1.29.64-1.39,1.76-1.39a2.14,2.14,0,0,1,1.76.79l-.34.33a1.75,1.75,0,0,0-1.46-.68c-.73,0-1.19.38-1.19.87s.53.66,1.11.89,1.46.58,1.46,1.35a1.62,1.62,0,0,1-1.81,1.52,2.25,2.25,0,0,1-1.94-.85Z"/><path class="cls-4040" d="M120.69,590.21h-.8l.1-.46h.8l.09-.44c.21-.95.69-1.5,1.5-1.5a1.27,1.27,0,0,1,.76.21l-.22.38a.88.88,0,0,0-.53-.14c-.55,0-.83.38-1,1l-.1.44h1l-.1.46h-1l-1,4.37h-.52Z"/><path class="cls-4040" d="M125.07,589.63a2,2,0,0,1,2,2.09,3,3,0,0,1-.08.61H123a2.3,2.3,0,0,0,0,.28,1.6,1.6,0,0,0,1.77,1.64,2.28,2.28,0,0,0,1.45-.52l.2.38a2.84,2.84,0,0,1-1.67.59,2.07,2.07,0,0,1-2.3-2.13A2.81,2.81,0,0,1,125.07,589.63Zm1.54,2.07a1.5,1.5,0,0,0-1.6-1.62,2.18,2.18,0,0,0-2,1.84h3.59A1.55,1.55,0,0,0,126.61,591.7Z"/><path class="cls-4040" d="M128.94,589.75h.52l-.18.78a2.15,2.15,0,0,1,1.82-.88l-.12.56a1.87,1.87,0,0,0-.34,0,2,2,0,0,0-1.47.89l-.78,3.51h-.52Z"/><path class="cls-4040" d="M132.11,589.75h.52l-.18.78a2.15,2.15,0,0,1,1.82-.88l-.12.56a1.87,1.87,0,0,0-.34,0,2,2,0,0,0-1.47.89l-.78,3.51H131Z"/><path class="cls-4040" d="M137.08,589.63a2,2,0,0,1,2,2.09,3,3,0,0,1-.08.61H135a2.3,2.3,0,0,0,0,.28,1.6,1.6,0,0,0,1.77,1.64,2.28,2.28,0,0,0,1.45-.52l.2.38a2.86,2.86,0,0,1-1.67.59,2.07,2.07,0,0,1-2.3-2.13A2.81,2.81,0,0,1,137.08,589.63Zm1.54,2.07a1.5,1.5,0,0,0-1.6-1.62,2.18,2.18,0,0,0-2,1.84h3.59A1.55,1.55,0,0,0,138.62,591.7Z"/><path class="cls-4040" d="M144.91,587.91h.53L144,594.58h-.52l.16-.73a2.08,2.08,0,0,1-1.65.85,1.81,1.81,0,0,1-1.89-2c0-1.62,1-3.09,2.54-3.09a2,2,0,0,1,1.73.94Zm-2.82,6.32a2.06,2.06,0,0,0,1.64-.93l.5-2.32a1.74,1.74,0,0,0-1.59-.88,2.32,2.32,0,0,0-2,2.53A1.43,1.43,0,0,0,142.09,594.23Z"/><path class="cls-4040" d="M149.25,589.75h.52l-1.07,4.83h-.52Zm.56-1.62a.36.36,0,0,1,.37.35.46.46,0,0,1-.45.45.36.36,0,0,1-.37-.35A.46.46,0,0,1,149.81,588.13Z"/><path class="cls-4040" d="M154.29,591.31a1.93,1.93,0,0,0,.06-.36c0-.6-.46-.85-1-.85a2.52,2.52,0,0,0-1.66.84l-.8,3.64h-.52l1.07-4.83h.52l-.16.73a2.66,2.66,0,0,1,1.73-.85c.82,0,1.41.39,1.41,1.18a2.14,2.14,0,0,1-.06.41l-.74,3.36h-.52Z"/><path class="cls-4040" d="M163.85,594l.45.6-.46.29-.44-.59a3.54,3.54,0,0,1-1.71.44,2.78,2.78,0,0,1-3-2.89,3.84,3.84,0,0,1,3.68-4,2.79,2.79,0,0,1,3,2.89A4.1,4.1,0,0,1,163.85,594Zm-.77-.14-.87-1.17.46-.29.86,1.16a3.61,3.61,0,0,0,1.24-2.81,2.27,2.27,0,0,0-2.42-2.39,3.24,3.24,0,0,0-3,3.47,2.26,2.26,0,0,0,2.4,2.39A2.75,2.75,0,0,0,163.08,593.82Z"/><path class="cls-4040" d="M166.15,593a2,2,0,0,0,1.92,1.17,1.6,1.6,0,0,0,1.76-1.6c0-.7-.63-1.17-1.59-1.17h-.56l.13-.54h.88c.89,0,1.73-.44,1.73-1.37,0-.66-.63-1.19-1.62-1.19a2.46,2.46,0,0,0-1.7.7l-.28-.4a2.9,2.9,0,0,1,2-.82c1.24,0,2.17.6,2.17,1.66a1.83,1.83,0,0,1-1.81,1.73,1.46,1.46,0,0,1,1.21,1.42,2.16,2.16,0,0,1-2.33,2.08,2.52,2.52,0,0,1-2.38-1.39Z"/><path class="cls-4040" d="M174.45,587.71h.47L171,594.78h-.46Z"/><path class="cls-4040" d="M179.75,594l.45.6-.46.29-.44-.59a3.54,3.54,0,0,1-1.71.44,2.78,2.78,0,0,1-3-2.89,3.84,3.84,0,0,1,3.68-4,2.79,2.79,0,0,1,3,2.89A4.1,4.1,0,0,1,179.75,594Zm-.77-.14-.87-1.17.46-.29.86,1.16a3.61,3.61,0,0,0,1.24-2.81,2.27,2.27,0,0,0-2.42-2.39,3.24,3.24,0,0,0-3,3.47,2.26,2.26,0,0,0,2.4,2.39A2.75,2.75,0,0,0,179,593.82Z"/><path class="cls-4040" d="M184.94,592.76h-3.15l.12-.55,3.86-4.3h.81l-1,4.33h1l-.11.52h-1l-.4,1.82h-.56Zm-2.45-.52h2.57l.82-3.76Z"/><path class="cls-4040" d="M189.74,594c2.61-1.67,4.74-3.1,4.74-4.48,0-.74-.63-1.17-1.53-1.17a2.32,2.32,0,0,0-1.72.67l-.32-.4a3,3,0,0,1,2.06-.79c1.09,0,2.13.52,2.13,1.66,0,1.6-2.2,3.12-4.5,4.59h3.5l-.11.52H189.6Z"/><path class="cls-4040" d="M199.12,587.81c1.38,0,2.08,1,2.08,2.55,0,1.95-1.12,4.34-3.06,4.34-1.37,0-2.09-1-2.09-2.56C196.05,590.2,197.19,587.81,199.12,587.81Zm-.06.52c-1.5,0-2.41,2.18-2.41,3.85,0,1.13.42,2,1.54,2,1.5,0,2.42-2.19,2.42-3.86C200.61,589.19,200.18,588.33,199.06,588.33Z"/><path class="cls-4040" d="M203.9,588.69l-1.3,1.14-.27-.37,1.8-1.55h.52l-1.46,6.67h-.59Z"/><path class="cls-4040" d="M207,591.07a1.67,1.67,0,0,1-1.23-1.43,2,2,0,0,1,2.26-1.83c1.13,0,2.15.59,2.15,1.61s-.83,1.62-2,1.78a1.88,1.88,0,0,1,1.31,1.6,2.12,2.12,0,0,1-2.33,1.9c-1.3,0-2.28-.58-2.28-1.67S205.79,591.29,207,591.07Zm.56.32c-1.16.08-2,.68-2,1.55s.79,1.24,1.7,1.24a1.59,1.59,0,0,0,1.74-1.42C209,592,208.14,591.54,207.57,591.39Zm.44-3a1.47,1.47,0,0,0-1.64,1.33c0,.63.76,1.1,1.31,1.23,1.09-.09,1.89-.56,1.89-1.42C209.57,588.83,208.88,588.34,208,588.34Z"/><path class="cls-10105" d="M214.74,488.78h-5v-2.11h12.32v2.11h-5v13.9h-2.4Z"/><path class="cls-10105" d="M231.35,486.41c4.78,0,8.07,3.53,8.07,8.28s-3.29,8.28-8.07,8.28-8.06-3.53-8.06-8.28S226.58,486.41,231.35,486.41Zm0,2.13c-3.43,0-5.59,2.62-5.59,6.15s2.16,6.14,5.59,6.14,5.59-2.64,5.59-6.14S234.74,488.54,231.35,488.54Z"/><path class="cls-10105" d="M245.61,488.78h-5v-2.11H253v2.11H248v13.9h-2.4Z"/><path class="cls-10105" d="M264,499.37h-7.84l-1.3,3.31h-2.64l6.36-16h3l6.36,16h-2.64Zm-7.15-2.14h6.46l-3.24-8.47Z"/><path class="cls-10105" d="M269.85,486.67h2.4v13.9h7.27v2.11h-9.67Z"/><path class="cls-10105" d="M282.54,498.58a6.75,6.75,0,0,0,5,2.25c2.6,0,3.51-1.32,3.51-2.47,0-1.68-1.83-2.16-3.87-2.69-2.56-.67-5.54-1.41-5.54-4.68,0-2.64,2.33-4.56,5.66-4.56a7.86,7.86,0,0,1,5.84,2.23l-1.4,1.78a6.21,6.21,0,0,0-4.63-1.87c-1.77,0-3,.91-3,2.25s1.73,1.9,3.72,2.4c2.62.7,5.67,1.52,5.67,4.93,0,2.49-1.73,4.82-6.05,4.82a8.17,8.17,0,0,1-6.31-2.54Z"/><path class="cls-10105" d="M157.82,523v1.28h-1.33V523a5.13,5.13,0,0,1-3.3-1.46l1.08-1.51a4.12,4.12,0,0,0,2.22,1.19V519c-1.44-.34-3-.9-3-2.79,0-1.43,1.14-2.63,3-2.82v-1.3h1.33v1.33a4.79,4.79,0,0,1,2.84,1.25l-1.1,1.45a4,4,0,0,0-1.74-.91v2c1.46.38,3.07.94,3.07,2.84C160.89,521.59,159.88,522.79,157.82,523Zm-1.2-6.08v-1.78c-.71.07-1.09.44-1.09.94S156,516.75,156.62,516.92Zm2.24,3.36c0-.52-.49-.76-1.16-.95v1.95C158.49,521.17,158.86,520.74,158.86,520.28Z"/><path class="cls-10105" d="M164.41,524.27a5.86,5.86,0,0,0,4.27,1.72c1.9,0,3-1.08,3-2.4s-1.06-2.45-2.88-2.45a4.62,4.62,0,0,0-3.36,1.32l-2.38-.64v-9.15h11v2.93h-7.65v4a5.52,5.52,0,0,1,3.6-1.32,5,5,0,0,1,5.13,5.16c0,3.38-2.54,5.52-6.4,5.52a8,8,0,0,1-6.17-2.4Z"/><path class="cls-10105" d="M177.32,530.89a4,4,0,0,0,1.85-2.23,2,2,0,0,1-.46.07,1.65,1.65,0,0,1-1.63-1.75,1.92,1.92,0,0,1,1.87-1.92,2.23,2.23,0,0,1,2.16,2.45,5.58,5.58,0,0,1-2.47,4.46Z"/><path class="cls-10105" d="M189,515.67h-8.07v-3h12v2.38l-6,13.63h-3.74Z"/><path class="cls-10105" d="M196.47,524.27a5.9,5.9,0,0,0,4.28,1.72c1.89,0,3-1.08,3-2.4s-1.05-2.45-2.88-2.45a4.62,4.62,0,0,0-3.36,1.32l-2.38-.64v-9.15h11v2.93h-7.66v4a5.55,5.55,0,0,1,3.6-1.32,5,5,0,0,1,5.14,5.16c0,3.38-2.55,5.52-6.41,5.52a8,8,0,0,1-6.17-2.4Z"/><path class="cls-10105" d="M216.3,512.43a7.22,7.22,0,0,1,4.73,1.66l-1.54,2.57a4.25,4.25,0,0,0-3.19-1.28c-2.43,0-4,2.09-4,4.64a1.67,1.67,0,0,0,0,.33,5.21,5.21,0,0,1,4.11-2c2.88,0,5.45,1.75,5.45,5.16,0,3.12-2.48,5.5-6.12,5.5-4.88,0-6.92-3.74-6.92-8.26C208.83,515.86,211.57,512.43,216.3,512.43Zm-.87,8.71a4.13,4.13,0,0,0-3.12,1.54c.15,1.54,1,3.31,3.27,3.31a2.57,2.57,0,0,0,2.83-2.37C218.41,521.89,217,521.14,215.43,521.14Z"/><path class="cls-10105" d="M224,530.89a4,4,0,0,0,1.84-2.23,1.93,1.93,0,0,1-.45.07,1.65,1.65,0,0,1-1.63-1.75,1.91,1.91,0,0,1,1.87-1.92,2.23,2.23,0,0,1,2.16,2.45A5.6,5.6,0,0,1,225.3,532Z"/><path class="cls-10105" d="M231.23,517.06l-2.65,2.72-1.94-2,5-5.07h3v16h-3.43Z"/><path class="cls-10105" d="M243.68,512.43c4.56,0,6.63,4.13,6.63,8.26s-2.07,8.28-6.63,8.28-6.62-4.15-6.62-8.28S239.1,512.43,243.68,512.43Zm0,3c-2.3,0-3.17,2.28-3.17,5.23s.87,5.26,3.17,5.26,3.15-2.31,3.15-5.26S246,515.46,243.68,515.46Z"/><path class="cls-10105" d="M259.38,525.37h-7.66v-2.69l6.36-10h4.71v9.7h2.06v3h-2.06v3.31h-3.41Zm-4.32-3h4.32V515.7Z"/><path class="cls-10105" d="M280.52,526.2h-5.89l-1,2.48h-2l4.77-12h2.25l4.78,12h-2Zm-5.36-1.61H280l-2.43-6.35Z"/><path class="cls-10105" d="M284.87,516.67h1.63v12h-1.63Z"/><path class="cls-10105" d="M289.07,516.67h1.62v12h-1.62Z"/><path class="cls-10105" d="M292.72,524.32a4.4,4.4,0,1,1,4.39,4.58A4.31,4.31,0,0,1,292.72,524.32Zm7.1,0a2.73,2.73,0,1,0-5.41,0c0,1.66,1,3.14,2.7,3.14S299.82,526,299.82,524.32Z"/><path class="cls-10105" d="M307.45,519.77a3.79,3.79,0,0,1,3.26,1.53l-1.08,1a2.44,2.44,0,0,0-2.11-1.08,3.14,3.14,0,0,0,0,6.25,2.49,2.49,0,0,0,2.11-1.08l1.08,1a3.81,3.81,0,0,1-3.26,1.53,4.57,4.57,0,0,1,0-9.13Z"/><path class="cls-10105" d="M317.85,527.73A3.73,3.73,0,0,1,315,528.9a2.89,2.89,0,0,1-3-2.88,2.81,2.81,0,0,1,3-2.85,3.62,3.62,0,0,1,2.84,1.15v-1.44c0-1.08-.88-1.72-2.12-1.72a3.53,3.53,0,0,0-2.61,1.15l-.71-1.12a4.92,4.92,0,0,1,3.57-1.42c1.89,0,3.49.83,3.49,3v5.87h-1.62Zm0-2.43a2.75,2.75,0,0,0-2.23-1,1.74,1.74,0,1,0,0,3.45,2.75,2.75,0,0,0,2.23-1Z"/><path class="cls-10105" d="M322.39,526.75v-5.34h-1.45V520h1.45v-2.38H324V520h1.76v1.42H324v5c0,.62.28,1.07.84,1.07a1.28,1.28,0,0,0,.88-.34l.42,1.22a2.33,2.33,0,0,1-1.69.56A1.9,1.9,0,0,1,322.39,526.75Z"/><path class="cls-10105" d="M327.32,517.5a1,1,0,0,1,2.09,0,1,1,0,0,1-2.09,0Zm.25,2.49h1.62v8.69h-1.62Z"/><path class="cls-10105" d="M331.22,524.32a4.4,4.4,0,1,1,4.4,4.58A4.32,4.32,0,0,1,331.22,524.32Zm7.1,0a2.73,2.73,0,1,0-5.4,0c0,1.66,1,3.14,2.7,3.14S338.32,526,338.32,524.32Z"/><path class="cls-10105" d="M347.93,523.12c0-1.44-.74-1.91-1.86-1.91a3.11,3.11,0,0,0-2.39,1.26v6.21h-1.62V520h1.62v1.22a4.16,4.16,0,0,1,3.08-1.44,2.5,2.5,0,0,1,2.79,2.81v6.1h-1.62Z"/><path class="cls-10105" d="M142.47,549v1.28h-1.33V549a5.16,5.16,0,0,1-3.3-1.46l1.08-1.51a4.12,4.12,0,0,0,2.22,1.19V545c-1.44-.34-3-.9-3-2.79,0-1.43,1.13-2.63,3-2.82v-1.3h1.33v1.33a4.79,4.79,0,0,1,2.84,1.25l-1.1,1.45a4,4,0,0,0-1.74-.91v2c1.46.38,3.07.94,3.07,2.84C145.54,547.59,144.53,548.79,142.47,549Zm-1.2-6.08v-1.78c-.71.07-1.09.44-1.09.94S140.63,542.75,141.27,542.92Zm2.24,3.36c0-.52-.49-.76-1.16-.95v1.95C143.15,547.17,143.51,546.74,143.51,546.28Z"/><path class="cls-10105" d="M148.27,550.17a6.38,6.38,0,0,0,4.42,1.82c1.94,0,3-.84,3-2.06s-1-1.9-3.22-1.9c-.67,0-1.75,0-2,0v-3c.29,0,1.37,0,2,0,1.78,0,3-.57,3-1.77s-1.3-1.92-3-1.92a5.8,5.8,0,0,0-4.08,1.68L146.71,541a7.86,7.86,0,0,1,6.12-2.55c3.74,0,6,1.68,6,4.35a3.92,3.92,0,0,1-3.51,3.64,4,4,0,0,1,3.75,3.85c0,2.76-2.47,4.7-6.31,4.7a8,8,0,0,1-6.32-2.57Z"/><path class="cls-10105" d="M161.47,556.89a4,4,0,0,0,1.85-2.23,2,2,0,0,1-.46.07,1.65,1.65,0,0,1-1.63-1.75,1.91,1.91,0,0,1,1.87-1.92,2.23,2.23,0,0,1,2.16,2.45,5.6,5.6,0,0,1-2.47,4.46Z"/><path class="cls-10105" d="M173.69,538.43c4.56,0,6.62,4.13,6.62,8.26s-2.06,8.28-6.62,8.28-6.63-4.15-6.63-8.28S169.1,538.43,173.69,538.43Zm0,3c-2.31,0-3.17,2.28-3.17,5.23s.86,5.26,3.17,5.26,3.14-2.31,3.14-5.26S176,541.46,173.69,541.46Z"/><path class="cls-10105" d="M186,543.06l-2.64,2.72-1.94-2,5-5.07h3v16H186Z"/><path class="cls-10105" d="M198.43,538.43c4.56,0,6.62,4.13,6.62,8.26S203,555,198.43,555s-6.62-4.15-6.62-8.28S193.85,538.43,198.43,538.43Zm0,3c-2.3,0-3.17,2.28-3.17,5.23s.87,5.26,3.17,5.26,3.14-2.31,3.14-5.26S200.71,541.46,198.43,541.46Z"/><path class="cls-10105" d="M206.73,556.89a4,4,0,0,0,1.85-2.23,2,2,0,0,1-.46.07,1.65,1.65,0,0,1-1.63-1.75,1.92,1.92,0,0,1,1.87-1.92,2.23,2.23,0,0,1,2.16,2.45,5.58,5.58,0,0,1-2.47,4.46Z"/><path class="cls-10105" d="M219,538.43c4.56,0,6.62,4.13,6.62,8.26S223.51,555,219,555s-6.63-4.15-6.63-8.28S214.36,538.43,219,538.43Zm0,3c-2.3,0-3.17,2.28-3.17,5.23S216.65,552,219,552s3.14-2.31,3.14-5.26S221.23,541.46,219,541.46Z"/><path class="cls-10105" d="M234.65,551.37H227v-2.69l6.36-10h4.7v9.7h2.07v3h-2.07v3.31h-3.4Zm-4.33-3h4.33V541.7Z"/><path class="cls-10105" d="M248.16,538.43c4.56,0,6.62,4.13,6.62,8.26s-2.06,8.28-6.62,8.28-6.63-4.15-6.63-8.28S243.57,538.43,248.16,538.43Zm0,3c-2.31,0-3.17,2.28-3.17,5.23s.86,5.26,3.17,5.26,3.14-2.31,3.14-5.26S250.44,541.46,248.16,541.46Z"/><path class="cls-10105" d="M263.07,542.67h8.07v1.59h-6.27v3.51H271v1.58h-6.14v3.75h6.27v1.58h-8.07Z"/><path class="cls-10105" d="M276.48,551.3,274,554.68H272.2l3.26-4.46L272.4,546h1.83l2.25,3.13,2.24-3.13h1.83l-3.08,4.23,3.28,4.46h-1.84Z"/><path class="cls-10105" d="M282.19,558V546h1.62v1.24a3.52,3.52,0,0,1,2.84-1.46c2.27,0,3.87,1.71,3.87,4.55s-1.6,4.58-3.87,4.58a3.45,3.45,0,0,1-2.84-1.48V558Zm4-10.78a3,3,0,0,0-2.41,1.28v3.69a3,3,0,0,0,2.41,1.28c1.62,0,2.61-1.32,2.61-3.14S287.84,547.21,286.22,547.21Z"/><path class="cls-10105" d="M296.39,545.77c2.61,0,4.23,2,4.23,4.7v.39h-6.88a2.86,2.86,0,0,0,3,2.71,3.67,3.67,0,0,0,2.57-1l.76,1.06a4.89,4.89,0,0,1-3.49,1.3,4.57,4.57,0,0,1-.15-9.13Zm-2.66,3.92H299a2.58,2.58,0,0,0-2.65-2.59A2.67,2.67,0,0,0,293.73,549.69Z"/><path class="cls-10105" d="M308.52,549.12c0-1.44-.73-1.91-1.85-1.91a3.11,3.11,0,0,0-2.4,1.26v6.21h-1.62V546h1.62v1.22a4.16,4.16,0,0,1,3.08-1.44,2.5,2.5,0,0,1,2.79,2.81v6.1h-1.62Z"/><path class="cls-10105" d="M318.91,553.44a3.61,3.61,0,0,1-2.85,1.46c-2.26,0-3.88-1.71-3.88-4.56s1.62-4.57,3.88-4.57a3.54,3.54,0,0,1,2.85,1.48v-4.58h1.62v12h-1.62Zm0-5a3,3,0,0,0-2.41-1.28c-1.62,0-2.63,1.31-2.63,3.13s1,3.12,2.63,3.12a3,3,0,0,0,2.41-1.26Z"/><path class="cls-10105" d="M322.87,543.5a1,1,0,0,1,2.09,0,1,1,0,0,1-2.09,0Zm.25,2.49h1.62v8.69h-1.62Z"/><path class="cls-10105" d="M327.64,552.75v-5.34H326.2V546h1.44v-2.38h1.62V546H331v1.42h-1.76v5c0,.62.29,1.07.84,1.07a1.32,1.32,0,0,0,.89-.34l.41,1.22a2.33,2.33,0,0,1-1.69.56A1.9,1.9,0,0,1,327.64,552.75Z"/><path class="cls-10105" d="M338.69,553.49a4.3,4.3,0,0,1-3.1,1.41,2.46,2.46,0,0,1-2.77-2.78V546h1.62v5.59c0,1.45.72,1.88,1.84,1.88a3.14,3.14,0,0,0,2.41-1.23V546h1.62v8.69h-1.62Z"/><path class="cls-10105" d="M342.88,546h1.62v1.33a3.68,3.68,0,0,1,2.85-1.53v1.64a2.29,2.29,0,0,0-.56-.06,3.08,3.08,0,0,0-2.29,1.26v6h-1.62Z"/><path class="cls-10105" d="M352.78,545.77c2.61,0,4.23,2,4.23,4.7v.39h-6.87a2.85,2.85,0,0,0,2.95,2.71,3.66,3.66,0,0,0,2.57-1l.76,1.06a4.87,4.87,0,0,1-3.49,1.3,4.57,4.57,0,0,1-.15-9.13Zm-2.66,3.92h5.31a2.58,2.58,0,0,0-2.65-2.59A2.67,2.67,0,0,0,350.12,549.69Z"/><path class="cls-10105" d="M359.06,552.36A4.22,4.22,0,0,0,362,553.6c1.23,0,1.87-.5,1.87-1.24s-1-1.15-2.1-1.41c-1.48-.34-3.21-.73-3.21-2.61,0-1.38,1.19-2.57,3.31-2.57a4.67,4.67,0,0,1,3.32,1.24l-.72,1.14a3.39,3.39,0,0,0-2.58-1.07c-1.1,0-1.78.44-1.78,1.14s.94,1,2,1.26c1.51.34,3.31.75,3.31,2.75,0,1.5-1.22,2.67-3.51,2.67a4.94,4.94,0,0,1-3.62-1.35Z"/><path class="cls-7" d="M240.18,566.25a8,8,0,0,1,1.34-4.42l.31.23a8.81,8.81,0,0,0,0,8.38l-.31.23A8,8,0,0,1,240.18,566.25Z"/><path class="cls-7" d="M242.83,562h.58v4.09a2,2,0,1,0,4,0V562H248v4.1a2.6,2.6,0,1,1-5.2,0Z"/><path class="cls-7" d="M249.69,567.31a2.72,2.72,0,0,0,2.08,1c1.37,0,1.76-.76,1.76-1.33,0-.94-.9-1.2-1.83-1.45s-2.17-.59-2.17-1.82,1-1.77,2.19-1.77a2.87,2.87,0,0,1,2.26.93l-.38.42a2.39,2.39,0,0,0-1.91-.84c-.89,0-1.56.51-1.56,1.23s.83,1,1.74,1.27c1.07.3,2.26.64,2.26,2,0,.85-.57,1.88-2.37,1.88a3.07,3.07,0,0,1-2.44-1.06Z"/><path class="cls-7" d="M255.5,562h2.13a3.33,3.33,0,1,1,0,6.66H255.5Zm2.13,6.14a2.81,2.81,0,0,0,0-5.62h-1.56v5.62Z"/><path class="cls-7" d="M261.76,562.06l.31-.23a8,8,0,0,1,0,8.84l-.31-.23a8.81,8.81,0,0,0,0-8.38Z"/><rect class="cls-10106" x="355.36" y="517.71" width="11.13" height="11.13"/><rect class="cls-1010717" x="369.17" y="544.17" width="11.13" height="11.13"/></g></svg>