<svg viewBox="0 0 495 620" xmlns="http://www.w3.org/2000/svg" xmlns:xlink="http://www.w3.org/1999/xlink"><radialGradient id="a" cx="320.41" cy="220.27" gradientUnits="userSpaceOnUse" r="166.51"><stop offset="0" stop-color="#fff" stop-opacity=".2"/><stop offset=".23" stop-color="#fbfafa" stop-opacity=".47"/><stop offset=".44" stop-color="#f7f6f6" stop-opacity=".7"/><stop offset=".62" stop-color="#f4f3f3" stop-opacity=".86"/><stop offset=".77" stop-color="#f3f2f2" stop-opacity=".96"/><stop offset=".86" stop-color="#f2f1f1"/></radialGradient><path d="m0 0h495v620h-495z" fill="#f1f1f1"/><circle cx="320.41" cy="220.27" fill="url(#a)" r="166.51"/><g fill="none" opacity=".2" stroke="#fff" stroke-miterlimit="10" stroke-width="24"><path d="m198.89 588h73.12z"/><path d="m198.89 588h73.12l-.01-.01h-73.11z"/><path d="m198.89 587.99h73.11v-.04h-73.12z"/><path d="m198.88 587.95h73.12l-.13-.45h-73.12z"/><path d="m198.75 587.5h73.12l-.2-.73h-73.11z"/><path d="m198.56 586.77h73.11l-.26-.93h-73.11z"/><path d="m198.3 585.84h73.11l-.27-1h-73.11z"/><path d="m198.03 584.84h73.11l-.28-1.02h-73.12z"/><path d="m197.74 583.82h73.12l-1.25-4.53h-73.11z"/><path d="m196.5 579.29h73.11l-1.28-4.67h-73.11z"/><path d="m195.22 574.62h73.11l-1.86-6.78h-73.12z"/><path d="m193.35 567.84h73.12l-1.89-6.88h-73.12z"/><path d="m191.46 560.96h73.12l-1.89-6.9h-73.12z"/><path d="m189.57 554.06h73.12l-2.25-8.19h-73.12z"/><path d="m187.32 545.87h73.12l-2.67-9.69h-73.11z"/><path d="m184.66 536.18h73.11l-4.25-15.5h-73.12z"/><path d="m180.4 520.68h73.12l-4.54-16.5h-73.11z"/><path d="m175.87 504.18h73.11l-4.56-16.6h-73.11z"/><path d="m171.31 487.58h73.11l-5.89-21.45h-73.12z"/><path d="m165.41 466.13h73.12l-5.92-21.55h-73.11z"/><path d="m159.5 444.58h73.11l-18.23-66.39h-73.12z"/><path d="m141.26 378.19h73.12l-40.47-147.31h-73.11z"/><path d="m100.8 230.88h73.11l-44.83-163.21h-73.12z"/></g><path d="m3.8 5h5.2v15.49h8v4.51h-13.2z" fill="#0265b5"/><path d="m19.22 6a2.64 2.64 0 1 1 2.64 2.64 2.62 2.62 0 0 1 -2.64-2.64zm.33 4.47h4.62v14.53h-4.62z" fill="#0265b5"/><path d="m28.52 14.52h-2.4v-4h2.4v-.74a4.91 4.91 0 0 1 5.19-5.1 6.62 6.62 0 0 1 3.06.66l-.84 3.15a2.38 2.38 0 0 0 -1.2-.3 1.52 1.52 0 0 0 -1.59 1.71v.6h2.94v4h-2.94v10.5h-4.62z" fill="#0265b5"/><path d="m44.75 10.14c4.29 0 7.41 3.15 7.41 8.07v1h-10.32a3.46 3.46 0 0 0 3.69 2.58 5.74 5.74 0 0 0 3.54-1.23l2 2.88a9.45 9.45 0 0 1 -6.07 1.91c-4.47 0-7.92-2.91-7.92-7.62a7.48 7.48 0 0 1 7.67-7.59zm-3 6.06h6a2.78 2.78 0 0 0 -3-2.49 2.86 2.86 0 0 0 -2.97 2.49z" fill="#0265b5"/><path d="m55.4 21.09v-6.57h-2.4v-4h2.4v-4h4.6v4h2.94v4h-2.94v5.28a1.31 1.31 0 0 0 1.29 1.47 1.8 1.8 0 0 0 1.17-.36l.9 3.48a5 5 0 0 1 -3.42 1c-2.94-.04-4.54-1.51-4.54-4.3z" fill="#0265b5"/><path d="m64.91 6a2.64 2.64 0 1 1 2.64 2.64 2.62 2.62 0 0 1 -2.64-2.64zm.33 4.47h4.62v14.53h-4.62z" fill="#0265b5"/><path d="m91.49 16.17a1.74 1.74 0 0 0 -1.92-2 3.35 3.35 0 0 0 -2.57 1.46v9.37h-4.66v-8.83a1.73 1.73 0 0 0 -1.92-2 3.39 3.39 0 0 0 -2.58 1.41v9.42h-4.62v-14.5h4.62v1.77a6.43 6.43 0 0 1 4.77-2.13c2.07 0 3.51.87 4.11 2.58a6.24 6.24 0 0 1 5-2.58c2.67 0 4.35 1.38 4.35 4.35v10.51h-4.58z" fill="#0265b5"/><path d="m106.22 10.14c4.29 0 7.41 3.15 7.41 8.07v1h-10.32a3.46 3.46 0 0 0 3.69 2.57 5.74 5.74 0 0 0 3.54-1.23l1.95 2.88a9.45 9.45 0 0 1 -6.06 1.92c-4.47 0-7.92-2.91-7.92-7.62a7.48 7.48 0 0 1 7.71-7.59zm-3 6.06h6a2.78 2.78 0 0 0 -3-2.49 2.86 2.86 0 0 0 -2.97 2.49z" fill="#0265b5"/><path d="m122.69 15c0-6.18 4.68-10.35 10.68-10.35a9.31 9.31 0 0 1 8.88 5.35l-4.44 2.1a4.85 4.85 0 0 0 -4.44-2.91 5.5 5.5 0 0 0 -5.43 5.81 5.5 5.5 0 0 0 5.43 5.79 4.85 4.85 0 0 0 4.44-2.91l4.44 2.1a9.36 9.36 0 0 1 -8.88 5.37c-6 0-10.68-4.2-10.68-10.35z" fill="#0265b5"/><path d="m143.39 17.73a7.47 7.47 0 0 1 7.89-7.59c5 0 7.92 3.51 7.92 7.59a7.91 7.91 0 0 1 -15.81 0zm11.07 0c0-1.92-1.14-3.51-3.18-3.51s-3.12 1.59-3.12 3.51 1.11 3.54 3.12 3.54 3.18-1.59 3.18-3.54z" fill="#0265b5"/><path d="m171.44 16.62a2.09 2.09 0 0 0 -2.37-2.4 3.58 3.58 0 0 0 -2.82 1.41v9.37h-4.62v-14.5h4.62v1.77a6.55 6.55 0 0 1 5-2.13c3.3 0 4.8 1.92 4.8 4.59v10.27h-4.62z" fill="#0265b5"/><path d="m180.38 21.09v-6.57h-2.38v-4h2.4v-4h4.6v4h2.94v4h-2.94v5.28a1.31 1.31 0 0 0 1.29 1.47 1.8 1.8 0 0 0 1.17-.36l.9 3.48a5 5 0 0 1 -3.42 1c-2.94-.04-4.56-1.51-4.56-4.3z" fill="#0265b5"/><path d="m190.22 10.5h4.62v1.83a6.32 6.32 0 0 1 4.53-2.19v4.47a3.74 3.74 0 0 0 -1.14-.15 4.61 4.61 0 0 0 -3.39 1.35v9.19h-4.62z" fill="#0265b5"/><path d="m201.14 6a2.64 2.64 0 1 1 2.64 2.64 2.62 2.62 0 0 1 -2.64-2.64zm.33 4.47h4.62v14.53h-4.62z" fill="#0265b5"/><path d="m209.45 5h4.62v7.23a5.34 5.34 0 0 1 4.29-2.07c3.6 0 6.39 2.85 6.39 7.59 0 4.92-2.82 7.62-6.39 7.62a5.53 5.53 0 0 1 -4.29-2v1.63h-4.62zm7.38 16.29a3.22 3.22 0 0 0 3.17-3.56 3.21 3.21 0 0 0 -3.21-3.51 3.69 3.69 0 0 0 -2.76 1.32v4.46a3.66 3.66 0 0 0 2.8 1.27z" fill="#0265b5"/><path d="m237 23.25a6.59 6.59 0 0 1 -5 2.1c-3.3 0-4.77-1.86-4.77-4.53v-10.32h4.62v8.43c0 1.74.9 2.34 2.4 2.34a3.46 3.46 0 0 0 2.75-1.41v-9.36h4.61v14.5h-4.61z" fill="#0265b5"/><path d="m245.9 21.09v-6.57h-2.4v-4h2.4v-4h4.59v4h2.94v4h-2.94v5.28a1.31 1.31 0 0 0 1.29 1.47 1.8 1.8 0 0 0 1.17-.36l.9 3.48a5 5 0 0 1 -3.42 1c-2.94-.04-4.53-1.51-4.53-4.3z" fill="#0265b5"/><path d="m255.41 6a2.64 2.64 0 1 1 2.59 2.67 2.62 2.62 0 0 1 -2.59-2.67zm.32 4.47h4.62v14.53h-4.62z" fill="#0265b5"/><path d="m262.75 17.73a7.47 7.47 0 0 1 7.89-7.59c5 0 7.92 3.51 7.92 7.59a7.91 7.91 0 0 1 -15.81 0zm11.07 0c0-1.92-1.14-3.51-3.18-3.51s-3.12 1.59-3.12 3.51 1.11 3.54 3.12 3.54 3.18-1.59 3.18-3.54z" fill="#0265b5"/><path d="m290.8 16.62a2.09 2.09 0 0 0 -2.37-2.4 3.58 3.58 0 0 0 -2.82 1.41v9.37h-4.61v-14.5h4.62v1.77a6.55 6.55 0 0 1 5-2.13c3.3 0 4.8 1.92 4.8 4.59v10.27h-4.62z" fill="#0265b5"/><path d="m299.47 20a9 9 0 0 0 5.1 1.92c1.38 0 1.95-.45 1.95-1.08s-1-1-2.49-1.26c-2.46-.42-5.94-.93-5.94-4.62 0-2.55 2.19-4.77 6.21-4.77a10.2 10.2 0 0 1 6.06 1.92l-1.77 3.06a6.48 6.48 0 0 0 -4.26-1.59c-1.08 0-1.83.36-1.83 1s.78.9 2.31 1.17c2.46.42 6.12 1 6.12 4.86 0 2.76-2.43 4.8-6.6 4.8a10.8 10.8 0 0 1 -6.78-2.22z" fill="#0265b5"/><path d="m32.63 46.05h-5.5l-.91 4.12h-.74l1.91-8.67h.74l-.85 3.87h5.49l.86-3.87h.74l-1.9 8.67h-.75z" fill="#858585"/><path d="m38.2 43.74a2.59 2.59 0 0 1 2.8 2.75 3.68 3.68 0 0 1 -3.45 3.84 2.59 2.59 0 0 1 -2.77-2.76 3.68 3.68 0 0 1 3.42-3.83zm0 .61a3 3 0 0 0 -2.7 3.19 2 2 0 0 0 2 2.18 3 3 0 0 0 2.7-3.2 2 2 0 0 0 -2-2.17z" fill="#858585"/><path d="m42.31 43.89h.69l1.05 5.49 3.5-5.49h.79l-4 6.28h-.77z" fill="#858585"/><path d="m51.8 43.74a2.55 2.55 0 0 1 2.67 2.71 3.85 3.85 0 0 1 -.11.8h-5.3a1.94 1.94 0 0 0 0 .36 2.08 2.08 0 0 0 2.3 2.13 3.06 3.06 0 0 0 1.9-.67l.26.49a3.71 3.71 0 0 1 -2.18.77 2.69 2.69 0 0 1 -3-2.77 3.65 3.65 0 0 1 3.46-3.82zm2 2.69a2 2 0 0 0 -2.1-2.11 2.83 2.83 0 0 0 -2.6 2.39h4.7a1.27 1.27 0 0 0 .02-.28z" fill="#858585"/><path d="m56.77 43.89h.67l-.23 1a2.79 2.79 0 0 1 2.38-1.15l-.16.73a3.18 3.18 0 0 0 -.45 0 2.56 2.56 0 0 0 -1.92 1.16l-1 4.56h-.67z" fill="#858585"/><path d="m66.41 43.74a2.59 2.59 0 0 1 2.78 2.75 3.69 3.69 0 0 1 -3.46 3.84 2.58 2.58 0 0 1 -2.73-2.76 3.68 3.68 0 0 1 3.41-3.83zm0 .61a3 3 0 0 0 -2.7 3.19 2 2 0 0 0 2 2.18 3 3 0 0 0 2.7-3.2 2 2 0 0 0 -2-2.17z" fill="#858585"/><path d="m70.52 43.89h.73l1 5.49 3.5-5.49h.79l-4 6.28h-.77z" fill="#858585"/><path d="m80 43.74a2.54 2.54 0 0 1 2.66 2.71 3.94 3.94 0 0 1 -.1.8h-5.3a1.94 1.94 0 0 0 0 .36 2.08 2.08 0 0 0 2.3 2.13 3.06 3.06 0 0 0 1.9-.67l.26.49a3.74 3.74 0 0 1 -2.19.77 2.69 2.69 0 0 1 -3-2.77 3.66 3.66 0 0 1 3.47-3.82zm2 2.69a2 2 0 0 0 -2.09-2.11 2.83 2.83 0 0 0 -2.6 2.39h4.69a2.53 2.53 0 0 0 0-.28z" fill="#858585"/><path d="m85 43.89h.68l-.23 1a2.79 2.79 0 0 1 2.38-1.15l-.16.73a3.21 3.21 0 0 0 -.46 0 2.56 2.56 0 0 0 -1.91 1.16l-1 4.56h-.68z" fill="#858585"/><path d="m94.67 43.74a2.55 2.55 0 0 1 2.67 2.71 3.85 3.85 0 0 1 -.11.8h-5.3a3.48 3.48 0 0 0 0 .36 2.08 2.08 0 0 0 2.3 2.13 3 3 0 0 0 1.9-.67l.26.49a3.71 3.71 0 0 1 -2.18.77 2.69 2.69 0 0 1 -3-2.77 3.65 3.65 0 0 1 3.46-3.82zm2 2.69a2 2 0 0 0 -2.1-2.11 2.83 2.83 0 0 0 -2.57 2.39h4.68a1.27 1.27 0 0 0 .01-.28z" fill="#858585"/><path d="m104.27 43.89h.73l-1.39 6.28h-.69l.21-1a2.69 2.69 0 0 1 -2.14 1.11 2.35 2.35 0 0 1 -2.46-2.58c0-2.1 1.31-4 3.3-4a2.55 2.55 0 0 1 2.17 1.3zm-3.15 5.83a2.69 2.69 0 0 0 2.13-1.21l.66-3a2.27 2.27 0 0 0 -2.08-1.14c-1.57 0-2.61 1.62-2.61 3.29a1.87 1.87 0 0 0 1.9 2.06z" fill="#858585"/><path d="m109.32 43.74a2.41 2.41 0 0 1 2.26 1.14l-.52.39a1.91 1.91 0 0 0 -1.7-.92 3 3 0 0 0 -2.79 3.21 2 2 0 0 0 2.14 2.16 2.21 2.21 0 0 0 1.7-.81l.39.47a2.8 2.8 0 0 1 -2.15.95 2.61 2.61 0 0 1 -2.8-2.79 3.65 3.65 0 0 1 3.47-3.8z" fill="#858585"/><path d="m117.14 45.91a4 4 0 0 0 .07-.46c0-.78-.59-1.1-1.4-1.1a3.27 3.27 0 0 0 -2.13 1.1l-1 4.72h-.68l1.91-8.67h.68l-.73 3.34a3.44 3.44 0 0 1 2.26-1.1c1.07 0 1.84.5 1.84 1.53a2.73 2.73 0 0 1 -.08.53l-1 4.37h-.68z" fill="#858585"/><path d="m122.44 48.78a2.47 2.47 0 0 0 2.07 1c1 0 1.66-.62 1.66-1.29s-.73-.93-1.51-1.24-1.84-.75-1.84-1.68.83-1.8 2.28-1.8a2.77 2.77 0 0 1 2.29 1l-.43.43a2.3 2.3 0 0 0 -1.91-.88c-1 0-1.55.49-1.55 1.13s.69.86 1.45 1.16 1.91.75 1.91 1.75a2.13 2.13 0 0 1 -2.37 2 2.92 2.92 0 0 1 -2.49-1.14z" fill="#858585"/><path d="m131.85 43.74a2.55 2.55 0 0 1 2.67 2.71 3.85 3.85 0 0 1 -.11.8h-5.3a1.94 1.94 0 0 0 0 .36 2.08 2.08 0 0 0 2.3 2.13 3.06 3.06 0 0 0 1.9-.67l.26.49a3.71 3.71 0 0 1 -2.18.77 2.69 2.69 0 0 1 -3-2.77 3.65 3.65 0 0 1 3.46-3.82zm2 2.69a2 2 0 0 0 -2.1-2.11 2.83 2.83 0 0 0 -2.6 2.39h4.68a1.27 1.27 0 0 0 .04-.28z" fill="#858585"/><path d="m139.14 43.74a2.42 2.42 0 0 1 2.27 1.14l-.52.39a1.93 1.93 0 0 0 -1.71-.92 3 3 0 0 0 -2.79 3.21 2 2 0 0 0 2.14 2.16 2.24 2.24 0 0 0 1.71-.81l.39.47a2.84 2.84 0 0 1 -2.16.95 2.62 2.62 0 0 1 -2.8-2.79 3.65 3.65 0 0 1 3.47-3.8z" fill="#858585"/><path d="m142.17 48.94 1-4.45h-1l.13-.6h1l.38-1.71h.69l-.37 1.71h1.28l-.15.6h-1.27l-1 4.35a1 1 0 0 0 0 .28.56.56 0 0 0 .64.6 1.14 1.14 0 0 0 .66-.24l.13.55a1.43 1.43 0 0 1 -.9.3c-.78 0-1.24-.33-1.24-1.06a2.33 2.33 0 0 1 .02-.33z" fill="#858585"/><path d="m146.68 43.89h.68l-1.36 6.28h-.68zm.73-2.1a.46.46 0 0 1 .48.45.6.6 0 0 1 -.58.59.46.46 0 0 1 -.48-.46.59.59 0 0 1 .58-.58z" fill="#858585"/><path d="m151.69 43.74a2.59 2.59 0 0 1 2.78 2.75 3.69 3.69 0 0 1 -3.47 3.84 2.59 2.59 0 0 1 -2.77-2.76 3.68 3.68 0 0 1 3.46-3.83zm0 .61a3 3 0 0 0 -2.69 3.19 2 2 0 0 0 2 2.18 3 3 0 0 0 2.71-3.2 2 2 0 0 0 -2.02-2.17z" fill="#858585"/><path d="m160.54 45.92a2.19 2.19 0 0 0 .08-.47c0-.78-.6-1.1-1.37-1.1a3.28 3.28 0 0 0 -2.17 1.09l-1 4.73h-.67l1.39-6.28h.67l-.2 1a3.39 3.39 0 0 1 2.26-1.1c1.06 0 1.83.5 1.83 1.53a2.62 2.62 0 0 1 -.08.53l-1 4.37h-.68z" fill="#858585"/><path d="m167.1 44.49h-1l.13-.6h1l.12-.57c.27-1.24.9-2 2-2a1.63 1.63 0 0 1 1 .27l-.29.5a1.09 1.09 0 0 0 -.69-.19c-.71 0-1.07.5-1.27 1.37l-.13.57h1.28l-.13.6h-1.28l-1.26 5.68h-.68z" fill="#858585"/><path d="m172.68 43.74a2.59 2.59 0 0 1 2.78 2.75 3.68 3.68 0 0 1 -3.46 3.84 2.59 2.59 0 0 1 -2.77-2.76 3.68 3.68 0 0 1 3.45-3.83zm0 .61a3 3 0 0 0 -2.7 3.19 2 2 0 0 0 2 2.18 3 3 0 0 0 2.7-3.2 2 2 0 0 0 -2-2.17z" fill="#858585"/><path d="m177.75 43.89h.68l-.24 1a2.8 2.8 0 0 1 2.38-1.15l-.15.73a3.21 3.21 0 0 0 -.46 0 2.52 2.52 0 0 0 -1.91 1.16l-1 4.56h-.68z" fill="#858585"/><path d="m190.27 41.5h.73l-2 8.67h-.69l.2-1a2.69 2.69 0 0 1 -2.14 1.11 2.36 2.36 0 0 1 -2.37-2.53c0-2.1 1.32-4 3.3-4a2.58 2.58 0 0 1 2.22 1.25zm-3.68 8.22a2.67 2.67 0 0 0 2.13-1.21l.67-3a2.29 2.29 0 0 0 -2.08-1.14c-1.58 0-2.62 1.62-2.62 3.29a1.87 1.87 0 0 0 1.9 2.06z" fill="#858585"/><path d="m194.81 43.74a2.55 2.55 0 0 1 2.66 2.71 3.94 3.94 0 0 1 -.1.8h-5.31v.36a2.08 2.08 0 0 0 2.3 2.13 3.06 3.06 0 0 0 1.9-.67l.26.49a3.74 3.74 0 0 1 -2.19.77 2.69 2.69 0 0 1 -3-2.77 3.66 3.66 0 0 1 3.48-3.82zm2 2.69a2 2 0 0 0 -2.09-2.11 2.83 2.83 0 0 0 -2.6 2.39h4.68a2.53 2.53 0 0 0 .02-.28z" fill="#858585"/><path d="m198.77 48.94 1-4.45h-1l.13-.6h1l.38-1.71h.72l-.38 1.71h1.28l-.15.6h-1.27l-1 4.35a1 1 0 0 0 0 .28.56.56 0 0 0 .64.6 1.2 1.2 0 0 0 .66-.24l.13.55a1.43 1.43 0 0 1 -.9.3c-.78 0-1.24-.33-1.24-1.06a2.33 2.33 0 0 1 0-.33z" fill="#858585"/><path d="m207.91 43.89h.69l-1.39 6.28h-.69l.21-1a2.71 2.71 0 0 1 -2.15 1.11 2.36 2.36 0 0 1 -2.46-2.58c0-2.1 1.32-4 3.31-4a2.57 2.57 0 0 1 2.26 1.3zm-3.15 5.83a2.69 2.69 0 0 0 2.14-1.21l.66-3a2.28 2.28 0 0 0 -2.08-1.14c-1.57 0-2.61 1.62-2.61 3.29a1.86 1.86 0 0 0 1.89 2.06z" fill="#858585"/><path d="m210.64 43.89h.68l-1.4 6.28h-.67zm.73-2.1a.46.46 0 0 1 .48.45.61.61 0 0 1 -.59.59.47.47 0 0 1 -.48-.46.6.6 0 0 1 .59-.58z" fill="#858585"/><path d="m213.88 41.5h.67l-1.91 8.67h-.64z" fill="#858585"/><path d="m214.9 48.78a2.5 2.5 0 0 0 2.07 1c1 0 1.66-.62 1.66-1.29s-.72-.93-1.5-1.24-1.85-.75-1.85-1.68.83-1.8 2.29-1.8a2.79 2.79 0 0 1 2.29 1l-.43.43a2.32 2.32 0 0 0 -1.91-.88c-1 0-1.55.49-1.55 1.13s.69.86 1.44 1.16c.91.36 1.91.75 1.91 1.75a2.12 2.12 0 0 1 -2.36 2 2.92 2.92 0 0 1 -2.52-1.11z" fill="#858585"/><path d="m221.1 49.16a.52.52 0 0 1 .52.53.61.61 0 0 1 -.62.61.51.51 0 0 1 -.52-.53.61.61 0 0 1 .62-.61z" fill="#858585"/><circle cx="9.8" cy="45.2" fill="none" r="8.8" stroke="#0265b5" stroke-miterlimit="10"/><path d="m9.06 44.45 5.57 5.57" fill="none" stroke="#0265b5" stroke-miterlimit="10" stroke-width="2"/><path d="m8.42 49.06 1.51-3.73 3.73-1.51-8.83-3.59z" fill="#0265b5"/><g fill="none" opacity=".35" stroke="#fff" stroke-miterlimit="10" stroke-width="10"><path d="m198.89 588h73.12z"/><path d="m198.89 588h73.12l-.01-.01h-73.11z"/><path d="m198.89 587.99h73.11v-.04h-73.12z"/><path d="m198.88 587.95h73.12l-.13-.45h-73.12z"/><path d="m198.75 587.5h73.12l-.2-.73h-73.11z"/><path d="m198.56 586.77h73.11l-.26-.93h-73.11z"/><path d="m198.3 585.84h73.11l-.27-1h-73.11z"/><path d="m198.03 584.84h73.11l-.28-1.02h-73.12z"/><path d="m197.74 583.82h73.12l-1.25-4.53h-73.11z"/><path d="m196.5 579.29h73.11l-1.28-4.67h-73.11z"/><path d="m195.22 574.62h73.11l-1.86-6.78h-73.12z"/><path d="m193.35 567.84h73.12l-1.89-6.88h-73.12z"/><path d="m191.46 560.96h73.12l-1.89-6.9h-73.12z"/><path d="m189.57 554.06h73.12l-2.25-8.19h-73.12z"/><path d="m187.32 545.87h73.12l-2.67-9.69h-73.11z"/><path d="m184.66 536.18h73.11l-4.25-15.5h-73.12z"/><path d="m180.4 520.68h73.12l-4.54-16.5h-73.11z"/><path d="m175.87 504.18h73.11l-4.56-16.6h-73.11z"/><path d="m171.31 487.58h73.11l-5.89-21.45h-73.12z"/><path d="m165.41 466.13h73.12l-5.92-21.55h-73.11z"/><path d="m159.5 444.58h73.11l-18.23-66.39h-73.12z"/><path d="m141.26 378.19h73.12l-40.47-147.31h-73.11z"/><path d="m100.8 230.88h73.11l-44.83-163.21h-73.12z"/></g><path d="m215.89 585h73.12z" fill="#858585" stroke="#f1f1f1" stroke-miterlimit="10" stroke-width=".5"/><path d="m215.89 585h73.12l-.01-.01h-73.11z" fill="#858585" stroke="#f1f1f1" stroke-miterlimit="10" stroke-width=".5"/><path d="m215.89 584.99h73.11v-.04h-73.12z" fill="#858585" stroke="#f1f1f1" stroke-miterlimit="10" stroke-width=".5"/><path d="m215.88 584.95h73.12l-.13-.45h-73.12z" fill="#858585" stroke="#f1f1f1" stroke-miterlimit="10" stroke-width=".5"/><path d="m215.75 584.5h73.12l-.2-.73h-73.11z" fill="#858585" stroke="#f1f1f1" stroke-miterlimit="10" stroke-width=".5"/><path d="m215.56 583.77h73.11l-.26-.93h-73.11z" fill="#858585" stroke="#f1f1f1" stroke-miterlimit="10" stroke-width=".5"/><path d="m215.3 582.84h73.11l-.27-1h-73.11z" fill="#858585" stroke="#f1f1f1" stroke-miterlimit="10" stroke-width=".5"/><path d="m215.03 581.84h73.11l-.28-1.02h-73.12z" fill="#858585" stroke="#f1f1f1" stroke-miterlimit="10" stroke-width=".5"/><path d="m214.74 580.82h73.12l-1.25-4.53h-73.11z" fill="#fd9d24" stroke="#f1f1f1" stroke-miterlimit="10" stroke-width=".5"/><path d="m213.5 576.29h73.11l-1.28-4.67h-73.11z" fill="#cc6a00" stroke="#f1f1f1" stroke-miterlimit="10" stroke-width=".5"/><path d="m212.22 571.62h73.11l-1.86-6.78h-73.12z" fill="#82061b" stroke="#f1f1f1" stroke-miterlimit="10" stroke-width=".5"/><path d="m210.35 564.84h73.12l-1.89-6.88h-73.12z" fill="#8e6016" stroke="#f1f1f1" stroke-miterlimit="10" stroke-width=".5"/><path d="m208.46 557.96h73.12l-1.89-6.9h-73.12z" fill="#bf8b2e" stroke="#f1f1f1" stroke-miterlimit="10" stroke-width=".5"/><path d="m206.57 551.06h73.12l-2.25-8.19h-73.12z" fill="#f4c74a" stroke="#f1f1f1" stroke-miterlimit="10" stroke-width=".5"/><path d="m204.32 542.87h73.12l-2.67-9.69h-73.11z" fill="#9ab272" stroke="#f1f1f1" stroke-miterlimit="10" stroke-width=".5"/><path d="m201.66 533.18h73.11l-4.25-15.5h-73.12z" fill="#729643" stroke="#f1f1f1" stroke-miterlimit="10" stroke-width=".5"/><path d="m197.4 517.68h73.12l-4.54-16.5h-73.11z" fill="#56683a" stroke="#f1f1f1" stroke-miterlimit="10" stroke-width=".5"/><path d="m192.87 501.18h73.11l-4.56-16.6h-73.11z" fill="#02355f" stroke="#f1f1f1" stroke-miterlimit="10" stroke-width=".5"/><path d="m188.31 484.58h73.11l-5.89-21.45h-73.12z" fill="#0265b5" stroke="#f1f1f1" stroke-miterlimit="10" stroke-width=".5"/><path d="m182.41 463.13h73.12l-5.92-21.55h-73.11z" fill="#157fc0" stroke="#f1f1f1" stroke-miterlimit="10" stroke-width=".5"/><path d="m176.5 441.58h73.11l-18.23-66.39h-73.12z" fill="#7b599b" stroke="#f1f1f1" stroke-miterlimit="10" stroke-width=".5"/><path d="m158.26 375.19h73.12l-40.47-147.31h-73.11z" fill="#66338e" stroke="#f1f1f1" stroke-miterlimit="10" stroke-width=".5"/><path d="m117.8 227.88h73.11l-44.83-163.21h-73.12z" fill="#371e54" stroke="#f1f1f1" stroke-miterlimit="10" stroke-width=".5"/><g fill="#4c4c4c"><path d="m291.22 232.66h.93v6.56c0 2.16 1.14 3.48 3.23 3.48s3.24-1.32 3.24-3.48v-6.56h.92v6.58c0 2.64-1.4 4.29-4.16 4.29s-4.16-1.66-4.16-4.29z"/><path d="m307.38 238.12c0-1.5-.75-2-1.87-2a3.34 3.34 0 0 0 -2.51 1.38v5.84h-.83v-7.73h.83v1.17a3.88 3.88 0 0 1 2.78-1.36 2.18 2.18 0 0 1 2.44 2.51v5.41h-.84z"/><path d="m310.58 233.65a.65.65 0 0 1 .64-.64.64.64 0 0 1 .64.64.64.64 0 0 1 -1.28 0zm.22 2h.84v7.73h-.84z"/><path d="m314.39 241.85v-5.49h-1.28v-.75h1.28v-2.12h.85v2.12h1.57v.75h-1.57v5.36c0 .63.25 1.06.8 1.06a1.19 1.19 0 0 0 .86-.37l.32.64a1.72 1.72 0 0 1 -1.31.48c-1.03 0-1.52-.62-1.52-1.68z"/><path d="m321.91 235.42c2.35 0 3.65 1.87 3.65 4.09v.23h-6.47a3 3 0 0 0 3 3.07 3.47 3.47 0 0 0 2.55-1.07l.43.54a4 4 0 0 1 -3 1.25 4.06 4.06 0 0 1 -.14-8.11zm-2.82 3.66h5.62a2.84 2.84 0 0 0 -2.82-3 2.92 2.92 0 0 0 -2.8 3z"/><path d="m333.4 242.11a3.3 3.3 0 0 1 -2.69 1.42c-2 0-3.46-1.57-3.46-4.05s1.41-4.06 3.46-4.06a3.29 3.29 0 0 1 2.69 1.44v-4.2h.85v10.68h-.85zm0-4.53a3.08 3.08 0 0 0 -2.55-1.41c-1.71 0-2.7 1.44-2.7 3.31s1 3.3 2.7 3.3a3.1 3.1 0 0 0 2.55-1.38z"/><path d="m341 241.14a4.33 4.33 0 0 0 3.33 1.56c2.19 0 2.82-1.22 2.82-2.13 0-1.51-1.44-1.92-2.93-2.32-1.68-.47-3.47-.95-3.47-2.92 0-1.74 1.56-2.84 3.5-2.84a4.61 4.61 0 0 1 3.62 1.5l-.61.67a3.82 3.82 0 0 0 -3.06-1.34c-1.42 0-2.49.81-2.49 2s1.32 1.63 2.78 2c1.71.48 3.62 1 3.62 3.2 0 1.36-.91 3-3.79 3a4.89 4.89 0 0 1 -3.91-1.7z"/><path d="m350.13 241.85v-5.49h-1.28v-.75h1.28v-2.12h.87v2.12h1.57v.75h-1.57v5.36c0 .63.26 1.06.8 1.06a1.24 1.24 0 0 0 .87-.37l.31.64a1.72 1.72 0 0 1 -1.31.48c-1.04 0-1.54-.62-1.54-1.68z"/><path d="m359.29 242.43a3.39 3.39 0 0 1 -2.63 1.1 2.58 2.58 0 0 1 -2.66-2.53 2.54 2.54 0 0 1 2.7-2.54 3.35 3.35 0 0 1 2.63 1.09v-1.57a1.85 1.85 0 0 0 -2.09-1.78 3 3 0 0 0 -2.41 1.14l-.47-.56a3.71 3.71 0 0 1 3-1.31c1.59 0 2.84.75 2.84 2.48v5.44h-.83zm0-2.31a2.93 2.93 0 0 0 -2.34-1.07 1.92 1.92 0 1 0 0 3.82 2.91 2.91 0 0 0 2.34-1.05z"/><path d="m362.87 241.85v-5.49h-1.28v-.75h1.28v-2.12h.85v2.12h1.56v.75h-1.56v5.36c0 .63.25 1.06.8 1.06a1.23 1.23 0 0 0 .86-.37l.32.64a1.72 1.72 0 0 1 -1.31.48c-1.03 0-1.52-.62-1.52-1.68z"/><path d="m370.39 235.42c2.35 0 3.65 1.87 3.65 4.09v.23h-6.47a3 3 0 0 0 3 3.07 3.47 3.47 0 0 0 2.55-1.07l.43.54a4 4 0 0 1 -3 1.25 4.06 4.06 0 0 1 -.14-8.11zm-2.82 3.66h5.62a2.84 2.84 0 0 0 -2.82-3 2.92 2.92 0 0 0 -2.8 3z"/><path d="m376 241.69a3.23 3.23 0 0 0 2.5 1.14c1.3 0 2.06-.64 2.06-1.54s-1.05-1.28-2.17-1.57c-1.28-.32-2.71-.66-2.71-2.16 0-1.18 1-2.14 2.76-2.14a3.54 3.54 0 0 1 2.77 1.15l-.47.57a2.84 2.84 0 0 0 -2.3-1c-1.2 0-1.94.59-1.94 1.39s1 1.12 2.06 1.39c1.33.34 2.82.71 2.82 2.36 0 1.25-1 2.27-2.9 2.27a3.73 3.73 0 0 1 -3-1.22z"/><path d="m298 256.12v9.22h-.91v-10.68h.91l6.69 9.09v-9.09h.91v10.68h-.9z"/><path d="m311.51 257.42c2.35 0 3.65 1.87 3.65 4.09v.23h-6.47a3 3 0 0 0 3 3.07 3.44 3.44 0 0 0 2.55-1.07l.43.54a4 4 0 0 1 -3 1.25 4.06 4.06 0 0 1 -.14-8.11zm-2.82 3.66h5.62a2.83 2.83 0 0 0 -2.81-2.95 2.93 2.93 0 0 0 -2.81 2.95z"/><path d="m317.46 263.85v-5.49h-1.28v-.75h1.28v-2.12h.85v2.12h1.57v.75h-1.57v5.36c0 .63.26 1.06.8 1.06a1.19 1.19 0 0 0 .86-.37l.32.64a1.72 1.72 0 0 1 -1.31.48c-.98 0-1.52-.62-1.52-1.68z"/><path d="m326.92 260.07c0-1.49-.75-1.9-1.87-1.9a3.36 3.36 0 0 0 -2.52 1.33v5.84h-.83v-10.68h.83v4.12a3.9 3.9 0 0 1 2.79-1.36 2.15 2.15 0 0 1 2.43 2.48v5.44h-.83z"/><path d="m333.62 257.42c2.36 0 3.65 1.87 3.65 4.09v.23h-6.46a3 3 0 0 0 3 3.07 3.44 3.44 0 0 0 2.55-1.07l.43.54a4 4 0 0 1 -3 1.25 4.06 4.06 0 0 1 -.15-8.11zm-2.81 3.66h5.61a2.83 2.83 0 0 0 -2.81-2.95 2.91 2.91 0 0 0 -2.8 2.95z"/><path d="m339.41 257.61h.84v1.33a3.29 3.29 0 0 1 2.6-1.49v.91a2.63 2.63 0 0 0 -.41 0 2.93 2.93 0 0 0 -2.19 1.37v5.64h-.84z"/><path d="m344.48 254.66h.84v10.68h-.84z"/><path d="m352.82 264.43a3.37 3.37 0 0 1 -2.62 1.1 2.59 2.59 0 0 1 -2.71-2.58 2.54 2.54 0 0 1 2.71-2.54 3.32 3.32 0 0 1 2.62 1.09v-1.57a1.85 1.85 0 0 0 -2.08-1.78 3 3 0 0 0 -2.42 1.14l-.46-.56a3.71 3.71 0 0 1 3-1.31c1.59 0 2.83.75 2.83 2.48v5.44h-.83zm0-2.31a2.91 2.91 0 0 0 -2.33-1.07 1.92 1.92 0 1 0 0 3.82 2.89 2.89 0 0 0 2.33-1.05z"/><path d="m361.46 260.12c0-1.5-.75-1.95-1.87-1.95a3.34 3.34 0 0 0 -2.51 1.33v5.84h-.84v-7.73h.84v1.17a3.88 3.88 0 0 1 2.78-1.36c1.57 0 2.43.76 2.43 2.51v5.41h-.83z"/><path d="m370.58 264.11a3.28 3.28 0 0 1 -2.69 1.42c-2.05 0-3.45-1.57-3.45-4s1.4-4.06 3.45-4.06a3.27 3.27 0 0 1 2.69 1.44v-4.2h.85v10.68h-.85zm0-4.53a3.06 3.06 0 0 0 -2.54-1.41c-1.72 0-2.71 1.44-2.71 3.31s1 3.3 2.71 3.3a3.09 3.09 0 0 0 2.54-1.38z"/><path d="m373.84 263.69a3.23 3.23 0 0 0 2.5 1.14c1.3 0 2.07-.64 2.07-1.54s-1.06-1.28-2.18-1.57c-1.28-.32-2.71-.66-2.71-2.16 0-1.18 1-2.14 2.76-2.14a3.52 3.52 0 0 1 2.77 1.15l-.47.57a2.84 2.84 0 0 0 -2.3-1c-1.2 0-1.94.59-1.94 1.39s1 1.12 2.06 1.39c1.33.34 2.82.71 2.82 2.36 0 1.25-1 2.27-2.9 2.27a3.74 3.74 0 0 1 -3-1.22z"/><path d="m302.53 282a5.3 5.3 0 0 1 5.38-5.52 4.84 4.84 0 0 1 3.92 1.88l-.76.5a3.9 3.9 0 0 0 -3.16-1.55 4.7 4.7 0 0 0 0 9.38 3.91 3.91 0 0 0 3.16-1.56l.76.48a4.79 4.79 0 0 1 -3.92 1.91 5.3 5.3 0 0 1 -5.38-5.52z"/><path d="m313.69 276.66h4a3.12 3.12 0 1 1 0 6.24h-3.09v4.44h-.91zm3.9.83h-3v4.58h3a2.29 2.29 0 1 0 0-4.58z"/><path d="m326.09 282.92h-2.36v4.42h-.91v-10.68h4a3 3 0 0 1 3.25 3.12 3 3 0 0 1 -3 3.08l3.09 4.48h-1.11zm.64-5.43h-3v4.6h3a2.3 2.3 0 1 0 0-4.6z"/><path d="m331.48 283.08h3.84v.77h-3.84z"/><path d="m339.85 277.49h-3.49v-.83h7.9v.83h-3.48v9.85h-.93z"/><path d="m348.87 277.49h-3.49v-.83h7.91v.83h-3.49v9.85h-.93z"/><path d="m355.17 276.66h6.77v.83h-5.85v4h5.74v.83h-5.74v5.06h-.92z"/><path d="m308.79 307.14a4.33 4.33 0 0 0 3.33 1.56c2.19 0 2.82-1.22 2.82-2.13 0-1.51-1.44-1.92-2.93-2.32-1.68-.47-3.48-.95-3.48-2.92 0-1.74 1.57-2.84 3.51-2.84a4.64 4.64 0 0 1 3.62 1.5l-.61.67a3.82 3.82 0 0 0 -3.06-1.34c-1.42 0-2.5.81-2.5 2s1.33 1.63 2.79 2c1.71.48 3.62 1 3.62 3.2 0 1.36-.92 3-3.8 3a4.87 4.87 0 0 1 -3.9-1.7z"/><path d="m322.49 302.73-2.18 6.61h-.8l-2.51-7.73h.89l2.05 6.56 2.18-6.56h.72l2.18 6.56 2.05-6.56h.93l-2.51 7.73h-.8z"/><path d="m332.81 301.42c2.35 0 3.65 1.87 3.65 4.09v.23h-6.46a3 3 0 0 0 3 3.07 3.44 3.44 0 0 0 2.54-1.07l.44.54a4 4 0 0 1 -3 1.25 4.06 4.06 0 0 1 -.14-8.11zm-2.81 3.66h5.62a2.84 2.84 0 0 0 -2.82-2.95 2.92 2.92 0 0 0 -2.8 2.95z"/><path d="m344.3 308.11a3.3 3.3 0 0 1 -2.69 1.42c-2.05 0-3.46-1.57-3.46-4s1.41-4.06 3.46-4.06a3.29 3.29 0 0 1 2.69 1.44v-4.2h.84v10.68h-.84zm0-4.53a3.08 3.08 0 0 0 -2.55-1.41c-1.71 0-2.7 1.44-2.7 3.31s1 3.3 2.7 3.3a3.1 3.1 0 0 0 2.55-1.38z"/><path d="m351 301.42c2.36 0 3.65 1.87 3.65 4.09v.23h-6.45a3 3 0 0 0 3 3.07 3.44 3.44 0 0 0 2.54-1.07l.43.54a4 4 0 0 1 -3 1.25 4.06 4.06 0 0 1 -.15-8.11zm-2.81 3.66h5.62a2.84 2.84 0 0 0 -2.82-2.95 2.91 2.91 0 0 0 -2.79 2.95z"/><path d="m362 304.12c0-1.5-.75-1.95-1.87-1.95a3.34 3.34 0 0 0 -2.51 1.33v5.84h-.83v-7.73h.83v1.17a3.88 3.88 0 0 1 2.78-1.36 2.18 2.18 0 0 1 2.44 2.51v5.41h-.84z"/><path d="m314.65 320.66h.92v6.56c0 2.16 1.14 3.48 3.24 3.48s3.23-1.32 3.23-3.48v-6.56h.96v6.58c0 2.64-1.41 4.29-4.16 4.29s-4.16-1.66-4.16-4.29z"/><path d="m326.53 322.12v9.22h-.91v-10.68h.93l6.69 9.09v-9.09h.91v10.68h-.89z"/><path d="m336.81 320.66h3.4a5.34 5.34 0 1 1 0 10.68h-3.4zm3.4 9.85a4.51 4.51 0 0 0 0-9h-2.49v9z"/><path d="m347.88 320.66h4a3.12 3.12 0 1 1 0 6.24h-3.09v4.44h-.91zm3.9.83h-3v4.58h3a2.29 2.29 0 1 0 0-4.58z"/><path d="m360.76 326a5.29 5.29 0 0 1 5.38-5.52 4.87 4.87 0 0 1 3.92 1.88l-.77.5a3.88 3.88 0 0 0 -3.15-1.55 4.7 4.7 0 0 0 0 9.38 3.89 3.89 0 0 0 3.15-1.56l.77.48a4.82 4.82 0 0 1 -3.92 1.91 5.29 5.29 0 0 1 -5.38-5.52z"/><path d="m371.43 327.46a3.74 3.74 0 1 1 3.71 4.07 3.75 3.75 0 0 1 -3.71-4.07zm6.55 0c0-1.71-1-3.29-2.84-3.29s-2.81 1.58-2.81 3.29 1 3.32 2.81 3.32 2.86-1.59 2.86-3.32z"/><path d="m381 323.61h.84v1.33a3.29 3.29 0 0 1 2.6-1.49v.91a2.63 2.63 0 0 0 -.41 0 2.93 2.93 0 0 0 -2.19 1.37v5.64h-.84z"/><path d="m389.37 323.42c2.35 0 3.65 1.87 3.65 4.09v.23h-6.47a3 3 0 0 0 3 3.07 3.44 3.44 0 0 0 2.54-1.07l.43.54a4 4 0 0 1 -3 1.25 4.06 4.06 0 0 1 -.14-8.11zm-2.82 3.66h5.62a2.84 2.84 0 0 0 -2.82-2.95 2.91 2.91 0 0 0 -2.8 2.95z"/><path d="m399.33 320.66h6.77v.83h-5.86v4h5.76v.83h-5.75v5.06h-.91z"/><path d="m413.19 330.2a3.91 3.91 0 0 1 -2.79 1.33 2.15 2.15 0 0 1 -2.43-2.48v-5.44h.83v5.25c0 1.5.76 1.92 1.88 1.92a3.33 3.33 0 0 0 2.51-1.28v-5.89h.81v7.73h-.83z"/><path d="m421.83 326.12c0-1.5-.75-1.95-1.87-1.95a3.36 3.36 0 0 0 -2.52 1.33v5.84h-.83v-7.73h.83v1.17a3.9 3.9 0 0 1 2.79-1.36c1.57 0 2.43.76 2.43 2.51v5.41h-.83z"/><path d="m431 330.11a3.3 3.3 0 0 1 -2.69 1.42c-2.05 0-3.46-1.57-3.46-4s1.41-4.06 3.46-4.06a3.29 3.29 0 0 1 2.69 1.44v-4.2h.85v10.68h-.85zm0-4.53a3.08 3.08 0 0 0 -2.55-1.41c-1.71 0-2.7 1.44-2.7 3.31s1 3.3 2.7 3.3a3.1 3.1 0 0 0 2.55-1.38z"/><path d="m434.21 329.69a3.21 3.21 0 0 0 2.5 1.14c1.29 0 2.06-.64 2.06-1.54s-1-1.28-2.17-1.57c-1.29-.32-2.71-.66-2.71-2.16 0-1.18 1-2.14 2.75-2.14a3.51 3.51 0 0 1 2.77 1.15l-.46.57a2.84 2.84 0 0 0 -2.31-1c-1.2 0-1.93.59-1.93 1.39s1 1.12 2.06 1.39c1.33.34 2.82.71 2.82 2.36 0 1.25-1 2.27-2.9 2.27a3.75 3.75 0 0 1 -3-1.22z"/><path d="m320 351.53a2.61 2.61 0 0 0 2.13 1.17 2.26 2.26 0 0 0 2.35-2.45v-7.59h.93v7.59a3 3 0 0 1 -3.24 3.28 3.2 3.2 0 0 1 -2.73-1.31z"/><path d="m332.9 352.43a3.35 3.35 0 0 1 -2.62 1.1 2.59 2.59 0 0 1 -2.71-2.58 2.54 2.54 0 0 1 2.71-2.54 3.31 3.31 0 0 1 2.62 1.09v-1.57a1.84 1.84 0 0 0 -2.08-1.78 3 3 0 0 0 -2.41 1.14l-.47-.56a3.71 3.71 0 0 1 3-1.31c1.59 0 2.84.75 2.84 2.48v5.44h-.84zm0-2.31a2.91 2.91 0 0 0 -2.33-1.07 1.92 1.92 0 1 0 0 3.82 2.89 2.89 0 0 0 2.33-1.05z"/><path d="m336.33 356.28v-10.67h.83v1.23a3.28 3.28 0 0 1 2.69-1.42c2.06 0 3.45 1.56 3.45 4s-1.39 4.07-3.45 4.07a3.3 3.3 0 0 1 -2.69-1.44v4.19zm3.37-10.11a3.1 3.1 0 0 0 -2.54 1.39v3.81a3.14 3.14 0 0 0 2.54 1.41c1.73 0 2.71-1.44 2.71-3.32s-.98-3.29-2.71-3.29z"/><path d="m350.36 352.43a3.37 3.37 0 0 1 -2.63 1.1 2.59 2.59 0 0 1 -2.73-2.53 2.54 2.54 0 0 1 2.7-2.54 3.33 3.33 0 0 1 2.63 1.09v-1.57a1.85 1.85 0 0 0 -2.08-1.78 3 3 0 0 0 -2.42 1.14l-.46-.56a3.7 3.7 0 0 1 3-1.31c1.58 0 2.83.75 2.83 2.48v5.44h-.83zm0-2.31a2.91 2.91 0 0 0 -2.34-1.07 1.92 1.92 0 1 0 0 3.82 2.9 2.9 0 0 0 2.34-1.05z"/><path d="m359 348.12c0-1.5-.75-1.95-1.87-1.95a3.36 3.36 0 0 0 -2.52 1.33v5.84h-.83v-7.73h.83v1.17a3.9 3.9 0 0 1 2.79-1.36c1.57 0 2.43.76 2.43 2.51v5.41h-.83z"/><path d="m326 370a5.29 5.29 0 0 1 5.38-5.52 4.87 4.87 0 0 1 3.92 1.88l-.77.5a3.88 3.88 0 0 0 -3.15-1.55 4.7 4.7 0 0 0 0 9.38 3.89 3.89 0 0 0 3.15-1.56l.77.48a4.82 4.82 0 0 1 -3.92 1.91 5.29 5.29 0 0 1 -5.38-5.52z"/><path d="m342 374.43a3.37 3.37 0 0 1 -2.62 1.1 2.59 2.59 0 0 1 -2.71-2.58 2.54 2.54 0 0 1 2.71-2.54 3.32 3.32 0 0 1 2.62 1.09v-1.57a1.85 1.85 0 0 0 -2.08-1.78 3 3 0 0 0 -2.42 1.14l-.46-.56a3.71 3.71 0 0 1 3-1.31c1.59 0 2.83.75 2.83 2.48v5.44h-.87zm0-2.31a2.91 2.91 0 0 0 -2.34-1.07 1.92 1.92 0 1 0 0 3.82 2.9 2.9 0 0 0 2.34-1.05z"/><path d="m350.63 370.12c0-1.5-.75-1.95-1.87-1.95a3.34 3.34 0 0 0 -2.51 1.33v5.84h-.84v-7.73h.84v1.17a3.88 3.88 0 0 1 2.78-1.36c1.57 0 2.43.76 2.43 2.51v5.41h-.83z"/><path d="m359 374.43a3.39 3.39 0 0 1 -2.63 1.1 2.58 2.58 0 0 1 -2.7-2.58 2.54 2.54 0 0 1 2.7-2.54 3.35 3.35 0 0 1 2.63 1.09v-1.57a1.85 1.85 0 0 0 -2.08-1.78 3 3 0 0 0 -2.42 1.14l-.47-.56a3.73 3.73 0 0 1 3-1.31c1.58 0 2.83.75 2.83 2.48v5.44h-.86zm0-2.31a2.93 2.93 0 0 0 -2.34-1.07 1.92 1.92 0 1 0 0 3.82 2.91 2.91 0 0 0 2.34-1.05z"/><path d="m368.09 374.11a3.3 3.3 0 0 1 -2.69 1.42c-2 0-3.46-1.57-3.46-4s1.41-4.06 3.46-4.06a3.29 3.29 0 0 1 2.69 1.44v-4.2h.85v10.68h-.85zm0-4.53a3.08 3.08 0 0 0 -2.55-1.41c-1.71 0-2.7 1.44-2.7 3.31s1 3.3 2.7 3.3a3.1 3.1 0 0 0 2.55-1.38z"/><path d="m376.44 374.43a3.37 3.37 0 0 1 -2.63 1.1 2.58 2.58 0 0 1 -2.7-2.58 2.54 2.54 0 0 1 2.7-2.54 3.33 3.33 0 0 1 2.63 1.09v-1.57a1.85 1.85 0 0 0 -2.08-1.78 3 3 0 0 0 -2.42 1.14l-.46-.56a3.7 3.7 0 0 1 3-1.31c1.58 0 2.83.75 2.83 2.48v5.44h-.83zm0-2.31a2.93 2.93 0 0 0 -2.34-1.07 1.92 1.92 0 1 0 0 3.82 2.91 2.91 0 0 0 2.34-1.05z"/><path d="m337.22 386.49a5.07 5.07 0 0 1 4 1.82l-.69.5a4.34 4.34 0 0 0 -3.33-1.49 4.7 4.7 0 0 0 0 9.39 4.54 4.54 0 0 0 3.14-1.29v-2.55h-4.05v-.87h5v3.73a5.41 5.41 0 0 1 -4 1.78 5.53 5.53 0 0 1 0-11.06z"/><path d="m346.84 389.42c2.35 0 3.65 1.87 3.65 4.09v.23h-6.49a3 3 0 0 0 3 3.07 3.47 3.47 0 0 0 2.55-1.07l.43.54a4 4 0 0 1 -3 1.25 4.06 4.06 0 0 1 -.14-8.11zm-2.84 3.66h5.62a2.84 2.84 0 0 0 -2.82-2.95 2.92 2.92 0 0 0 -2.8 2.95z"/><path d="m352.63 389.61h.83v1.33a3.32 3.32 0 0 1 2.61-1.49v.91a2.77 2.77 0 0 0 -.42 0 2.94 2.94 0 0 0 -2.19 1.37v5.64h-.83z"/><path d="m366.9 391.93c0-1.09-.46-1.76-1.55-1.76a2.9 2.9 0 0 0 -2.21 1.31v5.86h-.84v-5.41c0-1.09-.45-1.76-1.56-1.76a3 3 0 0 0 -2.21 1.33v5.84h-.83v-7.73h.83v1.17a3.4 3.4 0 0 1 2.5-1.36 1.94 1.94 0 0 1 2 1.45 3.23 3.23 0 0 1 2.56-1.45c1.43 0 2.12.79 2.12 2.35v5.57h-.84z"/><path d="m375.24 396.43a3.37 3.37 0 0 1 -2.63 1.1 2.59 2.59 0 0 1 -2.7-2.58 2.54 2.54 0 0 1 2.7-2.54 3.33 3.33 0 0 1 2.63 1.09v-1.57a1.85 1.85 0 0 0 -2.08-1.78 3 3 0 0 0 -2.42 1.14l-.46-.56a3.7 3.7 0 0 1 3-1.31c1.58 0 2.83.75 2.83 2.48v5.44h-.83zm0-2.31a2.91 2.91 0 0 0 -2.34-1.07 1.92 1.92 0 1 0 0 3.82 2.9 2.9 0 0 0 2.34-1.05z"/><path d="m383.88 392.12c0-1.5-.75-1.95-1.87-1.95a3.36 3.36 0 0 0 -2.52 1.33v5.84h-.83v-7.73h.83v1.17a3.9 3.9 0 0 1 2.79-1.36c1.57 0 2.43.76 2.43 2.51v5.41h-.83z"/><path d="m387.59 399.72c.53 0 .88-.21 1.18-.94l.61-1.38-3.26-7.79h.88l2.81 6.75 2.8-6.75h.94l-4 9.42a2.06 2.06 0 0 1 -2 1.45 3 3 0 0 1 -.81-.12l.14-.77a1.94 1.94 0 0 0 .71.13z"/><path d="m338.07 417.14a4.33 4.33 0 0 0 3.33 1.56c2.19 0 2.82-1.22 2.82-2.13 0-1.51-1.44-1.92-2.93-2.32-1.68-.47-3.48-.95-3.48-2.92 0-1.74 1.57-2.84 3.51-2.84a4.64 4.64 0 0 1 3.62 1.5l-.61.67a3.82 3.82 0 0 0 -3.06-1.34c-1.42 0-2.5.81-2.5 2s1.33 1.63 2.79 2c1.71.48 3.62 1 3.62 3.2 0 1.36-.92 3-3.8 3a4.87 4.87 0 0 1 -3.9-1.7z"/><path d="m351.77 412.73-2.18 6.61h-.8l-2.51-7.73h.89l2.05 6.56 2.18-6.56h.72l2.18 6.56 2.05-6.56h.89l-2.51 7.73h-.8z"/><path d="m358.58 409.65a.66.66 0 0 1 .64-.64.64.64 0 0 1 .64.64.64.64 0 0 1 -.64.64.65.65 0 0 1 -.64-.64zm.23 2h.83v7.73h-.83z"/><path d="m362.39 417.85v-5.49h-1.28v-.75h1.28v-2.12h.85v2.12h1.57v.75h-1.57v5.36c0 .63.25 1.06.8 1.06a1.19 1.19 0 0 0 .86-.37l.32.64a1.72 1.72 0 0 1 -1.31.48c-1.02 0-1.52-.62-1.52-1.68z"/><path d="m366.23 418.65 4.58-6.29h-4.58v-.75h5.65v.67l-4.63 6.32h4.69v.74h-5.71z"/><path d="m377.41 411.42c2.36 0 3.65 1.87 3.65 4.09v.23h-6.46a3 3 0 0 0 3 3.07 3.44 3.44 0 0 0 2.54-1.07l.43.54a4 4 0 0 1 -3 1.25 4.06 4.06 0 0 1 -.15-8.11zm-2.81 3.66h5.62a2.85 2.85 0 0 0 -2.82-2.95 2.91 2.91 0 0 0 -2.8 2.95z"/><path d="m383.2 411.61h.8v1.33a3.29 3.29 0 0 1 2.61-1.49v.91a2.86 2.86 0 0 0 -.42 0 2.93 2.93 0 0 0 -2.19 1.34v5.64h-.84z"/><path d="m388.28 408.66h.83v10.68h-.83z"/><path d="m396.61 418.43a3.35 3.35 0 0 1 -2.62 1.1 2.59 2.59 0 0 1 -2.71-2.58 2.55 2.55 0 0 1 2.71-2.54 3.31 3.31 0 0 1 2.62 1.09v-1.57a1.84 1.84 0 0 0 -2.08-1.78 3 3 0 0 0 -2.41 1.14l-.47-.56a3.71 3.71 0 0 1 3-1.31c1.59 0 2.84.75 2.84 2.48v5.44h-.84zm0-2.31a2.89 2.89 0 0 0 -2.33-1.07 1.92 1.92 0 1 0 0 3.82 2.88 2.88 0 0 0 2.33-1.05z"/><path d="m405.25 414.12c0-1.5-.75-1.95-1.87-1.95a3.34 3.34 0 0 0 -2.51 1.33v5.84h-.87v-7.73h.83v1.17a3.88 3.88 0 0 1 2.78-1.36 2.18 2.18 0 0 1 2.44 2.51v5.41h-.84z"/><path d="m414.37 418.11a3.27 3.27 0 0 1 -2.68 1.42c-2.05 0-3.46-1.57-3.46-4s1.41-4.06 3.46-4.06a3.27 3.27 0 0 1 2.68 1.44v-4.2h.85v10.68h-.85zm0-4.53a3 3 0 0 0 -2.54-1.41c-1.71 0-2.71 1.44-2.71 3.31s1 3.3 2.71 3.3a3.07 3.07 0 0 0 2.54-1.38z"/><path d="m350.62 438.71h-5.69l-1.07 2.63h-1l4.37-10.68h1.13l4.37 10.68h-1zm-5.4-.83h5.11l-2.56-6.32z"/><path d="m359.29 440.2a3.91 3.91 0 0 1 -2.79 1.33 2.15 2.15 0 0 1 -2.43-2.48v-5.44h.83v5.25c0 1.5.75 1.92 1.87 1.92a3.33 3.33 0 0 0 2.52-1.28v-5.89h.83v7.73h-.83z"/><path d="m362.53 439.69a3.23 3.23 0 0 0 2.5 1.14c1.3 0 2.06-.64 2.06-1.54s-1-1.28-2.17-1.57c-1.28-.32-2.71-.66-2.71-2.16 0-1.18 1-2.14 2.76-2.14a3.54 3.54 0 0 1 2.77 1.15l-.47.57a2.84 2.84 0 0 0 -2.3-1c-1.2 0-1.94.59-1.94 1.39s1 1.12 2.06 1.39c1.33.34 2.82.71 2.82 2.36 0 1.25-1 2.27-2.9 2.27a3.74 3.74 0 0 1 -3-1.22z"/><path d="m370.21 439.85v-5.49h-1.28v-.75h1.28v-2.12h.85v2.12h1.57v.75h-1.57v5.36c0 .63.26 1.06.8 1.06a1.24 1.24 0 0 0 .87-.37l.32.64a1.76 1.76 0 0 1 -1.32.48c-1.02 0-1.52-.62-1.52-1.68z"/><path d="m374.45 433.61h.84v1.33a3.29 3.29 0 0 1 2.6-1.49v.91a2.63 2.63 0 0 0 -.41 0 2.93 2.93 0 0 0 -2.19 1.37v5.64h-.84z"/><path d="m384.44 440.43a3.37 3.37 0 0 1 -2.63 1.1 2.58 2.58 0 0 1 -2.7-2.58 2.54 2.54 0 0 1 2.7-2.54 3.33 3.33 0 0 1 2.63 1.09v-1.57a1.85 1.85 0 0 0 -2.08-1.78 3 3 0 0 0 -2.42 1.14l-.46-.56a3.7 3.7 0 0 1 3-1.31c1.58 0 2.83.75 2.83 2.48v5.44h-.83zm0-2.31a2.93 2.93 0 0 0 -2.34-1.07 1.92 1.92 0 1 0 0 3.82 2.91 2.91 0 0 0 2.34-1.05z"/><path d="m387.86 430.66h.83v10.68h-.83z"/><path d="m391.06 431.65a.65.65 0 0 1 .64-.64.64.64 0 0 1 .64.64.64.64 0 1 1 -1.28 0zm.22 2h.84v7.73h-.84z"/><path d="m399.62 440.43a3.37 3.37 0 0 1 -2.62 1.1 2.59 2.59 0 0 1 -2.71-2.58 2.54 2.54 0 0 1 2.71-2.54 3.32 3.32 0 0 1 2.62 1.09v-1.57a1.85 1.85 0 0 0 -2.08-1.78 3 3 0 0 0 -2.42 1.14l-.46-.56a3.71 3.71 0 0 1 3-1.31c1.59 0 2.83.75 2.83 2.48v5.44h-.83zm0-2.31a2.91 2.91 0 0 0 -2.33-1.07 1.92 1.92 0 1 0 0 3.82 2.89 2.89 0 0 0 2.33-1.05z"/><path d="m349.78 452.66h3.41a5.34 5.34 0 1 1 0 10.68h-3.41zm3.41 9.85a4.51 4.51 0 0 0 0-9h-2.5v9z"/><path d="m364.1 455.42c2.36 0 3.65 1.87 3.65 4.09v.23h-6.46a3 3 0 0 0 3 3.07 3.44 3.44 0 0 0 2.55-1.07l.43.54a4 4 0 0 1 -3 1.25 4.06 4.06 0 0 1 -.15-8.11zm-2.81 3.66h5.61a2.83 2.83 0 0 0 -2.81-2.95 2.91 2.91 0 0 0 -2.8 2.95z"/><path d="m375.11 458.12c0-1.5-.75-1.95-1.87-1.95a3.34 3.34 0 0 0 -2.51 1.33v5.84h-.84v-7.73h.84v1.17a3.88 3.88 0 0 1 2.78-1.36c1.57 0 2.43.76 2.43 2.51v5.41h-.83z"/><path d="m387.74 457.93c0-1.09-.47-1.76-1.56-1.76a2.86 2.86 0 0 0 -2.2 1.31v5.86h-.85v-5.41c0-1.09-.45-1.76-1.56-1.76a2.94 2.94 0 0 0 -2.2 1.33v5.84h-.84v-7.73h.84v1.17a3.37 3.37 0 0 1 2.49-1.36 2 2 0 0 1 2 1.45 3.2 3.2 0 0 1 2.56-1.45c1.42 0 2.11.79 2.11 2.35v5.57h-.83z"/><path d="m396.07 462.43a3.37 3.37 0 0 1 -2.62 1.1 2.59 2.59 0 0 1 -2.71-2.58 2.54 2.54 0 0 1 2.71-2.54 3.32 3.32 0 0 1 2.62 1.09v-1.57a1.85 1.85 0 0 0 -2.08-1.78 3 3 0 0 0 -2.42 1.14l-.46-.56a3.71 3.71 0 0 1 3-1.31c1.58 0 2.83.75 2.83 2.48v5.44h-.83zm0-2.31a2.91 2.91 0 0 0 -2.34-1.07 1.92 1.92 0 1 0 0 3.82 2.9 2.9 0 0 0 2.34-1.05z"/><path d="m399.49 455.61h.84v1.33a3.29 3.29 0 0 1 2.61-1.49v.91a2.86 2.86 0 0 0 -.42 0 2.93 2.93 0 0 0 -2.19 1.37v5.64h-.84z"/><path d="m406.84 459.66-1.44 1.34v2.32h-.84v-10.66h.84v7.34l4.54-4.41h1.12l-3.6 3.49 3.59 4.24h-1.12z"/><path d="m355.64 474.66h.93v6.56c0 2.16 1.13 3.48 3.23 3.48s3.23-1.32 3.23-3.48v-6.56h.97v6.58c0 2.64-1.41 4.29-4.16 4.29s-4.16-1.66-4.16-4.29z"/><path d="m367.53 476.12v9.22h-.92v-10.68h.93l6.69 9.09v-9.09h.91v10.68h-.89z"/><path d="m388.63 482.71h-5.63l-1.07 2.63h-1l4.37-10.68h1.14l4.37 10.68h-1zm-5.39-.83h5.1l-2.56-6.32z"/><path d="m395.57 477.42a3.19 3.19 0 0 1 2.74 1.31l-.58.51a2.44 2.44 0 0 0 -2.11-1.07c-1.81 0-2.91 1.44-2.91 3.29s1.1 3.32 2.91 3.32a2.46 2.46 0 0 0 2.11-1.09l.58.51a3.18 3.18 0 0 1 -2.74 1.33 4.07 4.07 0 0 1 0-8.11z"/><path d="m400.32 483.85v-5.49h-1.32v-.75h1.28v-2.12h.85v2.12h1.57v.75h-1.57v5.36c0 .63.26 1.06.8 1.06a1.24 1.24 0 0 0 .87-.37l.32.64a1.75 1.75 0 0 1 -1.31.48c-.99 0-1.49-.62-1.49-1.68z"/><path d="m404.34 475.65a.66.66 0 0 1 .66-.65.64.64 0 0 1 .64.64.64.64 0 0 1 -.64.64.65.65 0 0 1 -.66-.63zm.22 2h.84v7.73h-.84z"/><path d="m407.54 481.46a3.74 3.74 0 1 1 3.71 4.07 3.75 3.75 0 0 1 -3.71-4.07zm6.55 0c0-1.71-1-3.29-2.84-3.29s-2.81 1.58-2.81 3.29 1 3.32 2.81 3.32 2.84-1.59 2.84-3.32z"/><path d="m422.34 480.12c0-1.5-.75-1.95-1.87-1.95a3.34 3.34 0 0 0 -2.47 1.33v5.84h-.84v-7.73h.84v1.17a3.88 3.88 0 0 1 2.78-1.36c1.57 0 2.43.76 2.43 2.51v5.41h-.83z"/><path d="m439 475.86-3.89 9.48h-.35l-3.91-9.48v9.48h-.91v-10.68h1.36l3.63 8.85 3.62-8.85h1.38v10.68h-.93z"/><path d="m442.56 474.66h4a3.12 3.12 0 1 1 0 6.24h-3.08v4.44h-.92zm3.91.83h-3v4.58h3a2.29 2.29 0 1 0 0-4.58z"/><path d="m454.42 475.49h-3.49v-.83h7.91v.83h-3.49v9.85h-.93z"/><path d="m460.72 474.66h6.77v.83h-5.85v4h5.74v.83h-5.74v5.06h-.92z"/><path d="m367.58 497.45a12.72 12.72 0 0 1 2.14-7.08l.5.36a14.11 14.11 0 0 0 0 13.43l-.5.36a12.68 12.68 0 0 1 -2.14-7.07z"/><path d="m374.54 491.49h-3.49v-.83h7.95v.83h-3.49v9.85h-.93z"/><path d="m382.12 493.42c2.36 0 3.65 1.87 3.65 4.09v.23h-6.47a3 3 0 0 0 3 3.07 3.44 3.44 0 0 0 2.55-1.07l.43.54a4 4 0 0 1 -3 1.25 4.06 4.06 0 0 1 -.15-8.11zm-2.82 3.66h5.62a2.83 2.83 0 0 0 -2.81-2.95 2.93 2.93 0 0 0 -2.81 2.95z"/><path d="m392.83 500.43a3.39 3.39 0 0 1 -2.63 1.1 2.58 2.58 0 0 1 -2.7-2.58 2.54 2.54 0 0 1 2.7-2.54 3.35 3.35 0 0 1 2.63 1.09v-1.57a1.85 1.85 0 0 0 -2.08-1.78 3 3 0 0 0 -2.42 1.14l-.47-.56a3.72 3.72 0 0 1 3-1.31c1.58 0 2.83.75 2.83 2.48v5.44h-.83zm0-2.31a2.93 2.93 0 0 0 -2.34-1.07 1.92 1.92 0 1 0 0 3.82 2.91 2.91 0 0 0 2.34-1.05z"/><path d="m405.45 495.93c0-1.09-.46-1.76-1.55-1.76a2.88 2.88 0 0 0 -2.21 1.31v5.86h-.85v-5.41c0-1.09-.45-1.76-1.55-1.76a2.94 2.94 0 0 0 -2.21 1.33v5.84h-.83v-7.73h.83v1.17a3.4 3.4 0 0 1 2.5-1.36 1.94 1.94 0 0 1 2 1.45 3.2 3.2 0 0 1 2.56-1.45c1.43 0 2.11.79 2.11 2.35v5.57h-.83z"/><path d="m412.57 497.46a3.74 3.74 0 1 1 3.71 4.07 3.74 3.74 0 0 1 -3.71-4.07zm6.54 0c0-1.71-1-3.29-2.83-3.29s-2.82 1.58-2.82 3.29 1 3.32 2.82 3.32 2.83-1.59 2.83-3.32z"/><path d="m422.42 494.34h-1.28v-.73h1.28v-.71c0-1.52.82-2.4 2.1-2.4a2.1 2.1 0 0 1 1 .24l-.25.66a1.41 1.41 0 0 0 -.71-.18c-.88 0-1.34.61-1.34 1.68v.71h1.56v.73h-1.56v7h-.84z"/><path d="m430.57 490.66h6.77v.83h-5.86v4h5.75v.83h-5.75v4.23h5.86v.83h-6.77z"/><path d="m442.1 497.93-2.57 3.41h-1l3-4-2.88-3.76h1l2.4 3.18 2.39-3.18h1l-2.88 3.76 3.06 4h-1z"/><path d="m447.22 504.28v-10.67h.84v1.23a3.28 3.28 0 0 1 2.69-1.42c2.06 0 3.45 1.56 3.45 4s-1.39 4.07-3.45 4.07a3.3 3.3 0 0 1 -2.69-1.44v4.19zm3.38-10.11a3.08 3.08 0 0 0 -2.54 1.39v3.81a3.12 3.12 0 0 0 2.54 1.41c1.73 0 2.71-1.44 2.71-3.32s-.98-3.29-2.71-3.29z"/><path d="m459.63 493.42c2.35 0 3.64 1.87 3.64 4.09v.23h-6.46a3 3 0 0 0 3 3.07 3.44 3.44 0 0 0 2.54-1.07l.43.54a4 4 0 0 1 -3 1.25 4.06 4.06 0 0 1 -.14-8.11zm-2.82 3.66h5.62a2.84 2.84 0 0 0 -2.82-2.95 2.91 2.91 0 0 0 -2.8 2.95z"/><path d="m465.42 493.61h.83v1.33a3.29 3.29 0 0 1 2.61-1.49v.91a2.86 2.86 0 0 0 -.42 0 2.94 2.94 0 0 0 -2.19 1.37v5.64h-.83z"/><path d="m470.65 499.85v-5.49h-1.28v-.75h1.28v-2.12h.85v2.12h1.56v.75h-1.56v5.36c0 .63.25 1.06.8 1.06a1.23 1.23 0 0 0 .86-.37l.32.64a1.72 1.72 0 0 1 -1.31.48c-1.03 0-1.52-.62-1.52-1.68z"/><path d="m474.71 499.69a3.21 3.21 0 0 0 2.5 1.14c1.3 0 2.06-.64 2.06-1.54s-1-1.28-2.17-1.57c-1.28-.32-2.71-.66-2.71-2.16 0-1.18 1-2.14 2.76-2.14a3.5 3.5 0 0 1 2.76 1.15l-.46.57a2.84 2.84 0 0 0 -2.3-1c-1.21 0-1.94.59-1.94 1.39s1 1.12 2.06 1.39c1.33.34 2.82.71 2.82 2.36 0 1.25-1 2.27-2.9 2.27a3.71 3.71 0 0 1 -3-1.22z"/><path d="m363.75 512a5.3 5.3 0 0 1 5.38-5.52 4.84 4.84 0 0 1 3.92 1.88l-.76.5a3.9 3.9 0 0 0 -3.16-1.55 4.7 4.7 0 0 0 0 9.38 3.91 3.91 0 0 0 3.16-1.56l.76.48a4.79 4.79 0 0 1 -3.92 1.91 5.3 5.3 0 0 1 -5.38-5.52z"/><path d="m378.17 512.92h-2.35v4.42h-.91v-10.68h4a3 3 0 0 1 3.25 3.12 3 3 0 0 1 -3 3.08l3.09 4.48h-1.1zm.64-5.43h-3v4.6h3a2.3 2.3 0 1 0 0-4.6z"/><path d="m384.41 515.14a4.33 4.33 0 0 0 3.33 1.56c2.19 0 2.82-1.22 2.82-2.13 0-1.51-1.44-1.92-2.93-2.32-1.68-.47-3.48-.95-3.48-2.92 0-1.74 1.57-2.84 3.51-2.84a4.63 4.63 0 0 1 3.62 1.5l-.61.67a3.82 3.82 0 0 0 -3.06-1.34c-1.42 0-2.49.81-2.49 2s1.32 1.63 2.78 2c1.71.48 3.62 1 3.62 3.2 0 1.36-.91 3-3.8 3a4.88 4.88 0 0 1 -3.9-1.7z"/><path d="m392.62 506.66h1.06l3.87 9.65 3.89-9.65h1.05l-4.37 10.68h-1.12z"/><path d="m403 506.73.5-.36a12.77 12.77 0 0 1 0 14.15l-.5-.36a14.11 14.11 0 0 0 0-13.43z"/><path d="m370.92 530.12v9.22h-.92v-10.68h.93l6.69 9.09v-9.09h.91v10.68h-.89z"/><path d="m380.71 535.46a3.74 3.74 0 1 1 3.72 4.07 3.75 3.75 0 0 1 -3.72-4.07zm6.55 0c0-1.71-1-3.29-2.83-3.29s-2.82 1.58-2.82 3.29 1 3.32 2.82 3.32 2.83-1.59 2.83-3.32z"/><path d="m390.3 531.61h.83v1.33a3.32 3.32 0 0 1 2.61-1.49v.91a2.77 2.77 0 0 0 -.42 0 2.94 2.94 0 0 0 -2.19 1.37v5.64h-.83z"/><path d="m399.84 532.73-2.18 6.61h-.8l-2.51-7.73h.89l2.05 6.56 2.18-6.56h.72l2.18 6.56 2-6.56h.9l-2.51 7.73h-.76z"/><path d="m411.79 538.43a3.37 3.37 0 0 1 -2.63 1.1 2.59 2.59 0 0 1 -2.7-2.58 2.54 2.54 0 0 1 2.7-2.54 3.33 3.33 0 0 1 2.63 1.09v-1.57a1.85 1.85 0 0 0 -2.08-1.78 3 3 0 0 0 -2.42 1.14l-.46-.56a3.7 3.7 0 0 1 3-1.31c1.58 0 2.83.75 2.83 2.48v5.44h-.83zm0-2.31a2.93 2.93 0 0 0 -2.34-1.07 1.92 1.92 0 1 0 0 3.82 2.91 2.91 0 0 0 2.34-1z"/><path d="m415.5 541.72c.53 0 .88-.21 1.18-.94l.61-1.38-3.29-7.79h1l2.81 6.75 2.8-6.75h.94l-4 9.42a2.06 2.06 0 0 1 -2 1.45 3 3 0 0 1 -.82-.12l.14-.77a1.94 1.94 0 0 0 .63.13z"/><path d="m375.87 550.66h4.38a2.65 2.65 0 0 1 2.95 2.72 2.42 2.42 0 0 1 -1.87 2.45 2.71 2.71 0 0 1 2.08 2.63 2.76 2.76 0 0 1 -3.08 2.88h-4.46zm4.27 4.79a1.91 1.91 0 0 0 2.1-2 1.92 1.92 0 0 0 -2.1-2h-3.36v4zm.07 5.06a2 2 0 0 0 2.24-2.12 2.08 2.08 0 0 0 -2.24-2.11h-3.43v4.23z"/><path d="m388.94 553.42c2.35 0 3.65 1.87 3.65 4.09v.23h-6.47a3 3 0 0 0 3 3.07 3.44 3.44 0 0 0 2.55-1.07l.43.54a4 4 0 0 1 -3 1.25 4.06 4.06 0 0 1 -.14-8.11zm-2.82 3.66h5.62a2.84 2.84 0 0 0 -2.82-3 2.92 2.92 0 0 0 -2.8 3z"/><path d="m394.73 550.66h.83v10.68h-.83z"/><path d="m398.65 562.67a2.94 2.94 0 0 0 2.56 1.08 2.36 2.36 0 0 0 2.64-2.48v-1.21a3.34 3.34 0 0 1 -2.69 1.44c-2.05 0-3.45-1.55-3.45-4s1.4-4 3.45-4a3.27 3.27 0 0 1 2.69 1.44v-1.25h.85v7.65c0 2.37-1.6 3.22-3.49 3.22a3.71 3.71 0 0 1 -3-1.17zm5.2-7.09a3.09 3.09 0 0 0 -2.54-1.41c-1.71 0-2.71 1.42-2.71 3.29s1 3.29 2.71 3.29a3.11 3.11 0 0 0 2.54-1.41z"/><path d="m407.05 551.65a.65.65 0 0 1 .64-.64.64.64 0 0 1 .64.64.64.64 0 1 1 -1.28 0zm.22 2h.84v7.73h-.84z"/><path d="m415.92 560.2a3.91 3.91 0 0 1 -2.79 1.33 2.15 2.15 0 0 1 -2.43-2.48v-5.44h.83v5.25c0 1.5.75 1.92 1.87 1.92a3.35 3.35 0 0 0 2.52-1.28v-5.89h.83v7.73h-.83z"/><path d="m428.54 555.93c0-1.09-.46-1.76-1.55-1.76a2.88 2.88 0 0 0 -2.21 1.31v5.86h-.85v-5.41c0-1.09-.45-1.76-1.55-1.76a2.94 2.94 0 0 0 -2.21 1.33v5.84h-.83v-7.73h.83v1.17a3.4 3.4 0 0 1 2.5-1.36 1.94 1.94 0 0 1 2 1.45 3.2 3.2 0 0 1 2.56-1.45c1.43 0 2.11.79 2.11 2.35v5.57h-.83z"/><path d="m381.72 572.66h.93v6.56c0 2.16 1.14 3.48 3.24 3.48s3.23-1.32 3.23-3.48v-6.56h.93v6.58c0 2.64-1.41 4.29-4.16 4.29s-4.17-1.66-4.17-4.29z"/><path d="m397.89 578.12c0-1.5-.76-2-1.88-2a3.36 3.36 0 0 0 -2.51 1.33v5.84h-.83v-7.73h.83v1.17a3.88 3.88 0 0 1 2.78-1.36 2.18 2.18 0 0 1 2.44 2.51v5.41h-.83z"/><path d="m401.08 573.65a.66.66 0 0 1 .64-.64.64.64 0 0 1 .64.64.64.64 0 0 1 -.64.64.65.65 0 0 1 -.64-.64zm.23 2h.83v7.73h-.83z"/><path d="m404.89 581.85v-5.49h-1.28v-.75h1.28v-2.12h.85v2.12h1.57v.75h-1.57v5.36c0 .63.25 1.06.8 1.06a1.19 1.19 0 0 0 .86-.37l.32.64a1.72 1.72 0 0 1 -1.31.48c-1.02 0-1.52-.62-1.52-1.68z"/><path d="m412.41 575.42c2.36 0 3.65 1.87 3.65 4.09v.23h-6.46a3 3 0 0 0 3 3.07 3.44 3.44 0 0 0 2.55-1.07l.43.54a4 4 0 0 1 -3 1.25 4.06 4.06 0 0 1 -.15-8.11zm-2.81 3.66h5.61a2.83 2.83 0 0 0 -2.81-3 2.91 2.91 0 0 0 -2.8 3z"/><path d="m423.9 582.11a3.29 3.29 0 0 1 -2.69 1.42c-2 0-3.45-1.57-3.45-4s1.4-4.06 3.45-4.06a3.27 3.27 0 0 1 2.69 1.44v-4.2h.85v10.68h-.85zm0-4.53a3.08 3.08 0 0 0 -2.54-1.41c-1.72 0-2.71 1.44-2.71 3.31s1 3.3 2.71 3.3a3.1 3.1 0 0 0 2.54-1.38z"/><path d="m433.61 578.31-1.18 1.3v3.73h-.92v-10.68h.92v5.84l5.15-5.84h1.17l-4.55 5.09 5 5.59h-1.2z"/><path d="m440.63 573.65a.66.66 0 0 1 .64-.64.64.64 0 0 1 0 1.28.65.65 0 0 1 -.64-.64zm.23 2h.83v7.73h-.83z"/><path d="m449.5 578.12c0-1.5-.75-2-1.87-2a3.38 3.38 0 0 0 -2.52 1.33v5.84h-.83v-7.73h.83v1.17a3.92 3.92 0 0 1 2.79-1.36c1.57 0 2.43.76 2.43 2.51v5.41h-.83z"/><path d="m453.42 584.67a2.93 2.93 0 0 0 2.56 1.08 2.36 2.36 0 0 0 2.64-2.48v-1.21a3.36 3.36 0 0 1 -2.69 1.44c-2.05 0-3.46-1.55-3.46-4s1.41-4 3.46-4a3.27 3.27 0 0 1 2.69 1.44v-1.25h.85v7.65c0 2.37-1.6 3.22-3.49 3.22a3.7 3.7 0 0 1 -3-1.17zm5.2-7.09a3.09 3.09 0 0 0 -2.54-1.41c-1.72 0-2.71 1.42-2.71 3.29s1 3.29 2.71 3.29a3.11 3.11 0 0 0 2.54-1.41z"/><path d="m467.74 582.11a3.29 3.29 0 0 1 -2.69 1.42c-2.05 0-3.46-1.57-3.46-4s1.41-4.06 3.46-4.06a3.27 3.27 0 0 1 2.69 1.44v-4.2h.85v10.68h-.85zm0-4.53a3.08 3.08 0 0 0 -2.54-1.41c-1.72 0-2.71 1.44-2.71 3.31s1 3.3 2.71 3.3a3.1 3.1 0 0 0 2.54-1.38z"/><path d="m470.73 579.46a3.74 3.74 0 1 1 3.71 4.07 3.75 3.75 0 0 1 -3.71-4.07zm6.55 0c0-1.71-1-3.29-2.84-3.29s-2.81 1.58-2.81 3.29 1 3.32 2.81 3.32 2.84-1.59 2.84-3.32z"/><path d="m489.52 577.93c0-1.09-.47-1.76-1.56-1.76a2.86 2.86 0 0 0 -2.2 1.31v5.86h-.85v-5.41c0-1.09-.45-1.76-1.56-1.76a2.94 2.94 0 0 0 -2.2 1.33v5.84h-.84v-7.73h.84v1.17a3.37 3.37 0 0 1 2.49-1.36 2 2 0 0 1 2 1.45 3.2 3.2 0 0 1 2.56-1.45c1.42 0 2.11.79 2.11 2.35v5.57h-.83z"/></g><path d="m286.23 261.5h-86.09" fill="none" stroke="#a5a5a5" stroke-miterlimit="10" stroke-width=".75"/><path d="m283.63 259.02h4.95v4.95h-4.95z" fill="#a5a5a5"/><path d="m200.26 259.24a2.26 2.26 0 1 0 2.25 2.26 2.26 2.26 0 0 0 -2.25-2.26z" fill="#a5a5a5"/><path d="m370.23 579h-83.59" fill="none" stroke="#a5a5a5" stroke-miterlimit="10" stroke-width=".75"/><path d="m367.63 576.52h4.95v4.95h-4.95z" fill="#a5a5a5"/><path d="m286.76 576.74a2.26 2.26 0 1 0 2.24 2.26 2.26 2.26 0 0 0 -2.24-2.26z" fill="#a5a5a5"/><path d="m280.73 238h-49.23l-44.65-25.92" fill="none" stroke="#a5a5a5" stroke-miterlimit="10" stroke-width=".75"/><path d="m278.13 235.52h4.95v4.95h-4.95z" fill="#a5a5a5"/><path d="m188.08 210.18a2.25 2.25 0 1 0 .82 3.09 2.26 2.26 0 0 0 -.82-3.09z" fill="#a5a5a5"/><path d="m363.73 557h-41.23l-37.54 16.63" fill="none" stroke="#a5a5a5" stroke-miterlimit="10" stroke-width=".75"/><path d="m361.13 554.52h4.95v4.95h-4.95z" fill="#a5a5a5"/><path d="m284.15 571.52a2.26 2.26 0 1 0 3 1.15 2.27 2.27 0 0 0 -3-1.15z" fill="#a5a5a5"/><path d="m359.73 534.5h-37.73l-37.89 33.09" fill="none" stroke="#a5a5a5" stroke-miterlimit="10" stroke-width=".75"/><path d="m357.13 532.02h4.95v4.95h-4.95z" fill="#a5a5a5"/><path d="m282.72 565.82a2.25 2.25 0 1 0 3.18.21 2.25 2.25 0 0 0 -3.18-.21z" fill="#a5a5a5"/><path d="m346.29 479.7h-37.24l-26.88 81.27" fill="none" stroke="#a5a5a5" stroke-miterlimit="10" stroke-width=".75"/><path d="m343.69 477.22h4.95v4.95h-4.95z" fill="#a5a5a5"/><path d="m280.07 560.15a2.25 2.25 0 1 0 2.85-1.43 2.26 2.26 0 0 0 -2.85 1.43z" fill="#a5a5a5"/><path d="m340.81 458.18h-42.73l-18.18 96.21" fill="none" stroke="#a5a5a5" stroke-miterlimit="10" stroke-width=".75"/><path d="m338.21 455.71h4.95v4.95h-4.95z" fill="#a5a5a5"/><path d="m277.7 553.86a2.26 2.26 0 1 0 2.64-1.79 2.26 2.26 0 0 0 -2.64 1.79z" fill="#a5a5a5"/><path d="m334.22 435.9h-40.73l-15.69 110.48" fill="none" stroke="#a5a5a5" stroke-miterlimit="10" stroke-width=".75"/><path d="m331.62 433.43h4.95v4.95h-4.95z" fill="#a5a5a5"/><path d="m275.58 546a2.26 2.26 0 1 0 2.55-1.92 2.27 2.27 0 0 0 -2.55 1.92z" fill="#a5a5a5"/><path d="m327.86 413.38h-37.74l-15.85 123.99" fill="none" stroke="#a5a5a5" stroke-miterlimit="10" stroke-width=".75"/><path d="m325.26 410.91h4.95v4.95h-4.95z" fill="#a5a5a5"/><path d="m272.05 537a2.25 2.25 0 1 0 2.52-2 2.25 2.25 0 0 0 -2.52 2z" fill="#a5a5a5"/><path d="m321.52 391.87h-35.23l-15.04 130.5" fill="none" stroke="#a5a5a5" stroke-miterlimit="10" stroke-width=".75"/><path d="m318.92 389.39h4.95v4.95h-4.95z" fill="#a5a5a5"/><path d="m269 522a2.26 2.26 0 1 0 2.5-2 2.24 2.24 0 0 0 -2.5 2z" fill="#a5a5a5"/><path d="m316.27 370.37h-35.73l-14.32 136" fill="none" stroke="#a5a5a5" stroke-miterlimit="10" stroke-width=".75"/><path d="m313.67 367.89h4.95v4.95h-4.95z" fill="#a5a5a5"/><path d="m264 506a2.26 2.26 0 1 0 2.48-2 2.26 2.26 0 0 0 -2.48 2z" fill="#a5a5a5"/><path d="m310.67 347.03h-35.23l-13.73 141.84" fill="none" stroke="#a5a5a5" stroke-miterlimit="10" stroke-width=".75"/><path d="m308.07 344.55h4.95v4.95h-4.95z" fill="#a5a5a5"/><path d="m259.47 488.54a2.26 2.26 0 1 0 2.46-2 2.25 2.25 0 0 0 -2.46 2z" fill="#a5a5a5"/><path d="m303.73 326.13h-32.73l-14.29 142.74" fill="none" stroke="#a5a5a5" stroke-miterlimit="10" stroke-width=".75"/><path d="m301.13 323.66h4.95v4.95h-4.95z" fill="#a5a5a5"/><path d="m254.48 468.53a2.26 2.26 0 1 0 2.47-2 2.26 2.26 0 0 0 -2.47 2z" fill="#a5a5a5"/><path d="m296.23 304h-31.23l-14.78 144.37" fill="none" stroke="#a5a5a5" stroke-miterlimit="10" stroke-width=".75"/><path d="m293.63 301.52h4.95v4.95h-4.95z" fill="#a5a5a5"/><path d="m248 448a2.25 2.25 0 1 0 2.47-2 2.25 2.25 0 0 0 -2.47 2z" fill="#a5a5a5"/><path d="m291.77 282.42h-41.23l-16.2 101.96" fill="none" stroke="#a5a5a5" stroke-miterlimit="10" stroke-width=".75"/><path d="m289.17 279.94h4.95v4.95h-4.95z" fill="#a5a5a5"/><path d="m232.13 383.92a2.25 2.25 0 1 0 2.58-1.88 2.25 2.25 0 0 0 -2.58 1.88z" fill="#a5a5a5"/><path d="m5.71 434h6.77v.83h-5.86v3.95h5.75v.84h-5.75v5.05h-.91z" fill="#4c4c4c"/><path d="m14.35 436.94h.83v1.33a3.35 3.35 0 0 1 2.61-1.49v.92a2.72 2.72 0 0 0 -.42 0 3 3 0 0 0 -2.19 1.3v5.63h-.83z" fill="#4c4c4c"/><path d="m24.33 443.76a3.36 3.36 0 0 1 -2.62 1.11 2.6 2.6 0 0 1 -2.71-2.58 2.54 2.54 0 0 1 2.71-2.54 3.34 3.34 0 0 1 2.62 1.08v-1.57a1.84 1.84 0 0 0 -2.08-1.77 3 3 0 0 0 -2.41 1.13l-.47-.56a3.71 3.71 0 0 1 3-1.31c1.59 0 2.84.75 2.84 2.48v5.44h-.84zm0-2.3a2.88 2.88 0 0 0 -2.33-1.08 1.92 1.92 0 1 0 0 3.83 2.87 2.87 0 0 0 2.33-1.06z" fill="#4c4c4c"/><path d="m33 439.46c0-1.51-.75-2-1.87-2a3.34 3.34 0 0 0 -2.51 1.33v5.84h-.83v-7.73h.83v1.17a3.92 3.92 0 0 1 2.78-1.36 2.18 2.18 0 0 1 2.44 2.51v5.41h-.84z" fill="#4c4c4c"/><path d="m39.71 436.75a3.23 3.23 0 0 1 2.74 1.31l-.58.52a2.48 2.48 0 0 0 -2.11-1.08c-1.81 0-2.92 1.44-2.92 3.3s1.11 3.31 2.92 3.31a2.5 2.5 0 0 0 2.11-1.11l.58.51a3.2 3.2 0 0 1 -2.74 1.33 4.07 4.07 0 0 1 0-8.12z" fill="#4c4c4c"/><path d="m47.58 436.75c2.35 0 3.65 1.87 3.65 4.1v.22h-6.47a3 3 0 0 0 3 3.08 3.41 3.41 0 0 0 2.55-1.08l.43.55a4 4 0 0 1 -3 1.25 4.07 4.07 0 0 1 -.14-8.12zm-2.82 3.67h5.62a2.83 2.83 0 0 0 -2.82-2.95 2.92 2.92 0 0 0 -2.8 2.95z" fill="#4c4c4c"/><path d="m5.71 456h.91v9.84h5.17v.83h-6.08z" fill="#4c4c4c"/><path d="m18.69 465.54a4 4 0 0 1 -2.79 1.33 2.15 2.15 0 0 1 -2.43-2.48v-5.45h.83v5.25c0 1.51.75 1.92 1.87 1.92a3.35 3.35 0 0 0 2.52-1.28v-5.89h.83v7.73h-.83z" fill="#4c4c4c"/><path d="m24.65 463.27-2.57 3.4h-1l3.06-4-2.88-3.77h1l2.4 3.19 2.34-3.15h1l-2.88 3.77 3.06 4h-1z" fill="#4c4c4c"/><path d="m32.48 458.75c2.35 0 3.65 1.87 3.65 4.1v.22h-6.47a3 3 0 0 0 3 3.08 3.41 3.41 0 0 0 2.54-1.08l.44.55a4 4 0 0 1 -3 1.25 4.07 4.07 0 0 1 -.14-8.12zm-2.82 3.67h5.62a2.84 2.84 0 0 0 -2.82-2.95 2.91 2.91 0 0 0 -2.8 2.95z" fill="#4c4c4c"/><path d="m47.47 461.26c0-1.08-.46-1.76-1.55-1.76a2.86 2.86 0 0 0 -2.21 1.32v5.85h-.85v-5.41c0-1.08-.45-1.76-1.55-1.76a3 3 0 0 0 -2.21 1.33v5.84h-.83v-7.73h.83v1.17a3.43 3.43 0 0 1 2.5-1.36 2 2 0 0 1 2 1.46 3.21 3.21 0 0 1 2.56-1.46c1.43 0 2.11.8 2.11 2.35v5.57h-.83z" fill="#4c4c4c"/><path d="m50.89 456h.83v4.19a3.31 3.31 0 0 1 2.69-1.44c2.07 0 3.46 1.62 3.46 4.07s-1.41 4.05-3.46 4.05a3.31 3.31 0 0 1 -2.69-1.43v1.23h-.83zm3.38 10.11c1.73 0 2.7-1.42 2.7-3.29s-1-3.32-2.7-3.32a3.18 3.18 0 0 0 -2.55 1.41v3.83a3.15 3.15 0 0 0 2.55 1.37z" fill="#4c4c4c"/><path d="m59.58 462.8a3.74 3.74 0 1 1 3.71 4.07 3.75 3.75 0 0 1 -3.71-4.07zm6.55 0c0-1.71-1-3.3-2.84-3.3s-2.81 1.59-2.81 3.3 1 3.31 2.81 3.31 2.84-1.58 2.84-3.31z" fill="#4c4c4c"/><path d="m74.38 465.54a3.93 3.93 0 0 1 -2.78 1.33 2.15 2.15 0 0 1 -2.44-2.48v-5.45h.84v5.25c0 1.51.75 1.92 1.87 1.92a3.33 3.33 0 0 0 2.51-1.28v-5.89h.83v7.73h-.83z" fill="#4c4c4c"/><path d="m77.8 458.94h.84v1.33a3.31 3.31 0 0 1 2.6-1.49v.92a2.59 2.59 0 0 0 -.41 0 2.94 2.94 0 0 0 -2.19 1.3v5.63h-.84z" fill="#4c4c4c"/><path d="m83.37 468a3 3 0 0 0 2.56 1.09 2.36 2.36 0 0 0 2.64-2.48v-1.22a3.32 3.32 0 0 1 -2.69 1.44c-2 0-3.45-1.55-3.45-4s1.4-4.05 3.45-4.05a3.3 3.3 0 0 1 2.69 1.44v-1.25h.85v7.65c0 2.37-1.6 3.22-3.49 3.22a3.71 3.71 0 0 1 -3-1.17zm5.2-7.09a3.11 3.11 0 0 0 -2.57-1.41c-1.71 0-2.71 1.43-2.71 3.3s1 3.28 2.71 3.28a3.09 3.09 0 0 0 2.54-1.41z" fill="#4c4c4c"/><path d="m14.18 487.36 1.1 1.17-.62.58-1.14-1.17a5.1 5.1 0 0 1 -3 .93c-3.13 0-5.18-2.4-5.18-5.53s2.05-5.52 5.18-5.52 5.19 2.4 5.19 5.52a5.68 5.68 0 0 1 -1.53 4.02zm-1.27-.06-1.65-1.71.64-.6 1.65 1.73a5 5 0 0 0 1.17-3.38c0-2.7-1.67-4.69-4.23-4.69s-4.22 2-4.22 4.69 1.63 4.66 4.22 4.66a4.15 4.15 0 0 0 2.42-.7z" fill="#4c4c4c"/><path d="m22.81 487.76a3.36 3.36 0 0 1 -2.62 1.11 2.6 2.6 0 0 1 -2.71-2.58 2.54 2.54 0 0 1 2.71-2.54 3.34 3.34 0 0 1 2.62 1.08v-1.57a1.84 1.84 0 0 0 -2.08-1.77 3 3 0 0 0 -2.41 1.13l-.47-.56a3.71 3.71 0 0 1 3-1.31c1.59 0 2.84.75 2.84 2.48v5.44h-.84zm0-2.3a2.87 2.87 0 0 0 -2.33-1.08 1.92 1.92 0 1 0 0 3.83 2.85 2.85 0 0 0 2.33-1.06z" fill="#4c4c4c"/><path d="m26.4 487.19v-5.49h-1.28v-.76h1.28v-2.11h.84v2.11h1.57v.76h-1.57v5.36c0 .62.26 1.05.8 1.05a1.23 1.23 0 0 0 .87-.36l.32.64a1.76 1.76 0 0 1 -1.31.48c-1.03 0-1.52-.63-1.52-1.68z" fill="#4c4c4c"/><path d="m35.55 487.76a3.38 3.38 0 0 1 -2.63 1.11 2.59 2.59 0 0 1 -2.7-2.58 2.54 2.54 0 0 1 2.7-2.54 3.36 3.36 0 0 1 2.63 1.08v-1.57a1.85 1.85 0 0 0 -2.08-1.77 3 3 0 0 0 -2.42 1.13l-.46-.56a3.7 3.7 0 0 1 3-1.31c1.58 0 2.83.75 2.83 2.48v5.44h-.83zm0-2.3a2.89 2.89 0 0 0 -2.34-1.08 1.92 1.92 0 1 0 0 3.83 2.87 2.87 0 0 0 2.34-1.06z" fill="#4c4c4c"/><path d="m39 480.94h.83v1.33a3.35 3.35 0 0 1 2.61-1.49v.92a2.59 2.59 0 0 0 -.41 0 3 3 0 0 0 -2.23 1.3v5.63h-.8z" fill="#4c4c4c"/><path d="m5.71 500h.91v10.67h-.91z" fill="#4c4c4c"/><path d="m9.24 502.94h.84v1.33a3.32 3.32 0 0 1 2.61-1.49v.92a2.85 2.85 0 0 0 -.42 0 2.94 2.94 0 0 0 -2.19 1.3v5.63h-.84z" fill="#4c4c4c"/><path d="m17.6 502.75c2.35 0 3.65 1.87 3.65 4.1v.22h-6.47a3 3 0 0 0 3 3.08 3.41 3.41 0 0 0 2.54-1.08l.44.55a4 4 0 0 1 -3 1.25 4.07 4.07 0 0 1 -.14-8.12zm-2.82 3.67h5.62a2.84 2.84 0 0 0 -2.82-2.95 2.91 2.91 0 0 0 -2.8 2.95z" fill="#4c4c4c"/><path d="m23.39 500h.83v10.67h-.83z" fill="#4c4c4c"/><path d="m31.73 509.76a3.4 3.4 0 0 1 -2.63 1.11 2.59 2.59 0 0 1 -2.7-2.58 2.54 2.54 0 0 1 2.7-2.54 3.37 3.37 0 0 1 2.63 1.08v-1.57a1.85 1.85 0 0 0 -2.09-1.77 3 3 0 0 0 -2.41 1.13l-.47-.56a3.71 3.71 0 0 1 3-1.31c1.59 0 2.84.75 2.84 2.48v5.44h-.83zm0-2.3a2.9 2.9 0 0 0 -2.34-1.08 1.92 1.92 0 1 0 0 3.83 2.89 2.89 0 0 0 2.34-1.06z" fill="#4c4c4c"/><path d="m40.37 505.46c0-1.51-.76-2-1.88-2a3.36 3.36 0 0 0 -2.49 1.37v5.84h-.83v-7.73h.83v1.17a3.92 3.92 0 0 1 2.78-1.36 2.18 2.18 0 0 1 2.44 2.51v5.41h-.83z" fill="#4c4c4c"/><path d="m49.48 509.44a3.28 3.28 0 0 1 -2.68 1.43c-2 0-3.46-1.57-3.46-4.05s1.41-4.07 3.46-4.07a3.29 3.29 0 0 1 2.68 1.44v-4.19h.85v10.67h-.85zm0-4.53a3.07 3.07 0 0 0 -2.54-1.41c-1.71 0-2.71 1.44-2.71 3.32s1 3.29 2.71 3.29a3.09 3.09 0 0 0 2.54-1.37z" fill="#4c4c4c"/><path d="m5.71 522h.93v6.56c0 2.16 1.13 3.47 3.23 3.47s3.23-1.31 3.23-3.47v-6.56h.9v6.58c0 2.64-1.41 4.29-4.16 4.29s-4.16-1.67-4.16-4.29z" fill="#4c4c4c"/><path d="m17.6 523.46v9.21h-.92v-10.67h.93l6.69 9.09v-9.09h.92v10.67h-.9z" fill="#4c4c4c"/><path d="m35.55 527.6h-6.77v5.07h-.91v-10.67h.91v4.77h6.77v-4.77h.93v10.67h-.93z" fill="#4c4c4c"/><path d="m38.72 527.34a5.29 5.29 0 0 1 5.37-5.52 4.88 4.88 0 0 1 3.91 1.89l-.77.5a3.91 3.91 0 0 0 -3.16-1.56 4.7 4.7 0 0 0 0 9.38 3.9 3.9 0 0 0 3.16-1.55l.77.52a4.82 4.82 0 0 1 -3.93 1.91 5.29 5.29 0 0 1 -5.35-5.57z" fill="#4c4c4c"/><path d="m53.13 528.26h-2.35v4.41h-.91v-10.67h4a3 3 0 0 1 3.25 3.12 2.93 2.93 0 0 1 -3 3.07l3.09 4.48h-1.1zm.64-5.43h-3v4.59h3a2.3 2.3 0 1 0 0-4.59z" fill="#4c4c4c"/><path d="m5.71 544h6.77v.83h-5.86v3.95h5.75v.84h-5.75v4.22h5.86v.83h-6.77z" fill="#4c4c4c"/><path d="m19.52 543.82c3.12 0 5.18 2.4 5.18 5.52s-2.06 5.53-5.18 5.53-5.19-2.4-5.19-5.53 2.05-5.52 5.19-5.52zm0 .83c-2.6 0-4.23 2-4.23 4.69s1.63 4.66 4.23 4.66 4.22-2 4.22-4.69-1.66-4.66-4.22-4.66z" fill="#4c4c4c"/><path d="m27 552.48a4.32 4.32 0 0 0 3.28 1.52c2.2 0 2.82-1.21 2.82-2.12 0-1.51-1.44-1.92-2.93-2.33-1.68-.46-3.47-.94-3.47-2.91 0-1.74 1.57-2.85 3.5-2.85a4.59 4.59 0 0 1 3.62 1.51l-.61.67a3.8 3.8 0 0 0 -3.05-1.35c-1.43 0-2.5.82-2.5 2s1.33 1.64 2.78 2c1.72.48 3.62 1 3.62 3.2 0 1.36-.91 3-3.79 3a4.94 4.94 0 0 1 -3.91-1.7z" fill="#4c4c4c"/><path d="m41.26 543.82a5.09 5.09 0 0 1 4 1.83l-.69.49a4.37 4.37 0 0 0 -3.33-1.49 4.71 4.71 0 0 0 0 9.4 4.5 4.5 0 0 0 3.14-1.3v-2.54h-4v-.83h5v3.73a5.43 5.43 0 0 1 -4.05 1.77 5.53 5.53 0 0 1 0-11.06z" fill="#4c4c4c"/><path d="m12.4 574.05h-5.68l-1.08 2.62h-1l4.36-10.67h1.14l4.37 10.67h-1zm-5.4-.83h5.11l-2.56-6.33z" fill="#4c4c4c"/><path d="m21.07 575.54a3.93 3.93 0 0 1 -2.78 1.33 2.15 2.15 0 0 1 -2.44-2.48v-5.45h.83v5.25c0 1.51.76 1.92 1.88 1.92a3.33 3.33 0 0 0 2.51-1.28v-5.89h.83v7.73h-.83z" fill="#4c4c4c"/><path d="m24.32 575a3.19 3.19 0 0 0 2.49 1.13c1.3 0 2.07-.64 2.07-1.53s-1.06-1.28-2.18-1.57c-1.28-.32-2.7-.66-2.7-2.16 0-1.19 1-2.15 2.75-2.15a3.51 3.51 0 0 1 2.77 1.15l-.47.58a2.79 2.79 0 0 0 -2.3-1c-1.2 0-1.94.59-1.94 1.39s1 1.12 2.07 1.39c1.33.34 2.81.71 2.81 2.35 0 1.25-1 2.28-2.89 2.28a3.75 3.75 0 0 1 -3-1.22z" fill="#4c4c4c"/><path d="m32 575.19v-5.49h-1.28v-.76h1.28v-2.11h.84v2.11h1.57v.76h-1.57v5.36c0 .62.26 1.05.8 1.05a1.23 1.23 0 0 0 .87-.36l.32.64a1.77 1.77 0 0 1 -1.31.48c-1.03 0-1.52-.63-1.52-1.68z" fill="#4c4c4c"/><path d="m36.24 568.94h.83v1.33a3.32 3.32 0 0 1 2.61-1.49v.92a2.85 2.85 0 0 0 -.42 0 3 3 0 0 0 -2.19 1.3v5.63h-.83z" fill="#4c4c4c"/><path d="m41.08 567a.66.66 0 0 1 .64-.64.64.64 0 1 1 0 1.28.66.66 0 0 1 -.64-.64zm.23 2h.83v7.73h-.83z" fill="#4c4c4c"/><path d="m49.65 575.76a3.4 3.4 0 0 1 -2.65 1.11 2.6 2.6 0 0 1 -2.71-2.58 2.55 2.55 0 0 1 2.71-2.54 3.37 3.37 0 0 1 2.63 1.08v-1.57a1.85 1.85 0 0 0 -2.09-1.77 3 3 0 0 0 -2.41 1.13l-.47-.56a3.71 3.71 0 0 1 3-1.31c1.59 0 2.84.75 2.84 2.48v5.44h-.83zm0-2.3a2.9 2.9 0 0 0 -2.34-1.08 1.92 1.92 0 1 0 0 3.83 2.89 2.89 0 0 0 2.34-1.06z" fill="#4c4c4c"/><path d="m5.71 588h4a3.12 3.12 0 1 1 0 6.24h-3.09v4.43h-.91zm3.9.83h-3v4.58h3a2.29 2.29 0 1 0 0-4.58z" fill="#4c4c4c"/><path d="m14.81 590.94h.83v1.33a3.35 3.35 0 0 1 2.61-1.49v.92a2.59 2.59 0 0 0 -.41 0 3 3 0 0 0 -2.2 1.38v5.63h-.83z" fill="#4c4c4c"/><path d="m19.66 589a.65.65 0 0 1 .64-.64.64.64 0 1 1 0 1.28.65.65 0 0 1 -.64-.64zm.22 2h.84v7.73h-.84z" fill="#4c4c4c"/><path d="m22.12 590.94h.93l2.8 6.76 2.8-6.76h1l-3.27 7.73h-.94z" fill="#4c4c4c"/><path d="m35.92 597.76a3.4 3.4 0 0 1 -2.63 1.11 2.59 2.59 0 0 1 -2.7-2.58 2.54 2.54 0 0 1 2.7-2.54 3.37 3.37 0 0 1 2.63 1.08v-1.57a1.85 1.85 0 0 0 -2.08-1.77 3 3 0 0 0 -2.42 1.13l-.46-.56a3.7 3.7 0 0 1 3-1.31c1.58 0 2.83.75 2.83 2.48v5.44h-.83zm0-2.3a2.9 2.9 0 0 0 -2.34-1.08 1.92 1.92 0 1 0 0 3.83 2.89 2.89 0 0 0 2.34-1.06z" fill="#4c4c4c"/><path d="m39.5 597.19v-5.49h-1.28v-.76h1.28v-2.11h.85v2.11h1.57v.76h-1.57v5.36c0 .62.25 1.05.8 1.05a1.19 1.19 0 0 0 .86-.36l.32.64a1.76 1.76 0 0 1 -1.31.48c-1.02 0-1.52-.63-1.52-1.68z" fill="#4c4c4c"/><path d="m47 590.75c2.35 0 3.65 1.87 3.65 4.1v.22h-6.45a3 3 0 0 0 3 3.08 3.45 3.45 0 0 0 2.55-1.08l.43.55a4 4 0 0 1 -3 1.25 4.07 4.07 0 0 1 -.14-8.12zm-2.82 3.67h5.62a2.83 2.83 0 0 0 -2.8-2.95 2.92 2.92 0 0 0 -2.8 2.95z" fill="#4c4c4c"/><path d="m9 606.75a3.23 3.23 0 0 1 2.74 1.31l-.58.52a2.47 2.47 0 0 0 -2.16-1.08c-1.81 0-2.92 1.44-2.92 3.3s1.11 3.31 2.92 3.31a2.49 2.49 0 0 0 2.15-1.11l.58.51a3.2 3.2 0 0 1 -2.73 1.36 4.07 4.07 0 0 1 0-8.12z" fill="#4c4c4c"/><path d="m13.13 610.8a3.74 3.74 0 1 1 3.72 4.07 3.75 3.75 0 0 1 -3.72-4.07zm6.55 0c0-1.71-1-3.3-2.83-3.3s-2.85 1.59-2.85 3.3 1 3.31 2.82 3.31 2.86-1.58 2.86-3.31z" fill="#4c4c4c"/><path d="m27.93 609.46c0-1.51-.75-2-1.87-2a3.34 3.34 0 0 0 -2.51 1.33v5.84h-.83v-7.73h.83v1.17a3.92 3.92 0 0 1 2.78-1.36 2.18 2.18 0 0 1 2.44 2.51v5.41h-.84z" fill="#4c4c4c"/><path d="m31.52 613.19v-5.49h-1.28v-.76h1.28v-2.11h.84v2.11h1.57v.76h-1.57v5.36c0 .62.26 1.05.8 1.05a1.23 1.23 0 0 0 .87-.36l.32.64a1.77 1.77 0 0 1 -1.31.48c-1.04 0-1.52-.63-1.52-1.68z" fill="#4c4c4c"/><path d="m35.76 606.94h.83v1.33a3.32 3.32 0 0 1 2.61-1.49v.92a2.85 2.85 0 0 0 -.42 0 3 3 0 0 0 -2.19 1.3v5.63h-.83z" fill="#4c4c4c"/><path d="m40.6 605a.66.66 0 0 1 .64-.64.64.64 0 1 1 0 1.28.66.66 0 0 1 -.64-.64zm.23 2h.83v7.73h-.83z" fill="#4c4c4c"/><path d="m44.25 604h.83v4.19a3.31 3.31 0 0 1 2.69-1.44c2.07 0 3.46 1.62 3.46 4.07s-1.41 4-3.46 4a3.31 3.31 0 0 1 -2.69-1.43v1.23h-.83zm3.38 10.11c1.73 0 2.7-1.42 2.7-3.29s-1-3.32-2.7-3.32a3.18 3.18 0 0 0 -2.55 1.41v3.83a3.15 3.15 0 0 0 2.55 1.37z" fill="#4c4c4c"/><path d="m58.61 613.54a4 4 0 0 1 -2.79 1.33 2.15 2.15 0 0 1 -2.43-2.48v-5.45h.83v5.25c0 1.51.75 1.92 1.87 1.92a3.37 3.37 0 0 0 2.52-1.28v-5.89h.83v7.73h-.83z" fill="#4c4c4c"/><path d="m62.19 613.19v-5.49h-1.28v-.76h1.28v-2.11h.81v2.11h1.6v.76h-1.6v5.36c0 .62.25 1.05.8 1.05a1.22 1.22 0 0 0 .86-.36l.32.64a1.76 1.76 0 0 1 -1.31.48c-.99 0-1.48-.63-1.48-1.68z" fill="#4c4c4c"/><path d="m66.2 605a.66.66 0 0 1 .64-.64.64.64 0 1 1 0 1.28.66.66 0 0 1 -.64-.64zm.23 2h.83v7.73h-.83z" fill="#4c4c4c"/><path d="m69.4 610.8a3.74 3.74 0 1 1 3.72 4.07 3.75 3.75 0 0 1 -3.72-4.07zm6.55 0c0-1.71-1-3.3-2.83-3.3s-2.82 1.59-2.82 3.3 1 3.31 2.82 3.31 2.88-1.58 2.88-3.31z" fill="#4c4c4c"/><path d="m84.21 609.46c0-1.51-.76-2-1.88-2a3.36 3.36 0 0 0 -2.51 1.33v5.84h-.82v-7.73h.83v1.17a3.92 3.92 0 0 1 2.78-1.36 2.18 2.18 0 0 1 2.39 2.55v5.41h-.83z" fill="#4c4c4c"/><path d="m153.36 440.5h-94.46" fill="none" stroke="#a5a5a5" stroke-miterlimit="10" stroke-width=".75"/><circle cx="153.24" cy="440.5" fill="#a5a5a5" r="2.26" transform="matrix(.44729085 -.89438856 .89438856 .44729085 -309.28 380.57)"/><path d="m56.55 438.02h4.95v4.95h-4.95z" fill="#a5a5a5"/><path d="m165.36 484.5h-114.46" fill="none" stroke="#a5a5a5" stroke-miterlimit="10" stroke-width=".75"/><circle cx="165.24" cy="484.5" fill="#a5a5a5" r="2.26" transform="matrix(.41326337 -.91061155 .91061155 .41326337 -344.24 434.77)"/><path d="m48.55 482.02h4.95v4.95h-4.95z" fill="#a5a5a5"/><path d="m170.86 506.5h-111.83" fill="none" stroke="#a5a5a5" stroke-miterlimit="10" stroke-width=".75"/><circle cx="170.74" cy="506.5" fill="#a5a5a5" r="2.26" transform="matrix(.38268343 -.92387953 .92387953 .38268343 -362.54 470.42)"/><path d="m56.68 504.02h4.95v4.95h-4.95z" fill="#a5a5a5"/><path d="m176.36 528.5h-111.46" fill="none" stroke="#a5a5a5" stroke-miterlimit="10" stroke-width=".75"/><circle cx="176.24" cy="528.5" fill="#a5a5a5" r="2.26" transform="matrix(.38268343 -.92387953 .92387953 .38268343 -379.47 489.08)"/><path d="m62.55 526.02h4.95v4.95h-4.95z" fill="#a5a5a5"/><path d="m181.86 549.5h-127.46" fill="none" stroke="#a5a5a5" stroke-miterlimit="10" stroke-width=".75"/><circle cx="181.74" cy="549.5" fill="#a5a5a5" r="2.26" transform="matrix(.38268343 -.92387953 .92387953 .38268343 -395.48 507.12)"/><path d="m52.05 547.02h4.95v4.95h-4.95z" fill="#a5a5a5"/><path d="m188.36 572.5h-128.96" fill="none" stroke="#a5a5a5" stroke-miterlimit="10" stroke-width=".75"/><path d="m188.24 570.24a2.26 2.26 0 1 1 -2.24 2.26 2.26 2.26 0 0 1 2.24-2.26z" fill="#a5a5a5"/><path d="m57.05 570.02h4.95v4.95h-4.95z" fill="#a5a5a5"/><path d="m195.36 594.5h-135.96" fill="none" stroke="#a5a5a5" stroke-miterlimit="10" stroke-width=".75"/><path d="m195.24 592.24a2.26 2.26 0 1 1 -2.24 2.26 2.26 2.26 0 0 1 2.24-2.26z" fill="#a5a5a5"/><path d="m57.05 592.02h4.95v4.95h-4.95z" fill="#a5a5a5"/><path d="m158.86 462.5h-59.96" fill="none" stroke="#a5a5a5" stroke-miterlimit="10" stroke-width=".75"/><circle cx="158.74" cy="462.5" fill="#a5a5a5" r="2.26" transform="matrix(.52576861 -.85062763 .85062763 .52576861 -318.14 354.38)"/><path d="m96.55 460.02h4.95v4.95h-4.95z" fill="#a5a5a5"/><path d="m153.5 441 41.5 154.5" fill="none" stroke="#a5a5a5" stroke-miterlimit="10" stroke-width=".75"/><path d="m191 582.92h4.83" fill="none" stroke="#a5a5a5" stroke-miterlimit="10" stroke-width=".75"/><path d="m215.13 584.92h-18.63l-1.5-4.5h18.63" fill="none" stroke="#a5a5a5" stroke-miterlimit="10" stroke-width=".75"/><path d="m210.53 112.14-3.89 9.54h-.76l-3.88-9.54v9.54h-1.8v-12h2.58l3.49 8.63 3.49-8.63h2.58v12h-1.8z" fill="#0a0a0a"/><path d="m214.41 117.33a4.4 4.4 0 1 1 4.4 4.57 4.32 4.32 0 0 1 -4.4-4.57zm7.1 0c0-1.64-1-3.12-2.7-3.12a2.84 2.84 0 0 0 -2.71 3.12c0 1.65 1 3.13 2.71 3.13s2.7-1.46 2.7-3.13z" fill="#0a0a0a"/><path d="m225.25 109.67h1.62v4.58a3.48 3.48 0 0 1 2.84-1.48c2.27 0 3.87 1.78 3.87 4.57s-1.62 4.56-3.87 4.56a3.55 3.55 0 0 1 -2.84-1.46v1.24h-1.62zm4 10.79c1.62 0 2.63-1.3 2.63-3.12s-1-3.13-2.63-3.13a3 3 0 0 0 -2.41 1.3v3.69a3 3 0 0 0 2.44 1.26z" fill="#0a0a0a"/><path d="m235.4 110.5a1.06 1.06 0 0 1 1-1 1 1 0 0 1 1.05 1 1 1 0 0 1 -1.05 1 1 1 0 0 1 -1-1zm.25 2.49h1.62v8.69h-1.62z" fill="#0a0a0a"/><path d="m239.85 109.67h1.62v12h-1.62z" fill="#0a0a0a"/><path d="m243.79 110.5a1.05 1.05 0 0 1 1-1 1 1 0 0 1 1 1 1 1 0 0 1 -1 1 1 1 0 0 1 -1-1zm.21 2.5h1.62v8.69h-1.62z" fill="#0a0a0a"/><path d="m247.82 120.44 4.53-6h-4.53v-1.44h6.68v1.2l-4.58 6.09h4.65v1.4h-6.75z" fill="#0a0a0a"/><path d="m260.58 112.77c2.61 0 4.23 2 4.23 4.7v.4h-6.88a2.86 2.86 0 0 0 3 2.7 3.67 3.67 0 0 0 2.57-1l.76 1.06a4.89 4.89 0 0 1 -3.49 1.3 4.57 4.57 0 0 1 -.15-9.13zm-2.66 3.93h5.31a2.58 2.58 0 0 0 -2.65-2.6 2.66 2.66 0 0 0 -2.66 2.6z" fill="#0a0a0a"/><path d="m273 120.44a3.58 3.58 0 0 1 -2.85 1.46c-2.27 0-3.89-1.71-3.89-4.56s1.62-4.57 3.89-4.57a3.54 3.54 0 0 1 2.85 1.48v-4.58h1.62v12h-1.62zm0-5a3 3 0 0 0 -2.42-1.28c-1.62 0-2.62 1.32-2.62 3.13s1 3.12 2.62 3.12a3 3 0 0 0 2.42-1.21z" fill="#0a0a0a"/><path d="m286 117.06h-2.25v4.62h-1.8v-12h5.05a3.58 3.58 0 0 1 3.85 3.7 3.35 3.35 0 0 1 -3 3.51l3.08 4.8h-2.09zm.77-5.8h-3v4.21h3a2.11 2.11 0 1 0 0-4.21z" fill="#0a0a0a"/><path d="m296.29 112.77c2.61 0 4.23 2 4.23 4.7v.4h-6.87a2.85 2.85 0 0 0 3 2.7 3.67 3.67 0 0 0 2.57-1l.76 1.06a4.89 4.89 0 0 1 -3.49 1.3 4.57 4.57 0 0 1 -.15-9.13zm-2.66 3.93h5.31a2.58 2.58 0 0 0 -2.65-2.6 2.67 2.67 0 0 0 -2.66 2.6z" fill="#0a0a0a"/><path d="m302.57 119.36a4.22 4.22 0 0 0 2.92 1.24c1.22 0 1.87-.5 1.87-1.24s-1-1.15-2.1-1.4c-1.48-.35-3.21-.74-3.21-2.61 0-1.39 1.19-2.58 3.31-2.58a4.67 4.67 0 0 1 3.32 1.24l-.72 1.14a3.42 3.42 0 0 0 -2.58-1.07c-1.1 0-1.78.44-1.78 1.14s.94 1 2 1.26c1.51.34 3.31.76 3.31 2.75 0 1.5-1.23 2.67-3.51 2.67a4.94 4.94 0 0 1 -3.62-1.35z" fill="#0a0a0a"/><path d="m310.44 117.33a4.4 4.4 0 1 1 4.39 4.57 4.31 4.31 0 0 1 -4.39-4.57zm7.09 0c0-1.64-.95-3.12-2.7-3.12s-2.7 1.48-2.7 3.12 1 3.13 2.7 3.13 2.7-1.46 2.7-3.13z" fill="#0a0a0a"/><path d="m327.14 120.5a4.27 4.27 0 0 1 -3.09 1.4 2.46 2.46 0 0 1 -2.78-2.77v-6.13h1.63v5.6c0 1.44.71 1.87 1.83 1.87a3.12 3.12 0 0 0 2.41-1.23v-6.24h1.63v8.69h-1.63z" fill="#0a0a0a"/><path d="m331.34 113h1.66v1.33a3.69 3.69 0 0 1 2.84-1.53v1.64a2.29 2.29 0 0 0 -.56-.06 3.07 3.07 0 0 0 -2.28 1.26v6.05h-1.62z" fill="#0a0a0a"/><path d="m341.31 112.77a3.81 3.81 0 0 1 3.26 1.53l-1.08 1a2.43 2.43 0 0 0 -2.11-1.08 3.14 3.14 0 0 0 0 6.25 2.48 2.48 0 0 0 2.11-1.08l1.08 1a3.79 3.79 0 0 1 -3.26 1.53 4.57 4.57 0 0 1 0-9.13z" fill="#0a0a0a"/><path d="m350.16 112.77c2.62 0 4.24 2 4.24 4.7v.4h-6.88a2.85 2.85 0 0 0 3 2.7 3.7 3.7 0 0 0 2.58-1l.75 1.06a4.87 4.87 0 0 1 -3.49 1.3 4.57 4.57 0 0 1 -.15-9.13zm-2.66 3.93h5.31a2.57 2.57 0 0 0 -2.65-2.6 2.67 2.67 0 0 0 -2.66 2.6z" fill="#0a0a0a"/><path d="m356.45 119.36a4.18 4.18 0 0 0 2.91 1.24c1.23 0 1.87-.5 1.87-1.24s-1-1.15-2.1-1.4c-1.48-.35-3.21-.74-3.21-2.61 0-1.39 1.19-2.58 3.32-2.58a4.67 4.67 0 0 1 3.31 1.24l-.72 1.14a3.4 3.4 0 0 0 -2.58-1.07c-1.09 0-1.78.44-1.78 1.14s.94 1 2 1.26c1.51.34 3.31.76 3.31 2.75 0 1.5-1.22 2.67-3.51 2.67a4.94 4.94 0 0 1 -3.62-1.35z" fill="#0a0a0a"/><path d="m369 117.31a13.29 13.29 0 0 1 2.63-8l1 .74a15 15 0 0 0 0 14.42l-1 .76a13.27 13.27 0 0 1 -2.63-7.92z" fill="#0a0a0a"/><path d="m373.85 120.26c4.5-3.46 6.57-5.26 6.57-7.15a2.08 2.08 0 0 0 -2.34-2 4.13 4.13 0 0 0 -3.26 1.47l-1.06-1.17a5.5 5.5 0 0 1 4.3-1.91c2.17 0 4.2 1.23 4.2 3.62s-2.25 4.45-5.55 7h5.6v1.58h-8.46z" fill="#0a0a0a"/><path d="m389.08 109.49c3.33 0 4.7 3.23 4.7 6.2s-1.37 6.21-4.7 6.21-4.7-3.24-4.7-6.21 1.37-6.2 4.7-6.2zm0 1.61c-2.12 0-2.86 2.25-2.86 4.59s.74 4.61 2.86 4.61 2.86-2.27 2.86-4.61-.74-4.59-2.86-4.59z" fill="#0a0a0a"/><path d="m400.13 109.49c3.33 0 4.7 3.23 4.7 6.2s-1.37 6.21-4.7 6.21-4.7-3.24-4.7-6.21 1.37-6.2 4.7-6.2zm0 1.61c-2.12 0-2.86 2.25-2.86 4.59s.74 4.61 2.86 4.61 2.87-2.3 2.87-4.61-.74-4.59-2.87-4.59z" fill="#0a0a0a"/><path d="m409.27 115.49c-1.36-.41-2.57-1.31-2.57-2.86 0-2.18 2.18-3.14 4.27-3.14s4.25 1 4.25 3.14c0 1.55-1.23 2.45-2.6 2.86a3.53 3.53 0 0 1 2.78 3.13c0 2.09-2 3.28-4.43 3.28s-4.47-1.17-4.47-3.28a3.53 3.53 0 0 1 2.77-3.13zm1.7.81c-.76.09-2.65.7-2.65 2.11 0 1.17 1.21 1.89 2.65 1.89s2.63-.72 2.63-1.89c0-1.41-1.91-2.02-2.6-2.11zm0-5.2c-1.41 0-2.45.66-2.45 1.8s1.71 1.74 2.45 1.87c.74-.13 2.43-.59 2.43-1.87s-1.08-1.8-2.4-1.8z" fill="#0a0a0a"/><path d="m416.78 116.62h4.32v1.38h-4.32z" fill="#0a0a0a"/><path d="m422.58 120.26c4.5-3.46 6.57-5.26 6.57-7.15a2.08 2.08 0 0 0 -2.34-2 4.12 4.12 0 0 0 -3.26 1.47l-1.06-1.17a5.48 5.48 0 0 1 4.3-1.91c2.16 0 4.19 1.23 4.19 3.62s-2.25 4.45-5.54 7h5.56v1.58h-8.46z" fill="#0a0a0a"/><path d="m437.8 109.49c3.34 0 4.7 3.23 4.7 6.2s-1.36 6.21-4.7 6.21-4.7-3.24-4.7-6.21 1.37-6.2 4.7-6.2zm0 1.61c-2.12 0-2.86 2.25-2.86 4.59s.74 4.61 2.86 4.61 2.87-2.27 2.87-4.61-.74-4.59-2.87-4.59z" fill="#0a0a0a"/><path d="m446.66 112-1.94 2-1.07-1.1 3.23-3.3h1.58v12h-1.8z" fill="#0a0a0a"/><path d="m453.41 115.49c-1.37-.41-2.58-1.31-2.58-2.86 0-2.18 2.18-3.14 4.27-3.14s4.25 1 4.25 3.14c0 1.55-1.22 2.45-2.59 2.86a3.53 3.53 0 0 1 2.77 3.13c0 2.09-2 3.28-4.43 3.28s-4.46-1.17-4.46-3.28a3.52 3.52 0 0 1 2.77-3.13zm1.69.81c-.75.09-2.64.7-2.64 2.11 0 1.17 1.2 1.89 2.64 1.89s2.63-.72 2.63-1.89c0-1.41-1.91-2.02-2.63-2.11zm0-5.2c-1.4 0-2.45.66-2.45 1.8s1.71 1.74 2.45 1.87c.74-.13 2.43-.59 2.43-1.87s-1.08-1.8-2.43-1.8z" fill="#0a0a0a"/><path d="m460.68 110.09 1-.74a13.28 13.28 0 0 1 0 15.92l-1-.76a14.83 14.83 0 0 0 0-14.42z" fill="#0a0a0a"/><path d="m213.58 133.79h-5v-2.12h12.31v2.12h-4.89v13.89h-2.4z" fill="#0a0a0a"/><path d="m230.19 131.41c4.77 0 8.06 3.53 8.06 8.28s-3.25 8.31-8.06 8.31-8.07-3.53-8.07-8.28 3.29-8.31 8.07-8.31zm0 2.14c-3.44 0-5.6 2.61-5.6 6.14s2.16 6.14 5.6 6.14 5.59-2.63 5.59-6.14-2.21-6.14-5.59-6.14z" fill="#0a0a0a"/><path d="m244.44 133.79h-5v-2.12h12.32v2.12h-4.95v13.89h-2.4z" fill="#0a0a0a"/><path d="m262.83 144.37h-7.83l-1.3 3.31h-2.7l6.36-16h3l6.36 16h-2.64zm-7.16-2.13h6.46l-3.24-8.48z" fill="#0a0a0a"/><path d="m268.68 131.67h2.4v13.9h7.27v2.11h-9.67z" fill="#0a0a0a"/><path d="m288.91 142v1.27h-1.33v-1.27a5.18 5.18 0 0 1 -3.3-1.45l1.08-1.52a4 4 0 0 0 2.22 1.19v-2.19c-1.44-.35-3-.91-3-2.8 0-1.43 1.14-2.63 3-2.81v-1.31h1.33v1.33a4.88 4.88 0 0 1 2.84 1.25l-1.1 1.45a4 4 0 0 0 -1.74-.91v2c1.46.38 3.07.94 3.07 2.84.02 1.52-.98 2.73-3.07 2.93zm-1.2-6.09v-1.78c-.72.07-1.09.44-1.09.94s.44.68 1.09.85zm2.24 3.36c0-.52-.49-.76-1.17-.95v2c.8-.15 1.22-.58 1.22-1.04z" fill="#0a0a0a"/><path d="m293.58 145c6.55-4.83 8.47-6.49 8.47-8.45 0-1.4-1.27-2.09-2.61-2.09a5.72 5.72 0 0 0 -4.28 1.85l-1.94-2.26a8.15 8.15 0 0 1 6.17-2.62c3.41 0 6.12 1.92 6.12 5.12 0 2.73-2.26 5.11-6.55 8.13h6.67v3h-12.05z" fill="#0a0a0a"/><path d="m311.12 139.43c-1.77-.6-3.17-1.78-3.17-3.77 0-3 3.2-4.23 6.17-4.23s6.17 1.23 6.17 4.23c0 2-1.41 3.17-3.19 3.77 1.92.67 3.46 2.16 3.46 4.1 0 3-3.08 4.44-6.44 4.44s-6.43-1.44-6.43-4.44c0-1.94 1.51-3.43 3.43-4.1zm3 1.51c-1 .12-3 .79-3 2.18 0 1.18 1.29 1.92 3 1.92s3-.74 3-1.92c-.02-1.39-2.01-2.06-3-2.18zm0-6.58c-1.58 0-2.71.7-2.71 1.83s1.73 1.8 2.71 1.94c1-.14 2.69-.7 2.69-1.94s-1.13-1.83-2.69-1.83z" fill="#0a0a0a"/><path d="m322.52 145c6.55-4.83 8.47-6.49 8.47-8.45 0-1.4-1.27-2.09-2.61-2.09a5.7 5.7 0 0 0 -4.27 1.85l-1.95-2.26a8.17 8.17 0 0 1 6.17-2.62c3.41 0 6.12 1.92 6.12 5.12 0 2.73-2.26 5.11-6.55 8.13h6.67v3h-12.05z" fill="#0a0a0a"/><path d="m337.16 149.89a4 4 0 0 0 1.85-2.23 2 2 0 0 1 -.46.07 1.65 1.65 0 0 1 -1.63-1.75 1.92 1.92 0 0 1 1.87-1.92 2.23 2.23 0 0 1 2.16 2.45 5.56 5.56 0 0 1 -2.47 4.46z" fill="#0a0a0a"/><path d="m343.06 145c6.56-4.83 8.48-6.49 8.48-8.45 0-1.4-1.27-2.09-2.62-2.09a5.7 5.7 0 0 0 -4.27 1.85l-1.95-2.26a8.18 8.18 0 0 1 6.17-2.62c3.41 0 6.12 1.92 6.12 5.12 0 2.73-2.25 5.11-6.55 8.13h6.67v3h-12.05z" fill="#0a0a0a"/><path d="m361.19 136.07-2.65 2.71-1.94-2 5-5.07h3v16h-3.43z" fill="#0a0a0a"/><path d="m373.64 131.43c4.56 0 6.63 4.13 6.63 8.26s-2.07 8.31-6.63 8.31-6.62-4.15-6.62-8.28 2.04-8.29 6.62-8.29zm0 3c-2.3 0-3.17 2.28-3.17 5.23s.87 5.26 3.17 5.26 3.15-2.31 3.15-5.26-.87-5.2-3.15-5.2z" fill="#0a0a0a"/><path d="m381.94 149.89a4 4 0 0 0 1.85-2.23 1.93 1.93 0 0 1 -.45.07 1.66 1.66 0 0 1 -1.64-1.73 1.92 1.92 0 0 1 1.88-1.92 2.24 2.24 0 0 1 2.16 2.45 5.59 5.59 0 0 1 -2.47 4.46z" fill="#0a0a0a"/><path d="m394.16 131.43c4.56 0 6.63 4.13 6.63 8.26s-2.07 8.28-6.63 8.28-6.62-4.15-6.62-8.28 2.04-8.26 6.62-8.26zm0 3c-2.3 0-3.17 2.28-3.17 5.23s.87 5.26 3.17 5.26 3.15-2.31 3.15-5.26-.87-5.2-3.15-5.2z" fill="#0a0a0a"/><path d="m406.45 136.07-2.64 2.71-1.95-2 5-5.07h3v16h-3.43z" fill="#0a0a0a"/><path d="m419.72 144.37h-7.66v-2.69l6.37-10h4.7v9.7h2.06v3h-2.06v3.31h-3.41zm-4.32-3h4.32v-6.67z" fill="#0a0a0a"/><path d="m432.39 145.25a8 8 0 0 1 1.34-4.41l.3.22a8.89 8.89 0 0 0 0 8.38l-.3.23a8 8 0 0 1 -1.34-4.42z" fill="#4c4c4c"/><path d="m435 141h.58v4.1a2 2 0 1 0 4 0v-4.1h.58v4.1a2.6 2.6 0 1 1 -5.2 0z" fill="#4c4c4c"/><path d="m441.9 146.31a2.7 2.7 0 0 0 2.07 1c1.37 0 1.76-.76 1.76-1.33 0-.94-.9-1.2-1.83-1.45s-2.16-.58-2.16-1.81a1.94 1.94 0 0 1 2.18-1.78 2.88 2.88 0 0 1 2.26.94l-.38.42a2.39 2.39 0 0 0 -1.91-.84c-.89 0-1.55.51-1.55 1.23s.82 1 1.73 1.27c1.07.3 2.26.64 2.26 2 0 .85-.57 1.88-2.37 1.88a3 3 0 0 1 -2.43-1.06z" fill="#4c4c4c"/><path d="m447.7 141h2.13a3.33 3.33 0 1 1 0 6.66h-2.13zm2.13 6.14a2.81 2.81 0 0 0 0-5.62h-1.56v5.62z" fill="#4c4c4c"/><path d="m454 141.06.3-.22a7.94 7.94 0 0 1 0 8.83l-.3-.23a8.89 8.89 0 0 0 0-8.38z" fill="#4c4c4c"/></svg>