<svg xmlns="http://www.w3.org/2000/svg" xmlns:xlink="http://www.w3.org/1999/xlink" viewBox="0 0 495 620"><defs><style>
	.cls-101{fill:#f1f1f1;}.cls-2{fill:url(#radial-gradient);}.cls-3{opacity:0.2;}.cls-010101,.cls-28,.cls-4,.cls-707,.cls-8{fill:none;}.cls-010101,.cls-28,.cls-4{stroke:#fff;}.cls-010101,.cls-10111,.cls-10122,.cls-10133,.cls-10144,.cls-10155,.cls-10166,.cls-10177,.cls-10188,.cls-10199,.cls-200,.cls-211,.cls-222,.cls-233,.cls-244,.cls-255,.cls-266,.cls-28,.cls-4,.cls-707,.cls-8{stroke-miterlimit:10;}.cls-4{stroke-width:24px;}.cls-222,.cls-505{fill:#0265b5;}.cls-10111,.cls-606s{fill:#858585;}.cls-707,.cls-8{stroke:#0265b5;}.cls-8{stroke-width:2px;}.cls-9{opacity:0.35;}.cls-010101{stroke-width:10px;}.cls-10111,.cls-10122,.cls-10133,.cls-10144,.cls-10155,.cls-10166,.cls-10177,.cls-10188,.cls-10199,.cls-200,.cls-211,.cls-222,.cls-233,.cls-244,.cls-255,.cls-266{stroke:#f1f1f1;stroke-width:0.5px;}.cls-10122{fill:#fd9d24;}.cls-10133{fill:#cc6a00;}.cls-10144{fill:#82061b;}.cls-10155{fill:#8e6016;}.cls-10166{fill:#bf8b2e;}.cls-10177{fill:#f4c74a;}.cls-10188{fill:#9ab272;}.cls-10199{fill:#729643;}.cls-200{fill:#56683a;}.cls-211{fill:#02355f;}.cls-233{fill:#157fc0;}.cls-244{fill:#7b599b;}.cls-255{fill:#66338e;}.cls-266{fill:#371e54;}.cls-27{fill:#4c4c4c;}.cls-28{stroke-width:0.75px;stroke:#a5a5a5;}.cls-29{fill:#a5a5a5;}.cls-30{fill:#0a0a0a;}</style><radialGradient id="radial-gradient" cx="320.41" cy="220.27" r="166.51" gradientUnits="userSpaceOnUse"><stop offset="0" stop-color="#fff" stop-opacity="0.2"/><stop offset="0.23" stop-color="#fbfafa" stop-opacity="0.47"/><stop offset="0.44" stop-color="#f7f6f6" stop-opacity="0.7"/><stop offset="0.62" stop-color="#f4f3f3" stop-opacity="0.86"/><stop offset="0.77" stop-color="#f3f2f2" stop-opacity="0.96"/><stop offset="0.86" stop-color="#f2f1f1"/></radialGradient></defs><title>Finance-cumulative-resources</title><g id="Layer_2" data-name="Layer 2"><rect class="cls-101" width="495" height="620"/></g><g id="Layer_1" data-name="Layer 1"><circle class="cls-2" cx="320.41" cy="220.27" r="166.51"/><g class="cls-3"><polygon class="cls-4" points="198.89 588 272.01 588 272.01 588 198.89 588 198.89 588"/><polygon class="cls-4" points="198.89 588 272.01 588 272 587.99 198.89 587.99 198.89 588"/><polygon class="cls-4" points="198.89 587.99 272 587.99 272 587.95 198.88 587.95 198.89 587.99"/><polygon class="cls-4" points="198.88 587.95 272 587.95 271.87 587.5 198.75 587.5 198.88 587.95"/><polygon class="cls-4" points="198.75 587.5 271.87 587.5 271.67 586.77 198.56 586.77 198.75 587.5"/><polygon class="cls-4" points="198.56 586.77 271.67 586.77 271.41 585.84 198.3 585.84 198.56 586.77"/><polygon class="cls-4" points="198.3 585.84 271.41 585.84 271.14 584.84 198.03 584.84 198.3 585.84"/><polygon class="cls-4" points="198.03 584.84 271.14 584.84 270.86 583.82 197.74 583.82 198.03 584.84"/><polygon class="cls-4" points="197.74 583.82 270.86 583.82 269.61 579.29 196.5 579.29 197.74 583.82"/><polygon class="cls-4" points="196.5 579.29 269.61 579.29 268.33 574.62 195.22 574.62 196.5 579.29"/><polygon class="cls-4" points="195.22 574.62 268.33 574.62 266.47 567.84 193.35 567.84 195.22 574.62"/><polygon class="cls-4" points="193.35 567.84 266.47 567.84 264.58 560.96 191.46 560.96 193.35 567.84"/><polygon class="cls-4" points="191.46 560.96 264.58 560.96 262.69 554.06 189.57 554.06 191.46 560.96"/><polygon class="cls-4" points="189.57 554.06 262.69 554.06 260.44 545.87 187.32 545.87 189.57 554.06"/><polygon class="cls-4" points="187.32 545.87 260.44 545.87 257.77 536.18 184.66 536.18 187.32 545.87"/><polygon class="cls-4" points="184.66 536.18 257.77 536.18 253.52 520.68 180.4 520.68 184.66 536.18"/><polygon class="cls-4" points="180.4 520.68 253.52 520.68 248.98 504.18 175.87 504.18 180.4 520.68"/><polygon class="cls-4" points="175.87 504.18 248.98 504.18 244.42 487.58 171.31 487.58 175.87 504.18"/><polygon class="cls-4" points="171.31 487.58 244.42 487.58 238.53 466.13 165.41 466.13 171.31 487.58"/><polygon class="cls-4" points="165.41 466.13 238.53 466.13 232.61 444.58 159.5 444.58 165.41 466.13"/><polygon class="cls-4" points="159.5 444.58 232.61 444.58 214.38 378.19 141.26 378.19 159.5 444.58"/><polygon class="cls-4" points="141.26 378.19 214.38 378.19 173.91 230.88 100.8 230.88 141.26 378.19"/><polygon class="cls-4" points="100.8 230.88 173.91 230.88 129.08 67.67 55.96 67.67 100.8 230.88"/></g><path class="cls-505" d="M3.8,5H9V20.49h8V25H3.8Z"/><path class="cls-505" d="M19.22,6a2.64,2.64,0,1,1,2.64,2.64A2.62,2.62,0,0,1,19.22,6Zm.33,4.47h4.62V25H19.55Z"/><path class="cls-505" d="M28.52,14.52h-2.4v-4h2.4V9.78a4.91,4.91,0,0,1,5.19-5.1,6.62,6.62,0,0,1,3.06.66l-.84,3.15a2.38,2.38,0,0,0-1.2-.3A1.52,1.52,0,0,0,33.14,9.9v.6h2.94v4H33.14V25H28.52Z"/><path class="cls-505" d="M44.75,10.14c4.29,0,7.41,3.15,7.41,8.07v1H41.84a3.46,3.46,0,0,0,3.69,2.58,5.74,5.74,0,0,0,3.54-1.23l2,2.88A9.45,9.45,0,0,1,45,25.35c-4.47,0-7.92-2.91-7.92-7.62A7.48,7.48,0,0,1,44.75,10.14Zm-3,6.06h6a2.78,2.78,0,0,0-3-2.49A2.86,2.86,0,0,0,41.78,16.2Z"/><path class="cls-505" d="M55.4,21.09V14.52H53v-4h2.4v-4H60v4h2.94v4H60V19.8a1.31,1.31,0,0,0,1.29,1.47,1.8,1.8,0,0,0,1.17-.36l.9,3.48a5,5,0,0,1-3.42,1C57,25.35,55.4,23.88,55.4,21.09Z"/><path class="cls-505" d="M64.91,6a2.64,2.64,0,1,1,2.64,2.64A2.62,2.62,0,0,1,64.91,6Zm.33,4.47h4.62V25H65.24Z"/><path class="cls-505" d="M91.49,16.17a1.74,1.74,0,0,0-1.92-2A3.35,3.35,0,0,0,87,15.63V25H82.34V16.17a1.73,1.73,0,0,0-1.92-2,3.39,3.39,0,0,0-2.58,1.41V25H73.22V10.5h4.62v1.77a6.43,6.43,0,0,1,4.77-2.13c2.07,0,3.51.87,4.11,2.58a6.24,6.24,0,0,1,5-2.58c2.67,0,4.35,1.38,4.35,4.35V25H91.49Z"/><path class="cls-505" d="M106.22,10.14c4.29,0,7.41,3.15,7.41,8.07v1H103.31A3.46,3.46,0,0,0,107,21.78a5.74,5.74,0,0,0,3.54-1.23l1.95,2.88a9.45,9.45,0,0,1-6.06,1.92c-4.47,0-7.92-2.91-7.92-7.62A7.48,7.48,0,0,1,106.22,10.14Zm-3,6.06h6a2.78,2.78,0,0,0-3-2.49A2.86,2.86,0,0,0,103.25,16.2Z"/><path class="cls-505" d="M122.69,15c0-6.18,4.68-10.35,10.68-10.35A9.31,9.31,0,0,1,142.25,10l-4.44,2.1a4.85,4.85,0,0,0-4.44-2.91A5.5,5.5,0,0,0,127.94,15a5.5,5.5,0,0,0,5.43,5.79,4.85,4.85,0,0,0,4.44-2.91l4.44,2.1a9.36,9.36,0,0,1-8.88,5.37C127.37,25.35,122.69,21.15,122.69,15Z"/><path class="cls-505" d="M143.39,17.73a7.47,7.47,0,0,1,7.89-7.59c5,0,7.92,3.51,7.92,7.59a7.91,7.91,0,0,1-15.81,0Zm11.07,0c0-1.92-1.14-3.51-3.18-3.51s-3.12,1.59-3.12,3.51,1.11,3.54,3.12,3.54S154.46,19.68,154.46,17.73Z"/><path class="cls-505" d="M171.44,16.62a2.09,2.09,0,0,0-2.37-2.4,3.58,3.58,0,0,0-2.82,1.41V25h-4.62V10.5h4.62v1.77a6.55,6.55,0,0,1,5-2.13c3.3,0,4.8,1.92,4.8,4.59V25h-4.62Z"/><path class="cls-505" d="M180.38,21.09V14.52H178v-4h2.4v-4H185v4h2.94v4H185V19.8a1.31,1.31,0,0,0,1.29,1.47,1.8,1.8,0,0,0,1.17-.36l.9,3.48a5,5,0,0,1-3.42,1C182,25.35,180.38,23.88,180.38,21.09Z"/><path class="cls-505" d="M190.22,10.5h4.62v1.83a6.32,6.32,0,0,1,4.53-2.19v4.47a3.74,3.74,0,0,0-1.14-.15,4.61,4.61,0,0,0-3.39,1.35V25h-4.62Z"/><path class="cls-505" d="M201.14,6a2.64,2.64,0,1,1,2.64,2.64A2.62,2.62,0,0,1,201.14,6Zm.33,4.47h4.62V25h-4.62Z"/><path class="cls-505" d="M209.45,5h4.62v7.23a5.34,5.34,0,0,1,4.29-2.07c3.6,0,6.39,2.85,6.39,7.59,0,4.92-2.82,7.62-6.39,7.62a5.53,5.53,0,0,1-4.29-2V25h-4.62Zm7.38,16.29A3.22,3.22,0,0,0,220,17.73a3.21,3.21,0,0,0-3.21-3.51,3.69,3.69,0,0,0-2.76,1.32V20A3.66,3.66,0,0,0,216.83,21.27Z"/><path class="cls-505" d="M237,23.25a6.59,6.59,0,0,1-5,2.1c-3.3,0-4.77-1.86-4.77-4.53V10.5h4.62v8.43c0,1.74.9,2.34,2.4,2.34A3.46,3.46,0,0,0,237,19.86V10.5h4.61V25H237Z"/><path class="cls-505" d="M245.9,21.09V14.52h-2.4v-4h2.4v-4h4.59v4h2.94v4h-2.94V19.8a1.31,1.31,0,0,0,1.29,1.47,1.8,1.8,0,0,0,1.17-.36l.9,3.48a5,5,0,0,1-3.42,1C247.49,25.35,245.9,23.88,245.9,21.09Z"/><path class="cls-505" d="M255.41,6A2.64,2.64,0,1,1,258,8.67,2.62,2.62,0,0,1,255.41,6Zm.32,4.47h4.62V25h-4.62Z"/><path class="cls-505" d="M262.75,17.73a7.47,7.47,0,0,1,7.89-7.59c5,0,7.92,3.51,7.92,7.59a7.91,7.91,0,0,1-15.81,0Zm11.07,0c0-1.92-1.14-3.51-3.18-3.51s-3.12,1.59-3.12,3.51,1.11,3.54,3.12,3.54S273.82,19.68,273.82,17.73Z"/><path class="cls-505" d="M290.8,16.62a2.09,2.09,0,0,0-2.37-2.4,3.58,3.58,0,0,0-2.82,1.41V25H281V10.5h4.62v1.77a6.55,6.55,0,0,1,5-2.13c3.3,0,4.8,1.92,4.8,4.59V25H290.8Z"/><path class="cls-505" d="M299.47,20a9,9,0,0,0,5.1,1.92c1.38,0,1.95-.45,1.95-1.08s-1-1-2.49-1.26c-2.46-.42-5.94-.93-5.94-4.62,0-2.55,2.19-4.77,6.21-4.77a10.2,10.2,0,0,1,6.06,1.92l-1.77,3.06a6.48,6.48,0,0,0-4.26-1.59c-1.08,0-1.83.36-1.83,1s.78.9,2.31,1.17c2.46.42,6.12,1,6.12,4.86,0,2.76-2.43,4.8-6.6,4.8a10.8,10.8,0,0,1-6.78-2.22Z"/><path class="cls-606s" d="M32.63,46.05h-5.5l-.91,4.12h-.74l1.91-8.67h.74l-.85,3.87h5.49l.86-3.87h.74l-1.9,8.67h-.75Z"/><path class="cls-606s" d="M38.2,43.74A2.59,2.59,0,0,1,41,46.49a3.68,3.68,0,0,1-3.45,3.84,2.59,2.59,0,0,1-2.77-2.76A3.68,3.68,0,0,1,38.2,43.74Zm0,.61a3,3,0,0,0-2.7,3.19,2,2,0,0,0,2,2.18,3,3,0,0,0,2.7-3.2A2,2,0,0,0,38.2,44.35Z"/><path class="cls-606s" d="M42.31,43.89H43l1.05,5.49,3.5-5.49h.79l-4,6.28h-.77Z"/><path class="cls-606s" d="M51.8,43.74a2.55,2.55,0,0,1,2.67,2.71,3.85,3.85,0,0,1-.11.8h-5.3a1.94,1.94,0,0,0,0,.36,2.08,2.08,0,0,0,2.3,2.13,3.06,3.06,0,0,0,1.9-.67l.26.49a3.71,3.71,0,0,1-2.18.77,2.69,2.69,0,0,1-3-2.77A3.65,3.65,0,0,1,51.8,43.74Zm2,2.69a2,2,0,0,0-2.1-2.11,2.83,2.83,0,0,0-2.6,2.39H53.8A1.27,1.27,0,0,0,53.82,46.43Z"/><path class="cls-606s" d="M56.77,43.89h.67l-.23,1a2.79,2.79,0,0,1,2.38-1.15l-.16.73a3.18,3.18,0,0,0-.45,0,2.56,2.56,0,0,0-1.92,1.16l-1,4.56h-.67Z"/><path class="cls-606s" d="M66.41,43.74a2.59,2.59,0,0,1,2.78,2.75,3.69,3.69,0,0,1-3.46,3.84A2.58,2.58,0,0,1,63,47.57,3.68,3.68,0,0,1,66.41,43.74Zm0,.61a3,3,0,0,0-2.7,3.19,2,2,0,0,0,2,2.18,3,3,0,0,0,2.7-3.2A2,2,0,0,0,66.41,44.35Z"/><path class="cls-606s" d="M70.52,43.89h.73l1,5.49,3.5-5.49h.79l-4,6.28h-.77Z"/><path class="cls-606s" d="M80,43.74a2.54,2.54,0,0,1,2.66,2.71,3.94,3.94,0,0,1-.1.8h-5.3a1.94,1.94,0,0,0,0,.36,2.08,2.08,0,0,0,2.3,2.13,3.06,3.06,0,0,0,1.9-.67l.26.49a3.74,3.74,0,0,1-2.19.77,2.69,2.69,0,0,1-3-2.77A3.66,3.66,0,0,1,80,43.74Zm2,2.69a2,2,0,0,0-2.09-2.11,2.83,2.83,0,0,0-2.6,2.39H82A2.53,2.53,0,0,0,82,46.43Z"/><path class="cls-606s" d="M85,43.89h.68l-.23,1a2.79,2.79,0,0,1,2.38-1.15l-.16.73a3.21,3.21,0,0,0-.46,0,2.56,2.56,0,0,0-1.91,1.16l-1,4.56h-.68Z"/><path class="cls-606s" d="M94.67,43.74a2.55,2.55,0,0,1,2.67,2.71,3.85,3.85,0,0,1-.11.8h-5.3a3.48,3.48,0,0,0,0,.36,2.08,2.08,0,0,0,2.3,2.13,3,3,0,0,0,1.9-.67l.26.49a3.71,3.71,0,0,1-2.18.77,2.69,2.69,0,0,1-3-2.77A3.65,3.65,0,0,1,94.67,43.74Zm2,2.69a2,2,0,0,0-2.1-2.11A2.83,2.83,0,0,0,92,46.71h4.68A1.27,1.27,0,0,0,96.69,46.43Z"/><path class="cls-606s" d="M104.27,43.89H105l-1.39,6.28h-.69l.21-1a2.69,2.69,0,0,1-2.14,1.11,2.35,2.35,0,0,1-2.46-2.58c0-2.1,1.31-4,3.3-4A2.55,2.55,0,0,1,104,45Zm-3.15,5.83a2.69,2.69,0,0,0,2.13-1.21l.66-3a2.27,2.27,0,0,0-2.08-1.14c-1.57,0-2.61,1.62-2.61,3.29A1.87,1.87,0,0,0,101.12,49.72Z"/><path class="cls-606s" d="M109.32,43.74a2.41,2.41,0,0,1,2.26,1.14l-.52.39a1.91,1.91,0,0,0-1.7-.92,3,3,0,0,0-2.79,3.21,2,2,0,0,0,2.14,2.16,2.21,2.21,0,0,0,1.7-.81l.39.47a2.8,2.8,0,0,1-2.15.95,2.61,2.61,0,0,1-2.8-2.79A3.65,3.65,0,0,1,109.32,43.74Z"/><path class="cls-606s" d="M117.14,45.91a4,4,0,0,0,.07-.46c0-.78-.59-1.1-1.4-1.1a3.27,3.27,0,0,0-2.13,1.1l-1,4.72H112l1.91-8.67h.68l-.73,3.34a3.44,3.44,0,0,1,2.26-1.1c1.07,0,1.84.5,1.84,1.53a2.73,2.73,0,0,1-.08.53l-1,4.37h-.68Z"/><path class="cls-606s" d="M122.44,48.78a2.47,2.47,0,0,0,2.07,1c1,0,1.66-.62,1.66-1.29s-.73-.93-1.51-1.24-1.84-.75-1.84-1.68.83-1.8,2.28-1.8a2.77,2.77,0,0,1,2.29,1l-.43.43a2.3,2.3,0,0,0-1.91-.88c-1,0-1.55.49-1.55,1.13s.69.86,1.45,1.16,1.91.75,1.91,1.75a2.13,2.13,0,0,1-2.37,2A2.92,2.92,0,0,1,122,49.22Z"/><path class="cls-606s" d="M131.85,43.74a2.55,2.55,0,0,1,2.67,2.71,3.85,3.85,0,0,1-.11.8h-5.3a1.94,1.94,0,0,0,0,.36,2.08,2.08,0,0,0,2.3,2.13,3.06,3.06,0,0,0,1.9-.67l.26.49a3.71,3.71,0,0,1-2.18.77,2.69,2.69,0,0,1-3-2.77A3.65,3.65,0,0,1,131.85,43.74Zm2,2.69a2,2,0,0,0-2.1-2.11,2.83,2.83,0,0,0-2.6,2.39h4.68A1.27,1.27,0,0,0,133.87,46.43Z"/><path class="cls-606s" d="M139.14,43.74a2.42,2.42,0,0,1,2.27,1.14l-.52.39a1.93,1.93,0,0,0-1.71-.92,3,3,0,0,0-2.79,3.21,2,2,0,0,0,2.14,2.16,2.24,2.24,0,0,0,1.71-.81l.39.47a2.84,2.84,0,0,1-2.16.95,2.62,2.62,0,0,1-2.8-2.79A3.65,3.65,0,0,1,139.14,43.74Z"/><path class="cls-606s" d="M142.17,48.94l1-4.45h-1l.13-.6h1l.38-1.71h.69L144,43.89h1.28l-.15.6h-1.27l-1,4.35a1,1,0,0,0,0,.28.56.56,0,0,0,.64.6,1.14,1.14,0,0,0,.66-.24l.13.55a1.43,1.43,0,0,1-.9.3c-.78,0-1.24-.33-1.24-1.06A2.33,2.33,0,0,1,142.17,48.94Z"/><path class="cls-606s" d="M146.68,43.89h.68L146,50.17h-.68Zm.73-2.1a.46.46,0,0,1,.48.45.6.6,0,0,1-.58.59.46.46,0,0,1-.48-.46A.59.59,0,0,1,147.41,41.79Z"/><path class="cls-606s" d="M151.69,43.74a2.59,2.59,0,0,1,2.78,2.75A3.69,3.69,0,0,1,151,50.33a2.59,2.59,0,0,1-2.77-2.76A3.68,3.68,0,0,1,151.69,43.74Zm0,.61A3,3,0,0,0,149,47.54a2,2,0,0,0,2,2.18,3,3,0,0,0,2.71-3.2A2,2,0,0,0,151.69,44.35Z"/><path class="cls-606s" d="M160.54,45.92a2.19,2.19,0,0,0,.08-.47c0-.78-.6-1.1-1.37-1.1a3.28,3.28,0,0,0-2.17,1.09l-1,4.73h-.67l1.39-6.28h.67l-.2,1a3.39,3.39,0,0,1,2.26-1.1c1.06,0,1.83.5,1.83,1.53a2.62,2.62,0,0,1-.08.53l-1,4.37h-.68Z"/><path class="cls-606s" d="M167.1,44.49h-1l.13-.6h1l.12-.57c.27-1.24.9-2,2-2a1.63,1.63,0,0,1,1,.27l-.29.5a1.09,1.09,0,0,0-.69-.19c-.71,0-1.07.5-1.27,1.37l-.13.57h1.28l-.13.6h-1.28l-1.26,5.68h-.68Z"/><path class="cls-606s" d="M172.68,43.74a2.59,2.59,0,0,1,2.78,2.75A3.68,3.68,0,0,1,172,50.33a2.59,2.59,0,0,1-2.77-2.76A3.68,3.68,0,0,1,172.68,43.74Zm0,.61a3,3,0,0,0-2.7,3.19,2,2,0,0,0,2,2.18,3,3,0,0,0,2.7-3.2A2,2,0,0,0,172.68,44.35Z"/><path class="cls-606s" d="M177.75,43.89h.68l-.24,1a2.8,2.8,0,0,1,2.38-1.15l-.15.73a3.21,3.21,0,0,0-.46,0,2.52,2.52,0,0,0-1.91,1.16l-1,4.56h-.68Z"/><path class="cls-606s" d="M190.27,41.5H191L189,50.17h-.69l.2-1a2.69,2.69,0,0,1-2.14,1.11A2.36,2.36,0,0,1,184,47.75c0-2.1,1.32-4,3.3-4A2.58,2.58,0,0,1,189.52,45Zm-3.68,8.22a2.67,2.67,0,0,0,2.13-1.21l.67-3a2.29,2.29,0,0,0-2.08-1.14c-1.58,0-2.62,1.62-2.62,3.29A1.87,1.87,0,0,0,186.59,49.72Z"/><path class="cls-606s" d="M194.81,43.74a2.55,2.55,0,0,1,2.66,2.71,3.94,3.94,0,0,1-.1.8h-5.31c0,.07,0,.26,0,.36a2.08,2.08,0,0,0,2.3,2.13,3.06,3.06,0,0,0,1.9-.67l.26.49a3.74,3.74,0,0,1-2.19.77,2.69,2.69,0,0,1-3-2.77A3.66,3.66,0,0,1,194.81,43.74Zm2,2.69a2,2,0,0,0-2.09-2.11,2.83,2.83,0,0,0-2.6,2.39h4.68A2.53,2.53,0,0,0,196.82,46.43Z"/><path class="cls-606s" d="M198.77,48.94l1-4.45h-1l.13-.6h1l.38-1.71H201l-.38,1.71h1.28l-.15.6h-1.27l-1,4.35a1,1,0,0,0,0,.28.56.56,0,0,0,.64.6,1.2,1.2,0,0,0,.66-.24l.13.55a1.43,1.43,0,0,1-.9.3c-.78,0-1.24-.33-1.24-1.06A2.33,2.33,0,0,1,198.77,48.94Z"/><path class="cls-606s" d="M207.91,43.89h.69l-1.39,6.28h-.69l.21-1a2.71,2.71,0,0,1-2.15,1.11,2.36,2.36,0,0,1-2.46-2.58c0-2.1,1.32-4,3.31-4A2.57,2.57,0,0,1,207.69,45Zm-3.15,5.83a2.69,2.69,0,0,0,2.14-1.21l.66-3a2.28,2.28,0,0,0-2.08-1.14c-1.57,0-2.61,1.62-2.61,3.29A1.86,1.86,0,0,0,204.76,49.72Z"/><path class="cls-606s" d="M210.64,43.89h.68l-1.4,6.28h-.67Zm.73-2.1a.46.46,0,0,1,.48.45.61.61,0,0,1-.59.59.47.47,0,0,1-.48-.46A.6.6,0,0,1,211.37,41.79Z"/><path class="cls-606s" d="M213.88,41.5h.67l-1.91,8.67H212Z"/><path class="cls-606s" d="M214.9,48.78a2.5,2.5,0,0,0,2.07,1c1,0,1.66-.62,1.66-1.29s-.72-.93-1.5-1.24-1.85-.75-1.85-1.68.83-1.8,2.29-1.8a2.79,2.79,0,0,1,2.29,1l-.43.43a2.32,2.32,0,0,0-1.91-.88c-1,0-1.55.49-1.55,1.13s.69.86,1.44,1.16c.91.36,1.91.75,1.91,1.75a2.12,2.12,0,0,1-2.36,2,2.92,2.92,0,0,1-2.52-1.11Z"/><path class="cls-606s" d="M221.1,49.16a.52.52,0,0,1,.52.53.61.61,0,0,1-.62.61.51.51,0,0,1-.52-.53A.61.61,0,0,1,221.1,49.16Z"/><circle class="cls-707" cx="9.8" cy="45.2" r="8.8"/><line class="cls-8" x1="9.06" y1="44.45" x2="14.63" y2="50.02"/><polygon class="cls-505" points="8.42 49.06 9.93 45.33 13.66 43.82 4.83 40.23 8.42 49.06"/><g class="cls-9"><polygon class="cls-010101" points="198.89 588 272.01 588 272.01 588 198.89 588 198.89 588"/><polygon class="cls-010101" points="198.89 588 272.01 588 272 587.99 198.89 587.99 198.89 588"/><polygon class="cls-010101" points="198.89 587.99 272 587.99 272 587.95 198.88 587.95 198.89 587.99"/><polygon class="cls-010101" points="198.88 587.95 272 587.95 271.87 587.5 198.75 587.5 198.88 587.95"/><polygon class="cls-010101" points="198.75 587.5 271.87 587.5 271.67 586.77 198.56 586.77 198.75 587.5"/><polygon class="cls-010101" points="198.56 586.77 271.67 586.77 271.41 585.84 198.3 585.84 198.56 586.77"/><polygon class="cls-010101" points="198.3 585.84 271.41 585.84 271.14 584.84 198.03 584.84 198.3 585.84"/><polygon class="cls-010101" points="198.03 584.84 271.14 584.84 270.86 583.82 197.74 583.82 198.03 584.84"/><polygon class="cls-010101" points="197.74 583.82 270.86 583.82 269.61 579.29 196.5 579.29 197.74 583.82"/><polygon class="cls-010101" points="196.5 579.29 269.61 579.29 268.33 574.62 195.22 574.62 196.5 579.29"/><polygon class="cls-010101" points="195.22 574.62 268.33 574.62 266.47 567.84 193.35 567.84 195.22 574.62"/><polygon class="cls-010101" points="193.35 567.84 266.47 567.84 264.58 560.96 191.46 560.96 193.35 567.84"/><polygon class="cls-010101" points="191.46 560.96 264.58 560.96 262.69 554.06 189.57 554.06 191.46 560.96"/><polygon class="cls-010101" points="189.57 554.06 262.69 554.06 260.44 545.87 187.32 545.87 189.57 554.06"/><polygon class="cls-010101" points="187.32 545.87 260.44 545.87 257.77 536.18 184.66 536.18 187.32 545.87"/><polygon class="cls-010101" points="184.66 536.18 257.77 536.18 253.52 520.68 180.4 520.68 184.66 536.18"/><polygon class="cls-010101" points="180.4 520.68 253.52 520.68 248.98 504.18 175.87 504.18 180.4 520.68"/><polygon class="cls-010101" points="175.87 504.18 248.98 504.18 244.42 487.58 171.31 487.58 175.87 504.18"/><polygon class="cls-010101" points="171.31 487.58 244.42 487.58 238.53 466.13 165.41 466.13 171.31 487.58"/><polygon class="cls-010101" points="165.41 466.13 238.53 466.13 232.61 444.58 159.5 444.58 165.41 466.13"/><polygon class="cls-010101" points="159.5 444.58 232.61 444.58 214.38 378.19 141.26 378.19 159.5 444.58"/><polygon class="cls-010101" points="141.26 378.19 214.38 378.19 173.91 230.88 100.8 230.88 141.26 378.19"/><polygon class="cls-010101" points="100.8 230.88 173.91 230.88 129.08 67.67 55.96 67.67 100.8 230.88"/></g>
<polygon class="cls-10111" id="PrivateALL" points="215.89 585 289.01 585 289.01 585 215.89 585 215.89 585"/>
<polygon class="cls-10111" id="PrivateALL" points="215.89 585 289.01 585 289 584.99 215.89 584.99 215.89 585"/>
<polygon class="cls-10111" id="PrivateALL" points="215.89 584.99 289 584.99 289 584.95 215.88 584.95 215.89 584.99"/>
<polygon class="cls-10111" id="PrivateALL" points="215.88 584.95 289 584.95 288.87 584.5 215.75 584.5 215.88 584.95"/>
<polygon class="cls-10111" id="PrivateALL" points="215.75 584.5 288.87 584.5 288.67 583.77 215.56 583.77 215.75 584.5"/>
<polygon class="cls-10111" id="PrivateALL" points="215.56 583.77 288.67 583.77 288.41 582.84 215.3 582.84 215.56 583.77"/>
<polygon class="cls-10111" id="PrivateALL" points="215.3 582.84 288.41 582.84 288.14 581.84 215.03 581.84 215.3 582.84"/>

<polygon class="cls-10111" id="PrivateALL1" points="215.03 581.84 288.14 581.84 287.86 580.82 214.74 580.82 215.03 581.84"/>

<polygon class="cls-10122" id="United-Kindom1" points="214.74 580.82 287.86 580.82 286.61 576.29 213.5 576.29 214.74 580.82"/>

<polygon class="cls-10133" id="Belgium1" points="213.5 576.29 286.61 576.29 285.33 571.62 212.22 571.62 213.5 576.29"/>

<polygon class="cls-10144" id="Norway1" points="212.22 571.62 285.33 571.62 283.47 564.84 210.35 564.84 212.22 571.62"/>

<polygon class="cls-10155" id="UNACTIONMPTF1" points="210.35 564.84 283.47 564.84 281.58 557.96 208.46 557.96 210.35 564.84"/>

<polygon class="cls-10166" id="Denmark1" points="208.46 557.96 281.58 557.96 279.69 551.06 206.57 551.06 208.46 557.96"/>

<polygon class="cls-10177" id="Australia1" points="206.57 551.06 279.69 551.06 277.44 542.87 204.32 542.87 206.57 551.06"/>

<polygon class="cls-10188" id="Switzerland1" points="204.32 542.87 277.44 542.87 274.77 533.18 201.66 533.18 204.32 542.87"/>

<polygon class="cls-10199" id="Germany1" points="201.66 533.18 274.77 533.18 270.52 517.68 197.4 517.68 201.66 533.18"/>

<polygon class="cls-200" id="Canada1" points="197.4 517.68 270.52 517.68 265.98 501.18 192.87 501.18 197.4 517.68"/>

<polygon class="cls-211" id="Japan1" points="192.87 501.18 265.98 501.18 261.42 484.58 188.31 484.58 192.87 501.18"/>

<polygon class="cls-222" id="UNDP Core Funds1" points="188.31 484.58 261.42 484.58 255.53 463.13 182.41 463.13 188.31 484.58"/>

<polygon class="cls-233" id="Sweden1" points="182.41 463.13 255.53 463.13 249.61 441.58 176.5 441.58 182.41 463.13"/>

<polygon class="cls-244" id="CPR-TTF1" points="176.5 441.58 249.61 441.58 231.38 375.19 158.26 375.19 176.5 441.58"/>

<polygon class="cls-255" id="Netherlands1" points="158.26 375.19 231.38 375.19 190.91 227.88 117.8 227.88 158.26 375.19"/>

<polygon class="cls-266" id="United States1" points="117.8 227.88 190.91 227.88 146.08 64.67 72.96 64.67 117.8 227.88"/>

<path class="cls-27" d="M291.22,232.66h.93v6.56c0,2.16,1.14,3.48,3.23,3.48s3.24-1.32,3.24-3.48v-6.56h.92v6.58c0,2.64-1.4,4.29-4.16,4.29s-4.16-1.66-4.16-4.29Z"/>

<path class="cls-27" d="M307.38,238.12c0-1.5-.75-2-1.87-2A3.34,3.34,0,0,0,303,237.5v5.84h-.83v-7.73H303v1.17a3.88,3.88,0,0,1,2.78-1.36,2.18,2.18,0,0,1,2.44,2.51v5.41h-.84Z"/>

<path class="cls-27" d="M310.58,233.65a.65.65,0,0,1,.64-.64.64.64,0,0,1,.64.64.64.64,0,0,1-1.28,0Zm.22,2h.84v7.73h-.84Z"/>

<path class="cls-27" d="M314.39,241.85v-5.49h-1.28v-.75h1.28v-2.12h.85v2.12h1.57v.75h-1.57v5.36c0,.63.25,1.06.8,1.06a1.19,1.19,0,0,0,.86-.37l.32.64a1.72,1.72,0,0,1-1.31.48C314.88,243.53,314.39,242.91,314.39,241.85Z"/>

<path class="cls-27" d="M321.91,235.42c2.35,0,3.65,1.87,3.65,4.09v.23h-6.47a3,3,0,0,0,3,3.07,3.47,3.47,0,0,0,2.55-1.07l.43.54a4,4,0,0,1-3,1.25,4.06,4.06,0,0,1-.14-8.11Zm-2.82,3.66h5.62a2.84,2.84,0,0,0-2.82-3A2.92,2.92,0,0,0,319.09,239.08Z"/>

<path class="cls-27" d="M333.4,242.11a3.3,3.3,0,0,1-2.69,1.42c-2,0-3.46-1.57-3.46-4.05s1.41-4.06,3.46-4.06a3.29,3.29,0,0,1,2.69,1.44v-4.2h.85v10.68h-.85Zm0-4.53a3.08,3.08,0,0,0-2.55-1.41c-1.71,0-2.7,1.44-2.7,3.31s1,3.3,2.7,3.3a3.1,3.1,0,0,0,2.55-1.38Z"/>

<path class="cls-27" d="M341,241.14a4.33,4.33,0,0,0,3.33,1.56c2.19,0,2.82-1.22,2.82-2.13,0-1.51-1.44-1.92-2.93-2.32-1.68-.47-3.47-.95-3.47-2.92,0-1.74,1.56-2.84,3.5-2.84a4.61,4.61,0,0,1,3.62,1.5l-.61.67a3.82,3.82,0,0,0-3.06-1.34c-1.42,0-2.49.81-2.49,2s1.32,1.63,2.78,2c1.71.48,3.62,1,3.62,3.2,0,1.36-.91,3-3.79,3a4.89,4.89,0,0,1-3.91-1.7Z"/>

<path class="cls-27" d="M350.13,241.85v-5.49h-1.28v-.75h1.28v-2.12H351v2.12h1.57v.75H351v5.36c0,.63.26,1.06.8,1.06a1.24,1.24,0,0,0,.87-.37l.31.64a1.72,1.72,0,0,1-1.31.48C350.63,243.53,350.13,242.91,350.13,241.85Z"/>

<path class="cls-27" d="M359.29,242.43a3.39,3.39,0,0,1-2.63,1.1A2.58,2.58,0,0,1,354,241a2.54,2.54,0,0,1,2.7-2.54,3.35,3.35,0,0,1,2.63,1.09v-1.57a1.85,1.85,0,0,0-2.09-1.78,3,3,0,0,0-2.41,1.14l-.47-.56a3.71,3.71,0,0,1,3-1.31c1.59,0,2.84.75,2.84,2.48v5.44h-.83Zm0-2.31a2.93,2.93,0,0,0-2.34-1.07,1.92,1.92,0,1,0,0,3.82,2.91,2.91,0,0,0,2.34-1.05Z"/>

<path class="cls-27" d="M362.87,241.85v-5.49h-1.28v-.75h1.28v-2.12h.85v2.12h1.56v.75h-1.56v5.36c0,.63.25,1.06.8,1.06a1.23,1.23,0,0,0,.86-.37l.32.64a1.72,1.72,0,0,1-1.31.48C363.36,243.53,362.87,242.91,362.87,241.85Z"/>

<path class="cls-27" d="M370.39,235.42c2.35,0,3.65,1.87,3.65,4.09v.23h-6.47a3,3,0,0,0,3,3.07,3.47,3.47,0,0,0,2.55-1.07l.43.54a4,4,0,0,1-3,1.25,4.06,4.06,0,0,1-.14-8.11Zm-2.82,3.66h5.62a2.84,2.84,0,0,0-2.82-3A2.92,2.92,0,0,0,367.57,239.08Z"/>

<path class="cls-27" d="M376,241.69a3.23,3.23,0,0,0,2.5,1.14c1.3,0,2.06-.64,2.06-1.54s-1.05-1.28-2.17-1.57c-1.28-.32-2.71-.66-2.71-2.16,0-1.18,1-2.14,2.76-2.14a3.54,3.54,0,0,1,2.77,1.15l-.47.57a2.84,2.84,0,0,0-2.3-1c-1.2,0-1.94.59-1.94,1.39s1,1.12,2.06,1.39c1.33.34,2.82.71,2.82,2.36,0,1.25-1,2.27-2.9,2.27a3.73,3.73,0,0,1-3-1.22Z"/>

<path class="cls-27" d="M298,256.12v9.22h-.91V254.66H298l6.69,9.09v-9.09h.91v10.68h-.9Z"/><path class="cls-27" d="M311.51,257.42c2.35,0,3.65,1.87,3.65,4.09v.23h-6.47a3,3,0,0,0,3,3.07,3.44,3.44,0,0,0,2.55-1.07l.43.54a4,4,0,0,1-3,1.25,4.06,4.06,0,0,1-.14-8.11Zm-2.82,3.66h5.62a2.83,2.83,0,0,0-2.81-2.95A2.93,2.93,0,0,0,308.69,261.08Z"/><path class="cls-27" d="M317.46,263.85v-5.49h-1.28v-.75h1.28v-2.12h.85v2.12h1.57v.75h-1.57v5.36c0,.63.26,1.06.8,1.06a1.19,1.19,0,0,0,.86-.37l.32.64a1.72,1.72,0,0,1-1.31.48C318,265.53,317.46,264.91,317.46,263.85Z"/><path class="cls-27" d="M326.92,260.07c0-1.49-.75-1.9-1.87-1.9a3.36,3.36,0,0,0-2.52,1.33v5.84h-.83V254.66h.83v4.12a3.9,3.9,0,0,1,2.79-1.36,2.15,2.15,0,0,1,2.43,2.48v5.44h-.83Z"/><path class="cls-27" d="M333.62,257.42c2.36,0,3.65,1.87,3.65,4.09v.23h-6.46a3,3,0,0,0,3,3.07,3.44,3.44,0,0,0,2.55-1.07l.43.54a4,4,0,0,1-3,1.25,4.06,4.06,0,0,1-.15-8.11Zm-2.81,3.66h5.61a2.83,2.83,0,0,0-2.81-2.95A2.91,2.91,0,0,0,330.81,261.08Z"/><path class="cls-27" d="M339.41,257.61h.84v1.33a3.29,3.29,0,0,1,2.6-1.49v.91a2.63,2.63,0,0,0-.41,0,2.93,2.93,0,0,0-2.19,1.37v5.64h-.84Z"/><path class="cls-27" d="M344.48,254.66h.84v10.68h-.84Z"/><path class="cls-27" d="M352.82,264.43a3.37,3.37,0,0,1-2.62,1.1,2.59,2.59,0,0,1-2.71-2.58,2.54,2.54,0,0,1,2.71-2.54,3.32,3.32,0,0,1,2.62,1.09v-1.57a1.85,1.85,0,0,0-2.08-1.78,3,3,0,0,0-2.42,1.14l-.46-.56a3.71,3.71,0,0,1,3-1.31c1.59,0,2.83.75,2.83,2.48v5.44h-.83Zm0-2.31a2.91,2.91,0,0,0-2.33-1.07,1.92,1.92,0,1,0,0,3.82,2.89,2.89,0,0,0,2.33-1.05Z"/><path class="cls-27" d="M361.46,260.12c0-1.5-.75-1.95-1.87-1.95a3.34,3.34,0,0,0-2.51,1.33v5.84h-.84v-7.73h.84v1.17a3.88,3.88,0,0,1,2.78-1.36c1.57,0,2.43.76,2.43,2.51v5.41h-.83Z"/><path class="cls-27" d="M370.58,264.11a3.28,3.28,0,0,1-2.69,1.42c-2.05,0-3.45-1.57-3.45-4s1.4-4.06,3.45-4.06a3.27,3.27,0,0,1,2.69,1.44v-4.2h.85v10.68h-.85Zm0-4.53a3.06,3.06,0,0,0-2.54-1.41c-1.72,0-2.71,1.44-2.71,3.31s1,3.3,2.71,3.3a3.09,3.09,0,0,0,2.54-1.38Z"/><path class="cls-27" d="M373.84,263.69a3.23,3.23,0,0,0,2.5,1.14c1.3,0,2.07-.64,2.07-1.54s-1.06-1.28-2.18-1.57c-1.28-.32-2.71-.66-2.71-2.16,0-1.18,1-2.14,2.76-2.14a3.52,3.52,0,0,1,2.77,1.15l-.47.57a2.84,2.84,0,0,0-2.3-1c-1.2,0-1.94.59-1.94,1.39s1,1.12,2.06,1.39c1.33.34,2.82.71,2.82,2.36,0,1.25-1,2.27-2.9,2.27a3.74,3.74,0,0,1-3-1.22Z"/><path class="cls-27" d="M302.53,282a5.3,5.3,0,0,1,5.38-5.52,4.84,4.84,0,0,1,3.92,1.88l-.76.5a3.9,3.9,0,0,0-3.16-1.55,4.7,4.7,0,0,0,0,9.38,3.91,3.91,0,0,0,3.16-1.56l.76.48a4.79,4.79,0,0,1-3.92,1.91A5.3,5.3,0,0,1,302.53,282Z"/><path class="cls-27" d="M313.69,276.66h4a3.12,3.12,0,1,1,0,6.24H314.6v4.44h-.91Zm3.9.83h-3v4.58h3a2.29,2.29,0,1,0,0-4.58Z"/><path class="cls-27" d="M326.09,282.92h-2.36v4.42h-.91V276.66h4a3,3,0,0,1,3.25,3.12,3,3,0,0,1-3,3.08l3.09,4.48h-1.11Zm.64-5.43h-3v4.6h3a2.3,2.3,0,1,0,0-4.6Z"/><path class="cls-27" d="M331.48,283.08h3.84v.77h-3.84Z"/><path class="cls-27" d="M339.85,277.49h-3.49v-.83h7.9v.83h-3.48v9.85h-.93Z"/><path class="cls-27" d="M348.87,277.49h-3.49v-.83h7.91v.83H349.8v9.85h-.93Z"/><path class="cls-27" d="M355.17,276.66h6.77v.83h-5.85v4h5.74v.83h-5.74v5.06h-.92Z"/><path class="cls-27" d="M308.79,307.14a4.33,4.33,0,0,0,3.33,1.56c2.19,0,2.82-1.22,2.82-2.13,0-1.51-1.44-1.92-2.93-2.32-1.68-.47-3.48-.95-3.48-2.92,0-1.74,1.57-2.84,3.51-2.84a4.64,4.64,0,0,1,3.62,1.5l-.61.67a3.82,3.82,0,0,0-3.06-1.34c-1.42,0-2.5.81-2.5,2s1.33,1.63,2.79,2c1.71.48,3.62,1,3.62,3.2,0,1.36-.92,3-3.8,3a4.87,4.87,0,0,1-3.9-1.7Z"/><path class="cls-27" d="M322.49,302.73l-2.18,6.61h-.8L317,301.61h.89l2.05,6.56,2.18-6.56h.72l2.18,6.56,2.05-6.56H328l-2.51,7.73h-.8Z"/><path class="cls-27" d="M332.81,301.42c2.35,0,3.65,1.87,3.65,4.09v.23H330a3,3,0,0,0,3,3.07,3.44,3.44,0,0,0,2.54-1.07l.44.54a4,4,0,0,1-3,1.25,4.06,4.06,0,0,1-.14-8.11ZM330,305.08h5.62a2.84,2.84,0,0,0-2.82-2.95A2.92,2.92,0,0,0,330,305.08Z"/><path class="cls-27" d="M344.3,308.11a3.3,3.3,0,0,1-2.69,1.42c-2.05,0-3.46-1.57-3.46-4s1.41-4.06,3.46-4.06a3.29,3.29,0,0,1,2.69,1.44v-4.2h.84v10.68h-.84Zm0-4.53a3.08,3.08,0,0,0-2.55-1.41c-1.71,0-2.7,1.44-2.7,3.31s1,3.3,2.7,3.3a3.1,3.1,0,0,0,2.55-1.38Z"/><path class="cls-27" d="M351,301.42c2.36,0,3.65,1.87,3.65,4.09v.23H348.2a3,3,0,0,0,3,3.07,3.44,3.44,0,0,0,2.54-1.07l.43.54a4,4,0,0,1-3,1.25,4.06,4.06,0,0,1-.15-8.11Zm-2.81,3.66h5.62a2.84,2.84,0,0,0-2.82-2.95A2.91,2.91,0,0,0,348.2,305.08Z"/><path class="cls-27" d="M362,304.12c0-1.5-.75-1.95-1.87-1.95a3.34,3.34,0,0,0-2.51,1.33v5.84h-.83v-7.73h.83v1.17a3.88,3.88,0,0,1,2.78-1.36,2.18,2.18,0,0,1,2.44,2.51v5.41H362Z"/><path class="cls-27" d="M314.65,320.66h.92v6.56c0,2.16,1.14,3.48,3.24,3.48s3.23-1.32,3.23-3.48v-6.56H323v6.58c0,2.64-1.41,4.29-4.16,4.29s-4.16-1.66-4.16-4.29Z"/><path class="cls-27" d="M326.53,322.12v9.22h-.91V320.66h.93l6.69,9.09v-9.09h.91v10.68h-.89Z"/><path class="cls-27" d="M336.81,320.66h3.4a5.34,5.34,0,1,1,0,10.68h-3.4Zm3.4,9.85a4.51,4.51,0,0,0,0-9h-2.49v9Z"/><path class="cls-27" d="M347.88,320.66h4a3.12,3.12,0,1,1,0,6.24h-3.09v4.44h-.91Zm3.9.83h-3v4.58h3a2.29,2.29,0,1,0,0-4.58Z"/><path class="cls-27" d="M360.76,326a5.29,5.29,0,0,1,5.38-5.52,4.87,4.87,0,0,1,3.92,1.88l-.77.5a3.88,3.88,0,0,0-3.15-1.55,4.7,4.7,0,0,0,0,9.38,3.89,3.89,0,0,0,3.15-1.56l.77.48a4.82,4.82,0,0,1-3.92,1.91A5.29,5.29,0,0,1,360.76,326Z"/><path class="cls-27" d="M371.43,327.46a3.74,3.74,0,1,1,3.71,4.07A3.75,3.75,0,0,1,371.43,327.46Zm6.55,0c0-1.71-1-3.29-2.84-3.29s-2.81,1.58-2.81,3.29,1,3.32,2.81,3.32S378,329.19,378,327.46Z"/><path class="cls-27" d="M381,323.61h.84v1.33a3.29,3.29,0,0,1,2.6-1.49v.91a2.63,2.63,0,0,0-.41,0,2.93,2.93,0,0,0-2.19,1.37v5.64H381Z"/><path class="cls-27" d="M389.37,323.42c2.35,0,3.65,1.87,3.65,4.09v.23h-6.47a3,3,0,0,0,3,3.07,3.44,3.44,0,0,0,2.54-1.07l.43.54a4,4,0,0,1-3,1.25,4.06,4.06,0,0,1-.14-8.11Zm-2.82,3.66h5.62a2.84,2.84,0,0,0-2.82-2.95A2.91,2.91,0,0,0,386.55,327.08Z"/><path class="cls-27" d="M399.33,320.66h6.77v.83h-5.86v4H406v.83h-5.75v5.06h-.91Z"/><path class="cls-27" d="M413.19,330.2a3.91,3.91,0,0,1-2.79,1.33,2.15,2.15,0,0,1-2.43-2.48v-5.44h.83v5.25c0,1.5.76,1.92,1.88,1.92a3.33,3.33,0,0,0,2.51-1.28v-5.89H414v7.73h-.83Z"/><path class="cls-27" d="M421.83,326.12c0-1.5-.75-1.95-1.87-1.95a3.36,3.36,0,0,0-2.52,1.33v5.84h-.83v-7.73h.83v1.17a3.9,3.9,0,0,1,2.79-1.36c1.57,0,2.43.76,2.43,2.51v5.41h-.83Z"/><path class="cls-27" d="M431,330.11a3.3,3.3,0,0,1-2.69,1.42c-2.05,0-3.46-1.57-3.46-4s1.41-4.06,3.46-4.06a3.29,3.29,0,0,1,2.69,1.44v-4.2h.85v10.68H431Zm0-4.53a3.08,3.08,0,0,0-2.55-1.41c-1.71,0-2.7,1.44-2.7,3.31s1,3.3,2.7,3.3A3.1,3.1,0,0,0,431,329.4Z"/><path class="cls-27" d="M434.21,329.69a3.21,3.21,0,0,0,2.5,1.14c1.29,0,2.06-.64,2.06-1.54s-1-1.28-2.17-1.57c-1.29-.32-2.71-.66-2.71-2.16,0-1.18,1-2.14,2.75-2.14a3.51,3.51,0,0,1,2.77,1.15l-.46.57a2.84,2.84,0,0,0-2.31-1c-1.2,0-1.93.59-1.93,1.39s1,1.12,2.06,1.39c1.33.34,2.82.71,2.82,2.36,0,1.25-1,2.27-2.9,2.27a3.75,3.75,0,0,1-3-1.22Z"/><path class="cls-27" d="M320,351.53a2.61,2.61,0,0,0,2.13,1.17,2.26,2.26,0,0,0,2.35-2.45v-7.59h.93v7.59a3,3,0,0,1-3.24,3.28,3.2,3.2,0,0,1-2.73-1.31Z"/><path class="cls-27" d="M332.9,352.43a3.35,3.35,0,0,1-2.62,1.1,2.59,2.59,0,0,1-2.71-2.58,2.54,2.54,0,0,1,2.71-2.54,3.31,3.31,0,0,1,2.62,1.09v-1.57a1.84,1.84,0,0,0-2.08-1.78,3,3,0,0,0-2.41,1.14l-.47-.56a3.71,3.71,0,0,1,3-1.31c1.59,0,2.84.75,2.84,2.48v5.44h-.84Zm0-2.31a2.91,2.91,0,0,0-2.33-1.07,1.92,1.92,0,1,0,0,3.82,2.89,2.89,0,0,0,2.33-1.05Z"/><path class="cls-27" d="M336.33,356.28V345.61h.83v1.23a3.28,3.28,0,0,1,2.69-1.42c2.06,0,3.45,1.56,3.45,4s-1.39,4.07-3.45,4.07a3.3,3.3,0,0,1-2.69-1.44v4.19Zm3.37-10.11a3.1,3.1,0,0,0-2.54,1.39v3.81a3.14,3.14,0,0,0,2.54,1.41c1.73,0,2.71-1.44,2.71-3.32S341.43,346.17,339.7,346.17Z"/><path class="cls-27" d="M350.36,352.43a3.37,3.37,0,0,1-2.63,1.1A2.59,2.59,0,0,1,345,351a2.54,2.54,0,0,1,2.7-2.54,3.33,3.33,0,0,1,2.63,1.09v-1.57a1.85,1.85,0,0,0-2.08-1.78,3,3,0,0,0-2.42,1.14l-.46-.56a3.7,3.7,0,0,1,3-1.31c1.58,0,2.83.75,2.83,2.48v5.44h-.83Zm0-2.31a2.91,2.91,0,0,0-2.34-1.07,1.92,1.92,0,1,0,0,3.82,2.9,2.9,0,0,0,2.34-1.05Z"/><path class="cls-27" d="M359,348.12c0-1.5-.75-1.95-1.87-1.95a3.36,3.36,0,0,0-2.52,1.33v5.84h-.83v-7.73h.83v1.17a3.9,3.9,0,0,1,2.79-1.36c1.57,0,2.43.76,2.43,2.51v5.41H359Z"/><path class="cls-27" d="M326,370a5.29,5.29,0,0,1,5.38-5.52,4.87,4.87,0,0,1,3.92,1.88l-.77.5a3.88,3.88,0,0,0-3.15-1.55,4.7,4.7,0,0,0,0,9.38,3.89,3.89,0,0,0,3.15-1.56l.77.48a4.82,4.82,0,0,1-3.92,1.91A5.29,5.29,0,0,1,326,370Z"/><path class="cls-27" d="M342,374.43a3.37,3.37,0,0,1-2.62,1.1,2.59,2.59,0,0,1-2.71-2.58,2.54,2.54,0,0,1,2.71-2.54A3.32,3.32,0,0,1,342,371.5v-1.57a1.85,1.85,0,0,0-2.08-1.78,3,3,0,0,0-2.42,1.14l-.46-.56a3.71,3.71,0,0,1,3-1.31c1.59,0,2.83.75,2.83,2.48v5.44H342Zm0-2.31a2.91,2.91,0,0,0-2.34-1.07,1.92,1.92,0,1,0,0,3.82,2.9,2.9,0,0,0,2.34-1.05Z"/><path class="cls-27" d="M350.63,370.12c0-1.5-.75-1.95-1.87-1.95a3.34,3.34,0,0,0-2.51,1.33v5.84h-.84v-7.73h.84v1.17a3.88,3.88,0,0,1,2.78-1.36c1.57,0,2.43.76,2.43,2.51v5.41h-.83Z"/><path class="cls-27" d="M359,374.43a3.39,3.39,0,0,1-2.63,1.1,2.58,2.58,0,0,1-2.7-2.58,2.54,2.54,0,0,1,2.7-2.54A3.35,3.35,0,0,1,359,371.5v-1.57a1.85,1.85,0,0,0-2.08-1.78,3,3,0,0,0-2.42,1.14l-.47-.56a3.73,3.73,0,0,1,3-1.31c1.58,0,2.83.75,2.83,2.48v5.44H359Zm0-2.31a2.93,2.93,0,0,0-2.34-1.07,1.92,1.92,0,1,0,0,3.82,2.91,2.91,0,0,0,2.34-1.05Z"/><path class="cls-27" d="M368.09,374.11a3.3,3.3,0,0,1-2.69,1.42c-2,0-3.46-1.57-3.46-4s1.41-4.06,3.46-4.06a3.29,3.29,0,0,1,2.69,1.44v-4.2h.85v10.68h-.85Zm0-4.53a3.08,3.08,0,0,0-2.55-1.41c-1.71,0-2.7,1.44-2.7,3.31s1,3.3,2.7,3.3a3.1,3.1,0,0,0,2.55-1.38Z"/><path class="cls-27" d="M376.44,374.43a3.37,3.37,0,0,1-2.63,1.1,2.58,2.58,0,0,1-2.7-2.58,2.54,2.54,0,0,1,2.7-2.54,3.33,3.33,0,0,1,2.63,1.09v-1.57a1.85,1.85,0,0,0-2.08-1.78,3,3,0,0,0-2.42,1.14l-.46-.56a3.7,3.7,0,0,1,3-1.31c1.58,0,2.83.75,2.83,2.48v5.44h-.83Zm0-2.31a2.93,2.93,0,0,0-2.34-1.07,1.92,1.92,0,1,0,0,3.82,2.91,2.91,0,0,0,2.34-1.05Z"/><path class="cls-27" d="M337.22,386.49a5.07,5.07,0,0,1,4,1.82l-.69.5a4.34,4.34,0,0,0-3.33-1.49,4.7,4.7,0,0,0,0,9.39,4.54,4.54,0,0,0,3.14-1.29v-2.55h-4.05V392h5v3.73a5.41,5.41,0,0,1-4,1.78,5.53,5.53,0,0,1,0-11.06Z"/><path class="cls-27" d="M346.84,389.42c2.35,0,3.65,1.87,3.65,4.09v.23H344a3,3,0,0,0,3,3.07,3.47,3.47,0,0,0,2.55-1.07l.43.54a4,4,0,0,1-3,1.25,4.06,4.06,0,0,1-.14-8.11ZM344,393.08h5.62a2.84,2.84,0,0,0-2.82-2.95A2.92,2.92,0,0,0,344,393.08Z"/><path class="cls-27" d="M352.63,389.61h.83v1.33a3.32,3.32,0,0,1,2.61-1.49v.91a2.77,2.77,0,0,0-.42,0,2.94,2.94,0,0,0-2.19,1.37v5.64h-.83Z"/><path class="cls-27" d="M366.9,391.93c0-1.09-.46-1.76-1.55-1.76a2.9,2.9,0,0,0-2.21,1.31v5.86h-.84v-5.41c0-1.09-.45-1.76-1.56-1.76a3,3,0,0,0-2.21,1.33v5.84h-.83v-7.73h.83v1.17a3.4,3.4,0,0,1,2.5-1.36,1.94,1.94,0,0,1,2,1.45,3.23,3.23,0,0,1,2.56-1.45c1.43,0,2.12.79,2.12,2.35v5.57h-.84Z"/><path class="cls-27" d="M375.24,396.43a3.37,3.37,0,0,1-2.63,1.1,2.59,2.59,0,0,1-2.7-2.58,2.54,2.54,0,0,1,2.7-2.54,3.33,3.33,0,0,1,2.63,1.09v-1.57a1.85,1.85,0,0,0-2.08-1.78,3,3,0,0,0-2.42,1.14l-.46-.56a3.7,3.7,0,0,1,3-1.31c1.58,0,2.83.75,2.83,2.48v5.44h-.83Zm0-2.31a2.91,2.91,0,0,0-2.34-1.07,1.92,1.92,0,1,0,0,3.82,2.9,2.9,0,0,0,2.34-1.05Z"/><path class="cls-27" d="M383.88,392.12c0-1.5-.75-1.95-1.87-1.95a3.36,3.36,0,0,0-2.52,1.33v5.84h-.83v-7.73h.83v1.17a3.9,3.9,0,0,1,2.79-1.36c1.57,0,2.43.76,2.43,2.51v5.41h-.83Z"/><path class="cls-27" d="M387.59,399.72c.53,0,.88-.21,1.18-.94l.61-1.38-3.26-7.79H387l2.81,6.75,2.8-6.75h.94l-4,9.42a2.06,2.06,0,0,1-2,1.45,3,3,0,0,1-.81-.12l.14-.77A1.94,1.94,0,0,0,387.59,399.72Z"/><path class="cls-27" d="M338.07,417.14a4.33,4.33,0,0,0,3.33,1.56c2.19,0,2.82-1.22,2.82-2.13,0-1.51-1.44-1.92-2.93-2.32-1.68-.47-3.48-.95-3.48-2.92,0-1.74,1.57-2.84,3.51-2.84a4.64,4.64,0,0,1,3.62,1.5l-.61.67a3.82,3.82,0,0,0-3.06-1.34c-1.42,0-2.5.81-2.5,2s1.33,1.63,2.79,2c1.71.48,3.62,1,3.62,3.2,0,1.36-.92,3-3.8,3a4.87,4.87,0,0,1-3.9-1.7Z"/><path class="cls-27" d="M351.77,412.73l-2.18,6.61h-.8l-2.51-7.73h.89l2.05,6.56,2.18-6.56h.72l2.18,6.56,2.05-6.56h.89l-2.51,7.73h-.8Z"/><path class="cls-27" d="M358.58,409.65a.66.66,0,0,1,.64-.64.64.64,0,0,1,.64.64.64.64,0,0,1-.64.64A.65.65,0,0,1,358.58,409.65Zm.23,2h.83v7.73h-.83Z"/><path class="cls-27" d="M362.39,417.85v-5.49h-1.28v-.75h1.28v-2.12h.85v2.12h1.57v.75h-1.57v5.36c0,.63.25,1.06.8,1.06a1.19,1.19,0,0,0,.86-.37l.32.64a1.72,1.72,0,0,1-1.31.48C362.89,419.53,362.39,418.91,362.39,417.85Z"/><path class="cls-27" d="M366.23,418.65l4.58-6.29h-4.58v-.75h5.65v.67l-4.63,6.32h4.69v.74h-5.71Z"/><path class="cls-27" d="M377.41,411.42c2.36,0,3.65,1.87,3.65,4.09v.23H374.6a3,3,0,0,0,3,3.07,3.44,3.44,0,0,0,2.54-1.07l.43.54a4,4,0,0,1-3,1.25,4.06,4.06,0,0,1-.15-8.11Zm-2.81,3.66h5.62a2.85,2.85,0,0,0-2.82-2.95A2.91,2.91,0,0,0,374.6,415.08Z"/><path class="cls-27" d="M383.2,411.61H384v1.33a3.29,3.29,0,0,1,2.61-1.49v.91a2.86,2.86,0,0,0-.42,0A2.93,2.93,0,0,0,384,413.7v5.64h-.84Z"/><path class="cls-27" d="M388.28,408.66h.83v10.68h-.83Z"/><path class="cls-27" d="M396.61,418.43a3.35,3.35,0,0,1-2.62,1.1,2.59,2.59,0,0,1-2.71-2.58,2.55,2.55,0,0,1,2.71-2.54,3.31,3.31,0,0,1,2.62,1.09v-1.57a1.84,1.84,0,0,0-2.08-1.78,3,3,0,0,0-2.41,1.14l-.47-.56a3.71,3.71,0,0,1,3-1.31c1.59,0,2.84.75,2.84,2.48v5.44h-.84Zm0-2.31a2.89,2.89,0,0,0-2.33-1.07,1.92,1.92,0,1,0,0,3.82,2.88,2.88,0,0,0,2.33-1.05Z"/><path class="cls-27" d="M405.25,414.12c0-1.5-.75-1.95-1.87-1.95a3.34,3.34,0,0,0-2.51,1.33v5.84H400v-7.73h.83v1.17a3.88,3.88,0,0,1,2.78-1.36,2.18,2.18,0,0,1,2.44,2.51v5.41h-.84Z"/><path class="cls-27" d="M414.37,418.11a3.27,3.27,0,0,1-2.68,1.42c-2.05,0-3.46-1.57-3.46-4s1.41-4.06,3.46-4.06a3.27,3.27,0,0,1,2.68,1.44v-4.2h.85v10.68h-.85Zm0-4.53a3,3,0,0,0-2.54-1.41c-1.71,0-2.71,1.44-2.71,3.31s1,3.3,2.71,3.3a3.07,3.07,0,0,0,2.54-1.38Z"/><path class="cls-27" d="M350.62,438.71h-5.69l-1.07,2.63h-1l4.37-10.68h1.13l4.37,10.68h-1Zm-5.4-.83h5.11l-2.56-6.32Z"/><path class="cls-27" d="M359.29,440.2a3.91,3.91,0,0,1-2.79,1.33,2.15,2.15,0,0,1-2.43-2.48v-5.44h.83v5.25c0,1.5.75,1.92,1.87,1.92a3.33,3.33,0,0,0,2.52-1.28v-5.89h.83v7.73h-.83Z"/><path class="cls-27" d="M362.53,439.69a3.23,3.23,0,0,0,2.5,1.14c1.3,0,2.06-.64,2.06-1.54s-1-1.28-2.17-1.57c-1.28-.32-2.71-.66-2.71-2.16,0-1.18,1-2.14,2.76-2.14a3.54,3.54,0,0,1,2.77,1.15l-.47.57a2.84,2.84,0,0,0-2.3-1c-1.2,0-1.94.59-1.94,1.39s1,1.12,2.06,1.39c1.33.34,2.82.71,2.82,2.36,0,1.25-1,2.27-2.9,2.27a3.74,3.74,0,0,1-3-1.22Z"/><path class="cls-27" d="M370.21,439.85v-5.49h-1.28v-.75h1.28v-2.12h.85v2.12h1.57v.75h-1.57v5.36c0,.63.26,1.06.8,1.06a1.24,1.24,0,0,0,.87-.37l.32.64a1.76,1.76,0,0,1-1.32.48C370.71,441.53,370.21,440.91,370.21,439.85Z"/><path class="cls-27" d="M374.45,433.61h.84v1.33a3.29,3.29,0,0,1,2.6-1.49v.91a2.63,2.63,0,0,0-.41,0,2.93,2.93,0,0,0-2.19,1.37v5.64h-.84Z"/><path class="cls-27" d="M384.44,440.43a3.37,3.37,0,0,1-2.63,1.1,2.58,2.58,0,0,1-2.7-2.58,2.54,2.54,0,0,1,2.7-2.54,3.33,3.33,0,0,1,2.63,1.09v-1.57a1.85,1.85,0,0,0-2.08-1.78,3,3,0,0,0-2.42,1.14l-.46-.56a3.7,3.7,0,0,1,3-1.31c1.58,0,2.83.75,2.83,2.48v5.44h-.83Zm0-2.31a2.93,2.93,0,0,0-2.34-1.07,1.92,1.92,0,1,0,0,3.82,2.91,2.91,0,0,0,2.34-1.05Z"/><path class="cls-27" d="M387.86,430.66h.83v10.68h-.83Z"/><path class="cls-27" d="M391.06,431.65a.65.65,0,0,1,.64-.64.64.64,0,0,1,.64.64.64.64,0,1,1-1.28,0Zm.22,2h.84v7.73h-.84Z"/><path class="cls-27" d="M399.62,440.43a3.37,3.37,0,0,1-2.62,1.1,2.59,2.59,0,0,1-2.71-2.58,2.54,2.54,0,0,1,2.71-2.54,3.32,3.32,0,0,1,2.62,1.09v-1.57a1.85,1.85,0,0,0-2.08-1.78,3,3,0,0,0-2.42,1.14l-.46-.56a3.71,3.71,0,0,1,3-1.31c1.59,0,2.83.75,2.83,2.48v5.44h-.83Zm0-2.31a2.91,2.91,0,0,0-2.33-1.07,1.92,1.92,0,1,0,0,3.82,2.89,2.89,0,0,0,2.33-1.05Z"/><path class="cls-27" d="M349.78,452.66h3.41a5.34,5.34,0,1,1,0,10.68h-3.41Zm3.41,9.85a4.51,4.51,0,0,0,0-9h-2.5v9Z"/><path class="cls-27" d="M364.1,455.42c2.36,0,3.65,1.87,3.65,4.09v.23h-6.46a3,3,0,0,0,3,3.07,3.44,3.44,0,0,0,2.55-1.07l.43.54a4,4,0,0,1-3,1.25,4.06,4.06,0,0,1-.15-8.11Zm-2.81,3.66h5.61a2.83,2.83,0,0,0-2.81-2.95A2.91,2.91,0,0,0,361.29,459.08Z"/><path class="cls-27" d="M375.11,458.12c0-1.5-.75-1.95-1.87-1.95a3.34,3.34,0,0,0-2.51,1.33v5.84h-.84v-7.73h.84v1.17a3.88,3.88,0,0,1,2.78-1.36c1.57,0,2.43.76,2.43,2.51v5.41h-.83Z"/><path class="cls-27" d="M387.74,457.93c0-1.09-.47-1.76-1.56-1.76a2.86,2.86,0,0,0-2.2,1.31v5.86h-.85v-5.41c0-1.09-.45-1.76-1.56-1.76a2.94,2.94,0,0,0-2.2,1.33v5.84h-.84v-7.73h.84v1.17a3.37,3.37,0,0,1,2.49-1.36,2,2,0,0,1,2,1.45,3.2,3.2,0,0,1,2.56-1.45c1.42,0,2.11.79,2.11,2.35v5.57h-.83Z"/><path class="cls-27" d="M396.07,462.43a3.37,3.37,0,0,1-2.62,1.1,2.59,2.59,0,0,1-2.71-2.58,2.54,2.54,0,0,1,2.71-2.54,3.32,3.32,0,0,1,2.62,1.09v-1.57a1.85,1.85,0,0,0-2.08-1.78,3,3,0,0,0-2.42,1.14l-.46-.56a3.71,3.71,0,0,1,3-1.31c1.58,0,2.83.75,2.83,2.48v5.44h-.83Zm0-2.31a2.91,2.91,0,0,0-2.34-1.07,1.92,1.92,0,1,0,0,3.82,2.9,2.9,0,0,0,2.34-1.05Z"/><path class="cls-27" d="M399.49,455.61h.84v1.33a3.29,3.29,0,0,1,2.61-1.49v.91a2.86,2.86,0,0,0-.42,0,2.93,2.93,0,0,0-2.19,1.37v5.64h-.84Z"/><path class="cls-27" d="M406.84,459.66,405.4,461v2.32h-.84V452.66h.84V460l4.54-4.41h1.12l-3.6,3.49,3.59,4.24h-1.12Z"/><path class="cls-27" d="M355.64,474.66h.93v6.56c0,2.16,1.13,3.48,3.23,3.48s3.23-1.32,3.23-3.48v-6.56H364v6.58c0,2.64-1.41,4.29-4.16,4.29s-4.16-1.66-4.16-4.29Z"/><path class="cls-27" d="M367.53,476.12v9.22h-.92V474.66h.93l6.69,9.09v-9.09h.91v10.68h-.89Z"/><path class="cls-27" d="M388.63,482.71H383l-1.07,2.63h-1l4.37-10.68h1.14l4.37,10.68h-1Zm-5.39-.83h5.1l-2.56-6.32Z"/><path class="cls-27" d="M395.57,477.42a3.19,3.19,0,0,1,2.74,1.31l-.58.51a2.44,2.44,0,0,0-2.11-1.07c-1.81,0-2.91,1.44-2.91,3.29s1.1,3.32,2.91,3.32a2.46,2.46,0,0,0,2.11-1.09l.58.51a3.18,3.18,0,0,1-2.74,1.33,4.07,4.07,0,0,1,0-8.11Z"/><path class="cls-27" d="M400.32,483.85v-5.49H399v-.75h1.28v-2.12h.85v2.12h1.57v.75h-1.57v5.36c0,.63.26,1.06.8,1.06a1.24,1.24,0,0,0,.87-.37l.32.64a1.75,1.75,0,0,1-1.31.48C400.82,485.53,400.32,484.91,400.32,483.85Z"/><path class="cls-27" d="M404.34,475.65A.66.66,0,0,1,405,475a.64.64,0,0,1,.64.64.64.64,0,0,1-.64.64A.65.65,0,0,1,404.34,475.65Zm.22,2h.84v7.73h-.84Z"/><path class="cls-27" d="M407.54,481.46a3.74,3.74,0,1,1,3.71,4.07A3.75,3.75,0,0,1,407.54,481.46Zm6.55,0c0-1.71-1-3.29-2.84-3.29s-2.81,1.58-2.81,3.29,1,3.32,2.81,3.32S414.09,483.19,414.09,481.46Z"/><path class="cls-27" d="M422.34,480.12c0-1.5-.75-1.95-1.87-1.95A3.34,3.34,0,0,0,418,479.5v5.84h-.84v-7.73H418v1.17a3.88,3.88,0,0,1,2.78-1.36c1.57,0,2.43.76,2.43,2.51v5.41h-.83Z"/><path class="cls-27" d="M439,475.86l-3.89,9.48h-.35l-3.91-9.48v9.48h-.91V474.66h1.36l3.63,8.85,3.62-8.85h1.38v10.68H439Z"/><path class="cls-27" d="M442.56,474.66h4a3.12,3.12,0,1,1,0,6.24h-3.08v4.44h-.92Zm3.91.83h-3v4.58h3a2.29,2.29,0,1,0,0-4.58Z"/><path class="cls-27" d="M454.42,475.49h-3.49v-.83h7.91v.83h-3.49v9.85h-.93Z"/><path class="cls-27" d="M460.72,474.66h6.77v.83h-5.85v4h5.74v.83h-5.74v5.06h-.92Z"/><path class="cls-27" d="M367.58,497.45a12.72,12.72,0,0,1,2.14-7.08l.5.36a14.11,14.11,0,0,0,0,13.43l-.5.36A12.68,12.68,0,0,1,367.58,497.45Z"/><path class="cls-27" d="M374.54,491.49h-3.49v-.83H379v.83h-3.49v9.85h-.93Z"/><path class="cls-27" d="M382.12,493.42c2.36,0,3.65,1.87,3.65,4.09v.23H379.3a3,3,0,0,0,3,3.07,3.44,3.44,0,0,0,2.55-1.07l.43.54a4,4,0,0,1-3,1.25,4.06,4.06,0,0,1-.15-8.11Zm-2.82,3.66h5.62a2.83,2.83,0,0,0-2.81-2.95A2.93,2.93,0,0,0,379.3,497.08Z"/><path class="cls-27" d="M392.83,500.43a3.39,3.39,0,0,1-2.63,1.1,2.58,2.58,0,0,1-2.7-2.58,2.54,2.54,0,0,1,2.7-2.54,3.35,3.35,0,0,1,2.63,1.09v-1.57a1.85,1.85,0,0,0-2.08-1.78,3,3,0,0,0-2.42,1.14l-.47-.56a3.72,3.72,0,0,1,3-1.31c1.58,0,2.83.75,2.83,2.48v5.44h-.83Zm0-2.31a2.93,2.93,0,0,0-2.34-1.07,1.92,1.92,0,1,0,0,3.82,2.91,2.91,0,0,0,2.34-1.05Z"/><path class="cls-27" d="M405.45,495.93c0-1.09-.46-1.76-1.55-1.76a2.88,2.88,0,0,0-2.21,1.31v5.86h-.85v-5.41c0-1.09-.45-1.76-1.55-1.76a2.94,2.94,0,0,0-2.21,1.33v5.84h-.83v-7.73h.83v1.17a3.4,3.4,0,0,1,2.5-1.36,1.94,1.94,0,0,1,2,1.45,3.2,3.2,0,0,1,2.56-1.45c1.43,0,2.11.79,2.11,2.35v5.57h-.83Z"/><path class="cls-27" d="M412.57,497.46a3.74,3.74,0,1,1,3.71,4.07A3.74,3.74,0,0,1,412.57,497.46Zm6.54,0c0-1.71-1-3.29-2.83-3.29s-2.82,1.58-2.82,3.29,1,3.32,2.82,3.32S419.11,499.19,419.11,497.46Z"/><path class="cls-27" d="M422.42,494.34h-1.28v-.73h1.28v-.71c0-1.52.82-2.4,2.1-2.4a2.1,2.1,0,0,1,1,.24l-.25.66a1.41,1.41,0,0,0-.71-.18c-.88,0-1.34.61-1.34,1.68v.71h1.56v.73h-1.56v7h-.84Z"/><path class="cls-27" d="M430.57,490.66h6.77v.83h-5.86v4h5.75v.83h-5.75v4.23h5.86v.83h-6.77Z"/><path class="cls-27" d="M442.1,497.93l-2.57,3.41h-1l3-4-2.88-3.76h1l2.4,3.18,2.39-3.18h1l-2.88,3.76,3.06,4h-1Z"/><path class="cls-27" d="M447.22,504.28V493.61h.84v1.23a3.28,3.28,0,0,1,2.69-1.42c2.06,0,3.45,1.56,3.45,4s-1.39,4.07-3.45,4.07a3.3,3.3,0,0,1-2.69-1.44v4.19Zm3.38-10.11a3.08,3.08,0,0,0-2.54,1.39v3.81a3.12,3.12,0,0,0,2.54,1.41c1.73,0,2.71-1.44,2.71-3.32S452.33,494.17,450.6,494.17Z"/><path class="cls-27" d="M459.63,493.42c2.35,0,3.64,1.87,3.64,4.09v.23h-6.46a3,3,0,0,0,3,3.07,3.44,3.44,0,0,0,2.54-1.07l.43.54a4,4,0,0,1-3,1.25,4.06,4.06,0,0,1-.14-8.11Zm-2.82,3.66h5.62a2.84,2.84,0,0,0-2.82-2.95A2.91,2.91,0,0,0,456.81,497.08Z"/><path class="cls-27" d="M465.42,493.61h.83v1.33a3.29,3.29,0,0,1,2.61-1.49v.91a2.86,2.86,0,0,0-.42,0,2.94,2.94,0,0,0-2.19,1.37v5.64h-.83Z"/><path class="cls-27" d="M470.65,499.85v-5.49h-1.28v-.75h1.28v-2.12h.85v2.12h1.56v.75H471.5v5.36c0,.63.25,1.06.8,1.06a1.23,1.23,0,0,0,.86-.37l.32.64a1.72,1.72,0,0,1-1.31.48C471.14,501.53,470.65,500.91,470.65,499.85Z"/><path class="cls-27" d="M474.71,499.69a3.21,3.21,0,0,0,2.5,1.14c1.3,0,2.06-.64,2.06-1.54s-1-1.28-2.17-1.57c-1.28-.32-2.71-.66-2.71-2.16,0-1.18,1-2.14,2.76-2.14a3.5,3.5,0,0,1,2.76,1.15l-.46.57a2.84,2.84,0,0,0-2.3-1c-1.21,0-1.94.59-1.94,1.39s1,1.12,2.06,1.39c1.33.34,2.82.71,2.82,2.36,0,1.25-1,2.27-2.9,2.27a3.71,3.71,0,0,1-3-1.22Z"/><path class="cls-27" d="M363.75,512a5.3,5.3,0,0,1,5.38-5.52,4.84,4.84,0,0,1,3.92,1.88l-.76.5a3.9,3.9,0,0,0-3.16-1.55,4.7,4.7,0,0,0,0,9.38,3.91,3.91,0,0,0,3.16-1.56l.76.48a4.79,4.79,0,0,1-3.92,1.91A5.3,5.3,0,0,1,363.75,512Z"/><path class="cls-27" d="M378.17,512.92h-2.35v4.42h-.91V506.66h4a3,3,0,0,1,3.25,3.12,3,3,0,0,1-3,3.08l3.09,4.48h-1.1Zm.64-5.43h-3v4.6h3a2.3,2.3,0,1,0,0-4.6Z"/><path class="cls-27" d="M384.41,515.14a4.33,4.33,0,0,0,3.33,1.56c2.19,0,2.82-1.22,2.82-2.13,0-1.51-1.44-1.92-2.93-2.32-1.68-.47-3.48-.95-3.48-2.92,0-1.74,1.57-2.84,3.51-2.84a4.63,4.63,0,0,1,3.62,1.5l-.61.67a3.82,3.82,0,0,0-3.06-1.34c-1.42,0-2.49.81-2.49,2s1.32,1.63,2.78,2c1.71.48,3.62,1,3.62,3.2,0,1.36-.91,3-3.8,3a4.88,4.88,0,0,1-3.9-1.7Z"/><path class="cls-27" d="M392.62,506.66h1.06l3.87,9.65,3.89-9.65h1.05l-4.37,10.68H397Z"/><path class="cls-27" d="M403,506.73l.5-.36a12.77,12.77,0,0,1,0,14.15l-.5-.36a14.11,14.11,0,0,0,0-13.43Z"/><path class="cls-27" d="M370.92,530.12v9.22H370V528.66h.93l6.69,9.09v-9.09h.91v10.68h-.89Z"/><path class="cls-27" d="M380.71,535.46a3.74,3.74,0,1,1,3.72,4.07A3.75,3.75,0,0,1,380.71,535.46Zm6.55,0c0-1.71-1-3.29-2.83-3.29s-2.82,1.58-2.82,3.29,1,3.32,2.82,3.32S387.26,537.19,387.26,535.46Z"/><path class="cls-27" d="M390.3,531.61h.83v1.33a3.32,3.32,0,0,1,2.61-1.49v.91a2.77,2.77,0,0,0-.42,0,2.94,2.94,0,0,0-2.19,1.37v5.64h-.83Z"/><path class="cls-27" d="M399.84,532.73l-2.18,6.61h-.8l-2.51-7.73h.89l2.05,6.56,2.18-6.56h.72l2.18,6.56,2-6.56h.9l-2.51,7.73H402Z"/><path class="cls-27" d="M411.79,538.43a3.37,3.37,0,0,1-2.63,1.1,2.59,2.59,0,0,1-2.7-2.58,2.54,2.54,0,0,1,2.7-2.54,3.33,3.33,0,0,1,2.63,1.09v-1.57a1.85,1.85,0,0,0-2.08-1.78,3,3,0,0,0-2.42,1.14l-.46-.56a3.7,3.7,0,0,1,3-1.31c1.58,0,2.83.75,2.83,2.48v5.44h-.83Zm0-2.31a2.93,2.93,0,0,0-2.34-1.07,1.92,1.92,0,1,0,0,3.82,2.91,2.91,0,0,0,2.34-1Z"/><path class="cls-27" d="M415.5,541.72c.53,0,.88-.21,1.18-.94l.61-1.38L414,531.61H415l2.81,6.75,2.8-6.75h.94l-4,9.42a2.06,2.06,0,0,1-2,1.45,3,3,0,0,1-.82-.12l.14-.77A1.94,1.94,0,0,0,415.5,541.72Z"/><path class="cls-27" d="M375.87,550.66h4.38a2.65,2.65,0,0,1,2.95,2.72,2.42,2.42,0,0,1-1.87,2.45,2.71,2.71,0,0,1,2.08,2.63,2.76,2.76,0,0,1-3.08,2.88h-4.46Zm4.27,4.79a1.91,1.91,0,0,0,2.1-2,1.92,1.92,0,0,0-2.1-2h-3.36v4Zm.07,5.06a2,2,0,0,0,2.24-2.12,2.08,2.08,0,0,0-2.24-2.11h-3.43v4.23Z"/><path class="cls-27" d="M388.94,553.42c2.35,0,3.65,1.87,3.65,4.09v.23h-6.47a3,3,0,0,0,3,3.07,3.44,3.44,0,0,0,2.55-1.07l.43.54a4,4,0,0,1-3,1.25,4.06,4.06,0,0,1-.14-8.11Zm-2.82,3.66h5.62a2.84,2.84,0,0,0-2.82-3A2.92,2.92,0,0,0,386.12,557.08Z"/><path class="cls-27" d="M394.73,550.66h.83v10.68h-.83Z"/><path class="cls-27" d="M398.65,562.67a2.94,2.94,0,0,0,2.56,1.08,2.36,2.36,0,0,0,2.64-2.48v-1.21a3.34,3.34,0,0,1-2.69,1.44c-2.05,0-3.45-1.55-3.45-4s1.4-4,3.45-4a3.27,3.27,0,0,1,2.69,1.44v-1.25h.85v7.65c0,2.37-1.6,3.22-3.49,3.22a3.71,3.71,0,0,1-3-1.17Zm5.2-7.09a3.09,3.09,0,0,0-2.54-1.41c-1.71,0-2.71,1.42-2.71,3.29s1,3.29,2.71,3.29a3.11,3.11,0,0,0,2.54-1.41Z"/><path class="cls-27" d="M407.05,551.65a.65.65,0,0,1,.64-.64.64.64,0,0,1,.64.64.64.64,0,1,1-1.28,0Zm.22,2h.84v7.73h-.84Z"/><path class="cls-27" d="M415.92,560.2a3.91,3.91,0,0,1-2.79,1.33,2.15,2.15,0,0,1-2.43-2.48v-5.44h.83v5.25c0,1.5.75,1.92,1.87,1.92a3.35,3.35,0,0,0,2.52-1.28v-5.89h.83v7.73h-.83Z"/><path class="cls-27" d="M428.54,555.93c0-1.09-.46-1.76-1.55-1.76a2.88,2.88,0,0,0-2.21,1.31v5.86h-.85v-5.41c0-1.09-.45-1.76-1.55-1.76a2.94,2.94,0,0,0-2.21,1.33v5.84h-.83v-7.73h.83v1.17a3.4,3.4,0,0,1,2.5-1.36,1.94,1.94,0,0,1,2,1.45,3.2,3.2,0,0,1,2.56-1.45c1.43,0,2.11.79,2.11,2.35v5.57h-.83Z"/><path class="cls-27" d="M381.72,572.66h.93v6.56c0,2.16,1.14,3.48,3.24,3.48s3.23-1.32,3.23-3.48v-6.56h.93v6.58c0,2.64-1.41,4.29-4.16,4.29s-4.17-1.66-4.17-4.29Z"/><path class="cls-27" d="M397.89,578.12c0-1.5-.76-2-1.88-2a3.36,3.36,0,0,0-2.51,1.33v5.84h-.83v-7.73h.83v1.17a3.88,3.88,0,0,1,2.78-1.36,2.18,2.18,0,0,1,2.44,2.51v5.41h-.83Z"/><path class="cls-27" d="M401.08,573.65a.66.66,0,0,1,.64-.64.64.64,0,0,1,.64.64.64.64,0,0,1-.64.64A.65.65,0,0,1,401.08,573.65Zm.23,2h.83v7.73h-.83Z"/><path class="cls-27" d="M404.89,581.85v-5.49h-1.28v-.75h1.28v-2.12h.85v2.12h1.57v.75h-1.57v5.36c0,.63.25,1.06.8,1.06a1.19,1.19,0,0,0,.86-.37l.32.64a1.72,1.72,0,0,1-1.31.48C405.39,583.53,404.89,582.91,404.89,581.85Z"/><path class="cls-27" d="M412.41,575.42c2.36,0,3.65,1.87,3.65,4.09v.23H409.6a3,3,0,0,0,3,3.07,3.44,3.44,0,0,0,2.55-1.07l.43.54a4,4,0,0,1-3,1.25,4.06,4.06,0,0,1-.15-8.11Zm-2.81,3.66h5.61a2.83,2.83,0,0,0-2.81-3A2.91,2.91,0,0,0,409.6,579.08Z"/><path class="cls-27" d="M423.9,582.11a3.29,3.29,0,0,1-2.69,1.42c-2,0-3.45-1.57-3.45-4s1.4-4.06,3.45-4.06a3.27,3.27,0,0,1,2.69,1.44v-4.2h.85v10.68h-.85Zm0-4.53a3.08,3.08,0,0,0-2.54-1.41c-1.72,0-2.71,1.44-2.71,3.31s1,3.3,2.71,3.3a3.1,3.1,0,0,0,2.54-1.38Z"/><path class="cls-27" d="M433.61,578.31l-1.18,1.3v3.73h-.92V572.66h.92v5.84l5.15-5.84h1.17l-4.55,5.09,5,5.59H438Z"/><path class="cls-27" d="M440.63,573.65a.66.66,0,0,1,.64-.64.64.64,0,0,1,0,1.28A.65.65,0,0,1,440.63,573.65Zm.23,2h.83v7.73h-.83Z"/><path class="cls-27" d="M449.5,578.12c0-1.5-.75-2-1.87-2a3.38,3.38,0,0,0-2.52,1.33v5.84h-.83v-7.73h.83v1.17a3.92,3.92,0,0,1,2.79-1.36c1.57,0,2.43.76,2.43,2.51v5.41h-.83Z"/><path class="cls-27" d="M453.42,584.67a2.93,2.93,0,0,0,2.56,1.08,2.36,2.36,0,0,0,2.64-2.48v-1.21a3.36,3.36,0,0,1-2.69,1.44c-2.05,0-3.46-1.55-3.46-4s1.41-4,3.46-4a3.27,3.27,0,0,1,2.69,1.44v-1.25h.85v7.65c0,2.37-1.6,3.22-3.49,3.22a3.7,3.7,0,0,1-3-1.17Zm5.2-7.09a3.09,3.09,0,0,0-2.54-1.41c-1.72,0-2.71,1.42-2.71,3.29s1,3.29,2.71,3.29a3.11,3.11,0,0,0,2.54-1.41Z"/><path class="cls-27" d="M467.74,582.11a3.29,3.29,0,0,1-2.69,1.42c-2.05,0-3.46-1.57-3.46-4s1.41-4.06,3.46-4.06a3.27,3.27,0,0,1,2.69,1.44v-4.2h.85v10.68h-.85Zm0-4.53a3.08,3.08,0,0,0-2.54-1.41c-1.72,0-2.71,1.44-2.71,3.31s1,3.3,2.71,3.3a3.1,3.1,0,0,0,2.54-1.38Z"/><path class="cls-27" d="M470.73,579.46a3.74,3.74,0,1,1,3.71,4.07A3.75,3.75,0,0,1,470.73,579.46Zm6.55,0c0-1.71-1-3.29-2.84-3.29s-2.81,1.58-2.81,3.29,1,3.32,2.81,3.32S477.28,581.19,477.28,579.46Z"/><path class="cls-27" d="M489.52,577.93c0-1.09-.47-1.76-1.56-1.76a2.86,2.86,0,0,0-2.2,1.31v5.86h-.85v-5.41c0-1.09-.45-1.76-1.56-1.76a2.94,2.94,0,0,0-2.2,1.33v5.84h-.84v-7.73h.84v1.17a3.37,3.37,0,0,1,2.49-1.36,2,2,0,0,1,2,1.45,3.2,3.2,0,0,1,2.56-1.45c1.42,0,2.11.79,2.11,2.35v5.57h-.83Z"/><line class="cls-28" x1="286.23" y1="261.5" x2="200.14" y2="261.5"/><rect class="cls-29" x="283.63" y="259.02" width="4.95" height="4.95"/><path class="cls-29" d="M200.26,259.24a2.26,2.26,0,1,0,2.25,2.26A2.26,2.26,0,0,0,200.26,259.24Z"/><line class="cls-28" x1="370.23" y1="579" x2="286.64" y2="579"/><rect class="cls-29" x="367.63" y="576.52" width="4.95" height="4.95"/><path class="cls-29" d="M286.76,576.74A2.26,2.26,0,1,0,289,579,2.26,2.26,0,0,0,286.76,576.74Z"/><polyline class="cls-28" points="280.73 238 231.5 238 186.85 212.08"/><rect class="cls-29" x="278.13" y="235.52" width="4.95" height="4.95"/><path class="cls-29" d="M188.08,210.18a2.25,2.25,0,1,0,.82,3.09A2.26,2.26,0,0,0,188.08,210.18Z"/><polyline class="cls-28" points="363.73 557 322.5 557 284.96 573.63"/><rect class="cls-29" x="361.13" y="554.52" width="4.95" height="4.95"/><path class="cls-29" d="M284.15,571.52a2.26,2.26,0,1,0,3,1.15A2.27,2.27,0,0,0,284.15,571.52Z"/><polyline class="cls-28" points="359.73 534.5 322 534.5 284.11 567.59"/><rect class="cls-29" x="357.13" y="532.02" width="4.95" height="4.95"/><path class="cls-29" d="M282.72,565.82a2.25,2.25,0,1,0,3.18.21A2.25,2.25,0,0,0,282.72,565.82Z"/><polyline class="cls-28" points="346.29 479.7 309.05 479.7 282.17 560.97"/><rect class="cls-29" x="343.69" y="477.22" width="4.95" height="4.95"/><path class="cls-29" d="M280.07,560.15a2.25,2.25,0,1,0,2.85-1.43A2.26,2.26,0,0,0,280.07,560.15Z"/><polyline class="cls-28" points="340.81 458.18 298.08 458.18 279.9 554.39"/><rect class="cls-29" x="338.21" y="455.71" width="4.95" height="4.95"/><path class="cls-29" d="M277.7,553.86a2.26,2.26,0,1,0,2.64-1.79A2.26,2.26,0,0,0,277.7,553.86Z"/><polyline class="cls-28" points="334.22 435.9 293.49 435.9 277.8 546.38"/><rect class="cls-29" x="331.62" y="433.43" width="4.95" height="4.95"/><path class="cls-29" d="M275.58,546a2.26,2.26,0,1,0,2.55-1.92A2.27,2.27,0,0,0,275.58,546Z"/><polyline class="cls-28" points="327.86 413.38 290.12 413.38 274.27 537.37"/><rect class="cls-29" x="325.26" y="410.91" width="4.95" height="4.95"/><path class="cls-29" d="M272.05,537a2.25,2.25,0,1,0,2.52-2A2.25,2.25,0,0,0,272.05,537Z"/><polyline class="cls-28" points="321.52 391.87 286.29 391.87 271.25 522.37"/><rect class="cls-29" x="318.92" y="389.39" width="4.95" height="4.95"/><path class="cls-29" d="M269,522a2.26,2.26,0,1,0,2.5-2A2.24,2.24,0,0,0,269,522Z"/><polyline class="cls-28" points="316.27 370.37 280.54 370.37 266.22 506.37"/><rect class="cls-29" x="313.67" y="367.89" width="4.95" height="4.95"/><path class="cls-29" d="M264,506a2.26,2.26,0,1,0,2.48-2A2.26,2.26,0,0,0,264,506Z"/><polyline class="cls-28" points="310.67 347.03 275.44 347.03 261.71 488.87"/><rect class="cls-29" x="308.07" y="344.55" width="4.95" height="4.95"/><path class="cls-29" d="M259.47,488.54a2.26,2.26,0,1,0,2.46-2A2.25,2.25,0,0,0,259.47,488.54Z"/><polyline class="cls-28" points="303.73 326.13 271 326.13 256.71 468.87"/><rect class="cls-29" x="301.13" y="323.66" width="4.95" height="4.95"/><path class="cls-29" d="M254.48,468.53a2.26,2.26,0,1,0,2.47-2A2.26,2.26,0,0,0,254.48,468.53Z"/><polyline class="cls-28" points="296.23 304 265 304 250.22 448.37"/><rect class="cls-29" x="293.63" y="301.52" width="4.95" height="4.95"/><path class="cls-29" d="M248,448a2.25,2.25,0,1,0,2.47-2A2.25,2.25,0,0,0,248,448Z"/><polyline class="cls-28" points="291.77 282.42 250.54 282.42 234.34 384.38"/><rect class="cls-29" x="289.17" y="279.94" width="4.95" height="4.95"/><path class="cls-29" d="M232.13,383.92a2.25,2.25,0,1,0,2.58-1.88A2.25,2.25,0,0,0,232.13,383.92Z"/><path class="cls-27" d="M5.71,434h6.77v.83H6.62v3.95h5.75v.84H6.62v5.05H5.71Z"/><path class="cls-27" d="M14.35,436.94h.83v1.33a3.35,3.35,0,0,1,2.61-1.49v.92a2.72,2.72,0,0,0-.42,0A3,3,0,0,0,15.18,439v5.63h-.83Z"/><path class="cls-27" d="M24.33,443.76a3.36,3.36,0,0,1-2.62,1.11A2.6,2.6,0,0,1,19,442.29a2.54,2.54,0,0,1,2.71-2.54,3.34,3.34,0,0,1,2.62,1.08v-1.57a1.84,1.84,0,0,0-2.08-1.77,3,3,0,0,0-2.41,1.13l-.47-.56a3.71,3.71,0,0,1,3-1.31c1.59,0,2.84.75,2.84,2.48v5.44h-.84Zm0-2.3A2.88,2.88,0,0,0,22,440.38a1.92,1.92,0,1,0,0,3.83,2.87,2.87,0,0,0,2.33-1.06Z"/><path class="cls-27" d="M33,439.46c0-1.51-.75-2-1.87-2a3.34,3.34,0,0,0-2.51,1.33v5.84h-.83v-7.73h.83v1.17a3.92,3.92,0,0,1,2.78-1.36,2.18,2.18,0,0,1,2.44,2.51v5.41H33Z"/><path class="cls-27" d="M39.71,436.75a3.23,3.23,0,0,1,2.74,1.31l-.58.52a2.48,2.48,0,0,0-2.11-1.08c-1.81,0-2.92,1.44-2.92,3.3s1.11,3.31,2.92,3.31A2.5,2.5,0,0,0,41.87,443l.58.51a3.2,3.2,0,0,1-2.74,1.33,4.07,4.07,0,0,1,0-8.12Z"/><path class="cls-27" d="M47.58,436.75c2.35,0,3.65,1.87,3.65,4.1v.22H44.76a3,3,0,0,0,3,3.08,3.41,3.41,0,0,0,2.55-1.08l.43.55a4,4,0,0,1-3,1.25,4.07,4.07,0,0,1-.14-8.12Zm-2.82,3.67h5.62a2.83,2.83,0,0,0-2.82-2.95A2.92,2.92,0,0,0,44.76,440.42Z"/><path class="cls-27" d="M5.71,456h.91v9.84h5.17v.83H5.71Z"/><path class="cls-27" d="M18.69,465.54a4,4,0,0,1-2.79,1.33,2.15,2.15,0,0,1-2.43-2.48v-5.45h.83v5.25c0,1.51.75,1.92,1.87,1.92a3.35,3.35,0,0,0,2.52-1.28v-5.89h.83v7.73h-.83Z"/><path class="cls-27" d="M24.65,463.27l-2.57,3.4h-1l3.06-4-2.88-3.77h1l2.4,3.19L27,458.94h1l-2.88,3.77,3.06,4h-1Z"/><path class="cls-27" d="M32.48,458.75c2.35,0,3.65,1.87,3.65,4.1v.22H29.66a3,3,0,0,0,3,3.08,3.41,3.41,0,0,0,2.54-1.08l.44.55a4,4,0,0,1-3,1.25,4.07,4.07,0,0,1-.14-8.12Zm-2.82,3.67h5.62a2.84,2.84,0,0,0-2.82-2.95A2.91,2.91,0,0,0,29.66,462.42Z"/><path class="cls-27" d="M47.47,461.26c0-1.08-.46-1.76-1.55-1.76a2.86,2.86,0,0,0-2.21,1.32v5.85h-.85v-5.41c0-1.08-.45-1.76-1.55-1.76a3,3,0,0,0-2.21,1.33v5.84h-.83v-7.73h.83v1.17a3.43,3.43,0,0,1,2.5-1.36,2,2,0,0,1,2,1.46,3.21,3.21,0,0,1,2.56-1.46c1.43,0,2.11.8,2.11,2.35v5.57h-.83Z"/><path class="cls-27" d="M50.89,456h.83v4.19a3.31,3.31,0,0,1,2.69-1.44c2.07,0,3.46,1.62,3.46,4.07s-1.41,4.05-3.46,4.05a3.31,3.31,0,0,1-2.69-1.43v1.23h-.83Zm3.38,10.11c1.73,0,2.7-1.42,2.7-3.29s-1-3.32-2.7-3.32a3.18,3.18,0,0,0-2.55,1.41v3.83A3.15,3.15,0,0,0,54.27,466.11Z"/><path class="cls-27" d="M59.58,462.8a3.74,3.74,0,1,1,3.71,4.07A3.75,3.75,0,0,1,59.58,462.8Zm6.55,0c0-1.71-1-3.3-2.84-3.3s-2.81,1.59-2.81,3.3,1,3.31,2.81,3.31S66.13,464.53,66.13,462.8Z"/><path class="cls-27" d="M74.38,465.54a3.93,3.93,0,0,1-2.78,1.33,2.15,2.15,0,0,1-2.44-2.48v-5.45H70v5.25c0,1.51.75,1.92,1.87,1.92a3.33,3.33,0,0,0,2.51-1.28v-5.89h.83v7.73h-.83Z"/><path class="cls-27" d="M77.8,458.94h.84v1.33a3.31,3.31,0,0,1,2.6-1.49v.92a2.59,2.59,0,0,0-.41,0A2.94,2.94,0,0,0,78.64,461v5.63H77.8Z"/><path class="cls-27" d="M83.37,468a3,3,0,0,0,2.56,1.09,2.36,2.36,0,0,0,2.64-2.48v-1.22a3.32,3.32,0,0,1-2.69,1.44c-2,0-3.45-1.55-3.45-4s1.4-4.05,3.45-4.05a3.3,3.3,0,0,1,2.69,1.44v-1.25h.85v7.65c0,2.37-1.6,3.22-3.49,3.22a3.71,3.71,0,0,1-3-1.17Zm5.2-7.09A3.11,3.11,0,0,0,86,459.5c-1.71,0-2.71,1.43-2.71,3.3s1,3.28,2.71,3.28a3.09,3.09,0,0,0,2.54-1.41Z"/><path class="cls-27" d="M14.18,487.36l1.1,1.17-.62.58-1.14-1.17a5.1,5.1,0,0,1-3,.93c-3.13,0-5.18-2.4-5.18-5.53s2.05-5.52,5.18-5.52,5.19,2.4,5.19,5.52A5.68,5.68,0,0,1,14.18,487.36Zm-1.27-.06-1.65-1.71.64-.6,1.65,1.73a5,5,0,0,0,1.17-3.38c0-2.7-1.67-4.69-4.23-4.69s-4.22,2-4.22,4.69S7.9,488,10.49,488A4.15,4.15,0,0,0,12.91,487.3Z"/><path class="cls-27" d="M22.81,487.76a3.36,3.36,0,0,1-2.62,1.11,2.6,2.6,0,0,1-2.71-2.58,2.54,2.54,0,0,1,2.71-2.54,3.34,3.34,0,0,1,2.62,1.08v-1.57a1.84,1.84,0,0,0-2.08-1.77,3,3,0,0,0-2.41,1.13l-.47-.56a3.71,3.71,0,0,1,3-1.31c1.59,0,2.84.75,2.84,2.48v5.44h-.84Zm0-2.3a2.87,2.87,0,0,0-2.33-1.08,1.92,1.92,0,1,0,0,3.83,2.85,2.85,0,0,0,2.33-1.06Z"/><path class="cls-27" d="M26.4,487.19V481.7H25.12v-.76H26.4v-2.11h.84v2.11h1.57v.76H27.24v5.36c0,.62.26,1.05.8,1.05a1.23,1.23,0,0,0,.87-.36l.32.64a1.76,1.76,0,0,1-1.31.48C26.89,488.87,26.4,488.24,26.4,487.19Z"/><path class="cls-27" d="M35.55,487.76a3.38,3.38,0,0,1-2.63,1.11,2.59,2.59,0,0,1-2.7-2.58,2.54,2.54,0,0,1,2.7-2.54,3.36,3.36,0,0,1,2.63,1.08v-1.57a1.85,1.85,0,0,0-2.08-1.77,3,3,0,0,0-2.42,1.13l-.46-.56a3.7,3.7,0,0,1,3-1.31c1.58,0,2.83.75,2.83,2.48v5.44h-.83Zm0-2.3a2.89,2.89,0,0,0-2.34-1.08,1.92,1.92,0,1,0,0,3.83,2.87,2.87,0,0,0,2.34-1.06Z"/><path class="cls-27" d="M39,480.94h.83v1.33a3.35,3.35,0,0,1,2.61-1.49v.92a2.59,2.59,0,0,0-.41,0A3,3,0,0,0,39.8,483v5.63H39Z"/><path class="cls-27" d="M5.71,500h.91v10.67H5.71Z"/><path class="cls-27" d="M9.24,502.94h.84v1.33a3.32,3.32,0,0,1,2.61-1.49v.92a2.85,2.85,0,0,0-.42,0A2.94,2.94,0,0,0,10.08,505v5.63H9.24Z"/><path class="cls-27" d="M17.6,502.75c2.35,0,3.65,1.87,3.65,4.1v.22H14.78a3,3,0,0,0,3,3.08,3.41,3.41,0,0,0,2.54-1.08l.44.55a4,4,0,0,1-3,1.25,4.07,4.07,0,0,1-.14-8.12Zm-2.82,3.67H20.4a2.84,2.84,0,0,0-2.82-2.95A2.91,2.91,0,0,0,14.78,506.42Z"/><path class="cls-27" d="M23.39,500h.83v10.67h-.83Z"/><path class="cls-27" d="M31.73,509.76a3.4,3.4,0,0,1-2.63,1.11,2.59,2.59,0,0,1-2.7-2.58,2.54,2.54,0,0,1,2.7-2.54,3.37,3.37,0,0,1,2.63,1.08v-1.57a1.85,1.85,0,0,0-2.09-1.77,3,3,0,0,0-2.41,1.13l-.47-.56a3.71,3.71,0,0,1,3-1.31c1.59,0,2.84.75,2.84,2.48v5.44h-.83Zm0-2.3a2.9,2.9,0,0,0-2.34-1.08,1.92,1.92,0,1,0,0,3.83,2.89,2.89,0,0,0,2.34-1.06Z"/><path class="cls-27" d="M40.37,505.46c0-1.51-.76-2-1.88-2A3.36,3.36,0,0,0,36,504.83v5.84h-.83v-7.73H36v1.17a3.92,3.92,0,0,1,2.78-1.36,2.18,2.18,0,0,1,2.44,2.51v5.41h-.83Z"/><path class="cls-27" d="M49.48,509.44a3.28,3.28,0,0,1-2.68,1.43c-2,0-3.46-1.57-3.46-4.05s1.41-4.07,3.46-4.07a3.29,3.29,0,0,1,2.68,1.44V500h.85v10.67h-.85Zm0-4.53a3.07,3.07,0,0,0-2.54-1.41c-1.71,0-2.71,1.44-2.71,3.32s1,3.29,2.71,3.29a3.09,3.09,0,0,0,2.54-1.37Z"/><path class="cls-27" d="M5.71,522h.93v6.56c0,2.16,1.13,3.47,3.23,3.47s3.23-1.31,3.23-3.47V522H14v6.58c0,2.64-1.41,4.29-4.16,4.29s-4.16-1.67-4.16-4.29Z"/><path class="cls-27" d="M17.6,523.46v9.21h-.92V522h.93l6.69,9.09V522h.92v10.67h-.9Z"/><path class="cls-27" d="M35.55,527.6H28.78v5.07h-.91V522h.91v4.77h6.77V522h.93v10.67h-.93Z"/><path class="cls-27" d="M38.72,527.34a5.29,5.29,0,0,1,5.37-5.52A4.88,4.88,0,0,1,48,523.71l-.77.5a3.91,3.91,0,0,0-3.16-1.56,4.7,4.7,0,0,0,0,9.38,3.9,3.9,0,0,0,3.16-1.55L48,531a4.82,4.82,0,0,1-3.93,1.91A5.29,5.29,0,0,1,38.72,527.34Z"/><path class="cls-27" d="M53.13,528.26H50.78v4.41h-.91V522h4a3,3,0,0,1,3.25,3.12,2.93,2.93,0,0,1-3,3.07l3.09,4.48h-1.1Zm.64-5.43h-3v4.59h3a2.3,2.3,0,1,0,0-4.59Z"/><path class="cls-27" d="M5.71,544h6.77v.83H6.62v3.95h5.75v.84H6.62v4.22h5.86v.83H5.71Z"/><path class="cls-27" d="M19.52,543.82c3.12,0,5.18,2.4,5.18,5.52s-2.06,5.53-5.18,5.53-5.19-2.4-5.19-5.53S16.38,543.82,19.52,543.82Zm0,.83c-2.6,0-4.23,2-4.23,4.69S16.92,554,19.52,554s4.22-2,4.22-4.69S22.08,544.65,19.52,544.65Z"/><path class="cls-27" d="M27,552.48A4.32,4.32,0,0,0,30.28,554c2.2,0,2.82-1.21,2.82-2.12,0-1.51-1.44-1.92-2.93-2.33-1.68-.46-3.47-.94-3.47-2.91,0-1.74,1.57-2.85,3.5-2.85a4.59,4.59,0,0,1,3.62,1.51l-.61.67a3.8,3.8,0,0,0-3.05-1.35c-1.43,0-2.5.82-2.5,2s1.33,1.64,2.78,2c1.72.48,3.62,1,3.62,3.2,0,1.36-.91,3-3.79,3a4.94,4.94,0,0,1-3.91-1.7Z"/><path class="cls-27" d="M41.26,543.82a5.09,5.09,0,0,1,4,1.83l-.69.49a4.37,4.37,0,0,0-3.33-1.49,4.71,4.71,0,0,0,0,9.4,4.5,4.5,0,0,0,3.14-1.3v-2.54h-4v-.83h5v3.73a5.43,5.43,0,0,1-4.05,1.77,5.53,5.53,0,0,1,0-11.06Z"/><path class="cls-27" d="M12.4,574.05H6.72l-1.08,2.62h-1L9,566h1.14l4.37,10.67h-1ZM7,573.22h5.11l-2.56-6.33Z"/><path class="cls-27" d="M21.07,575.54a3.93,3.93,0,0,1-2.78,1.33,2.15,2.15,0,0,1-2.44-2.48v-5.45h.83v5.25c0,1.51.76,1.92,1.88,1.92a3.33,3.33,0,0,0,2.51-1.28v-5.89h.83v7.73h-.83Z"/><path class="cls-27" d="M24.32,575a3.19,3.19,0,0,0,2.49,1.13c1.3,0,2.07-.64,2.07-1.53s-1.06-1.28-2.18-1.57c-1.28-.32-2.7-.66-2.7-2.16,0-1.19,1-2.15,2.75-2.15a3.51,3.51,0,0,1,2.77,1.15l-.47.58a2.79,2.79,0,0,0-2.3-1c-1.2,0-1.94.59-1.94,1.39s1,1.12,2.07,1.39c1.33.34,2.81.71,2.81,2.35,0,1.25-1,2.28-2.89,2.28a3.75,3.75,0,0,1-3-1.22Z"/><path class="cls-27" d="M32,575.19V569.7H30.72v-.76H32v-2.11h.84v2.11h1.57v.76H32.84v5.36c0,.62.26,1.05.8,1.05a1.23,1.23,0,0,0,.87-.36l.32.64a1.77,1.77,0,0,1-1.31.48C32.49,576.87,32,576.24,32,575.19Z"/><path class="cls-27" d="M36.24,568.94h.83v1.33a3.32,3.32,0,0,1,2.61-1.49v.92a2.85,2.85,0,0,0-.42,0A3,3,0,0,0,37.07,571v5.63h-.83Z"/><path class="cls-27" d="M41.08,567a.66.66,0,0,1,.64-.64.64.64,0,1,1,0,1.28A.66.66,0,0,1,41.08,567Zm.23,2h.83v7.73h-.83Z"/><path class="cls-27" d="M49.65,575.76A3.4,3.4,0,0,1,47,576.87a2.6,2.6,0,0,1-2.71-2.58A2.55,2.55,0,0,1,47,571.75a3.37,3.37,0,0,1,2.63,1.08v-1.57a1.85,1.85,0,0,0-2.09-1.77,3,3,0,0,0-2.41,1.13l-.47-.56a3.71,3.71,0,0,1,3-1.31c1.59,0,2.84.75,2.84,2.48v5.44h-.83Zm0-2.3a2.9,2.9,0,0,0-2.34-1.08,1.92,1.92,0,1,0,0,3.83,2.89,2.89,0,0,0,2.34-1.06Z"/><path class="cls-27" d="M5.71,588h4a3.12,3.12,0,1,1,0,6.24H6.62v4.43H5.71Zm3.9.83h-3v4.58h3a2.29,2.29,0,1,0,0-4.58Z"/><path class="cls-27" d="M14.81,590.94h.83v1.33a3.35,3.35,0,0,1,2.61-1.49v.92a2.59,2.59,0,0,0-.41,0,3,3,0,0,0-2.2,1.38v5.63h-.83Z"/><path class="cls-27" d="M19.66,589a.65.65,0,0,1,.64-.64.64.64,0,1,1,0,1.28A.65.65,0,0,1,19.66,589Zm.22,2h.84v7.73h-.84Z"/><path class="cls-27" d="M22.12,590.94h.93l2.8,6.76,2.8-6.76h1l-3.27,7.73h-.94Z"/><path class="cls-27" d="M35.92,597.76a3.4,3.4,0,0,1-2.63,1.11,2.59,2.59,0,0,1-2.7-2.58,2.54,2.54,0,0,1,2.7-2.54,3.37,3.37,0,0,1,2.63,1.08v-1.57a1.85,1.85,0,0,0-2.08-1.77,3,3,0,0,0-2.42,1.13l-.46-.56a3.7,3.7,0,0,1,3-1.31c1.58,0,2.83.75,2.83,2.48v5.44h-.83Zm0-2.3a2.9,2.9,0,0,0-2.34-1.08,1.92,1.92,0,1,0,0,3.83,2.89,2.89,0,0,0,2.34-1.06Z"/><path class="cls-27" d="M39.5,597.19V591.7H38.22v-.76H39.5v-2.11h.85v2.11h1.57v.76H40.35v5.36c0,.62.25,1.05.8,1.05a1.19,1.19,0,0,0,.86-.36l.32.64a1.76,1.76,0,0,1-1.31.48C40,598.87,39.5,598.24,39.5,597.19Z"/><path class="cls-27" d="M47,590.75c2.35,0,3.65,1.87,3.65,4.1v.22H44.2a3,3,0,0,0,3,3.08,3.45,3.45,0,0,0,2.55-1.08l.43.55a4,4,0,0,1-3,1.25,4.07,4.07,0,0,1-.14-8.12Zm-2.82,3.67h5.62A2.83,2.83,0,0,0,47,591.47,2.92,2.92,0,0,0,44.2,594.42Z"/><path class="cls-27" d="M9,606.75a3.23,3.23,0,0,1,2.74,1.31l-.58.52A2.47,2.47,0,0,0,9,607.5c-1.81,0-2.92,1.44-2.92,3.3s1.11,3.31,2.92,3.31A2.49,2.49,0,0,0,11.15,613l.58.51A3.2,3.2,0,0,1,9,614.87a4.07,4.07,0,0,1,0-8.12Z"/><path class="cls-27" d="M13.13,610.8a3.74,3.74,0,1,1,3.72,4.07A3.75,3.75,0,0,1,13.13,610.8Zm6.55,0c0-1.71-1-3.3-2.83-3.3S14,609.09,14,610.8s1,3.31,2.82,3.31S19.68,612.53,19.68,610.8Z"/><path class="cls-27" d="M27.93,609.46c0-1.51-.75-2-1.87-2a3.34,3.34,0,0,0-2.51,1.33v5.84h-.83v-7.73h.83v1.17a3.92,3.92,0,0,1,2.78-1.36,2.18,2.18,0,0,1,2.44,2.51v5.41h-.84Z"/><path class="cls-27" d="M31.52,613.19V607.7H30.24v-.76h1.28v-2.11h.84v2.11h1.57v.76H32.36v5.36c0,.62.26,1.05.8,1.05a1.23,1.23,0,0,0,.87-.36l.32.64a1.77,1.77,0,0,1-1.31.48C32,614.87,31.52,614.24,31.52,613.19Z"/><path class="cls-27" d="M35.76,606.94h.83v1.33a3.32,3.32,0,0,1,2.61-1.49v.92a2.85,2.85,0,0,0-.42,0A3,3,0,0,0,36.59,609v5.63h-.83Z"/><path class="cls-27" d="M40.6,605a.66.66,0,0,1,.64-.64.64.64,0,1,1,0,1.28A.66.66,0,0,1,40.6,605Zm.23,2h.83v7.73h-.83Z"/><path class="cls-27" d="M44.25,604h.83v4.19a3.31,3.31,0,0,1,2.69-1.44c2.07,0,3.46,1.62,3.46,4.07s-1.41,4-3.46,4a3.31,3.31,0,0,1-2.69-1.43v1.23h-.83Zm3.38,10.11c1.73,0,2.7-1.42,2.7-3.29s-1-3.32-2.7-3.32a3.18,3.18,0,0,0-2.55,1.41v3.83A3.15,3.15,0,0,0,47.63,614.11Z"/><path class="cls-27" d="M58.61,613.54a4,4,0,0,1-2.79,1.33,2.15,2.15,0,0,1-2.43-2.48v-5.45h.83v5.25c0,1.51.75,1.92,1.87,1.92a3.37,3.37,0,0,0,2.52-1.28v-5.89h.83v7.73h-.83Z"/><path class="cls-27" d="M62.19,613.19V607.7H60.91v-.76h1.28v-2.11H63v2.11H64.6v.76H63v5.36c0,.62.25,1.05.8,1.05a1.22,1.22,0,0,0,.86-.36l.32.64a1.76,1.76,0,0,1-1.31.48C62.68,614.87,62.19,614.24,62.19,613.19Z"/><path class="cls-27" d="M66.2,605a.66.66,0,0,1,.64-.64.64.64,0,1,1,0,1.28A.66.66,0,0,1,66.2,605Zm.23,2h.83v7.73h-.83Z"/><path class="cls-27" d="M69.4,610.8a3.74,3.74,0,1,1,3.72,4.07A3.75,3.75,0,0,1,69.4,610.8Zm6.55,0c0-1.71-1-3.3-2.83-3.3s-2.82,1.59-2.82,3.3,1,3.31,2.82,3.31S76,612.53,76,610.8Z"/><path class="cls-27" d="M84.21,609.46c0-1.51-.76-2-1.88-2a3.36,3.36,0,0,0-2.51,1.33v5.84H79v-7.73h.83v1.17a3.92,3.92,0,0,1,2.78-1.36A2.18,2.18,0,0,1,85,609.26v5.41h-.83Z"/><line class="cls-28" x1="153.36" y1="440.5" x2="58.9" y2="440.5"/><circle class="cls-29" cx="153.24" cy="440.5" r="2.26" transform="translate(-309.28 380.57) rotate(-63.43)"/><rect class="cls-29" x="56.55" y="438.02" width="4.95" height="4.95"/><line class="cls-28" x1="165.36" y1="484.5" x2="50.9" y2="484.5"/><circle class="cls-29" cx="165.24" cy="484.5" r="2.26" transform="translate(-344.24 434.77) rotate(-65.59)"/><rect class="cls-29" x="48.55" y="482.02" width="4.95" height="4.95"/><line class="cls-28" x1="170.86" y1="506.5" x2="59.03" y2="506.5"/><circle class="cls-29" cx="170.74" cy="506.5" r="2.26" transform="translate(-362.54 470.42) rotate(-67.5)"/><rect class="cls-29" x="56.68" y="504.02" width="4.95" height="4.95"/><line class="cls-28" x1="176.36" y1="528.5" x2="64.9" y2="528.5"/><circle class="cls-29" cx="176.24" cy="528.5" r="2.26" transform="translate(-379.47 489.08) rotate(-67.5)"/><rect class="cls-29" x="62.55" y="526.02" width="4.95" height="4.95"/><line class="cls-28" x1="181.86" y1="549.5" x2="54.4" y2="549.5"/><circle class="cls-29" cx="181.74" cy="549.5" r="2.26" transform="translate(-395.48 507.12) rotate(-67.5)"/><rect class="cls-29" x="52.05" y="547.02" width="4.95" height="4.95"/><line class="cls-28" x1="188.36" y1="572.5" x2="59.4" y2="572.5"/><path class="cls-29" d="M188.24,570.24A2.26,2.26,0,1,1,186,572.5,2.26,2.26,0,0,1,188.24,570.24Z"/><rect class="cls-29" x="57.05" y="570.02" width="4.95" height="4.95"/><line class="cls-28" x1="195.36" y1="594.5" x2="59.4" y2="594.5"/><path class="cls-29" d="M195.24,592.24A2.26,2.26,0,1,1,193,594.5,2.26,2.26,0,0,1,195.24,592.24Z"/><rect class="cls-29" x="57.05" y="592.02" width="4.95" height="4.95"/><line class="cls-28" x1="158.86" y1="462.5" x2="98.9" y2="462.5"/><circle class="cls-29" cx="158.74" cy="462.5" r="2.26" transform="translate(-318.14 354.38) rotate(-58.28)"/><rect class="cls-29" x="96.55" y="460.02" width="4.95" height="4.95"/><line class="cls-28" x1="153.5" y1="441" x2="195" y2="595.5"/><line class="cls-28" x1="191" y1="582.92" x2="195.83" y2="582.92"/><polyline class="cls-28" points="215.13 584.92 196.5 584.92 195 580.42 213.63 580.42"/><path class="cls-30" d="M210.53,112.14l-3.89,9.54h-.76L202,112.14v9.54h-1.8v-12h2.58l3.49,8.63,3.49-8.63h2.58v12h-1.8Z"/><path class="cls-30" d="M214.41,117.33a4.4,4.4,0,1,1,4.4,4.57A4.32,4.32,0,0,1,214.41,117.33Zm7.1,0c0-1.64-1-3.12-2.7-3.12a2.84,2.84,0,0,0-2.71,3.12c0,1.65,1,3.13,2.71,3.13S221.51,119,221.51,117.33Z"/><path class="cls-30" d="M225.25,109.67h1.62v4.58a3.48,3.48,0,0,1,2.84-1.48c2.27,0,3.87,1.78,3.87,4.57s-1.62,4.56-3.87,4.56a3.55,3.55,0,0,1-2.84-1.46v1.24h-1.62Zm4,10.79c1.62,0,2.63-1.3,2.63-3.12s-1-3.13-2.63-3.13a3,3,0,0,0-2.41,1.3v3.69A3,3,0,0,0,229.28,120.46Z"/><path class="cls-30" d="M235.4,110.5a1.06,1.06,0,0,1,1-1,1,1,0,0,1,1.05,1,1,1,0,0,1-1.05,1A1,1,0,0,1,235.4,110.5Zm.25,2.49h1.62v8.69h-1.62Z"/><path class="cls-30" d="M239.85,109.67h1.62v12h-1.62Z"/><path class="cls-30" d="M243.79,110.5a1.05,1.05,0,0,1,1-1,1,1,0,0,1,1,1,1,1,0,0,1-1,1A1,1,0,0,1,243.79,110.5ZM244,113h1.62v8.69H244Z"/><path class="cls-30" d="M247.82,120.44l4.53-6h-4.53V113h6.68v1.2l-4.58,6.09h4.65v1.4h-6.75Z"/><path class="cls-30" d="M260.58,112.77c2.61,0,4.23,2,4.23,4.7v.4h-6.88a2.86,2.86,0,0,0,3,2.7,3.67,3.67,0,0,0,2.57-1l.76,1.06a4.89,4.89,0,0,1-3.49,1.3,4.57,4.57,0,0,1-.15-9.13Zm-2.66,3.93h5.31a2.58,2.58,0,0,0-2.65-2.6A2.66,2.66,0,0,0,257.92,116.7Z"/><path class="cls-30" d="M273,120.44a3.58,3.58,0,0,1-2.85,1.46c-2.27,0-3.89-1.71-3.89-4.56s1.62-4.57,3.89-4.57a3.54,3.54,0,0,1,2.85,1.48v-4.58h1.62v12H273Zm0-5a3,3,0,0,0-2.42-1.28c-1.62,0-2.62,1.32-2.62,3.13s1,3.12,2.62,3.12A3,3,0,0,0,273,119.2Z"/><path class="cls-30" d="M286,117.06h-2.25v4.62h-1.8v-12H287a3.58,3.58,0,0,1,3.85,3.7,3.35,3.35,0,0,1-3,3.51l3.08,4.8h-2.09Zm.77-5.8h-3v4.21h3a2.11,2.11,0,1,0,0-4.21Z"/><path class="cls-30" d="M296.29,112.77c2.61,0,4.23,2,4.23,4.7v.4h-6.87a2.85,2.85,0,0,0,3,2.7,3.67,3.67,0,0,0,2.57-1l.76,1.06a4.89,4.89,0,0,1-3.49,1.3,4.57,4.57,0,0,1-.15-9.13Zm-2.66,3.93h5.31a2.58,2.58,0,0,0-2.65-2.6A2.67,2.67,0,0,0,293.63,116.7Z"/><path class="cls-30" d="M302.57,119.36a4.22,4.22,0,0,0,2.92,1.24c1.22,0,1.87-.5,1.87-1.24s-1-1.15-2.1-1.4c-1.48-.35-3.21-.74-3.21-2.61,0-1.39,1.19-2.58,3.31-2.58a4.67,4.67,0,0,1,3.32,1.24l-.72,1.14a3.42,3.42,0,0,0-2.58-1.07c-1.1,0-1.78.44-1.78,1.14s.94,1,2,1.26c1.51.34,3.31.76,3.31,2.75,0,1.5-1.23,2.67-3.51,2.67a4.94,4.94,0,0,1-3.62-1.35Z"/><path class="cls-30" d="M310.44,117.33a4.4,4.4,0,1,1,4.39,4.57A4.31,4.31,0,0,1,310.44,117.33Zm7.09,0c0-1.64-.95-3.12-2.7-3.12s-2.7,1.48-2.7,3.12,1,3.13,2.7,3.13S317.53,119,317.53,117.33Z"/><path class="cls-30" d="M327.14,120.5a4.27,4.27,0,0,1-3.09,1.4,2.46,2.46,0,0,1-2.78-2.77V113h1.63v5.6c0,1.44.71,1.87,1.83,1.87a3.12,3.12,0,0,0,2.41-1.23V113h1.63v8.69h-1.63Z"/><path class="cls-30" d="M331.34,113H333v1.33a3.69,3.69,0,0,1,2.84-1.53v1.64a2.29,2.29,0,0,0-.56-.06,3.07,3.07,0,0,0-2.28,1.26v6.05h-1.62Z"/><path class="cls-30" d="M341.31,112.77a3.81,3.81,0,0,1,3.26,1.53l-1.08,1a2.43,2.43,0,0,0-2.11-1.08,3.14,3.14,0,0,0,0,6.25,2.48,2.48,0,0,0,2.11-1.08l1.08,1a3.79,3.79,0,0,1-3.26,1.53,4.57,4.57,0,0,1,0-9.13Z"/><path class="cls-30" d="M350.16,112.77c2.62,0,4.24,2,4.24,4.7v.4h-6.88a2.85,2.85,0,0,0,3,2.7,3.7,3.7,0,0,0,2.58-1l.75,1.06a4.87,4.87,0,0,1-3.49,1.3,4.57,4.57,0,0,1-.15-9.13Zm-2.66,3.93h5.31a2.57,2.57,0,0,0-2.65-2.6A2.67,2.67,0,0,0,347.5,116.7Z"/><path class="cls-30" d="M356.45,119.36a4.18,4.18,0,0,0,2.91,1.24c1.23,0,1.87-.5,1.87-1.24s-1-1.15-2.1-1.4c-1.48-.35-3.21-.74-3.21-2.61,0-1.39,1.19-2.58,3.32-2.58a4.67,4.67,0,0,1,3.31,1.24l-.72,1.14a3.4,3.4,0,0,0-2.58-1.07c-1.09,0-1.78.44-1.78,1.14s.94,1,2,1.26c1.51.34,3.31.76,3.31,2.75,0,1.5-1.22,2.67-3.51,2.67a4.94,4.94,0,0,1-3.62-1.35Z"/><path class="cls-30" d="M369,117.31a13.29,13.29,0,0,1,2.63-8l1,.74a15,15,0,0,0,0,14.42l-1,.76A13.27,13.27,0,0,1,369,117.31Z"/><path class="cls-30" d="M373.85,120.26c4.5-3.46,6.57-5.26,6.57-7.15a2.08,2.08,0,0,0-2.34-2,4.13,4.13,0,0,0-3.26,1.47l-1.06-1.17a5.5,5.5,0,0,1,4.3-1.91c2.17,0,4.2,1.23,4.2,3.62s-2.25,4.45-5.55,7h5.6v1.58h-8.46Z"/><path class="cls-30" d="M389.08,109.49c3.33,0,4.7,3.23,4.7,6.2s-1.37,6.21-4.7,6.21-4.7-3.24-4.7-6.21S385.75,109.49,389.08,109.49Zm0,1.61c-2.12,0-2.86,2.25-2.86,4.59s.74,4.61,2.86,4.61,2.86-2.27,2.86-4.61S391.2,111.1,389.08,111.1Z"/><path class="cls-30" d="M400.13,109.49c3.33,0,4.7,3.23,4.7,6.2s-1.37,6.21-4.7,6.21-4.7-3.24-4.7-6.21S396.8,109.49,400.13,109.49Zm0,1.61c-2.12,0-2.86,2.25-2.86,4.59s.74,4.61,2.86,4.61S403,118,403,115.69,402.26,111.1,400.13,111.1Z"/><path class="cls-30" d="M409.27,115.49c-1.36-.41-2.57-1.31-2.57-2.86,0-2.18,2.18-3.14,4.27-3.14s4.25,1,4.25,3.14c0,1.55-1.23,2.45-2.6,2.86a3.53,3.53,0,0,1,2.78,3.13c0,2.09-2,3.28-4.43,3.28s-4.47-1.17-4.47-3.28A3.53,3.53,0,0,1,409.27,115.49Zm1.7.81c-.76.09-2.65.7-2.65,2.11,0,1.17,1.21,1.89,2.65,1.89s2.63-.72,2.63-1.89C413.6,117,411.69,116.39,411,116.3Zm0-5.2c-1.41,0-2.45.66-2.45,1.8s1.71,1.74,2.45,1.87c.74-.13,2.43-.59,2.43-1.87S412.32,111.1,411,111.1Z"/><path class="cls-30" d="M416.78,116.62h4.32V118h-4.32Z"/><path class="cls-30" d="M422.58,120.26c4.5-3.46,6.57-5.26,6.57-7.15a2.08,2.08,0,0,0-2.34-2,4.12,4.12,0,0,0-3.26,1.47l-1.06-1.17a5.48,5.48,0,0,1,4.3-1.91c2.16,0,4.19,1.23,4.19,3.62s-2.25,4.45-5.54,7H431v1.58h-8.46Z"/><path class="cls-30" d="M437.8,109.49c3.34,0,4.7,3.23,4.7,6.2s-1.36,6.21-4.7,6.21-4.7-3.24-4.7-6.21S434.47,109.49,437.8,109.49Zm0,1.61c-2.12,0-2.86,2.25-2.86,4.59s.74,4.61,2.86,4.61,2.87-2.27,2.87-4.61S439.93,111.1,437.8,111.1Z"/><path class="cls-30" d="M446.66,112l-1.94,2-1.07-1.1,3.23-3.3h1.58v12h-1.8Z"/><path class="cls-30" d="M453.41,115.49c-1.37-.41-2.58-1.31-2.58-2.86,0-2.18,2.18-3.14,4.27-3.14s4.25,1,4.25,3.14c0,1.55-1.22,2.45-2.59,2.86a3.53,3.53,0,0,1,2.77,3.13c0,2.09-2,3.28-4.43,3.28s-4.46-1.17-4.46-3.28A3.52,3.52,0,0,1,453.41,115.49Zm1.69.81c-.75.09-2.64.7-2.64,2.11,0,1.17,1.2,1.89,2.64,1.89s2.63-.72,2.63-1.89C457.73,117,455.82,116.39,455.1,116.3Zm0-5.2c-1.4,0-2.45.66-2.45,1.8s1.71,1.74,2.45,1.87c.74-.13,2.43-.59,2.43-1.87S456.45,111.1,455.1,111.1Z"/><path class="cls-30" d="M460.68,110.09l1-.74a13.28,13.28,0,0,1,0,15.92l-1-.76a14.83,14.83,0,0,0,0-14.42Z"/><path class="cls-30" d="M213.58,133.79h-5v-2.12h12.31v2.12H216v13.89h-2.4Z"/><path class="cls-30" d="M230.19,131.41c4.77,0,8.06,3.53,8.06,8.28S235,148,230.19,148s-8.07-3.53-8.07-8.28S225.41,131.41,230.19,131.41Zm0,2.14c-3.44,0-5.6,2.61-5.6,6.14s2.16,6.14,5.6,6.14,5.59-2.63,5.59-6.14S233.57,133.55,230.19,133.55Z"/><path class="cls-30" d="M244.44,133.79h-5v-2.12h12.32v2.12h-4.95v13.89h-2.4Z"/><path class="cls-30" d="M262.83,144.37H255l-1.3,3.31H251l6.36-16h3l6.36,16h-2.64Zm-7.16-2.13h6.46l-3.24-8.48Z"/><path class="cls-30" d="M268.68,131.67h2.4v13.9h7.27v2.11h-9.67Z"/><path class="cls-30" d="M288.91,142v1.27h-1.33V142a5.18,5.18,0,0,1-3.3-1.45l1.08-1.52a4,4,0,0,0,2.22,1.19v-2.19c-1.44-.35-3-.91-3-2.8,0-1.43,1.14-2.63,3-2.81v-1.31h1.33v1.33a4.88,4.88,0,0,1,2.84,1.25l-1.1,1.45a4,4,0,0,0-1.74-.91v2c1.46.38,3.07.94,3.07,2.84C292,140.59,291,141.8,288.91,142Zm-1.2-6.09v-1.78c-.72.07-1.09.44-1.09.94S287.06,135.75,287.71,135.92Zm2.24,3.36c0-.52-.49-.76-1.17-.95v2C289.58,140.17,290,139.74,290,139.28Z"/><path class="cls-30" d="M293.58,145c6.55-4.83,8.47-6.49,8.47-8.45,0-1.4-1.27-2.09-2.61-2.09a5.72,5.72,0,0,0-4.28,1.85l-1.94-2.26a8.15,8.15,0,0,1,6.17-2.62c3.41,0,6.12,1.92,6.12,5.12,0,2.73-2.26,5.11-6.55,8.13h6.67v3H293.58Z"/><path class="cls-30" d="M311.12,139.43c-1.77-.6-3.17-1.78-3.17-3.77,0-3,3.2-4.23,6.17-4.23s6.17,1.23,6.17,4.23c0,2-1.41,3.17-3.19,3.77,1.92.67,3.46,2.16,3.46,4.1,0,3-3.08,4.44-6.44,4.44s-6.43-1.44-6.43-4.44C307.69,141.59,309.2,140.1,311.12,139.43Zm3,1.51c-1,.12-3,.79-3,2.18,0,1.18,1.29,1.92,3,1.92s3-.74,3-1.92C317.1,141.73,315.11,141.06,314.12,140.94Zm0-6.58c-1.58,0-2.71.7-2.71,1.83s1.73,1.8,2.71,1.94c1-.14,2.69-.7,2.69-1.94S315.68,134.36,314.12,134.36Z"/><path class="cls-30" d="M322.52,145c6.55-4.83,8.47-6.49,8.47-8.45,0-1.4-1.27-2.09-2.61-2.09a5.7,5.7,0,0,0-4.27,1.85l-1.95-2.26a8.17,8.17,0,0,1,6.17-2.62c3.41,0,6.12,1.92,6.12,5.12,0,2.73-2.26,5.11-6.55,8.13h6.67v3H322.52Z"/><path class="cls-30" d="M337.16,149.89a4,4,0,0,0,1.85-2.23,2,2,0,0,1-.46.07,1.65,1.65,0,0,1-1.63-1.75,1.92,1.92,0,0,1,1.87-1.92,2.23,2.23,0,0,1,2.16,2.45,5.56,5.56,0,0,1-2.47,4.46Z"/><path class="cls-30" d="M343.06,145c6.56-4.83,8.48-6.49,8.48-8.45,0-1.4-1.27-2.09-2.62-2.09a5.7,5.7,0,0,0-4.27,1.85l-1.95-2.26a8.18,8.18,0,0,1,6.17-2.62c3.41,0,6.12,1.92,6.12,5.12,0,2.73-2.25,5.11-6.55,8.13h6.67v3H343.06Z"/><path class="cls-30" d="M361.19,136.07l-2.65,2.71-1.94-2,5-5.07h3v16h-3.43Z"/><path class="cls-30" d="M373.64,131.43c4.56,0,6.63,4.13,6.63,8.26S378.2,148,373.64,148s-6.62-4.15-6.62-8.28S369.06,131.43,373.64,131.43Zm0,3c-2.3,0-3.17,2.28-3.17,5.23s.87,5.26,3.17,5.26,3.15-2.31,3.15-5.26S375.92,134.46,373.64,134.46Z"/><path class="cls-30" d="M381.94,149.89a4,4,0,0,0,1.85-2.23,1.93,1.93,0,0,1-.45.07A1.66,1.66,0,0,1,381.7,146a1.92,1.92,0,0,1,1.88-1.92,2.24,2.24,0,0,1,2.16,2.45,5.59,5.59,0,0,1-2.47,4.46Z"/><path class="cls-30" d="M394.16,131.43c4.56,0,6.63,4.13,6.63,8.26s-2.07,8.28-6.63,8.28-6.62-4.15-6.62-8.28S389.58,131.43,394.16,131.43Zm0,3c-2.3,0-3.17,2.28-3.17,5.23s.87,5.26,3.17,5.26,3.15-2.31,3.15-5.26S396.44,134.46,394.16,134.46Z"/><path class="cls-30" d="M406.45,136.07l-2.64,2.71-1.95-2,5-5.07h3v16h-3.43Z"/><path class="cls-30" d="M419.72,144.37h-7.66v-2.69l6.37-10h4.7v9.7h2.06v3h-2.06v3.31h-3.41Zm-4.32-3h4.32V134.7Z"/><path class="cls-27" d="M432.39,145.25a8,8,0,0,1,1.34-4.41l.3.22a8.89,8.89,0,0,0,0,8.38l-.3.23A8,8,0,0,1,432.39,145.25Z"/><path class="cls-27" d="M435,141h.58v4.1a2,2,0,1,0,4,0V141h.58v4.1a2.6,2.6,0,1,1-5.2,0Z"/><path class="cls-27" d="M441.9,146.31a2.7,2.7,0,0,0,2.07,1c1.37,0,1.76-.76,1.76-1.33,0-.94-.9-1.2-1.83-1.45s-2.16-.58-2.16-1.81a1.94,1.94,0,0,1,2.18-1.78,2.88,2.88,0,0,1,2.26.94l-.38.42a2.39,2.39,0,0,0-1.91-.84c-.89,0-1.55.51-1.55,1.23s.82,1,1.73,1.27c1.07.3,2.26.64,2.26,2,0,.85-.57,1.88-2.37,1.88a3,3,0,0,1-2.43-1.06Z"/><path class="cls-27" d="M447.7,141h2.13a3.33,3.33,0,1,1,0,6.66H447.7Zm2.13,6.14a2.81,2.81,0,0,0,0-5.62h-1.56v5.62Z"/><path class="cls-27" d="M454,141.06l.3-.22a7.94,7.94,0,0,1,0,8.83l-.3-.23a8.89,8.89,0,0,0,0-8.38Z"/></g></svg>