<svg xmlns="http://www.w3.org/2000/svg" xmlns:xlink="http://www.w3.org/1999/xlink" viewBox="0 0 495 570"><defs><style>.cls-1111111111{fill:#f1f1f1;}.cls-2222222222{fill:url(#radial-gradient);}.cls-3333333333{fill:#0265b5;}.cls-4444444444{fill:#858585;}.cls-11111111115,.cls-11111111118,.cls-22222222220,.cls-22222222221,.cls-5555555555,.cls-6666666666{fill:none;}.cls-22222222221,.cls-5555555555,.cls-6666666666{stroke:#0265b5;}.cls-11111111110,.cls-11111111111,.cls-11111111112,.cls-11111111113,.cls-11111111114,.cls-11111111115,.cls-11111111118,.cls-22222222220,.cls-22222222221,.cls-5555555555,.cls-6666666666,.cls-8888888888,.cls-9999999999{stroke-miterlimit:10;}.cls-6666666666{stroke-width:2px;}.cls-7777777777{fill:#4c4c4c;}.cls-8888888888{fill:#02355f;}.cls-11111111110,.cls-11111111111,.cls-11111111112,.cls-11111111113,.cls-11111111114,.cls-11111111115,.cls-8888888888,.cls-9999999999{stroke:#a5a5a5;}.cls-11111111110,.cls-11111111111,.cls-11111111112,.cls-11111111113,.cls-11111111114,.cls-8888888888,.cls-9999999999{stroke-width:0.5px;}.cls-9999999999{fill:#157fc0;}.cls-11111111110{fill:#66338e;}.cls-11111111111{fill:#7b599b;}.cls-11111111112{fill:#729643;}.cls-11111111113{fill:#56683a;}.cls-11111111114{fill:#9ab272;}.cls-11111111115,.cls-11111111118{stroke-width:0.75px;}.cls-11111111116{fill:#a5a5a5;}.cls-11111111117{fill:#0a0a0a;}.cls-11111111118,.cls-22222222220{stroke:#a5a5a5;}.cls-11111111119{fill:#a5a5a5;}.cls-22222222220,.cls-22222222221{stroke-width:10px;}</style><radialGradient id="radial-gradient" cx="320.41" cy="200.27" r="166.51" gradientUnits="userSpaceOnUse"><stop offset="0" stop-color="#fff" stop-opacity="0.2"/><stop offset="0.23" stop-color="#fbfafa" stop-opacity="0.47"/><stop offset="0.44" stop-color="#f7f6f6" stop-opacity="0.7"/><stop offset="0.62" stop-color="#f4f3f3" stop-opacity="0.86"/><stop offset="0.77" stop-color="#f3f2f2" stop-opacity="0.96"/><stop offset="0.86" stop-color="#f2f1f1"/></radialGradient></defs><title>Finance-regional-support</title><g id="Layer_2" data-name="Layer 2"><rect class="cls-1111111111" width="495" height="570"/><circle class="cls-2222222222" cx="320.41" cy="200.27" r="166.51"/></g><g id="Layer_1" data-name="Layer 1"><path class="cls-3333333333" d="M3.32,21C12,14.7,13.61,13.32,13.61,11.34c0-1.38-1.29-2.1-2.85-2.1a7.42,7.42,0,0,0-5.25,2.19L2.66,8a11,11,0,0,1,8.1-3.33c4.71,0,8.1,2.64,8.1,6.66,0,3.06-2.19,5.67-7.56,9.15H19V25H3.32Z"/><path class="cls-3333333333" d="M29.57,4.68c5.85,0,8.58,5,8.58,10.32s-2.73,10.35-8.58,10.35S21,20.28,21,15,23.72,4.68,29.57,4.68Zm0,4.56c-2.4,0-3.36,2.22-3.36,5.76s1,5.79,3.36,5.79,3.36-2.25,3.36-5.79S32,9.24,29.57,9.24Z"/><path class="cls-3333333333" d="M45.38,11.58,42,15l-2.94-3.09,7-6.9h4.47V25H45.38Z"/><path class="cls-3333333333" d="M57.17,14.67C55,13.86,53.45,12.42,53.45,10c0-3.87,4.23-5.34,8.16-5.34S69.77,6.15,69.77,10c0,2.4-1.62,3.84-3.75,4.65,2.31.9,4,2.76,4,5,0,3.9-4.14,5.64-8.46,5.64s-8.49-1.71-8.49-5.64C53.12,17.43,54.86,15.57,57.17,14.67Zm4.44,2.22c-1.29.18-3.24.93-3.24,2.25,0,1.17,1.32,1.92,3.24,1.92s3.24-.75,3.24-1.92C64.85,17.82,62.87,17.07,61.61,16.89Zm0-7.92c-1.77,0-2.91.72-2.91,1.8s1.68,1.83,2.91,2c1.23-.21,2.88-.87,2.88-2S63.32,9,61.61,9Z"/><path class="cls-3333333333" d="M90.05,4.65c6.12,0,10.68,4.26,10.68,10.35S96.17,25.35,90.05,25.35,79.34,21.09,79.34,15,83.93,4.65,90.05,4.65Zm0,4.56c-3.33,0-5.46,2.52-5.46,5.79s2.13,5.79,5.46,5.79,5.43-2.55,5.43-5.79S93.35,9.21,90.05,9.21Z"/><path class="cls-3333333333" d="M101.24,10.5h4.86l3.27,9.18,3.3-9.18h4.89L111.86,25h-4.92Z"/><path class="cls-3333333333" d="M125.69,10.14c4.29,0,7.41,3.15,7.41,8.07v1H122.78a3.46,3.46,0,0,0,3.69,2.58A5.74,5.74,0,0,0,130,20.55l2,2.88a9.45,9.45,0,0,1-6.06,1.92c-4.47,0-7.92-2.91-7.92-7.62A7.48,7.48,0,0,1,125.69,10.14Zm-3,6.06h6a2.78,2.78,0,0,0-3-2.49A2.86,2.86,0,0,0,122.72,16.2Z"/><path class="cls-3333333333" d="M135.38,10.5H140v1.83a6.32,6.32,0,0,1,4.53-2.19v4.47a3.74,3.74,0,0,0-1.14-.15A4.61,4.61,0,0,0,140,15.81V25h-4.62Z"/><path class="cls-3333333333" d="M155.18,23.55a6,6,0,0,1-4.5,1.8,4.78,4.78,0,0,1-5-4.77c0-3.51,2.76-4.56,5-4.56a5.79,5.79,0,0,1,4.5,1.68V15.87c0-1.26-1.08-2.1-2.94-2.1a6.46,6.46,0,0,0-4.11,1.53l-1.65-2.91a10.22,10.22,0,0,1,6.57-2.25c3.48,0,6.75,1.29,6.75,5.79V25h-4.62Zm0-3.57a3.3,3.3,0,0,0-2.58-1c-1.23,0-2.31.54-2.31,1.68s1.08,1.68,2.31,1.68a3.22,3.22,0,0,0,2.58-1.05Z"/><path class="cls-3333333333" d="M163.16,5h4.62V25h-4.62Z"/><path class="cls-3333333333" d="M171.14,5h4.62V25h-4.62Z"/><path class="cls-3333333333" d="M188.21,18.3a9,9,0,0,0,6.39,2.64c1.77,0,2.85-.75,2.85-1.71,0-1.14-1.29-1.59-3.42-2-3.3-.66-7.92-1.5-7.92-6.24,0-3.36,2.85-6.27,8-6.27a12.21,12.21,0,0,1,8.13,2.79l-2.82,3.69a9.3,9.3,0,0,0-5.64-2.07c-1.71,0-2.37.69-2.37,1.56,0,1,1.23,1.41,3.45,1.83,3.3.69,7.86,1.65,7.86,6.18,0,4-3,6.69-8.34,6.69-4.05,0-6.87-1.26-8.88-3.18Z"/><path class="cls-3333333333" d="M214.76,23.25a6.59,6.59,0,0,1-5,2.1c-3.3,0-4.77-1.86-4.77-4.53V10.5h4.62v8.43c0,1.74.9,2.34,2.4,2.34a3.46,3.46,0,0,0,2.76-1.41V10.5h4.62V25h-4.62Z"/><path class="cls-3333333333" d="M222.74,30.51v-20h4.62v1.68a5.41,5.41,0,0,1,4.29-2c3.63,0,6.36,2.7,6.36,7.59s-2.73,7.62-6.36,7.62a5.38,5.38,0,0,1-4.29-2.07v7.23Zm7.38-16.29a3.69,3.69,0,0,0-2.76,1.32V20a3.8,3.8,0,0,0,2.76,1.32,3.21,3.21,0,0,0,3.18-3.54A3.2,3.2,0,0,0,230.12,14.22Z"/><path class="cls-3333333333" d="M240.44,30.51v-20h4.62v1.68a5.41,5.41,0,0,1,4.29-2c3.63,0,6.36,2.7,6.36,7.59s-2.73,7.62-6.36,7.62a5.38,5.38,0,0,1-4.29-2.07v7.23Zm7.38-16.29a3.69,3.69,0,0,0-2.76,1.32V20a3.8,3.8,0,0,0,2.76,1.32A3.21,3.21,0,0,0,251,17.73,3.2,3.2,0,0,0,247.82,14.22Z"/><path class="cls-3333333333" d="M257.18,17.73a7.47,7.47,0,0,1,7.89-7.59c5,0,7.92,3.51,7.92,7.59a7.91,7.91,0,0,1-15.81,0Zm11.07,0c0-1.92-1.14-3.51-3.18-3.51S262,15.81,262,17.73s1.11,3.54,3.12,3.54S268.25,19.68,268.25,17.73Z"/><path class="cls-3333333333" d="M275.42,10.5H280v1.83a6.32,6.32,0,0,1,4.53-2.19v4.47a3.74,3.74,0,0,0-1.14-.15A4.61,4.61,0,0,0,280,15.81V25h-4.62Z"/><path class="cls-3333333333" d="M287.63,21.09V14.52h-2.4v-4h2.4v-4h4.59v4h2.94v4h-2.94V19.8a1.31,1.31,0,0,0,1.29,1.47,1.8,1.8,0,0,0,1.17-.36l.9,3.48a5,5,0,0,1-3.42,1C289.22,25.35,287.63,23.88,287.63,21.09Z"/><path class="cls-4444444444" d="M32.63,46.05h-5.5l-.91,4.12h-.74l1.91-8.67h.74l-.85,3.87h5.49l.86-3.87h.74l-1.9,8.67h-.75Z"/><path class="cls-4444444444" d="M38.2,43.74A2.59,2.59,0,0,1,41,46.49a3.68,3.68,0,0,1-3.45,3.84,2.59,2.59,0,0,1-2.77-2.76A3.68,3.68,0,0,1,38.2,43.74Zm0,.61a3,3,0,0,0-2.7,3.19,2,2,0,0,0,2,2.18,3,3,0,0,0,2.7-3.2A2,2,0,0,0,38.2,44.35Z"/><path class="cls-4444444444" d="M42.31,43.89H43l1.05,5.49,3.5-5.49h.79l-4,6.28h-.77Z"/><path class="cls-4444444444" d="M51.8,43.74a2.55,2.55,0,0,1,2.67,2.71,3.85,3.85,0,0,1-.11.8h-5.3a1.94,1.94,0,0,0,0,.36,2.08,2.08,0,0,0,2.3,2.13,3.06,3.06,0,0,0,1.9-.67l.26.49a3.71,3.71,0,0,1-2.18.77,2.69,2.69,0,0,1-3-2.77A3.65,3.65,0,0,1,51.8,43.74Zm2,2.69a2,2,0,0,0-2.1-2.11,2.83,2.83,0,0,0-2.6,2.39H53.8A1.27,1.27,0,0,0,53.82,46.43Z"/><path class="cls-4444444444" d="M56.77,43.89h.67l-.23,1a2.79,2.79,0,0,1,2.38-1.15l-.16.73a3.18,3.18,0,0,0-.45,0,2.56,2.56,0,0,0-1.92,1.16l-1,4.56h-.67Z"/><path class="cls-4444444444" d="M66.41,43.74a2.59,2.59,0,0,1,2.78,2.75,3.69,3.69,0,0,1-3.46,3.84A2.58,2.58,0,0,1,63,47.57,3.68,3.68,0,0,1,66.41,43.74Zm0,.61a3,3,0,0,0-2.7,3.19,2,2,0,0,0,2,2.18,3,3,0,0,0,2.7-3.2A2,2,0,0,0,66.41,44.35Z"/><path class="cls-4444444444" d="M70.52,43.89h.73l1,5.49,3.5-5.49h.79l-4,6.28h-.77Z"/><path class="cls-4444444444" d="M80,43.74a2.54,2.54,0,0,1,2.66,2.71,3.94,3.94,0,0,1-.1.8h-5.3a1.94,1.94,0,0,0,0,.36,2.08,2.08,0,0,0,2.3,2.13,3.06,3.06,0,0,0,1.9-.67l.26.49a3.74,3.74,0,0,1-2.19.77,2.69,2.69,0,0,1-3-2.77A3.66,3.66,0,0,1,80,43.74Zm2,2.69a2,2,0,0,0-2.09-2.11,2.83,2.83,0,0,0-2.6,2.39H82A2.53,2.53,0,0,0,82,46.43Z"/><path class="cls-4444444444" d="M85,43.89h.68l-.23,1a2.79,2.79,0,0,1,2.38-1.15l-.16.73a3.21,3.21,0,0,0-.46,0,2.56,2.56,0,0,0-1.91,1.16l-1,4.56h-.68Z"/><path class="cls-4444444444" d="M94.67,43.74a2.55,2.55,0,0,1,2.67,2.71,3.85,3.85,0,0,1-.11.8h-5.3a3.48,3.48,0,0,0,0,.36,2.08,2.08,0,0,0,2.3,2.13,3,3,0,0,0,1.9-.67l.26.49a3.71,3.71,0,0,1-2.18.77,2.69,2.69,0,0,1-3-2.77A3.65,3.65,0,0,1,94.67,43.74Zm2,2.69a2,2,0,0,0-2.1-2.11A2.83,2.83,0,0,0,92,46.71h4.68A1.27,1.27,0,0,0,96.69,46.43Z"/><path class="cls-4444444444" d="M104.27,43.89H105l-1.39,6.28h-.69l.21-1a2.69,2.69,0,0,1-2.14,1.11,2.35,2.35,0,0,1-2.46-2.58c0-2.1,1.31-4,3.3-4A2.55,2.55,0,0,1,104,45Zm-3.15,5.83a2.69,2.69,0,0,0,2.13-1.21l.66-3a2.27,2.27,0,0,0-2.08-1.14c-1.57,0-2.61,1.62-2.61,3.29A1.87,1.87,0,0,0,101.12,49.72Z"/><path class="cls-4444444444" d="M109.32,43.74a2.41,2.41,0,0,1,2.26,1.14l-.52.39a1.91,1.91,0,0,0-1.7-.92,3,3,0,0,0-2.79,3.21,2,2,0,0,0,2.14,2.16,2.21,2.21,0,0,0,1.7-.81l.39.47a2.8,2.8,0,0,1-2.15.95,2.61,2.61,0,0,1-2.8-2.79A3.65,3.65,0,0,1,109.32,43.74Z"/><path class="cls-4444444444" d="M117.14,45.91a4,4,0,0,0,.07-.46c0-.78-.59-1.1-1.4-1.1a3.27,3.27,0,0,0-2.13,1.1l-1,4.72H112l1.91-8.67h.68l-.73,3.34a3.44,3.44,0,0,1,2.26-1.1c1.07,0,1.84.5,1.84,1.53a2.73,2.73,0,0,1-.08.53l-1,4.37h-.68Z"/><path class="cls-4444444444" d="M122.44,48.78a2.47,2.47,0,0,0,2.07,1c1,0,1.66-.62,1.66-1.29s-.73-.93-1.51-1.24-1.84-.75-1.84-1.68.83-1.8,2.28-1.8a2.77,2.77,0,0,1,2.29,1l-.43.43a2.3,2.3,0,0,0-1.91-.88c-1,0-1.55.49-1.55,1.13s.69.86,1.45,1.16,1.91.75,1.91,1.75a2.13,2.13,0,0,1-2.37,2A2.92,2.92,0,0,1,122,49.22Z"/><path class="cls-4444444444" d="M131.85,43.74a2.55,2.55,0,0,1,2.67,2.71,3.85,3.85,0,0,1-.11.8h-5.3a1.94,1.94,0,0,0,0,.36,2.08,2.08,0,0,0,2.3,2.13,3.06,3.06,0,0,0,1.9-.67l.26.49a3.71,3.71,0,0,1-2.18.77,2.69,2.69,0,0,1-3-2.77A3.65,3.65,0,0,1,131.85,43.74Zm2,2.69a2,2,0,0,0-2.1-2.11,2.83,2.83,0,0,0-2.6,2.39h4.68A1.27,1.27,0,0,0,133.87,46.43Z"/><path class="cls-4444444444" d="M139.14,43.74a2.42,2.42,0,0,1,2.27,1.14l-.52.39a1.93,1.93,0,0,0-1.71-.92,3,3,0,0,0-2.79,3.21,2,2,0,0,0,2.14,2.16,2.24,2.24,0,0,0,1.71-.81l.39.47a2.84,2.84,0,0,1-2.16.95,2.62,2.62,0,0,1-2.8-2.79A3.65,3.65,0,0,1,139.14,43.74Z"/><path class="cls-4444444444" d="M142.17,48.94l1-4.45h-1l.13-.6h1l.38-1.71h.69L144,43.89h1.28l-.15.6h-1.27l-1,4.35a1,1,0,0,0,0,.28.56.56,0,0,0,.64.6,1.14,1.14,0,0,0,.66-.24l.13.55a1.43,1.43,0,0,1-.9.3c-.78,0-1.24-.33-1.24-1.06A2.33,2.33,0,0,1,142.17,48.94Z"/><path class="cls-4444444444" d="M146.68,43.89h.68L146,50.17h-.68Zm.73-2.1a.46.46,0,0,1,.48.45.6.6,0,0,1-.58.59.46.46,0,0,1-.48-.46A.59.59,0,0,1,147.41,41.79Z"/><path class="cls-4444444444" d="M151.69,43.74a2.59,2.59,0,0,1,2.78,2.75A3.69,3.69,0,0,1,151,50.33a2.59,2.59,0,0,1-2.77-2.76A3.68,3.68,0,0,1,151.69,43.74Zm0,.61A3,3,0,0,0,149,47.54a2,2,0,0,0,2,2.18,3,3,0,0,0,2.71-3.2A2,2,0,0,0,151.69,44.35Z"/><path class="cls-4444444444" d="M160.54,45.92a2.19,2.19,0,0,0,.08-.47c0-.78-.6-1.1-1.37-1.1a3.28,3.28,0,0,0-2.17,1.09l-1,4.73h-.67l1.39-6.28h.67l-.2,1a3.39,3.39,0,0,1,2.26-1.1c1.06,0,1.83.5,1.83,1.53a2.62,2.62,0,0,1-.08.53l-1,4.37h-.68Z"/><path class="cls-4444444444" d="M167.1,44.49h-1l.13-.6h1l.12-.57c.27-1.24.9-2,2-2a1.63,1.63,0,0,1,1,.27l-.29.5a1.09,1.09,0,0,0-.69-.19c-.71,0-1.07.5-1.27,1.37l-.13.57h1.28l-.13.6h-1.28l-1.26,5.68h-.68Z"/><path class="cls-4444444444" d="M172.68,43.74a2.59,2.59,0,0,1,2.78,2.75A3.68,3.68,0,0,1,172,50.33a2.59,2.59,0,0,1-2.77-2.76A3.68,3.68,0,0,1,172.68,43.74Zm0,.61a3,3,0,0,0-2.7,3.19,2,2,0,0,0,2,2.18,3,3,0,0,0,2.7-3.2A2,2,0,0,0,172.68,44.35Z"/><path class="cls-4444444444" d="M177.75,43.89h.68l-.24,1a2.8,2.8,0,0,1,2.38-1.15l-.15.73a3.21,3.21,0,0,0-.46,0,2.52,2.52,0,0,0-1.91,1.16l-1,4.56h-.68Z"/><path class="cls-4444444444" d="M190.27,41.5H191L189,50.17h-.69l.2-1a2.69,2.69,0,0,1-2.14,1.11A2.36,2.36,0,0,1,184,47.75c0-2.1,1.32-4,3.3-4A2.58,2.58,0,0,1,189.52,45Zm-3.68,8.22a2.67,2.67,0,0,0,2.13-1.21l.67-3a2.29,2.29,0,0,0-2.08-1.14c-1.58,0-2.62,1.62-2.62,3.29A1.87,1.87,0,0,0,186.59,49.72Z"/><path class="cls-4444444444" d="M194.81,43.74a2.55,2.55,0,0,1,2.66,2.71,3.94,3.94,0,0,1-.1.8h-5.31c0,.07,0,.26,0,.36a2.08,2.08,0,0,0,2.3,2.13,3.06,3.06,0,0,0,1.9-.67l.26.49a3.74,3.74,0,0,1-2.19.77,2.69,2.69,0,0,1-3-2.77A3.66,3.66,0,0,1,194.81,43.74Zm2,2.69a2,2,0,0,0-2.09-2.11,2.83,2.83,0,0,0-2.6,2.39h4.68A2.53,2.53,0,0,0,196.82,46.43Z"/><path class="cls-4444444444" d="M198.77,48.94l1-4.45h-1l.13-.6h1l.38-1.71H201l-.38,1.71h1.28l-.15.6h-1.27l-1,4.35a1,1,0,0,0,0,.28.56.56,0,0,0,.64.6,1.2,1.2,0,0,0,.66-.24l.13.55a1.43,1.43,0,0,1-.9.3c-.78,0-1.24-.33-1.24-1.06A2.33,2.33,0,0,1,198.77,48.94Z"/><path class="cls-4444444444" d="M207.91,43.89h.69l-1.39,6.28h-.69l.21-1a2.71,2.71,0,0,1-2.15,1.11,2.36,2.36,0,0,1-2.46-2.58c0-2.1,1.32-4,3.31-4A2.57,2.57,0,0,1,207.69,45Zm-3.15,5.83a2.69,2.69,0,0,0,2.14-1.21l.66-3a2.28,2.28,0,0,0-2.08-1.14c-1.57,0-2.61,1.62-2.61,3.29A1.86,1.86,0,0,0,204.76,49.72Z"/><path class="cls-4444444444" d="M210.64,43.89h.68l-1.4,6.28h-.67Zm.73-2.1a.46.46,0,0,1,.48.45.61.61,0,0,1-.59.59.47.47,0,0,1-.48-.46A.6.6,0,0,1,211.37,41.79Z"/><path class="cls-4444444444" d="M213.88,41.5h.67l-1.91,8.67H212Z"/><path class="cls-4444444444" d="M214.9,48.78a2.5,2.5,0,0,0,2.07,1c1,0,1.66-.62,1.66-1.29s-.72-.93-1.5-1.24-1.85-.75-1.85-1.68.83-1.8,2.29-1.8a2.79,2.79,0,0,1,2.29,1l-.43.43a2.32,2.32,0,0,0-1.91-.88c-1,0-1.55.49-1.55,1.13s.69.86,1.44,1.16c.91.36,1.91.75,1.91,1.75a2.12,2.12,0,0,1-2.36,2,2.92,2.92,0,0,1-2.52-1.11Z"/><path class="cls-4444444444" d="M221.1,49.16a.52.52,0,0,1,.52.53.61.61,0,0,1-.62.61.51.51,0,0,1-.52-.53A.61.61,0,0,1,221.1,49.16Z"/><circle class="cls-5555555555" cx="9.8" cy="45.2" r="8.8"/><line class="cls-6666666666" x1="9.06" y1="44.45" x2="14.63" y2="50.02"/><polygon class="cls-3333333333" points="8.42 49.06 9.93 45.33 13.66 43.82 4.83 40.23 8.42 49.06"/><path class="cls-7777777777" d="M8.43,138.63H4.94v-.83h7.91v.83H9.36v9.84H8.43Z"/><path class="cls-7777777777" d="M16,140.55c2.36,0,3.65,1.87,3.65,4.1v.22H13.2a3,3,0,0,0,3,3.07,3.4,3.4,0,0,0,2.54-1.07l.43.55a4,4,0,0,1-3,1.24,4.06,4.06,0,0,1-.15-8.11Zm-2.81,3.66h5.61A2.82,2.82,0,0,0,16,141.27,2.9,2.9,0,0,0,13.2,144.21Z"/><path class="cls-7777777777" d="M25.12,140.55a3.2,3.2,0,0,1,2.73,1.31l-.57.51a2.47,2.47,0,0,0-2.11-1.07c-1.81,0-2.92,1.44-2.92,3.3s1.11,3.31,2.92,3.31a2.49,2.49,0,0,0,2.11-1.09l.57.52a3.16,3.16,0,0,1-2.73,1.32,4.07,4.07,0,0,1,0-8.11Z"/><path class="cls-7777777777" d="M34.93,143.21c0-1.49-.76-1.91-1.88-1.91a3.36,3.36,0,0,0-2.51,1.33v5.84h-.83V137.8h.83v4.11a3.92,3.92,0,0,1,2.78-1.36A2.16,2.16,0,0,1,35.76,143v5.44h-.83Z"/><path class="cls-7777777777" d="M43.57,143.25c0-1.5-.76-1.95-1.88-1.95a3.36,3.36,0,0,0-2.51,1.33v5.84h-.83v-7.73h.83v1.17A3.94,3.94,0,0,1,42,140.55a2.18,2.18,0,0,1,2.43,2.51v5.41h-.83Z"/><path class="cls-7777777777" d="M46.76,138.79a.66.66,0,0,1,.64-.64.64.64,0,0,1,0,1.28A.66.66,0,0,1,46.76,138.79Zm.23,2h.83v7.73H47Z"/><path class="cls-7777777777" d="M53.73,140.55a3.21,3.21,0,0,1,2.73,1.31l-.57.51a2.47,2.47,0,0,0-2.12-1.07c-1.81,0-2.91,1.44-2.91,3.3s1.1,3.31,2.91,3.31a2.49,2.49,0,0,0,2.12-1.09l.57.52a3.17,3.17,0,0,1-2.73,1.32,4.07,4.07,0,0,1,0-8.11Z"/><path class="cls-7777777777" d="M63.23,147.56a3.37,3.37,0,0,1-2.63,1.1,2.58,2.58,0,0,1-2.7-2.57,2.55,2.55,0,0,1,2.7-2.55,3.36,3.36,0,0,1,2.63,1.09v-1.57a1.85,1.85,0,0,0-2.08-1.77,3,3,0,0,0-2.42,1.13l-.46-.56a3.7,3.7,0,0,1,3-1.31c1.58,0,2.83.75,2.83,2.48v5.44h-.83Zm0-2.31a2.93,2.93,0,0,0-2.34-1.07,1.92,1.92,0,1,0,0,3.83A2.89,2.89,0,0,0,63.23,147Z"/><path class="cls-7777777777" d="M66.65,137.8h.83v10.67h-.83Z"/><path class="cls-7777777777" d="M5.31,159.14a5.29,5.29,0,0,1,5.38-5.52,4.84,4.84,0,0,1,3.92,1.89l-.77.49a3.91,3.91,0,0,0-3.15-1.55,4.7,4.7,0,0,0,0,9.38,3.88,3.88,0,0,0,3.15-1.55l.77.48a4.81,4.81,0,0,1-3.92,1.9A5.29,5.29,0,0,1,5.31,159.14Z"/><path class="cls-7777777777" d="M21.34,163.56a3.37,3.37,0,0,1-2.62,1.1A2.59,2.59,0,0,1,16,162.09a2.55,2.55,0,0,1,2.71-2.55,3.36,3.36,0,0,1,2.62,1.09v-1.57a1.85,1.85,0,0,0-2.08-1.77,3,3,0,0,0-2.42,1.13l-.46-.56a3.71,3.71,0,0,1,3-1.31c1.59,0,2.83.75,2.83,2.48v5.44h-.83Zm0-2.31A2.91,2.91,0,0,0,19,160.18,1.92,1.92,0,1,0,19,164,2.87,2.87,0,0,0,21.34,163Z"/><path class="cls-7777777777" d="M24.76,167.42V156.74h.84V158a3.28,3.28,0,0,1,2.69-1.42c2.06,0,3.45,1.57,3.45,4s-1.39,4.06-3.45,4.06a3.3,3.3,0,0,1-2.69-1.44v4.2Zm3.38-10.12a3.08,3.08,0,0,0-2.54,1.39v3.81a3.12,3.12,0,0,0,2.54,1.41c1.73,0,2.71-1.44,2.71-3.31S29.87,157.3,28.14,157.3Z"/><path class="cls-7777777777" d="M38.8,163.56a3.37,3.37,0,0,1-2.63,1.1,2.58,2.58,0,0,1-2.7-2.57,2.55,2.55,0,0,1,2.7-2.55,3.36,3.36,0,0,1,2.63,1.09v-1.57a1.85,1.85,0,0,0-2.08-1.77,3,3,0,0,0-2.42,1.13l-.46-.56a3.7,3.7,0,0,1,3-1.31c1.58,0,2.83.75,2.83,2.48v5.44H38.8Zm0-2.31a2.93,2.93,0,0,0-2.34-1.07,1.92,1.92,0,1,0,0,3.83A2.89,2.89,0,0,0,38.8,163Z"/><path class="cls-7777777777" d="M45.53,156.55a3.22,3.22,0,0,1,2.74,1.31l-.58.51a2.44,2.44,0,0,0-2.11-1.07c-1.81,0-2.91,1.44-2.91,3.3s1.1,3.31,2.91,3.31a2.46,2.46,0,0,0,2.11-1.09l.58.52a3.18,3.18,0,0,1-2.74,1.32,4.07,4.07,0,0,1,0-8.11Z"/><path class="cls-7777777777" d="M49.9,154.79a.65.65,0,0,1,.64-.64.64.64,0,0,1,0,1.28A.65.65,0,0,1,49.9,154.79Zm.22,2H51v7.73h-.84Z"/><path class="cls-7777777777" d="M53.71,163v-5.49H52.43v-.75h1.28v-2.11h.85v2.11h1.56v.75H54.56v5.37c0,.62.25,1,.8,1a1.19,1.19,0,0,0,.86-.37l.32.64a1.72,1.72,0,0,1-1.31.48C54.2,164.66,53.71,164,53.71,163Z"/><path class="cls-7777777777" d="M58.24,166.86c.52,0,.88-.21,1.18-1l.61-1.37-3.27-7.8h.93l2.8,6.76,2.8-6.76h.95l-4,9.43a2.06,2.06,0,0,1-2,1.44,3.37,3.37,0,0,1-.81-.11l.14-.77A1.94,1.94,0,0,0,58.24,166.86Z"/><path class="cls-7777777777" d="M5.71,232.76h4a3.12,3.12,0,1,1,0,6.24H6.62v4.44H5.71Zm3.9.83h-3v4.58h3a2.29,2.29,0,1,0,0-4.58Z"/><path class="cls-7777777777" d="M14.17,239.56a3.74,3.74,0,1,1,3.72,4.07A3.75,3.75,0,0,1,14.17,239.56Zm6.55,0c0-1.71-1-3.3-2.83-3.3s-2.82,1.59-2.82,3.3,1,3.32,2.82,3.32S20.72,241.29,20.72,239.56Z"/><path class="cls-7777777777" d="M23.76,232.76h.83v10.68h-.83Z"/><path class="cls-7777777777" d="M27,233.75a.65.65,0,0,1,.64-.64.64.64,0,1,1,0,1.28A.65.65,0,0,1,27,233.75Zm.22,1.95H28v7.74h-.83Z"/><path class="cls-7777777777" d="M33.92,235.51a3.18,3.18,0,0,1,2.73,1.32l-.57.51A2.48,2.48,0,0,0,34,236.26c-1.81,0-2.92,1.45-2.92,3.3s1.11,3.32,2.92,3.32a2.49,2.49,0,0,0,2.11-1.09l.57.51a3.16,3.16,0,0,1-2.73,1.33,4.07,4.07,0,0,1,0-8.12Z"/><path class="cls-7777777777" d="M38.8,245.82c.52,0,.88-.21,1.18-.94l.61-1.38-3.27-7.8h.93l2.8,6.76,2.8-6.76h.95l-4,9.43a2.06,2.06,0,0,1-2,1.44,3.37,3.37,0,0,1-.81-.11l.14-.77A1.94,1.94,0,0,0,38.8,245.82Z"/><path class="cls-7777777777" d="M5.71,248.76H9.12a5.34,5.34,0,1,1,0,10.68H5.71Zm3.41,9.84a4.51,4.51,0,0,0,0-9H6.62v9Z"/><path class="cls-7777777777" d="M20,251.51c2.35,0,3.65,1.87,3.65,4.1v.22H17.21a3,3,0,0,0,3,3.08,3.45,3.45,0,0,0,2.55-1.08l.43.55a4,4,0,0,1-3,1.25,4.07,4.07,0,0,1-.14-8.12Zm-2.82,3.67h5.62a2.84,2.84,0,0,0-2.82-3A2.92,2.92,0,0,0,17.21,255.18Z"/><path class="cls-7777777777" d="M24.64,251.7h.92l2.8,6.76,2.81-6.76h.94l-3.27,7.74H27.9Z"/><path class="cls-7777777777" d="M36.8,251.51c2.35,0,3.65,1.87,3.65,4.1v.22H34a3,3,0,0,0,3,3.08,3.41,3.41,0,0,0,2.54-1.08l.44.55a4,4,0,0,1-3,1.25,4.07,4.07,0,0,1-.14-8.12ZM34,255.18H39.6a2.84,2.84,0,0,0-2.82-3A2.91,2.91,0,0,0,34,255.18Z"/><path class="cls-7777777777" d="M42.59,248.76h.83v10.68h-.83Z"/><path class="cls-7777777777" d="M45.56,255.56a3.74,3.74,0,1,1,3.72,4.07A3.75,3.75,0,0,1,45.56,255.56Zm6.55,0c0-1.71-1-3.3-2.83-3.3s-2.82,1.59-2.82,3.3,1,3.32,2.82,3.32S52.11,257.29,52.11,255.56Z"/><path class="cls-7777777777" d="M55.15,262.38V251.7H56v1.24a3.3,3.3,0,0,1,2.69-1.43c2.06,0,3.46,1.57,3.46,4.05s-1.4,4.07-3.46,4.07A3.3,3.3,0,0,1,56,258.19v4.19Zm3.37-10.12a3.11,3.11,0,0,0-2.54,1.4v3.81a3.17,3.17,0,0,0,2.54,1.41c1.73,0,2.71-1.45,2.71-3.32S60.25,252.26,58.52,252.26Z"/><path class="cls-7777777777" d="M73.47,254c0-1.09-.46-1.77-1.55-1.77a2.86,2.86,0,0,0-2.21,1.32v5.86h-.85V254c0-1.09-.45-1.77-1.55-1.77a3,3,0,0,0-2.21,1.33v5.85h-.83V251.7h.83v1.17a3.43,3.43,0,0,1,2.5-1.36,2,2,0,0,1,2,1.46,3.21,3.21,0,0,1,2.56-1.46c1.42,0,2.11.8,2.11,2.36v5.57h-.83Z"/><path class="cls-7777777777" d="M80.17,251.51c2.35,0,3.65,1.87,3.65,4.1v.22H77.35a3,3,0,0,0,3,3.08,3.41,3.41,0,0,0,2.55-1.08l.43.55a4,4,0,0,1-3,1.25,4.07,4.07,0,0,1-.15-8.12Zm-2.82,3.67H83a2.83,2.83,0,0,0-2.81-3A2.92,2.92,0,0,0,77.35,255.18Z"/><path class="cls-7777777777" d="M91.18,254.22c0-1.51-.75-2-1.87-2a3.4,3.4,0,0,0-2.52,1.33v5.85H86V251.7h.83v1.17a3.94,3.94,0,0,1,2.79-1.36c1.57,0,2.43.77,2.43,2.52v5.41h-.83Z"/><path class="cls-7777777777" d="M94.76,258v-5.49H93.48v-.76h1.28v-2.11h.85v2.11h1.57v.76H95.61v5.36c0,.62.26,1.06.8,1.06a1.19,1.19,0,0,0,.86-.37l.33.64a1.76,1.76,0,0,1-1.32.48C95.26,259.63,94.76,259,94.76,258Z"/><path class="cls-7777777777" d="M7.81,333.37l-1.19,1.3v3.73H5.71V327.72h.91v5.84l5.15-5.84h1.17L8.4,332.81l5,5.59H12.21Z"/><path class="cls-7777777777" d="M20.27,333.18c0-1.5-.75-1.95-1.87-1.95a3.36,3.36,0,0,0-2.52,1.33v5.84h-.83v-7.73h.83v1.17a3.9,3.9,0,0,1,2.79-1.36c1.57,0,2.43.76,2.43,2.51v5.41h-.83Z"/><path class="cls-7777777777" d="M23.24,334.52A3.74,3.74,0,1,1,27,338.59,3.75,3.75,0,0,1,23.24,334.52Zm6.55,0c0-1.71-1-3.29-2.83-3.29s-2.82,1.58-2.82,3.29,1,3.32,2.82,3.32S29.79,336.25,29.79,334.52Z"/><path class="cls-7777777777" d="M37.29,331.79l-2.17,6.61h-.8l-2.52-7.73h.9l2,6.56,2.18-6.56h.72l2.17,6.56,2-6.56h.9l-2.51,7.73h-.81Z"/><path class="cls-7777777777" d="M44.33,327.72h.83V338.4h-.83Z"/><path class="cls-7777777777" d="M51,330.48c2.35,0,3.65,1.87,3.65,4.09v.23H48.22a3,3,0,0,0,3,3.07,3.44,3.44,0,0,0,2.54-1.07l.44.54a4,4,0,0,1-3,1.25,4.06,4.06,0,0,1-.14-8.11Zm-2.82,3.66h5.62A2.83,2.83,0,0,0,51,331.2,2.91,2.91,0,0,0,48.22,334.14Z"/><path class="cls-7777777777" d="M62.53,337.17a3.3,3.3,0,0,1-2.69,1.42c-2.05,0-3.46-1.57-3.46-4s1.41-4.06,3.46-4.06a3.31,3.31,0,0,1,2.69,1.44v-4.2h.84V338.4h-.84Zm0-4.53A3.08,3.08,0,0,0,60,331.23c-1.71,0-2.7,1.44-2.7,3.31s1,3.3,2.7,3.3a3.1,3.1,0,0,0,2.55-1.38Z"/><path class="cls-7777777777" d="M66.46,339.73A3,3,0,0,0,69,340.82a2.36,2.36,0,0,0,2.64-2.49v-1.21A3.36,3.36,0,0,1,69,338.56c-2,0-3.45-1.55-3.45-4s1.4-4,3.45-4a3.3,3.3,0,0,1,2.69,1.44v-1.25h.85v7.65c0,2.37-1.6,3.22-3.49,3.22a3.7,3.7,0,0,1-3-1.17Zm5.2-7.09a3.09,3.09,0,0,0-2.54-1.41c-1.72,0-2.71,1.42-2.71,3.29s1,3.29,2.71,3.29a3.11,3.11,0,0,0,2.54-1.41Z"/><path class="cls-7777777777" d="M78.36,330.48c2.36,0,3.65,1.87,3.65,4.09v.23H75.55a3,3,0,0,0,3,3.07,3.44,3.44,0,0,0,2.54-1.07l.43.54a4,4,0,0,1-3,1.25,4.06,4.06,0,0,1-.15-8.11Zm-2.81,3.66h5.62a2.83,2.83,0,0,0-2.82-2.94A2.9,2.9,0,0,0,75.55,334.14Z"/><path class="cls-7777777777" d="M14.77,344.92l-3.89,9.48h-.35l-3.91-9.48v9.48H5.71V343.72H7.07l3.63,8.85,3.62-8.85H15.7V354.4h-.93Z"/><path class="cls-7777777777" d="M23.21,353.49a3.35,3.35,0,0,1-2.62,1.1A2.59,2.59,0,0,1,17.88,352a2.54,2.54,0,0,1,2.71-2.54,3.31,3.31,0,0,1,2.62,1.09V349a1.84,1.84,0,0,0-2.08-1.78,3,3,0,0,0-2.41,1.14l-.47-.56a3.71,3.71,0,0,1,3-1.31c1.59,0,2.84.75,2.84,2.48v5.44h-.84Zm0-2.31a2.89,2.89,0,0,0-2.33-1.07,1.92,1.92,0,1,0,0,3.82,2.88,2.88,0,0,0,2.33-1.05Z"/><path class="cls-7777777777" d="M31.85,349.18c0-1.5-.75-1.95-1.87-1.95a3.34,3.34,0,0,0-2.51,1.33v5.84h-.83v-7.73h.83v1.17a3.88,3.88,0,0,1,2.78-1.36A2.18,2.18,0,0,1,32.69,349v5.41h-.84Z"/><path class="cls-7777777777" d="M40.19,353.49a3.37,3.37,0,0,1-2.63,1.1,2.59,2.59,0,0,1-2.7-2.58,2.54,2.54,0,0,1,2.7-2.54,3.33,3.33,0,0,1,2.63,1.09V349a1.85,1.85,0,0,0-2.08-1.78,3,3,0,0,0-2.42,1.14l-.46-.56a3.7,3.7,0,0,1,3-1.31c1.58,0,2.83.75,2.83,2.48v5.44h-.83Zm0-2.31a2.91,2.91,0,0,0-2.34-1.07,1.92,1.92,0,1,0,0,3.82,2.9,2.9,0,0,0,2.34-1.05Z"/><path class="cls-7777777777" d="M44.11,355.73a2.94,2.94,0,0,0,2.56,1.09,2.36,2.36,0,0,0,2.64-2.49v-1.21a3.36,3.36,0,0,1-2.69,1.44c-2,0-3.46-1.55-3.46-4s1.41-4,3.46-4a3.3,3.3,0,0,1,2.69,1.44v-1.25h.85v7.65c0,2.37-1.6,3.22-3.49,3.22a3.7,3.7,0,0,1-3-1.17Zm5.2-7.09a3.09,3.09,0,0,0-2.54-1.41c-1.72,0-2.71,1.42-2.71,3.29s1,3.29,2.71,3.29a3.11,3.11,0,0,0,2.54-1.41Z"/><path class="cls-7777777777" d="M56,346.48c2.36,0,3.65,1.87,3.65,4.09v.23H53.2a3,3,0,0,0,3,3.07,3.44,3.44,0,0,0,2.55-1.07l.43.54a4,4,0,0,1-3,1.25,4.06,4.06,0,0,1-.15-8.11Zm-2.81,3.66h5.61A2.83,2.83,0,0,0,56,347.2,2.9,2.9,0,0,0,53.2,350.14Z"/><path class="cls-7777777777" d="M71,349c0-1.09-.47-1.76-1.56-1.76a2.9,2.9,0,0,0-2.21,1.31v5.86H66.4V349c0-1.09-.45-1.76-1.56-1.76a2.94,2.94,0,0,0-2.2,1.33v5.84H61.8v-7.73h.84v1.17a3.37,3.37,0,0,1,2.49-1.36,1.94,1.94,0,0,1,2,1.45,3.24,3.24,0,0,1,2.57-1.45c1.42,0,2.11.8,2.11,2.35v5.57H71Z"/><path class="cls-7777777777" d="M77.71,346.48c2.35,0,3.65,1.87,3.65,4.09v.23H74.89a3,3,0,0,0,3,3.07,3.47,3.47,0,0,0,2.55-1.07l.43.54a4,4,0,0,1-3,1.25,4.06,4.06,0,0,1-.14-8.11Zm-2.82,3.66h5.62a2.83,2.83,0,0,0-2.82-2.94A2.91,2.91,0,0,0,74.89,350.14Z"/><path class="cls-7777777777" d="M88.72,349.18c0-1.5-.76-1.95-1.88-1.95a3.36,3.36,0,0,0-2.51,1.33v5.84H83.5v-7.73h.83v1.17a3.9,3.9,0,0,1,2.79-1.36c1.56,0,2.43.76,2.43,2.51v5.41h-.83Z"/><path class="cls-7777777777" d="M92.3,352.91v-5.49H91v-.75H92.3v-2.12h.85v2.12h1.57v.75H93.15v5.36c0,.63.25,1.06.8,1.06a1.19,1.19,0,0,0,.86-.37l.32.64a1.72,1.72,0,0,1-1.31.48C92.8,354.59,92.3,354,92.3,352.91Z"/><path class="cls-7777777777" d="M452.25,200.14a5.08,5.08,0,0,1,4,1.82l-.69.5a4.34,4.34,0,0,0-3.33-1.49,4.71,4.71,0,0,0,0,9.4,4.54,4.54,0,0,0,3.14-1.3v-2.54h-4.05v-.84h5v3.73a5.41,5.41,0,0,1-4.05,1.78,5.53,5.53,0,0,1,0-11.06Z"/><path class="cls-7777777777" d="M458.59,200.32h.83V211h-.83Z"/><path class="cls-7777777777" d="M461.56,207.12a3.73,3.73,0,1,1,3.71,4.06A3.75,3.75,0,0,1,461.56,207.12Zm6.55,0c0-1.71-1-3.3-2.84-3.3s-2.81,1.59-2.81,3.3,1,3.31,2.81,3.31S468.11,208.85,468.11,207.12Z"/><path class="cls-7777777777" d="M471.15,200.32H472v4.19a3.3,3.3,0,0,1,2.69-1.44c2.06,0,3.45,1.62,3.45,4.06s-1.4,4.05-3.45,4.05a3.28,3.28,0,0,1-2.69-1.42V211h-.83Zm3.37,10.11c1.73,0,2.71-1.42,2.71-3.3s-1-3.31-2.71-3.31a3.14,3.14,0,0,0-2.54,1.41v3.83A3.13,3.13,0,0,0,474.52,210.43Z"/><path class="cls-7777777777" d="M485.2,210.08a3.39,3.39,0,0,1-2.63,1.1,2.58,2.58,0,0,1-2.7-2.57,2.55,2.55,0,0,1,2.7-2.55,3.38,3.38,0,0,1,2.63,1.09v-1.57a1.85,1.85,0,0,0-2.08-1.77,3,3,0,0,0-2.42,1.13l-.47-.56a3.72,3.72,0,0,1,3-1.31c1.58,0,2.83.75,2.83,2.48V211h-.83Zm0-2.31a2.93,2.93,0,0,0-2.34-1.07,1.92,1.92,0,1,0,0,3.83,2.89,2.89,0,0,0,2.34-1.06Z"/><path class="cls-7777777777" d="M488.62,200.32h.83V211h-.83Z"/><path class="cls-7777777777" d="M431.71,221.66a5.29,5.29,0,0,1,5.37-5.52A4.85,4.85,0,0,1,441,218l-.77.49a3.92,3.92,0,0,0-3.16-1.55,4.7,4.7,0,0,0,0,9.38,3.89,3.89,0,0,0,3.16-1.55l.77.48a4.82,4.82,0,0,1-3.93,1.9A5.29,5.29,0,0,1,431.71,221.66Z"/><path class="cls-7777777777" d="M447.74,226.08a3.37,3.37,0,0,1-2.62,1.1,2.59,2.59,0,0,1-2.71-2.57,2.55,2.55,0,0,1,2.71-2.55,3.36,3.36,0,0,1,2.62,1.09v-1.57a1.85,1.85,0,0,0-2.08-1.77,3,3,0,0,0-2.42,1.13l-.46-.56a3.71,3.71,0,0,1,3-1.31c1.58,0,2.83.75,2.83,2.48V227h-.83Zm0-2.31a2.91,2.91,0,0,0-2.34-1.07,1.92,1.92,0,1,0,0,3.83,2.87,2.87,0,0,0,2.34-1.06Z"/><path class="cls-7777777777" d="M451.16,229.94V219.26H452v1.23a3.27,3.27,0,0,1,2.68-1.42c2.07,0,3.46,1.57,3.46,4.05s-1.39,4.06-3.46,4.06a3.29,3.29,0,0,1-2.68-1.44v4.2Zm3.38-10.12a3.08,3.08,0,0,0-2.54,1.39V225a3.12,3.12,0,0,0,2.54,1.41c1.73,0,2.71-1.44,2.71-3.31S456.27,219.82,454.54,219.82Z"/><path class="cls-7777777777" d="M465.2,226.08a3.39,3.39,0,0,1-2.63,1.1,2.58,2.58,0,0,1-2.7-2.57,2.55,2.55,0,0,1,2.7-2.55,3.38,3.38,0,0,1,2.63,1.09v-1.57a1.85,1.85,0,0,0-2.08-1.77,3,3,0,0,0-2.42,1.13l-.47-.56a3.73,3.73,0,0,1,3-1.31c1.58,0,2.83.75,2.83,2.48V227h-.83Zm0-2.31a2.93,2.93,0,0,0-2.34-1.07,1.92,1.92,0,1,0,0,3.83,2.89,2.89,0,0,0,2.34-1.06Z"/><path class="cls-7777777777" d="M471.93,219.07a3.23,3.23,0,0,1,2.74,1.31l-.58.51a2.44,2.44,0,0,0-2.11-1.07c-1.81,0-2.91,1.44-2.91,3.3s1.1,3.31,2.91,3.31a2.46,2.46,0,0,0,2.11-1.09l.58.52a3.19,3.19,0,0,1-2.74,1.32,4.07,4.07,0,0,1,0-8.11Z"/><path class="cls-7777777777" d="M476.3,217.31a.65.65,0,0,1,.64-.64.64.64,0,0,1,0,1.28A.65.65,0,0,1,476.3,217.31Zm.22,1.95h.83V227h-.83Z"/><path class="cls-7777777777" d="M480.11,225.5V220h-1.28v-.75h1.28v-2.11H481v2.11h1.57V220H481v5.37c0,.62.26,1.05.8,1.05a1.2,1.2,0,0,0,.87-.37l.32.64a1.73,1.73,0,0,1-1.31.48C480.6,227.18,480.11,226.56,480.11,225.5Z"/><path class="cls-7777777777" d="M484.63,229.38c.53,0,.88-.21,1.19-.95l.61-1.37-3.27-7.8h.93l2.8,6.76,2.8-6.76h.95l-4,9.43a2.06,2.06,0,0,1-2,1.44,3.46,3.46,0,0,1-.82-.11l.15-.77A1.88,1.88,0,0,0,484.63,229.38Z"/><path class="cls-7777777777" d="M387.13,232.32h4.39a2.65,2.65,0,0,1,2.94,2.72,2.44,2.44,0,0,1-1.87,2.45,2.68,2.68,0,0,1,2.08,2.62A2.75,2.75,0,0,1,391.6,243h-4.47Zm4.28,4.78a2,2,0,1,0,0-3.95H388v3.95Zm.06,5.06a2,2,0,0,0,2.24-2.11,2.08,2.08,0,0,0-2.24-2.12H388v4.23Z"/><path class="cls-7777777777" d="M402.14,241.86a3.92,3.92,0,0,1-2.78,1.32c-1.59,0-2.44-.73-2.44-2.48v-5.44h.84v5.25c0,1.51.75,1.92,1.87,1.92a3.33,3.33,0,0,0,2.51-1.28v-5.89H403V243h-.83Z"/><path class="cls-7777777777" d="M405.34,233.31a.65.65,0,0,1,.64-.64.64.64,0,0,1,0,1.28A.65.65,0,0,1,405.34,233.31Zm.22,1.95h.84V243h-.84Z"/><path class="cls-7777777777" d="M409,232.32h.83V243H409Z"/><path class="cls-7777777777" d="M418.11,241.76a3.3,3.3,0,0,1-2.69,1.42c-2.05,0-3.46-1.56-3.46-4.05s1.41-4.06,3.46-4.06a3.31,3.31,0,0,1,2.69,1.44v-4.19H419V243h-.85Zm0-4.53a3.1,3.1,0,0,0-2.55-1.41c-1.71,0-2.7,1.44-2.7,3.31s1,3.3,2.7,3.3a3.12,3.12,0,0,0,2.55-1.37Z"/><path class="cls-7777777777" d="M421.32,233.31a.66.66,0,0,1,.64-.64.64.64,0,1,1,0,1.28A.66.66,0,0,1,421.32,233.31Zm.23,1.95h.83V243h-.83Z"/><path class="cls-7777777777" d="M430.19,237.77c0-1.5-.75-2-1.87-2a3.36,3.36,0,0,0-2.52,1.33V243H425v-7.73h.83v1.17a3.94,3.94,0,0,1,2.79-1.36c1.57,0,2.43.77,2.43,2.51V243h-.83Z"/><path class="cls-7777777777" d="M434.11,244.32a2.93,2.93,0,0,0,2.56,1.09,2.36,2.36,0,0,0,2.64-2.48v-1.22a3.35,3.35,0,0,1-2.69,1.44c-2.05,0-3.46-1.55-3.46-4s1.41-4.05,3.46-4.05a3.31,3.31,0,0,1,2.69,1.44v-1.25h.85v7.65c0,2.37-1.6,3.22-3.49,3.22a3.7,3.7,0,0,1-3-1.17Zm5.2-7.09a3.12,3.12,0,0,0-2.55-1.41c-1.71,0-2.7,1.43-2.7,3.3s1,3.28,2.7,3.28a3.12,3.12,0,0,0,2.55-1.41Z"/><path class="cls-7777777777" d="M451.92,232.14a5,5,0,0,1,4,1.82l-.68.5a4.35,4.35,0,0,0-3.33-1.49,4.71,4.71,0,0,0,0,9.4,4.54,4.54,0,0,0,3.13-1.3v-2.54H451v-.84h5v3.73a5.42,5.42,0,0,1-4.05,1.78,5.53,5.53,0,0,1,0-11.06Z"/><path class="cls-7777777777" d="M458.25,235.26h.83v1.33a3.35,3.35,0,0,1,2.61-1.49V236c-.14,0-.25,0-.41,0a3,3,0,0,0-2.2,1.38V243h-.83Z"/><path class="cls-7777777777" d="M468.24,242.08a3.39,3.39,0,0,1-2.63,1.1,2.58,2.58,0,0,1-2.7-2.57,2.55,2.55,0,0,1,2.7-2.55,3.38,3.38,0,0,1,2.63,1.09v-1.57a1.85,1.85,0,0,0-2.08-1.77,3,3,0,0,0-2.42,1.13l-.47-.56a3.72,3.72,0,0,1,3-1.31c1.58,0,2.83.75,2.83,2.48V243h-.83Zm0-2.31a2.93,2.93,0,0,0-2.34-1.07,1.92,1.92,0,1,0,0,3.83,2.89,2.89,0,0,0,2.34-1.06Z"/><path class="cls-7777777777" d="M476.88,237.77c0-1.5-.76-2-1.88-2a3.36,3.36,0,0,0-2.51,1.33V243h-.83v-7.73h.83v1.17a3.94,3.94,0,0,1,2.79-1.36,2.18,2.18,0,0,1,2.43,2.51V243h-.83Z"/><path class="cls-7777777777" d="M480.46,241.5V236h-1.28v-.75h1.28v-2.11h.85v2.11h1.57V236h-1.57v5.37c0,.62.25,1.05.8,1.05a1.19,1.19,0,0,0,.86-.37l.32.64a1.72,1.72,0,0,1-1.31.48C481,243.18,480.46,242.56,480.46,241.5Z"/><path class="cls-7777777777" d="M484.52,241.34a3.18,3.18,0,0,0,2.5,1.14c1.3,0,2.06-.64,2.06-1.54s-1.05-1.28-2.17-1.56c-1.28-.33-2.71-.66-2.71-2.17,0-1.18,1-2.14,2.76-2.14a3.5,3.5,0,0,1,2.76,1.15l-.46.58a2.81,2.81,0,0,0-2.3-1c-1.21,0-1.94.6-1.94,1.4s1,1.12,2.06,1.39c1.33.33,2.82.7,2.82,2.35,0,1.25-1,2.27-2.9,2.27a3.71,3.71,0,0,1-3-1.21Z"/><path class="cls-7777777777" d="M411.88,382.65h4a3.12,3.12,0,1,1,0,6.24H412.8v4.44h-.92Zm3.91.83h-3v4.58h3a2.29,2.29,0,1,0,0-4.58Z"/><path class="cls-7777777777" d="M421,385.59h.83v1.33a3.35,3.35,0,0,1,2.61-1.49v.92a2.85,2.85,0,0,0-.42,0,3,3,0,0,0-2.19,1.38v5.64H421Z"/><path class="cls-7777777777" d="M425.61,389.45a3.74,3.74,0,1,1,3.71,4.07A3.75,3.75,0,0,1,425.61,389.45Zm6.55,0c0-1.71-1-3.3-2.84-3.3s-2.81,1.59-2.81,3.3,1,3.31,2.81,3.31S432.16,391.18,432.16,389.45Z"/><path class="cls-7777777777" d="M435.69,394.65a3,3,0,0,0,2.56,1.09,2.36,2.36,0,0,0,2.64-2.48V392a3.33,3.33,0,0,1-2.69,1.45c-2,0-3.45-1.56-3.45-4s1.41-4.05,3.45-4.05a3.3,3.3,0,0,1,2.69,1.44v-1.25h.85v7.66c0,2.36-1.6,3.21-3.49,3.21a3.71,3.71,0,0,1-3-1.17Zm5.2-7.09a3.1,3.1,0,0,0-2.54-1.41c-1.71,0-2.71,1.43-2.71,3.3s1,3.28,2.71,3.28a3.08,3.08,0,0,0,2.54-1.41Z"/><path class="cls-7777777777" d="M444.32,385.59h.83v1.33a3.32,3.32,0,0,1,2.61-1.49v.92a2.85,2.85,0,0,0-.42,0,3,3,0,0,0-2.19,1.38v5.64h-.83Z"/><path class="cls-7777777777" d="M454.3,392.41a3.34,3.34,0,0,1-2.62,1.11,2.6,2.6,0,0,1-2.71-2.58,2.54,2.54,0,0,1,2.71-2.54,3.35,3.35,0,0,1,2.62,1.08v-1.56a1.85,1.85,0,0,0-2.08-1.78,3,3,0,0,0-2.42,1.13l-.46-.56a3.71,3.71,0,0,1,3-1.31c1.58,0,2.83.75,2.83,2.48v5.45h-.83Zm0-2.3A2.88,2.88,0,0,0,452,389a1.92,1.92,0,1,0,0,3.82,2.87,2.87,0,0,0,2.34-1.06Z"/><path class="cls-7777777777" d="M466.93,387.92c0-1.09-.47-1.77-1.56-1.77a2.88,2.88,0,0,0-2.21,1.32v5.86h-.84v-5.41c0-1.09-.45-1.77-1.56-1.77a3,3,0,0,0-2.2,1.33v5.85h-.84v-7.74h.84v1.17a3.41,3.41,0,0,1,2.49-1.36,2,2,0,0,1,2,1.46,3.21,3.21,0,0,1,2.56-1.46c1.42,0,2.11.8,2.11,2.35v5.58h-.83Z"/><path class="cls-7777777777" d="M479.55,387.92c0-1.09-.46-1.77-1.55-1.77a2.86,2.86,0,0,0-2.21,1.32v5.86h-.85v-5.41c0-1.09-.45-1.77-1.55-1.77a3,3,0,0,0-2.21,1.33v5.85h-.83v-7.74h.83v1.17a3.43,3.43,0,0,1,2.5-1.36,2,2,0,0,1,2,1.46,3.21,3.21,0,0,1,2.56-1.46c1.42,0,2.11.8,2.11,2.35v5.58h-.83Z"/><path class="cls-7777777777" d="M486.25,385.4c2.35,0,3.65,1.87,3.65,4.1v.22h-6.46a3,3,0,0,0,3,3.08,3.41,3.41,0,0,0,2.55-1.08l.43.55a4,4,0,0,1-3,1.25,4.07,4.07,0,0,1-.15-8.12Zm-2.81,3.67h5.61a2.83,2.83,0,0,0-2.81-2.95A2.9,2.9,0,0,0,483.44,389.07Z"/><path class="cls-7777777777" d="M437.29,407.13a4.36,4.36,0,0,0,3.33,1.55c2.19,0,2.82-1.21,2.82-2.12,0-1.51-1.44-1.92-2.93-2.32-1.68-.47-3.48-.95-3.48-2.92,0-1.74,1.57-2.85,3.51-2.85a4.6,4.6,0,0,1,3.62,1.51l-.61.67a3.83,3.83,0,0,0-3.06-1.35c-1.42,0-2.49.82-2.49,2s1.32,1.64,2.78,2c1.71.48,3.62,1,3.62,3.2,0,1.36-.91,3-3.8,3a4.91,4.91,0,0,1-3.9-1.7Z"/><path class="cls-7777777777" d="M451.77,408.19a3.93,3.93,0,0,1-2.78,1.33c-1.59,0-2.43-.74-2.43-2.48v-5.45h.83v5.25c0,1.51.75,1.92,1.87,1.92a3.33,3.33,0,0,0,2.51-1.28v-5.89h.83v7.74h-.83Z"/><path class="cls-7777777777" d="M455.19,412.27V401.59H456v1.24a3.28,3.28,0,0,1,2.69-1.43c2.06,0,3.45,1.57,3.45,4.05s-1.39,4.07-3.45,4.07a3.3,3.3,0,0,1-2.69-1.44v4.19Zm3.38-10.12a3.08,3.08,0,0,0-2.54,1.4v3.81a3.16,3.16,0,0,0,2.54,1.4c1.73,0,2.71-1.44,2.71-3.31S460.3,402.15,458.57,402.15Z"/><path class="cls-7777777777" d="M464.31,412.27V401.59h.84v1.24a3.28,3.28,0,0,1,2.69-1.43c2.06,0,3.45,1.57,3.45,4.05s-1.39,4.07-3.45,4.07a3.3,3.3,0,0,1-2.69-1.44v4.19Zm3.38-10.12a3.08,3.08,0,0,0-2.54,1.4v3.81a3.16,3.16,0,0,0,2.54,1.4c1.73,0,2.71-1.44,2.71-3.31S469.42,402.15,467.69,402.15Z"/><path class="cls-7777777777" d="M473,405.45a3.74,3.74,0,1,1,3.71,4.07A3.75,3.75,0,0,1,473,405.45Zm6.54,0c0-1.71-1-3.3-2.83-3.3s-2.82,1.59-2.82,3.3,1,3.31,2.82,3.31S479.53,407.18,479.53,405.45Z"/><path class="cls-7777777777" d="M482.57,401.59h.83v1.33a3.35,3.35,0,0,1,2.61-1.49v.92a2.59,2.59,0,0,0-.41,0,3,3,0,0,0-2.2,1.38v5.64h-.83Z"/><path class="cls-7777777777" d="M487.8,407.84v-5.49h-1.28v-.76h1.28v-2.11h.85v2.11h1.57v.76h-1.57v5.36c0,.62.26,1.05.8,1.05a1.19,1.19,0,0,0,.86-.36l.33.64a1.76,1.76,0,0,1-1.32.48C488.3,409.52,487.8,408.89,487.8,407.84Z"/><path class="cls-7777777777" d="M5.71,431.17A4.36,4.36,0,0,0,9,432.72c2.19,0,2.81-1.22,2.81-2.13,0-1.5-1.44-1.92-2.93-2.32-1.68-.46-3.47-.94-3.47-2.91,0-1.75,1.57-2.85,3.51-2.85a4.61,4.61,0,0,1,3.61,1.5l-.6.67a3.85,3.85,0,0,0-3.06-1.34c-1.43,0-2.5.82-2.5,2s1.33,1.63,2.79,2c1.71.48,3.61,1,3.61,3.2,0,1.36-.91,3-3.79,3a4.89,4.89,0,0,1-3.9-1.69Z"/><path class="cls-7777777777" d="M20.19,432.22a3.91,3.91,0,0,1-2.79,1.33c-1.58,0-2.43-.73-2.43-2.48v-5.44h.83v5.25c0,1.5.76,1.92,1.88,1.92a3.33,3.33,0,0,0,2.51-1.28v-5.89H21v7.73h-.83Z"/><path class="cls-7777777777" d="M23.61,436.31V425.63h.83v1.23a3.3,3.3,0,0,1,2.69-1.42c2.07,0,3.46,1.57,3.46,4.05s-1.39,4.06-3.46,4.06a3.31,3.31,0,0,1-2.69-1.44v4.2ZM27,426.19a3.12,3.12,0,0,0-2.55,1.39v3.81A3.16,3.16,0,0,0,27,432.8c1.73,0,2.7-1.44,2.7-3.31S28.72,426.19,27,426.19Z"/><path class="cls-7777777777" d="M32.73,436.31V425.63h.83v1.23a3.3,3.3,0,0,1,2.69-1.42c2.07,0,3.46,1.57,3.46,4.05s-1.39,4.06-3.46,4.06a3.31,3.31,0,0,1-2.69-1.44v4.2Zm3.38-10.12a3.12,3.12,0,0,0-2.55,1.39v3.81a3.16,3.16,0,0,0,2.55,1.41c1.73,0,2.7-1.44,2.7-3.31S37.84,426.19,36.11,426.19Z"/><path class="cls-7777777777" d="M41.4,429.49a3.74,3.74,0,1,1,3.72,4.06A3.75,3.75,0,0,1,41.4,429.49Zm6.55,0c0-1.72-1-3.3-2.83-3.3s-2.82,1.58-2.82,3.3,1,3.31,2.82,3.31S48,431.22,48,429.49Z"/><path class="cls-7777777777" d="M51,425.63h.83V427a3.32,3.32,0,0,1,2.61-1.49v.91c-.15,0-.26,0-.42,0a2.93,2.93,0,0,0-2.19,1.38v5.63H51Z"/><path class="cls-7777777777" d="M56.22,431.87v-5.49H54.94v-.75h1.28v-2.11h.85v2.11h1.57v.75H57.07v5.36c0,.63.25,1.06.8,1.06a1.19,1.19,0,0,0,.86-.37l.32.64a1.72,1.72,0,0,1-1.31.48C56.71,433.55,56.22,432.93,56.22,431.87Z"/><path class="cls-7777777777" d="M64.23,428a5.3,5.3,0,0,1,5.38-5.52,4.82,4.82,0,0,1,3.92,1.89l-.76.49a3.92,3.92,0,0,0-3.16-1.55,4.7,4.7,0,0,0,0,9.38,3.92,3.92,0,0,0,3.16-1.55l.76.48a4.78,4.78,0,0,1-3.92,1.9A5.3,5.3,0,0,1,64.23,428Z"/><path class="cls-7777777777" d="M74.91,429.49a3.73,3.73,0,1,1,3.71,4.06A3.75,3.75,0,0,1,74.91,429.49Zm6.54,0c0-1.72-1-3.3-2.83-3.3s-2.82,1.58-2.82,3.3,1,3.31,2.82,3.31S81.45,431.22,81.45,429.49Z"/><path class="cls-7777777777" d="M84.31,431.71a3.2,3.2,0,0,0,2.5,1.14c1.3,0,2.07-.64,2.07-1.54s-1.06-1.28-2.18-1.57c-1.28-.32-2.71-.65-2.71-2.16,0-1.18,1-2.14,2.76-2.14a3.51,3.51,0,0,1,2.77,1.15l-.47.58a2.81,2.81,0,0,0-2.3-1c-1.2,0-1.94.59-1.94,1.39s1,1.12,2.07,1.4c1.32.33,2.81.7,2.81,2.35,0,1.25-1,2.27-2.9,2.27a3.77,3.77,0,0,1-3-1.21Z"/><path class="cls-7777777777" d="M92,431.87v-5.49H90.71v-.75H92v-2.11h.84v2.11h1.57v.75H92.84v5.36c0,.63.26,1.06.8,1.06a1.24,1.24,0,0,0,.87-.37l.32.64a1.73,1.73,0,0,1-1.31.48C92.49,433.55,92,432.93,92,431.87Z"/><path class="cls-7777777777" d="M96.06,431.71a3.16,3.16,0,0,0,2.49,1.14c1.3,0,2.07-.64,2.07-1.54s-1.06-1.28-2.18-1.57c-1.28-.32-2.7-.65-2.7-2.16,0-1.18,1-2.14,2.75-2.14a3.51,3.51,0,0,1,2.77,1.15l-.46.58a2.82,2.82,0,0,0-2.31-1c-1.2,0-1.94.59-1.94,1.39s1,1.12,2.07,1.4c1.33.33,2.82.7,2.82,2.35,0,1.25-1,2.27-2.9,2.27a3.77,3.77,0,0,1-3-1.21Z"/><path class="cls-7777777777" d="M5.1,445.47a12.76,12.76,0,0,1,2.14-7.07l.5.35a14.11,14.11,0,0,0,0,13.43l-.5.37A12.82,12.82,0,0,1,5.1,445.47Z"/><path class="cls-7777777777" d="M11.61,443.85a2.86,2.86,0,0,1-2.48-2.57c0-1.89,1.76-2.76,3.46-2.76s3.46.87,3.46,2.76a2.88,2.88,0,0,1-2.48,2.57,3.2,3.2,0,0,1,2.64,2.84c0,1.73-1.57,2.86-3.62,2.86S9,448.43,9,446.69A3.21,3.21,0,0,1,11.61,443.85Zm1,.42c-.66.08-2.71.74-2.71,2.35,0,1.3,1.28,2.1,2.71,2.1s2.7-.8,2.7-2.1C15.29,445,13.23,444.35,12.59,444.27Zm0-4.91c-1.41,0-2.53.75-2.53,2,0,1.49,1.89,2,2.53,2.1.66-.13,2.53-.61,2.53-2.1C15.12,440.11,14,439.36,12.59,439.36Z"/><path class="cls-7777777777" d="M20.19,438.52a2.49,2.49,0,0,1,2.51,2.65,2.51,2.51,0,1,1-2.51-2.65Zm0,.63a2,2,0,1,0,1.77,2A1.85,1.85,0,0,0,20.19,439.15Zm5.82-.47h.74l-6.83,10.68H19.2Zm-.38,5.62a2.63,2.63,0,1,1-2.51,2.64A2.5,2.5,0,0,1,25.63,444.3Zm0,.64a2,2,0,1,0,1.76,2A1.85,1.85,0,0,0,25.63,444.94Z"/><path class="cls-7777777777" d="M39.15,438.51a5.08,5.08,0,0,1,4,1.82l-.69.5a4.34,4.34,0,0,0-3.33-1.49,4.71,4.71,0,0,0,0,9.4,4.59,4.59,0,0,0,3.14-1.3v-2.55h-4v-.83h5v3.73a5.41,5.41,0,0,1-4.05,1.78,5.53,5.53,0,0,1,0-11.06Z"/><path class="cls-7777777777" d="M54.58,439.88l-3.89,9.48h-.36l-3.9-9.48v9.48h-.92V438.68h1.37l3.63,8.86,3.62-8.86H55.5v10.68h-.92Z"/><path class="cls-7777777777" d="M58.14,447.17a4.36,4.36,0,0,0,3.33,1.55c2.19,0,2.82-1.22,2.82-2.13,0-1.5-1.45-1.92-2.93-2.32-1.68-.46-3.48-.94-3.48-2.91,0-1.75,1.57-2.85,3.51-2.85A4.64,4.64,0,0,1,65,440l-.61.67a3.85,3.85,0,0,0-3.06-1.34c-1.42,0-2.5.82-2.5,2s1.33,1.63,2.79,2c1.71.48,3.62,1,3.62,3.2,0,1.36-.92,3-3.8,3a4.89,4.89,0,0,1-3.9-1.69Z"/><path class="cls-7777777777" d="M66.38,438.75l.49-.35a12.72,12.72,0,0,1,0,14.15l-.49-.37a14.19,14.19,0,0,0,0-13.43Z"/><path class="cls-7777777777" d="M451.55,280.65h4a3.12,3.12,0,1,1,0,6.24h-3.09v4.44h-.91Zm3.9.83h-3v4.58h3a2.29,2.29,0,1,0,0-4.58Z"/><path class="cls-7777777777" d="M460,287.45a3.74,3.74,0,1,1,3.71,4.07A3.76,3.76,0,0,1,460,287.45Zm6.55,0c0-1.71-1-3.3-2.84-3.3s-2.81,1.59-2.81,3.3,1,3.32,2.81,3.32S466.56,289.18,466.56,287.45Z"/><path class="cls-7777777777" d="M469.59,280.65h.84v10.68h-.84Z"/><path class="cls-7777777777" d="M472.79,281.64a.66.66,0,0,1,.64-.64.64.64,0,0,1,0,1.28A.66.66,0,0,1,472.79,281.64Zm.23,1.95h.83v7.74H473Z"/><path class="cls-7777777777" d="M479.75,283.4a3.22,3.22,0,0,1,2.74,1.31l-.57.52a2.48,2.48,0,0,0-2.12-1.08c-1.8,0-2.91,1.45-2.91,3.3s1.11,3.32,2.91,3.32a2.49,2.49,0,0,0,2.12-1.09l.57.51a3.18,3.18,0,0,1-2.74,1.33,4.07,4.07,0,0,1,0-8.12Z"/><path class="cls-7777777777" d="M484.63,293.71c.53,0,.88-.21,1.19-.94l.61-1.38-3.27-7.8h.93l2.8,6.76,2.8-6.76h.95l-4,9.43a2.06,2.06,0,0,1-2,1.44,3.46,3.46,0,0,1-.82-.11l.15-.77A1.88,1.88,0,0,0,484.63,293.71Z"/><path class="cls-7777777777" d="M398.75,296.65h3.41a5.34,5.34,0,1,1,0,10.68h-3.41Zm3.41,9.84a4.51,4.51,0,0,0,0-9h-2.5v9Z"/><path class="cls-7777777777" d="M413.07,299.4c2.35,0,3.65,1.88,3.65,4.1v.22h-6.47a3,3,0,0,0,3,3.08,3.45,3.45,0,0,0,2.55-1.08l.43.55a4,4,0,0,1-3,1.25,4.07,4.07,0,0,1-.14-8.12Zm-2.82,3.67h5.62a2.84,2.84,0,0,0-2.82-2.95A2.92,2.92,0,0,0,410.25,303.07Z"/><path class="cls-7777777777" d="M417.67,299.59h.93l2.8,6.76,2.81-6.76h.94l-3.27,7.74h-.94Z"/><path class="cls-7777777777" d="M429.84,299.4c2.35,0,3.65,1.88,3.65,4.1v.22H427a3,3,0,0,0,3,3.08,3.41,3.41,0,0,0,2.54-1.08l.44.55a4,4,0,0,1-3,1.25,4.07,4.07,0,0,1-.14-8.12ZM427,303.07h5.62a2.84,2.84,0,0,0-2.82-2.95A2.91,2.91,0,0,0,427,303.07Z"/><path class="cls-7777777777" d="M435.63,296.65h.83v10.68h-.83Z"/><path class="cls-7777777777" d="M438.6,303.45a3.74,3.74,0,1,1,3.72,4.07A3.76,3.76,0,0,1,438.6,303.45Zm6.55,0c0-1.71-1-3.3-2.83-3.3s-2.82,1.59-2.82,3.3,1,3.32,2.82,3.32S445.15,305.18,445.15,303.45Z"/><path class="cls-7777777777" d="M448.19,310.27V299.59H449v1.24a3.28,3.28,0,0,1,2.69-1.43c2.06,0,3.46,1.57,3.46,4.05s-1.4,4.07-3.46,4.07a3.3,3.3,0,0,1-2.69-1.44v4.19Zm3.37-10.12a3.08,3.08,0,0,0-2.54,1.4v3.81a3.17,3.17,0,0,0,2.54,1.41c1.73,0,2.71-1.45,2.71-3.32S453.29,300.15,451.56,300.15Z"/><path class="cls-7777777777" d="M466.51,301.92c0-1.09-.46-1.77-1.55-1.77a2.85,2.85,0,0,0-2.21,1.32v5.86h-.85v-5.41c0-1.09-.45-1.77-1.55-1.77a3,3,0,0,0-2.21,1.33v5.85h-.83v-7.74h.83v1.17a3.43,3.43,0,0,1,2.5-1.36,2,2,0,0,1,2,1.46,3.21,3.21,0,0,1,2.56-1.46c1.42,0,2.11.8,2.11,2.36v5.57h-.83Z"/><path class="cls-7777777777" d="M473.21,299.4c2.35,0,3.65,1.88,3.65,4.1v.22h-6.47a3,3,0,0,0,3,3.08,3.41,3.41,0,0,0,2.55-1.08l.43.55a4,4,0,0,1-3,1.25,4.07,4.07,0,0,1-.15-8.12Zm-2.82,3.67H476a2.83,2.83,0,0,0-2.81-2.95A2.92,2.92,0,0,0,470.39,303.07Z"/><path class="cls-7777777777" d="M484.22,302.11c0-1.51-.75-2-1.87-2a3.36,3.36,0,0,0-2.52,1.33v5.85H479v-7.74h.83v1.17a3.94,3.94,0,0,1,2.79-1.36c1.57,0,2.43.77,2.43,2.52v5.41h-.83Z"/><path class="cls-7777777777" d="M487.8,305.84v-5.49h-1.28v-.76h1.28v-2.11h.85v2.11h1.57v.76h-1.57v5.36c0,.62.26,1.06.8,1.06a1.19,1.19,0,0,0,.86-.37l.32.64a1.72,1.72,0,0,1-1.31.48C488.3,307.52,487.8,306.89,487.8,305.84Z"/><path class="cls-7777777777" d="M438.19,319.44a12.72,12.72,0,0,1,2.14-7.08l.5.35a14.11,14.11,0,0,0,0,13.43l-.5.37A12.71,12.71,0,0,1,438.19,319.44Z"/><path class="cls-7777777777" d="M442.43,321.13a4.35,4.35,0,0,0,3.33,1.56c2.19,0,2.81-1.22,2.81-2.13,0-1.51-1.44-1.92-2.93-2.32-1.68-.47-3.47-.95-3.47-2.92,0-1.74,1.57-2.85,3.51-2.85a4.58,4.58,0,0,1,3.61,1.51l-.61.67a3.8,3.8,0,0,0-3.05-1.35c-1.43,0-2.5.82-2.5,2s1.33,1.63,2.79,2c1.71.48,3.61,1,3.61,3.2,0,1.36-.91,3-3.79,3a4.94,4.94,0,0,1-3.91-1.7Z"/><path class="cls-7777777777" d="M451.72,312.65h3.41a5.34,5.34,0,1,1,0,10.68h-3.41Zm3.41,9.84a4.51,4.51,0,0,0,0-9h-2.5v9Z"/><path class="cls-7777777777" d="M467.8,312.47a5.06,5.06,0,0,1,4,1.83l-.69.49a4.36,4.36,0,0,0-3.33-1.49,4.71,4.71,0,0,0,0,9.4,4.5,4.5,0,0,0,3.14-1.3v-2.54h-4.05V318h5v3.73a5.42,5.42,0,0,1-4.05,1.77,5.53,5.53,0,0,1,0-11.06Z"/><path class="cls-7777777777" d="M475.53,313.9l-1.71,1.82-.58-.59,2.37-2.48h.83v10.68h-.91Z"/><path class="cls-7777777777" d="M482.78,312.49a3.42,3.42,0,0,1,2.88,1.36l-.54.67a2.68,2.68,0,0,0-2.34-1.2c-2.31,0-3.15,2.42-3.15,4.69,0,.16,0,.34,0,.5a4,4,0,0,1,3.12-1.78,3.18,3.18,0,0,1,3.45,3.38,3.41,3.41,0,0,1-3.59,3.41c-2.88,0-3.92-2.66-3.92-5.52S479.83,312.49,482.78,312.49Zm-.18,5.06a3.49,3.49,0,0,0-2.91,1.82c.13,1.46.9,3.32,2.9,3.32a2.58,2.58,0,0,0,2.69-2.57A2.42,2.42,0,0,0,482.6,317.55Z"/><path class="cls-7777777777" d="M487.39,312.71l.49-.35a12.72,12.72,0,0,1,0,14.15l-.49-.37a14.19,14.19,0,0,0,0-13.43Z"/>

<path class="cls-8888888888" id="technical-capacity" d="M217.72,133.87a70.87,70.87,0,1,1-70.86,70.87,70.87,70.87,0,0,1,70.86-70.87h0"/>

<path class="cls-9999999999" id="policy-development" d="M176.52,278.54a37.85,37.85,0,1,1-37.84,37.84,37.84,37.84,0,0,1,37.84-37.84h0"/>

<path class="cls-11111111110" id="support-costs" d="M210.19,355.08a25.29,25.29,0,1,1-25.29,25.29,25.29,25.29,0,0,1,25.29-25.29h0"/>

<path class="cls-11111111111" id="knowledge-management" d="M161.09,362.31a15.51,15.51,0,1,1-15.51,15.51,15.51,15.51,0,0,1,15.51-15.51h0"/>

<path class="cls-11111111112" id="global-capacity" d="M326.72,155.84a29.61,29.61,0,1,1-29.61,29.61,29.61,29.61,0,0,1,29.61-29.61h0"/>

<path class="cls-11111111113" id="programme-support" d="M277.37,273.37a51.73,51.73,0,1,1-51.72,51.72,51.72,51.72,0,0,1,51.72-51.72h0"/>

<path class="cls-11111111114" id="policy-development2" d="M317,222a25.83,25.83,0,1,1-25.84,25.83A25.83,25.83,0,0,1,317,222h0"/>

<polyline class="cls-11111111115" points="143.25 284.85 104.17 240.57 52.87 240.57"/><path class="cls-11111111116" d="M144.87,283.27a2.26,2.26,0,1,1-3.19-.19A2.27,2.27,0,0,1,144.87,283.27Z"/><rect class="cls-11111111116" x="50.52" y="238.09" width="4.95" height="4.95"/><polyline class="cls-11111111115" points="140.11 184.65 97.33 144.13 76.02 144.13"/><path class="cls-11111111116" d="M141.58,182.94a2.25,2.25,0,1,1-3.19.08A2.26,2.26,0,0,1,141.58,182.94Z"/><rect class="cls-11111111116" x="73.67" y="141.65" width="4.95" height="4.95"/><polyline class="cls-11111111115" points="139.94 369.24 108.5 335.03 90.52 335.03"/><path class="cls-11111111116" d="M141.53,367.63a2.26,2.26,0,1,1-3.19-.13A2.26,2.26,0,0,1,141.53,367.63Z"/><rect class="cls-11111111116" x="88.17" y="332.55" width="4.95" height="4.95"/><polyline class="cls-11111111115" points="189.31 405.45 168.92 429.17 111.77 429.17"/><path class="cls-11111111116" d="M187.53,404.06a2.25,2.25,0,1,1,.24,3.18A2.26,2.26,0,0,1,187.53,404.06Z"/><rect class="cls-11111111116" x="109.42" y="426.69" width="4.95" height="4.95"/><polyline class="cls-11111111115" points="313.63 369.66 340.2 387.75 402.66 387.75"/><path class="cls-11111111116" d="M312.46,371.59a2.26,2.26,0,1,1,3.13-.59A2.25,2.25,0,0,1,312.46,371.59Z"/><rect class="cls-11111111116" x="400.06" y="385.28" width="4.95" height="4.95"/><polyline class="cls-11111111115" points="340.44 270.46 379.97 301.96 389.52 301.96"/><path class="cls-11111111116" d="M339.12,272.3a2.26,2.26,0,1,1,2.81-3.53,2.26,2.26,0,1,1-2.81,3.53Z"/><rect class="cls-11111111116" x="386.92" y="299.49" width="4.95" height="4.95"/><polyline class="cls-11111111115" points="359.3 194.77 394.87 221.96 424.18 221.96"/><path class="cls-11111111116" d="M358,196.63a2.26,2.26,0,1,1,3.16-.43A2.26,2.26,0,0,1,358,196.63Z"/><rect class="cls-11111111116" x="421.58" y="219.48" width="4.95" height="4.95"/><path class="cls-11111111117" d="M9.91,82.76H4.85l-.79,2H2L6.21,74.13H8.55l4.19,10.68H10.69ZM5.38,81.11h4l-2-5.39Z"/><path class="cls-11111111117" d="M17.38,76.89a3.49,3.49,0,0,1,3,1.37l-1.11,1a2.05,2.05,0,0,0-1.77-.92,2.58,2.58,0,0,0,0,5.14,2.09,2.09,0,0,0,1.77-.91l1.11,1a3.47,3.47,0,0,1-3,1.38,4.06,4.06,0,0,1,0-8.11Z"/><path class="cls-11111111117" d="M22.14,83V78.55H20.86V77.08h1.28V75h1.69v2.11h1.56v1.47H23.83v4c0,.53.25.91.73.91a1.08,1.08,0,0,0,.75-.27l.4,1.26a2.2,2.2,0,0,1-1.58.5A1.78,1.78,0,0,1,22.14,83Z"/><path class="cls-11111111117" d="M26.7,74.76a1,1,0,0,1,1-1,1,1,0,1,1,0,2.08A1.05,1.05,0,0,1,26.7,74.76Zm.21,2.32h1.68v7.73H26.91Z"/><path class="cls-11111111117" d="M29.65,77.08h1.79l2.26,5.79L36,77.08h1.81l-3.15,7.73H32.8Z"/><path class="cls-11111111117" d="M38.61,74.76a1,1,0,1,1,1,1A1,1,0,0,1,38.61,74.76Zm.21,2.32H40.5v7.73H38.82Z"/><path class="cls-11111111117" d="M43,83V78.55H41.73V77.08H43V75h1.68v2.11h1.57v1.47H44.69v4c0,.53.25.91.73.91a1.11,1.11,0,0,0,.76-.27l.4,1.26A2.22,2.22,0,0,1,45,85,1.78,1.78,0,0,1,43,83Z"/><path class="cls-11111111117" d="M47.57,74.76a1,1,0,1,1,1,1A1,1,0,0,1,47.57,74.76Zm.21,2.32h1.68v7.73H47.78Z"/><path class="cls-11111111117" d="M55.07,76.89c2.32,0,3.81,1.77,3.81,4.21v.4h-6a2.34,2.34,0,0,0,2.47,2.12,3.27,3.27,0,0,0,2.19-.84l.77,1.1A4.5,4.5,0,0,1,55.2,85a4.06,4.06,0,0,1-.13-8.11ZM52.9,80.31h4.35a2.07,2.07,0,0,0-2.18-2A2.13,2.13,0,0,0,52.9,80.31Z"/><path class="cls-11111111117" d="M60.64,82.58a4,4,0,0,0,2.62,1.09c1,0,1.53-.37,1.53-.94S64,81.82,63,81.61c-1.32-.29-2.91-.64-2.91-2.37,0-1.27,1.09-2.35,3-2.35a4.44,4.44,0,0,1,3,1.08l-.7,1.19a3.13,3.13,0,0,0-2.29-.93c-.88,0-1.44.32-1.44.86s.77.81,1.68,1c1.34.29,3,.68,3,2.5,0,1.36-1.13,2.4-3.22,2.4a4.72,4.72,0,0,1-3.31-1.2Z"/><path class="cls-11111111117" d="M76.93,84a3.29,3.29,0,0,1-2.5,1,2.57,2.57,0,0,1-2.69-2.56,2.49,2.49,0,0,1,2.69-2.51,3.19,3.19,0,0,1,2.5,1V79.77c0-.9-.74-1.44-1.81-1.44a3.19,3.19,0,0,0-2.29,1l-.69-1.17a4.64,4.64,0,0,1,3.25-1.24c1.71,0,3.22.72,3.22,2.8v5.12H76.93Zm0-2.1a2.27,2.27,0,0,0-1.84-.8,1.41,1.41,0,1,0,0,2.77,2.27,2.27,0,0,0,1.84-.8Z"/><path class="cls-11111111117" d="M86,80c0-1.21-.61-1.61-1.55-1.61a2.56,2.56,0,0,0-2,1v5.39H80.78V77.08h1.68v1a3.71,3.71,0,0,1,2.72-1.24,2.23,2.23,0,0,1,2.5,2.48v5.44H86Z"/><path class="cls-11111111117" d="M95.3,83.75A3.14,3.14,0,0,1,92.82,85c-2,0-3.45-1.5-3.45-4s1.44-4.06,3.45-4.06a3.09,3.09,0,0,1,2.48,1.26v-4H97V84.81H95.3Zm0-4.33a2.55,2.55,0,0,0-2-1c-1.33,0-2.18,1.08-2.18,2.58a2.27,2.27,0,0,0,2.18,2.56,2.55,2.55,0,0,0,2-1Z"/><path class="cls-11111111117" d="M103.31,74.13h7.31v1.65h-5.44v2.77h5.33V80.2h-5.33v3h5.44v1.65h-7.31Z"/><path class="cls-11111111117" d="M115.38,82l-2,2.85h-1.87l2.83-4-2.67-3.76h1.89l1.84,2.62,1.82-2.62h1.89l-2.67,3.76,2.85,4h-1.89Z"/><path class="cls-11111111117" d="M120.43,87.75V77.08h1.68v1a3.1,3.1,0,0,1,2.48-1.24c2,0,3.43,1.5,3.43,4S126.59,85,124.59,85a3.05,3.05,0,0,1-2.48-1.26v4Zm3.67-9.38a2.51,2.51,0,0,0-2,1v3a2.56,2.56,0,0,0,2,1c1.32,0,2.17-1.07,2.17-2.57A2.28,2.28,0,0,0,124.1,78.37Z"/><path class="cls-11111111117" d="M133.15,76.89c2.32,0,3.81,1.77,3.81,4.21v.4h-6a2.34,2.34,0,0,0,2.47,2.12,3.29,3.29,0,0,0,2.19-.84l.77,1.1A4.5,4.5,0,0,1,133.28,85a4.06,4.06,0,0,1-.13-8.11ZM131,80.31h4.36a2.07,2.07,0,0,0-2.18-2A2.14,2.14,0,0,0,131,80.31Z"/><path class="cls-11111111117" d="M143.84,80c0-1.21-.61-1.61-1.55-1.61a2.56,2.56,0,0,0-2,1v5.39h-1.68V77.08h1.68v1A3.69,3.69,0,0,1,143,76.89a2.23,2.23,0,0,1,2.5,2.48v5.44h-1.68Z"/><path class="cls-11111111117" d="M153.14,83.75A3.14,3.14,0,0,1,150.66,85c-2,0-3.45-1.5-3.45-4s1.44-4.06,3.45-4.06a3.09,3.09,0,0,1,2.48,1.26v-4h1.68V84.81h-1.68Zm0-4.33a2.55,2.55,0,0,0-2-1c-1.33,0-2.18,1.08-2.18,2.58a2.27,2.27,0,0,0,2.18,2.56,2.55,2.55,0,0,0,2-1Z"/><path class="cls-11111111117" d="M156.78,74.76a1,1,0,0,1,1-1,1,1,0,1,1,0,2.08A1.05,1.05,0,0,1,156.78,74.76Zm.21,2.32h1.68v7.73H157Z"/><path class="cls-11111111117" d="M161.18,83V78.55H159.9V77.08h1.28V75h1.68v2.11h1.57v1.47h-1.57v4c0,.53.26.91.74.91a1.1,1.1,0,0,0,.75-.27l.4,1.26a2.2,2.2,0,0,1-1.58.5A1.78,1.78,0,0,1,161.18,83Z"/><path class="cls-11111111117" d="M171.17,83.78A3.69,3.69,0,0,1,168.43,85,2.19,2.19,0,0,1,166,82.55V77.08h1.68v4.86c0,1.2.61,1.57,1.55,1.57a2.58,2.58,0,0,0,2-1V77.08h1.68v7.73h-1.68Z"/><path class="cls-11111111117" d="M175,77.08h1.68v1.13a3.33,3.33,0,0,1,2.51-1.31v1.67a2,2,0,0,0-.52,0,2.69,2.69,0,0,0-2,1v5.27H175Z"/><path class="cls-11111111117" d="M184,76.89c2.32,0,3.81,1.77,3.81,4.21v.4h-6a2.34,2.34,0,0,0,2.47,2.12,3.27,3.27,0,0,0,2.19-.84l.77,1.1A4.49,4.49,0,0,1,184.14,85a4.06,4.06,0,0,1-.13-8.11Zm-2.17,3.42h4.35a2.07,2.07,0,0,0-2.18-2A2.13,2.13,0,0,0,181.84,80.31Z"/><path class="cls-11111111117" d="M189.58,82.58a4,4,0,0,0,2.63,1.09c1,0,1.52-.37,1.52-.94s-.82-.91-1.76-1.12c-1.33-.29-2.92-.64-2.92-2.37,0-1.27,1.09-2.35,3-2.35a4.42,4.42,0,0,1,3,1.08l-.7,1.19a3.13,3.13,0,0,0-2.29-.93c-.88,0-1.44.32-1.44.86s.77.81,1.68,1c1.34.29,3,.68,3,2.5,0,1.36-1.13,2.4-3.21,2.4a4.72,4.72,0,0,1-3.32-1.2Z"/><line class="cls-11111111118" x1="2" y1="92.39" x2="190.77" y2="92.39"/><path class="cls-3333333333" d="M400.63,506.92a7.59,7.59,0,0,0,5.59,2.14c4.49,0,7-3.82,7-8.06v-.59A9.26,9.26,0,0,1,406,504c-5,0-9.58-3.11-9.58-9.07,0-5.46,4.37-9.62,10.75-9.62,8.49,0,12.06,6.55,12.06,14.49,0,8.44-4.75,14.45-13,14.45a12.22,12.22,0,0,1-8.24-2.9Zm6.81-16.43c-3.2,0-4.92,2.23-4.92,4.2,0,3,2.48,4.29,5.17,4.29a7.05,7.05,0,0,0,5.46-2.6C412.94,493.69,411.43,490.49,407.44,490.49Z"/><path class="cls-3333333333" d="M435.15,508h-13.4v-4.7l11.14-17.52h8.23v17h3.61V508h-3.61v5.8h-6Zm-7.56-5.25h7.56V491.08Z"/><path class="cls-3333333333" d="M450.5,485.43a4,4,0,0,1,4.09,4.09,4.07,4.07,0,1,1-4.09-4.09Zm0,1.64a2.44,2.44,0,1,0,2.18,2.45A2.21,2.21,0,0,0,450.5,487.07Zm8.87-1.39H461L450.55,502h-1.61Zm-.07,8.52a3.94,3.94,0,0,1,4.06,4.09,4.06,4.06,0,0,1-8.11,0A3.93,3.93,0,0,1,459.3,494.2Zm0,1.64a2.44,2.44,0,1,0,2.18,2.45A2.2,2.2,0,0,0,459.3,495.84Z"/><path class="cls-11111111117" d="M2.8,490.4c4.15-3.14,5.76-4.53,5.76-6.07a1.71,1.71,0,0,0-1.93-1.63A3.69,3.69,0,0,0,3.75,484l-1.09-1.23A5.09,5.09,0,0,1,6.59,481c2.07,0,3.88,1.17,3.88,3.29s-1.81,3.73-4.68,5.9h4.74v1.64H2.8Z"/><path class="cls-11111111117" d="M16.45,481c3,0,4.27,2.81,4.27,5.5s-1.28,5.53-4.27,5.53-4.27-2.84-4.27-5.53S13.46,481,16.45,481Zm0,1.66c-1.74,0-2.37,1.81-2.37,3.84s.63,3.86,2.37,3.86,2.37-1.82,2.37-3.86S18.19,482.7,16.45,482.7Z"/><path class="cls-11111111117" d="M24.45,483.63l-1.75,1.81-1.08-1.14,3.07-3.1h1.63v10.67H24.45Z"/><path class="cls-11111111117" d="M30.53,486.37a2.75,2.75,0,0,1-2.23-2.53c0-2,2-2.8,3.92-2.8s3.93.83,3.93,2.8a2.76,2.76,0,0,1-2.24,2.53,3.12,3.12,0,0,1,2.4,2.77c0,1.9-1.91,2.93-4.09,2.93s-4.09-1-4.09-2.93A3.11,3.11,0,0,1,30.53,486.37Zm1.69.85c-.67.08-2.2.57-2.2,1.68,0,.93,1,1.5,2.2,1.5s2.2-.57,2.2-1.5C34.42,487.79,32.88,487.3,32.22,487.22Zm0-4.52c-1.16,0-2,.53-2,1.43s1.38,1.39,2,1.5c.66-.11,2-.5,2-1.5S33.36,482.7,32.22,482.7Z"/><path class="cls-11111111117" d="M42.22,481.2h4a5.22,5.22,0,0,1,5.59,5.34c0,3.14-2.26,5.33-5.59,5.33h-4Zm4,9a3.52,3.52,0,0,0,3.67-3.69,3.46,3.46,0,0,0-3.67-3.69H44.1v7.38Z"/><path class="cls-11111111117" d="M57,484c2.32,0,3.81,1.78,3.81,4.21v.4h-6a2.33,2.33,0,0,0,2.46,2.13,3.28,3.28,0,0,0,2.19-.85l.77,1.11a4.52,4.52,0,0,1-3.13,1.12A4.06,4.06,0,0,1,57,484Zm-2.18,3.43h4.35A2.06,2.06,0,0,0,57,485.33,2.13,2.13,0,0,0,54.8,487.38Z"/><path class="cls-11111111117" d="M62.45,481.2h1.68v10.67H62.45Z"/><path class="cls-11111111117" d="M66.09,481.82a1.06,1.06,0,0,1,1-1,1,1,0,1,1-1,1Zm.21,2.32H68v7.73H66.3Z"/><path class="cls-11111111117" d="M69,484.14h1.79l2.26,5.8,2.25-5.8h1.81L74,491.87H72.19Z"/><path class="cls-11111111117" d="M81.65,484c2.32,0,3.81,1.78,3.81,4.21v.4h-6A2.34,2.34,0,0,0,82,490.69a3.31,3.31,0,0,0,2.2-.85l.76,1.11a4.51,4.51,0,0,1-3.13,1.12,4.06,4.06,0,0,1-.13-8.12Zm-2.18,3.43h4.36a2.07,2.07,0,0,0-2.18-2.05A2.13,2.13,0,0,0,79.47,487.38Z"/><path class="cls-11111111117" d="M87.12,484.14H88.8v1.14A3.29,3.29,0,0,1,91.31,484v1.66a2.58,2.58,0,0,0-.53-.05,2.66,2.66,0,0,0-2,1v5.26H87.12Z"/><path class="cls-11111111117" d="M93.23,493.52a1,1,0,0,0,1.1-.67l.39-.88-3.17-7.83h1.79l2.26,5.8,2.26-5.8h1.81l-3.73,9.13A2.59,2.59,0,0,1,93.28,495a5.13,5.13,0,0,1-1-.11l.26-1.51A1.78,1.78,0,0,0,93.23,493.52Z"/><path class="cls-11111111117" d="M108.61,487.89h-1.86v4h-1.87V481.2h4.69a3.24,3.24,0,0,1,3.49,3.34,3,3,0,0,1-2.53,3.14l2.61,4.19H111Zm.7-5h-2.56v3.39h2.56a1.7,1.7,0,1,0,0-3.39Z"/><path class="cls-11111111117" d="M119.28,491a3.26,3.26,0,0,1-2.5,1,2.57,2.57,0,0,1-2.69-2.57,2.49,2.49,0,0,1,2.69-2.51,3.22,3.22,0,0,1,2.5,1v-1.15c0-.89-.74-1.44-1.81-1.44a3.16,3.16,0,0,0-2.29,1l-.69-1.17a4.6,4.6,0,0,1,3.25-1.25c1.72,0,3.22.72,3.22,2.8v5.12h-1.68Zm0-2.1a2.28,2.28,0,0,0-1.84-.8,1.41,1.41,0,1,0,0,2.77,2.25,2.25,0,0,0,1.84-.8Z"/><path class="cls-11111111117" d="M123.47,490.08v-4.46h-1.28v-1.48h1.28V482h1.68v2.11h1.57v1.48h-1.57v4.05c0,.52.26.91.74.91a1.06,1.06,0,0,0,.75-.28l.4,1.27a2.2,2.2,0,0,1-1.58.5A1.79,1.79,0,0,1,123.47,490.08Z"/><path class="cls-11111111117" d="M131.68,484c2.32,0,3.81,1.78,3.81,4.21v.4h-6a2.34,2.34,0,0,0,2.46,2.13,3.31,3.31,0,0,0,2.2-.85l.76,1.11a4.51,4.51,0,0,1-3.13,1.12,4.06,4.06,0,0,1-.13-8.12Zm-2.18,3.43h4.36a2.07,2.07,0,0,0-2.18-2.05A2.13,2.13,0,0,0,129.5,487.38Z"/><line class="cls-11111111118" x1="2" y1="500.12" x2="368.54" y2="500.12"/><polygon class="cls-11111111119" points="367.75 494.2 367.75 506.05 373.67 500.13 367.75 494.2"/><line class="cls-11111111115" x1="25.5" y1="500.1" x2="25.5" y2="547.44"/><circle class="cls-11111111116" cx="25.5" cy="500.21" r="2.26"/><rect class="cls-11111111116" x="23.02" y="544.84" width="4.95" height="4.95"/><line class="cls-11111111115" x1="185.99" y1="500.1" x2="185.99" y2="549.44"/><circle class="cls-11111111116" cx="185.99" cy="500.21" r="2.26"/><rect class="cls-11111111116" x="183.51" y="546.84" width="4.95" height="4.95"/><path class="cls-7777777777" d="M38.28,513.21c3.12,0,5.19,2.4,5.19,5.53s-2.07,5.52-5.19,5.52-5.19-2.4-5.19-5.52S35.14,513.21,38.28,513.21Zm0,.83c-2.59,0-4.23,2-4.23,4.7s1.64,4.68,4.23,4.68,4.23-2,4.23-4.68S40.84,514,38.28,514Z"/><path class="cls-7777777777" d="M45.69,527V516.33h.83v1.24a3.28,3.28,0,0,1,2.69-1.43c2.06,0,3.46,1.57,3.46,4.05s-1.4,4.07-3.46,4.07a3.3,3.3,0,0,1-2.69-1.44V527Zm3.37-10.12a3.11,3.11,0,0,0-2.54,1.4v3.81a3.16,3.16,0,0,0,2.54,1.4c1.73,0,2.71-1.44,2.71-3.31S50.79,516.89,49.06,516.89Z"/><path class="cls-7777777777" d="M58.09,516.14c2.35,0,3.65,1.87,3.65,4.1v.22H55.27a3,3,0,0,0,3,3.08,3.45,3.45,0,0,0,2.55-1.08l.43.55a4,4,0,0,1-3,1.25,4.07,4.07,0,0,1-.14-8.12Zm-2.82,3.67h5.62a2.84,2.84,0,0,0-2.82-2.95A2.91,2.91,0,0,0,55.27,519.81Z"/><path class="cls-7777777777" d="M69.1,518.85c0-1.51-.76-2-1.88-2a3.39,3.39,0,0,0-2.51,1.33v5.85h-.83v-7.74h.83v1.17a3.94,3.94,0,0,1,2.79-1.36c1.56,0,2.43.77,2.43,2.52v5.41H69.1Z"/><path class="cls-7777777777" d="M72.29,514.38a.66.66,0,0,1,.64-.64.64.64,0,0,1,0,1.28A.66.66,0,0,1,72.29,514.38Zm.23,2h.83v7.74h-.83Z"/><path class="cls-7777777777" d="M81.16,518.85c0-1.51-.75-2-1.87-2a3.4,3.4,0,0,0-2.52,1.33v5.85h-.83v-7.74h.83v1.17a3.94,3.94,0,0,1,2.79-1.36c1.57,0,2.43.77,2.43,2.52v5.41h-.83Z"/><path class="cls-7777777777" d="M85.08,525.39a2.94,2.94,0,0,0,2.56,1.09A2.36,2.36,0,0,0,90.28,524v-1.21a3.36,3.36,0,0,1-2.69,1.44c-2,0-3.46-1.56-3.46-4s1.41-4.05,3.46-4.05a3.3,3.3,0,0,1,2.69,1.44v-1.25h.85V524c0,2.36-1.6,3.21-3.49,3.21a3.7,3.7,0,0,1-3-1.17Zm5.2-7.09a3.11,3.11,0,0,0-2.54-1.41c-1.72,0-2.71,1.43-2.71,3.3s1,3.28,2.71,3.28a3.09,3.09,0,0,0,2.54-1.41Z"/><path class="cls-7777777777" d="M33.49,530.39h4.39a2.65,2.65,0,0,1,2.95,2.72A2.43,2.43,0,0,1,39,535.56,2.69,2.69,0,0,1,41,538.18,2.76,2.76,0,0,1,38,541.07H33.49Zm4.28,4.78a1.9,1.9,0,0,0,2.1-2,1.93,1.93,0,0,0-2.1-2H34.41v3.95Zm.06,5.06a2,2,0,0,0,2.24-2.11A2.07,2.07,0,0,0,37.83,536H34.41v4.22Z"/><path class="cls-7777777777" d="M48.5,539.93a3.93,3.93,0,0,1-2.78,1.33c-1.59,0-2.43-.74-2.43-2.48v-5.45h.83v5.25c0,1.51.75,1.92,1.87,1.92a3.33,3.33,0,0,0,2.51-1.28v-5.89h.84v7.74H48.5Z"/><path class="cls-7777777777" d="M57.62,539.83a3.28,3.28,0,0,1-2.68,1.43c-2,0-3.46-1.57-3.46-4s1.41-4.07,3.46-4.07a3.29,3.29,0,0,1,2.68,1.44v-4.19h.85v10.68h-.85Zm0-4.53a3.07,3.07,0,0,0-2.54-1.41c-1.71,0-2.7,1.44-2.7,3.32s1,3.29,2.7,3.29a3.06,3.06,0,0,0,2.54-1.37Z"/><path class="cls-7777777777" d="M61.56,542.39a2.94,2.94,0,0,0,2.56,1.09A2.36,2.36,0,0,0,66.76,541v-1.21a3.36,3.36,0,0,1-2.69,1.44c-2,0-3.46-1.56-3.46-4s1.41-4.05,3.46-4.05a3.3,3.3,0,0,1,2.69,1.44v-1.25h.85V541c0,2.36-1.6,3.21-3.49,3.21a3.7,3.7,0,0,1-3-1.17Zm5.2-7.09a3.11,3.11,0,0,0-2.54-1.41c-1.72,0-2.71,1.43-2.71,3.3s1,3.28,2.71,3.28a3.09,3.09,0,0,0,2.54-1.41Z"/><path class="cls-7777777777" d="M73.46,533.14c2.36,0,3.65,1.87,3.65,4.1v.22H70.65a3,3,0,0,0,3,3.08,3.41,3.41,0,0,0,2.54-1.08l.43.55a4,4,0,0,1-3,1.25,4.07,4.07,0,0,1-.15-8.12Zm-2.81,3.67h5.61a2.83,2.83,0,0,0-2.81-2.95A2.9,2.9,0,0,0,70.65,536.81Z"/><path class="cls-7777777777" d="M79.41,539.58v-5.49H78.13v-.76h1.28v-2.11h.85v2.11h1.57v.76H80.26v5.36c0,.62.26,1,.8,1a1.23,1.23,0,0,0,.87-.36l.32.64a1.76,1.76,0,0,1-1.32.48C79.91,541.26,79.41,540.63,79.41,539.58Z"/><path class="cls-7777777777" d="M35.41,554.83v.84h-.74v-.83a3.25,3.25,0,0,1-2.18-1l.61-.84a2.71,2.71,0,0,0,1.57.83v-1.8c-1-.24-2-.59-2-1.81a1.93,1.93,0,0,1,2-1.81v-.85h.74v.87a3.12,3.12,0,0,1,1.87.84l-.62.81a2.44,2.44,0,0,0-1.25-.65v1.6c1,.27,2,.63,2,1.88C37.42,553.88,36.81,554.7,35.41,554.83Zm-.74-4V549.4c-.54.06-.86.35-.86.77S34.17,550.72,34.67,550.86ZM36.31,553c0-.43-.38-.62-.9-.78v1.6C36.05,553.76,36.31,553.39,36.31,553Z"/><path class="cls-7777777777" d="M40.88,549.82l-1.74,1.81-1.09-1.14,3.07-3.1h1.64v10.68H40.88Z"/><path class="cls-7777777777" d="M47,549.82l-1.74,1.81-1.09-1.14,3.07-3.1h1.64v10.68H47Z"/><path class="cls-7777777777" d="M50.88,559.57a2.66,2.66,0,0,0,1.15-1.5,1.3,1.3,0,0,1-.27,0,1,1,0,0,1-1-1A1.11,1.11,0,0,1,51.89,556a1.31,1.31,0,0,1,1.25,1.46,3.42,3.42,0,0,1-1.51,2.73Z"/><path class="cls-7777777777" d="M55.86,555.33a3.7,3.7,0,0,0,2.88,1.26,2,2,0,0,0,2.19-1.87,1.9,1.9,0,0,0-2.14-1.9,3.2,3.2,0,0,0-2.34.92l-1.33-.38v-6h7V549H57v3.09a3.52,3.52,0,0,1,2.42-.93,3.31,3.31,0,0,1,3.41,3.44c0,2.23-1.68,3.62-4.07,3.62a4.87,4.87,0,0,1-4-1.65Z"/><path class="cls-7777777777" d="M68.85,547.23a4.28,4.28,0,0,1,3.07,1.18L71,549.84a2.74,2.74,0,0,0-2.19-1c-1.78,0-2.82,1.65-2.82,3.53a1.46,1.46,0,0,0,0,.3,3.64,3.64,0,0,1,2.87-1.49,3.32,3.32,0,0,1,3.57,3.44,3.65,3.65,0,0,1-3.94,3.59c-3.14,0-4.4-2.55-4.4-5.51S65.76,547.23,68.85,547.23Zm-.45,5.6a2.91,2.91,0,0,0-2.33,1.27,2.43,2.43,0,0,0,2.38,2.49,2,2,0,0,0,2.15-1.85C70.6,553.42,69.57,552.83,68.4,552.83Z"/><path class="cls-7777777777" d="M74.5,555.3a4,4,0,0,0,3,1.29c1.41,0,2.22-.64,2.22-1.63s-.85-1.5-2.37-1.5H76.08v-1.68c.19,0,.82,0,1.23,0,1.25,0,2.2-.43,2.2-1.41s-1-1.51-2.16-1.51a3.77,3.77,0,0,0-2.76,1.19l-1-1.17a5,5,0,0,1,3.89-1.68c2.31,0,3.86,1.09,3.86,2.88a2.61,2.61,0,0,1-2.32,2.45,2.68,2.68,0,0,1,2.48,2.59c0,1.81-1.55,3.11-4,3.11a5,5,0,0,1-4-1.73Z"/><path class="cls-7777777777" d="M83.2,559.57a2.66,2.66,0,0,0,1.15-1.5,1.3,1.3,0,0,1-.27,0,1,1,0,0,1-1-1A1.11,1.11,0,0,1,84.21,556a1.31,1.31,0,0,1,1.25,1.46A3.42,3.42,0,0,1,84,560.19Z"/><path class="cls-7777777777" d="M87.6,555.3a4,4,0,0,0,3,1.29c1.41,0,2.23-.64,2.23-1.63s-.85-1.5-2.37-1.5H89.19v-1.68c.19,0,.81,0,1.23,0,1.25,0,2.19-.43,2.19-1.41s-1-1.51-2.16-1.51a3.75,3.75,0,0,0-2.75,1.19l-1-1.17a4.93,4.93,0,0,1,3.89-1.68c2.3,0,3.85,1.09,3.85,2.88a2.6,2.6,0,0,1-2.32,2.45,2.68,2.68,0,0,1,2.48,2.59c0,1.81-1.55,3.11-4,3.11a5,5,0,0,1-4-1.73Z"/><path class="cls-7777777777" d="M100.32,547.23c3,0,4.28,2.82,4.28,5.51s-1.28,5.52-4.28,5.52-4.27-2.84-4.27-5.52S97.33,547.23,100.32,547.23Zm0,1.66c-1.74,0-2.37,1.81-2.37,3.85s.63,3.85,2.37,3.85,2.37-1.82,2.37-3.85S102.07,548.89,100.32,548.89Z"/><path class="cls-7777777777" d="M106.64,555.3a4,4,0,0,0,3,1.29c1.41,0,2.23-.64,2.23-1.63s-.85-1.5-2.37-1.5h-1.23v-1.68c.19,0,.81,0,1.23,0,1.25,0,2.19-.43,2.19-1.41s-1-1.51-2.16-1.51a3.73,3.73,0,0,0-2.75,1.19l-1-1.17a4.93,4.93,0,0,1,3.89-1.68c2.3,0,3.85,1.09,3.85,2.88a2.6,2.6,0,0,1-2.32,2.45,2.68,2.68,0,0,1,2.48,2.59c0,1.81-1.55,3.11-4,3.11a5,5,0,0,1-4-1.73Z"/><path class="cls-7777777777" d="M197.71,514.22h-3.49v-.83h7.9v.83h-3.49v9.85h-.92Z"/><path class="cls-7777777777" d="M201.56,520.19a3.74,3.74,0,1,1,3.71,4.07A3.75,3.75,0,0,1,201.56,520.19Zm6.55,0c0-1.71-1-3.3-2.84-3.3s-2.81,1.59-2.81,3.3,1,3.31,2.81,3.31S208.11,521.92,208.11,520.19Z"/><path class="cls-7777777777" d="M211.3,522.58v-5.49H210v-.76h1.28v-2.11h.85v2.11h1.57v.76h-1.57v5.36c0,.62.26,1,.8,1a1.23,1.23,0,0,0,.87-.36l.32.64a1.75,1.75,0,0,1-1.31.48C211.8,524.26,211.3,523.63,211.3,522.58Z"/><path class="cls-7777777777" d="M220.46,523.15a3.35,3.35,0,0,1-2.63,1.11,2.59,2.59,0,0,1-2.7-2.58,2.54,2.54,0,0,1,2.7-2.54,3.36,3.36,0,0,1,2.63,1.08v-1.56a1.85,1.85,0,0,0-2.08-1.78A3,3,0,0,0,216,518l-.46-.55a3.67,3.67,0,0,1,3-1.32c1.58,0,2.83.75,2.83,2.48v5.45h-.83Zm0-2.3a2.9,2.9,0,0,0-2.34-1.07,1.92,1.92,0,1,0,0,3.82,2.89,2.89,0,0,0,2.34-1.06Z"/><path class="cls-7777777777" d="M223.88,513.39h.83v10.68h-.83Z"/><path class="cls-7777777777" d="M231.48,513.39h6.77v.83h-5.86v3.95h5.75V519h-5.75v4.22h5.86v.84h-6.77Z"/><path class="cls-7777777777" d="M243,520.66l-2.58,3.41h-1l3.05-4-2.88-3.77h1l2.4,3.19,2.38-3.19h1l-2.88,3.77,3.06,4h-1Z"/><path class="cls-7777777777" d="M248.14,527V516.33H249v1.24a3.28,3.28,0,0,1,2.69-1.43c2.06,0,3.45,1.57,3.45,4.05s-1.39,4.07-3.45,4.07a3.3,3.3,0,0,1-2.69-1.44V527Zm3.37-10.12a3.11,3.11,0,0,0-2.54,1.4v3.81a3.16,3.16,0,0,0,2.54,1.4c1.73,0,2.71-1.44,2.71-3.31S253.24,516.89,251.51,516.89Z"/><path class="cls-7777777777" d="M260.54,516.14c2.35,0,3.65,1.87,3.65,4.1v.22h-6.47a3,3,0,0,0,3,3.08,3.41,3.41,0,0,0,2.54-1.08l.44.55a4,4,0,0,1-3,1.25,4.07,4.07,0,0,1-.14-8.12Zm-2.82,3.67h5.62a2.84,2.84,0,0,0-2.82-2.95A2.91,2.91,0,0,0,257.72,519.81Z"/><path class="cls-7777777777" d="M271.54,518.85c0-1.51-.75-2-1.87-2a3.39,3.39,0,0,0-2.51,1.33v5.85h-.83v-7.74h.83v1.17a3.92,3.92,0,0,1,2.78-1.36c1.57,0,2.44.77,2.44,2.52v5.41h-.84Z"/><path class="cls-7777777777" d="M280.67,522.83a3.31,3.31,0,0,1-2.69,1.43c-2.05,0-3.46-1.57-3.46-4s1.41-4.07,3.46-4.07a3.33,3.33,0,0,1,2.69,1.44v-4.19h.84v10.68h-.84Zm0-4.53a3.1,3.1,0,0,0-2.55-1.41c-1.71,0-2.7,1.44-2.7,3.32s1,3.29,2.7,3.29a3.1,3.1,0,0,0,2.55-1.37Z"/><path class="cls-7777777777" d="M283.88,514.38a.65.65,0,0,1,.64-.64.64.64,0,0,1,0,1.28A.65.65,0,0,1,283.88,514.38Zm.22,2h.83v7.74h-.83Z"/><path class="cls-7777777777" d="M287.69,522.58v-5.49h-1.28v-.76h1.28v-2.11h.84v2.11h1.57v.76h-1.57v5.36c0,.62.26,1,.8,1a1.23,1.23,0,0,0,.87-.36l.32.64a1.73,1.73,0,0,1-1.31.48C288.18,524.26,287.69,523.63,287.69,522.58Z"/><path class="cls-7777777777" d="M297.14,522.93a3.93,3.93,0,0,1-2.78,1.33c-1.59,0-2.43-.74-2.43-2.48v-5.45h.83v5.25c0,1.51.75,1.92,1.87,1.92a3.33,3.33,0,0,0,2.51-1.28v-5.89H298v7.74h-.84Z"/><path class="cls-7777777777" d="M300.57,516.33h.83v1.33a3.32,3.32,0,0,1,2.61-1.49v.92a2.85,2.85,0,0,0-.42,0,3,3,0,0,0-2.19,1.38v5.64h-.83Z"/><path class="cls-7777777777" d="M308.92,516.14c2.35,0,3.65,1.87,3.65,4.1v.22H306.1a3,3,0,0,0,3,3.08,3.45,3.45,0,0,0,2.55-1.08l.43.55a4,4,0,0,1-3,1.25,4.07,4.07,0,0,1-.14-8.12Zm-2.82,3.67h5.62a2.84,2.84,0,0,0-2.82-2.95A2.92,2.92,0,0,0,306.1,519.81Z"/><path class="cls-7777777777" d="M314.53,522.42a3.22,3.22,0,0,0,2.5,1.13c1.3,0,2.07-.64,2.07-1.53s-1.06-1.28-2.18-1.57c-1.28-.32-2.71-.66-2.71-2.16,0-1.19,1-2.15,2.76-2.15a3.52,3.52,0,0,1,2.77,1.15l-.47.58a2.81,2.81,0,0,0-2.3-1c-1.2,0-1.94.59-1.94,1.39s1,1.12,2.06,1.39c1.33.34,2.82.71,2.82,2.35,0,1.25-1,2.28-2.9,2.28a3.74,3.74,0,0,1-3-1.22Z"/><path class="cls-7777777777" d="M333.27,524.07c-.37-.32-.85-.79-1.34-1.28a4.08,4.08,0,0,1-3.14,1.47c-1.78,0-3.23-1-3.23-2.92,0-1.69,1.15-2.56,2.38-3.25a4.94,4.94,0,0,1-.86-2.43,2.43,2.43,0,0,1,2.53-2.43,2,2,0,0,1,2.25,2c0,1.59-1.39,2.29-2.75,3,.47.65,1,1.26,1.36,1.69s1,1.08,1.43,1.56a10.16,10.16,0,0,0,1.21-2.6l.77.32a14.45,14.45,0,0,1-1.41,2.85c.63.63,1.28,1.25,2.07,2Zm-1.89-1.85c-.65-.67-1.28-1.32-1.6-1.69-.48-.56-1-1.19-1.44-1.83a3,3,0,0,0-1.85,2.6,2.2,2.2,0,0,0,2.36,2.22A3.36,3.36,0,0,0,331.38,522.22Zm-2.67-4.52c1.22-.63,2.32-1.22,2.32-2.42a1.29,1.29,0,0,0-1.39-1.35,1.68,1.68,0,0,0-1.67,1.75A4.21,4.21,0,0,0,328.71,517.7Z"/><path class="cls-7777777777" d="M195,530.39h4a3.12,3.12,0,1,1,0,6.24H195.9v4.44H195Zm3.91.83h-3v4.58h3a2.29,2.29,0,1,0,0-4.58Z"/><path class="cls-7777777777" d="M203.86,531.38a.66.66,0,0,1,.64-.64.64.64,0,0,1,0,1.28A.66.66,0,0,1,203.86,531.38Zm.23,2h.83v7.74h-.83Z"/><path class="cls-7777777777" d="M207.51,544V533.33h.83v1.24a3.31,3.31,0,0,1,2.69-1.43c2.07,0,3.46,1.57,3.46,4.05s-1.39,4.07-3.46,4.07a3.31,3.31,0,0,1-2.69-1.44V544Zm3.38-10.12a3.12,3.12,0,0,0-2.55,1.4v3.81a3.18,3.18,0,0,0,2.55,1.4c1.73,0,2.7-1.44,2.7-3.31S212.62,533.89,210.89,533.89Z"/><path class="cls-7777777777" d="M219.91,533.14c2.36,0,3.65,1.87,3.65,4.1v.22H217.1a3,3,0,0,0,3,3.08,3.41,3.41,0,0,0,2.55-1.08l.43.55a4,4,0,0,1-3,1.25,4.07,4.07,0,0,1-.15-8.12Zm-2.81,3.67h5.61a2.83,2.83,0,0,0-2.81-2.95A2.9,2.9,0,0,0,217.1,536.81Z"/><path class="cls-7777777777" d="M225.7,530.39h.84v10.68h-.84Z"/><path class="cls-7777777777" d="M228.9,531.38a.66.66,0,0,1,.64-.64.64.64,0,1,1,0,1.28A.66.66,0,0,1,228.9,531.38Zm.23,2H230v7.74h-.83Z"/><path class="cls-7777777777" d="M237.77,535.85c0-1.51-.75-2-1.87-2a3.4,3.4,0,0,0-2.52,1.33v5.85h-.83v-7.74h.83v1.17a3.94,3.94,0,0,1,2.79-1.36c1.57,0,2.43.77,2.43,2.52v5.41h-.83Z"/><path class="cls-7777777777" d="M244.47,533.14c2.36,0,3.65,1.87,3.65,4.1v.22h-6.46a3,3,0,0,0,3,3.08,3.41,3.41,0,0,0,2.55-1.08l.43.55a4,4,0,0,1-3,1.25,4.07,4.07,0,0,1-.15-8.12Zm-2.81,3.67h5.61a2.83,2.83,0,0,0-2.81-2.95A2.9,2.9,0,0,0,241.66,536.81Z"/><path class="cls-7777777777" d="M261.13,538.44h-5.68l-1.07,2.63h-1l4.37-10.68h1.14l4.37,10.68h-1Zm-5.39-.83h5.1l-2.56-6.32Z"/><path class="cls-7777777777" d="M264.76,530.39h.83v10.68h-.83Z"/><path class="cls-7777777777" d="M268.18,530.39H269v10.68h-.83Z"/><path class="cls-7777777777" d="M271.16,537.19a3.74,3.74,0,1,1,3.71,4.07A3.75,3.75,0,0,1,271.16,537.19Zm6.54,0c0-1.71-1-3.3-2.83-3.3s-2.82,1.59-2.82,3.3,1,3.31,2.82,3.31S277.7,538.92,277.7,537.19Z"/><path class="cls-7777777777" d="M284.06,533.14a3.19,3.19,0,0,1,2.73,1.32l-.57.51a2.48,2.48,0,0,0-2.12-1.08c-1.81,0-2.91,1.44-2.91,3.3s1.1,3.31,2.91,3.31a2.48,2.48,0,0,0,2.12-1.08l.57.51a3.18,3.18,0,0,1-2.73,1.33,4.07,4.07,0,0,1,0-8.12Z"/><path class="cls-7777777777" d="M293.56,540.15a3.35,3.35,0,0,1-2.63,1.11,2.59,2.59,0,0,1-2.7-2.58,2.54,2.54,0,0,1,2.7-2.54,3.36,3.36,0,0,1,2.63,1.08v-1.56a1.85,1.85,0,0,0-2.08-1.78,3,3,0,0,0-2.42,1.13l-.46-.55a3.67,3.67,0,0,1,3-1.32c1.58,0,2.83.75,2.83,2.48v5.45h-.83Zm0-2.3a2.9,2.9,0,0,0-2.34-1.07,1.92,1.92,0,1,0,0,3.82,2.89,2.89,0,0,0,2.34-1.06Z"/><path class="cls-7777777777" d="M297.14,539.58v-5.49h-1.28v-.76h1.28v-2.11H298v2.11h1.57v.76H298v5.36c0,.62.26,1,.8,1a1.19,1.19,0,0,0,.86-.36l.32.64a1.72,1.72,0,0,1-1.31.48C297.64,541.26,297.14,540.63,297.14,539.58Z"/><path class="cls-7777777777" d="M301.16,531.38a.65.65,0,0,1,.64-.64.64.64,0,0,1,0,1.28A.65.65,0,0,1,301.16,531.38Zm.22,2h.83v7.74h-.83Z"/><path class="cls-7777777777" d="M304.36,537.19a3.74,3.74,0,1,1,3.71,4.07A3.75,3.75,0,0,1,304.36,537.19Zm6.54,0c0-1.71-1-3.3-2.83-3.3s-2.82,1.59-2.82,3.3,1,3.31,2.82,3.31S310.9,538.92,310.9,537.19Z"/><path class="cls-7777777777" d="M319.16,535.85c0-1.51-.75-2-1.87-2a3.4,3.4,0,0,0-2.52,1.33v5.85h-.83v-7.74h.83v1.17a3.94,3.94,0,0,1,2.79-1.36c1.57,0,2.43.77,2.43,2.52v5.41h-.83Z"/><path class="cls-7777777777" d="M322.4,539.42a3.22,3.22,0,0,0,2.5,1.13c1.3,0,2.07-.64,2.07-1.53s-1.06-1.28-2.18-1.57c-1.28-.32-2.71-.66-2.71-2.16,0-1.19,1-2.15,2.76-2.15a3.51,3.51,0,0,1,2.77,1.15l-.47.58a2.81,2.81,0,0,0-2.3-1c-1.2,0-1.94.59-1.94,1.39s1,1.12,2.07,1.39c1.32.34,2.81.71,2.81,2.35,0,1.25-1,2.28-2.89,2.28a3.75,3.75,0,0,1-3-1.22Z"/><path class="cls-7777777777" d="M196.9,554.83v.84h-.75v-.83a3.23,3.23,0,0,1-2.17-1l.61-.84a2.71,2.71,0,0,0,1.56.83v-1.8c-1-.24-2-.59-2-1.81a1.93,1.93,0,0,1,2-1.81v-.85h.75v.87a3.12,3.12,0,0,1,1.87.84l-.62.81a2.44,2.44,0,0,0-1.25-.65v1.6c1,.27,2,.63,2,1.88C198.91,553.88,198.3,554.7,196.9,554.83Zm-.75-4V549.4c-.53.06-.85.35-.85.77S195.66,550.72,196.15,550.86ZM197.8,553c0-.43-.38-.62-.9-.78v1.6C197.54,553.76,197.8,553.39,197.8,553Z"/><path class="cls-7777777777" d="M202.37,549.82l-1.74,1.81-1.09-1.14,3.07-3.1h1.64v10.68h-1.88Z"/><path class="cls-7777777777" d="M210.31,547.23c3,0,4.27,2.82,4.27,5.51s-1.28,5.52-4.27,5.52-4.27-2.84-4.27-5.52S207.32,547.23,210.31,547.23Zm0,1.66c-1.75,0-2.37,1.81-2.37,3.85s.62,3.85,2.37,3.85,2.37-1.82,2.37-3.85S212.05,548.89,210.31,548.89Z"/><path class="cls-7777777777" d="M215.75,559.57a2.66,2.66,0,0,0,1.15-1.5,1.56,1.56,0,0,1-.27,0,1,1,0,0,1-1-1,1.1,1.1,0,0,1,1.09-1.11,1.31,1.31,0,0,1,1.24,1.46,3.41,3.41,0,0,1-1.5,2.73Z"/><path class="cls-7777777777" d="M221.83,552.56A2.75,2.75,0,0,1,219.6,550c0-2,2-2.8,3.92-2.8s3.93.83,3.93,2.8a2.76,2.76,0,0,1-2.24,2.53,3.12,3.12,0,0,1,2.4,2.77c0,1.9-1.91,2.93-4.09,2.93s-4.09-1-4.09-2.93A3.11,3.11,0,0,1,221.83,552.56Zm1.69.85c-.67.08-2.2.57-2.2,1.68,0,.93,1,1.5,2.2,1.5s2.2-.57,2.2-1.5C225.72,554,224.18,553.49,223.52,553.41Zm0-4.52c-1.16,0-2,.53-2,1.43s1.38,1.39,2,1.5c.66-.11,2-.49,2-1.5S224.66,548.89,223.52,548.89Z"/><path class="cls-7777777777" d="M230.24,555.33a3.7,3.7,0,0,0,2.88,1.26,2,2,0,0,0,2.2-1.87,1.9,1.9,0,0,0-2.15-1.9,3.23,3.23,0,0,0-2.34.92l-1.32-.38v-6h7V549h-5.12v3.09a3.48,3.48,0,0,1,2.42-.93,3.31,3.31,0,0,1,3.41,3.44c0,2.23-1.68,3.62-4.07,3.62a4.9,4.9,0,0,1-4-1.65Z"/><path class="cls-7777777777" d="M243.84,549h-5.53v-1.65H246v1.3l-4.14,9.38h-2.05Z"/><path class="cls-7777777777" d="M245.78,559.57a2.66,2.66,0,0,0,1.15-1.5,1.56,1.56,0,0,1-.27,0,1,1,0,0,1-1-1,1.1,1.1,0,0,1,1.09-1.11,1.32,1.32,0,0,1,1.25,1.46,3.42,3.42,0,0,1-1.51,2.73Z"/><path class="cls-7777777777" d="M250.82,549.82l-1.75,1.81L248,550.49l3.07-3.1h1.63v10.68h-1.87Z"/><path class="cls-7777777777" d="M255.79,555.33a3.73,3.73,0,0,0,2.89,1.26,2,2,0,0,0,2.19-1.87,1.9,1.9,0,0,0-2.15-1.9,3.19,3.19,0,0,0-2.33.92l-1.33-.38v-6h7V549h-5.12v3.09a3.48,3.48,0,0,1,2.42-.93,3.31,3.31,0,0,1,3.41,3.44c0,2.23-1.68,3.62-4.07,3.62a4.9,4.9,0,0,1-4-1.65Z"/><path class="cls-7777777777" d="M264.82,555.3a4,4,0,0,0,3,1.29c1.41,0,2.22-.64,2.22-1.63s-.84-1.5-2.36-1.5H266.4v-1.68c.19,0,.82,0,1.24,0,1.24,0,2.19-.43,2.19-1.41s-1-1.51-2.16-1.51a3.77,3.77,0,0,0-2.76,1.19l-1-1.17a5,5,0,0,1,3.89-1.68c2.31,0,3.86,1.09,3.86,2.88a2.61,2.61,0,0,1-2.32,2.45,2.68,2.68,0,0,1,2.48,2.59c0,1.81-1.55,3.11-4,3.11a5,5,0,0,1-4-1.73Z"/><path class="cls-22222222220" d="M470.15,484a43.72,43.72,0,0,1,3.27,16.86"/><path class="cls-22222222221" d="M473.42,500.88a45,45,0,1,1-45-45c18.89,0,34.65,10.63,41.73,28.14"/><path class="cls-7777777777" d="M7.18,100H3.69v-.84H11.6V100H8.11v9.84H7.18Z"/><path class="cls-7777777777" d="M17.8,99c3.12,0,5.19,2.4,5.19,5.52S20.92,110,17.8,110s-5.18-2.4-5.18-5.52S14.67,99,17.8,99Zm0,.83c-2.59,0-4.22,2-4.22,4.69s1.63,4.69,4.22,4.69,4.23-2,4.23-4.69S20.37,99.8,17.8,99.8Z"/><path class="cls-7777777777" d="M27.5,100H24v-.84h7.91V100H28.43v9.84H27.5Z"/><path class="cls-7777777777" d="M39.39,107.2H33.71l-1.08,2.62h-1L36,99.14h1.14l4.37,10.68h-1ZM34,106.36h5.1L36.54,100Z"/><path class="cls-7777777777" d="M43.05,99.14H44V109h5.17v.83H43.05Z"/><path class="cls-7777777777" d="M61.55,110v1.44H60.27V110a5.58,5.58,0,0,1-3.73-1.68l1-1.44a4.76,4.76,0,0,0,2.69,1.42v-3.09c-1.65-.42-3.4-1-3.4-3.1,0-1.64,1.33-2.93,3.4-3.11V97.53h1.28V99a5.25,5.25,0,0,1,3.21,1.44l-1.07,1.4a4,4,0,0,0-2.14-1.12v2.75c1.66.45,3.45,1.07,3.45,3.22C65,108.35,64,109.76,61.55,110Zm-1.28-6.82v-2.49c-.92.09-1.48.59-1.48,1.31S59.42,102.92,60.27,103.16Zm2.83,3.73c0-.73-.66-1.07-1.55-1.34v2.75C62.65,108.14,63.1,107.5,63.1,106.89Z"/><path class="cls-7777777777" d="M67.63,107.08a3.67,3.67,0,0,0,2.88,1.27,2,2,0,0,0,2.19-1.87,1.9,1.9,0,0,0-2.14-1.91,3.2,3.2,0,0,0-2.34.93l-1.33-.39v-6h7v1.65H68.76v3.09a3.5,3.5,0,0,1,2.42-.93,3.32,3.32,0,0,1,3.41,3.45c0,2.22-1.68,3.61-4.07,3.61a4.87,4.87,0,0,1-4-1.65Z"/><path class="cls-7777777777" d="M76.17,111.33a2.71,2.71,0,0,0,1.15-1.51.87.87,0,0,1-.27.05,1,1,0,0,1-1-1,1.09,1.09,0,0,1,1.09-1.1,1.31,1.31,0,0,1,1.25,1.45A3.43,3.43,0,0,1,76.92,112Z"/><path class="cls-7777777777" d="M80.81,101.58l-1.74,1.81L78,102.25l3.07-3.11h1.63v10.68H80.81Z"/><path class="cls-7777777777" d="M88.75,99c3,0,4.27,2.82,4.27,5.51S91.74,110,88.75,110s-4.28-2.83-4.28-5.52S85.75,99,88.75,99Zm0,1.67c-1.75,0-2.37,1.81-2.37,3.84s.62,3.86,2.37,3.86,2.37-1.83,2.37-3.86S90.49,100.65,88.75,100.65Z"/><path class="cls-7777777777" d="M95.07,107.05a4,4,0,0,0,3,1.3c1.41,0,2.22-.64,2.22-1.63s-.85-1.51-2.37-1.51c-.45,0-1.07,0-1.23,0v-1.68h1.23c1.25,0,2.2-.43,2.2-1.41s-1-1.5-2.16-1.5a3.76,3.76,0,0,0-2.76,1.18l-1-1.16A4.92,4.92,0,0,1,98.09,99c2.31,0,3.86,1.09,3.86,2.89a2.6,2.6,0,0,1-2.32,2.44,2.69,2.69,0,0,1,2.48,2.6c0,1.81-1.55,3.1-4,3.1a5,5,0,0,1-4-1.73Z"/><path class="cls-7777777777" d="M103.77,111.33a2.71,2.71,0,0,0,1.15-1.51.87.87,0,0,1-.27.05,1,1,0,0,1-1-1,1.09,1.09,0,0,1,1.09-1.1,1.31,1.31,0,0,1,1.25,1.45,3.43,3.43,0,0,1-1.51,2.74Z"/><path class="cls-7777777777" d="M112.14,99a4.24,4.24,0,0,1,3.07,1.19l-.88,1.42a2.74,2.74,0,0,0-2.19-.94c-1.78,0-2.82,1.65-2.82,3.52a1.56,1.56,0,0,0,0,.31A3.61,3.61,0,0,1,112.2,103a3.31,3.31,0,0,1,3.57,3.44,3.64,3.64,0,0,1-3.94,3.58c-3.13,0-4.4-2.54-4.4-5.5S109.05,99,112.14,99Zm-.45,5.61a2.93,2.93,0,0,0-2.34,1.26,2.45,2.45,0,0,0,2.39,2.5,2,2,0,0,0,2.14-1.86C113.88,105.18,112.86,104.59,111.69,104.59Z"/><path class="cls-7777777777" d="M122.36,100.79h-5.54V99.14h7.7v1.3l-4.14,9.38h-2Z"/><path class="cls-7777777777" d="M130.44,107.4h-5.09v-1.5l4.39-6.76h2.57v6.62h1.43v1.64h-1.43v2.42h-1.87Zm-3.25-1.64h3.25v-4.94Z"/><path class="cls-7777777777" d="M134.63,107.39A8,8,0,0,1,136,103l.31.22a8.83,8.83,0,0,0,0,8.39l-.31.23A8,8,0,0,1,134.63,107.39Z"/><path class="cls-7777777777" d="M137.28,103.15h.58v4.1a2,2,0,1,0,4,0v-4.1h.58v4.11a2.6,2.6,0,1,1-5.2,0Z"/><path class="cls-7777777777" d="M144.14,108.45a2.72,2.72,0,0,0,2.08,1c1.37,0,1.76-.76,1.76-1.33,0-.94-.9-1.2-1.83-1.45s-2.17-.59-2.17-1.82,1-1.78,2.19-1.78a2.88,2.88,0,0,1,2.26.94l-.38.42a2.39,2.39,0,0,0-1.91-.84c-.89,0-1.56.51-1.56,1.23s.83,1,1.74,1.27c1.07.3,2.26.64,2.26,2,0,.85-.57,1.88-2.37,1.88a3.07,3.07,0,0,1-2.44-1.06Z"/><path class="cls-7777777777" d="M150,103.15h2.13a3.34,3.34,0,1,1,0,6.67H150Zm2.13,6.15a2.82,2.82,0,0,0,0-5.63h-1.56v5.63Z"/><path class="cls-7777777777" d="M156.21,103.19l.31-.22a8,8,0,0,1,0,8.84l-.31-.23a8.83,8.83,0,0,0,0-8.39Z"/></g></svg>